<svg width="30" height="31" viewBox="0 0 30 31" fill="none" xmlns="http://www.w3.org/2000/svg">
<circle cx="15" cy="15.1429" r="15" fill="#E23A39"/>
<g clip-path="url(#clip0_1635_11034)">
<path d="M22.2771 18.2868C21.1789 18.2868 20.1164 18.1082 19.1253 17.7868C18.8128 17.6796 18.4646 17.76 18.2235 18.001L16.8217 19.76C14.295 18.5546 11.9289 16.2778 10.67 13.6618L12.411 12.1796C12.6521 11.9296 12.7235 11.5814 12.6253 11.2689C12.295 10.2778 12.1253 9.21533 12.1253 8.11711C12.1253 7.63497 11.7235 7.23318 11.2414 7.23318H8.1521C7.66996 7.23318 7.0896 7.44747 7.0896 8.11711C7.0896 16.4118 13.9914 23.3046 22.2771 23.3046C22.911 23.3046 23.161 22.7421 23.161 22.251V19.1707C23.161 18.6885 22.7592 18.2868 22.2771 18.2868Z" fill="white"/>
</g>
<defs>
<clipPath id="clip0_1635_11034">
<rect width="21.4286" height="21.4286" fill="white" transform="translate(4.41101 4.55463)"/>
</clipPath>
</defs>
</svg>
