<svg width="176" height="176" viewBox="0 0 176 176" fill="none" xmlns="http://www.w3.org/2000/svg">
<path d="M162.49 137.511C162.605 138.484 161.932 138.47 161.402 138.584C157.492 139.357 153.567 140.13 149.643 140.903C147.523 141.333 145.403 141.791 143.283 142.235C142.381 142.421 142.166 143.108 142.023 143.867C141.106 148.619 140.189 153.386 139.258 158.139C139.158 158.64 139.044 159.141 138.915 159.642C138.141 162.605 138.127 162.691 135.105 162.132C129.791 161.13 124.477 160.071 119.206 158.883C117.516 158.496 116.685 159.227 115.869 160.458C112.775 165.11 109.653 169.719 106.545 174.357C105.17 176.405 105.141 176.419 103.15 175.059C98.5525 171.924 93.9405 168.818 89.3428 165.668C88.3975 165.024 87.6527 164.91 86.5928 165.64C81.7659 168.989 76.8531 172.21 71.9976 175.517C70.9521 176.233 70.4507 176.075 69.7346 174.973C66.4117 169.848 62.9455 164.838 59.5939 159.742C58.9207 158.711 58.09 158.697 57.0874 158.883C51.0288 160.028 44.9701 161.102 38.9402 162.347C37.6368 162.619 37.4935 162.09 37.3073 161.145C36.2188 155.59 35.073 150.051 34.056 144.496C33.7839 143.036 33.3112 142.192 31.6927 141.905C26.3646 140.946 21.0651 139.815 15.7512 138.799C13.3593 138.341 13.2447 138.355 13.6887 136.008C14.7629 130.339 15.8515 124.67 17.026 119.03C17.3124 117.656 17.026 116.883 15.7942 116.095C10.8384 112.86 5.99727 109.482 1.07016 106.189C-0.0470361 105.445 -0.333494 104.815 0.540208 103.584C3.87747 98.8315 7.08582 93.9787 10.3944 89.1832C10.996 88.31 11.0533 87.6515 10.4088 86.7353C7.07149 81.8968 3.80585 77.0011 0.497241 72.134C-0.204586 71.1033 -0.261881 70.4878 0.969897 69.7005C5.99727 66.4653 10.8957 63.0297 15.9088 59.7801C17.1692 58.9642 17.2838 58.0767 17.026 56.774C15.8515 51.0051 14.8489 45.2075 13.6028 39.4672C13.2161 37.7207 13.9752 37.4631 15.3215 37.2054C20.9218 36.1318 26.5078 34.9436 32.1224 33.8986C33.3112 33.6839 33.7409 33.0827 33.9557 32.0234C35.0443 26.4262 36.1901 20.8433 37.25 15.2462C37.4935 13.9149 37.7657 13.3566 39.4128 13.6429C44.0678 14.4588 48.6941 15.418 53.3348 16.3627C54.6668 16.6347 56.0418 16.7349 57.3595 17.1644C58.5627 17.5509 59.2215 16.8638 59.8517 15.9047C63.0744 11.0662 66.34 6.25635 69.5914 1.43219C70.8088 -0.3715 70.9664 -0.371499 72.7711 0.873906C77.4977 4.12341 82.2815 7.30134 87.0081 10.5508C87.7386 11.0519 88.2542 11.0805 88.999 10.5795C93.8402 7.27271 98.753 4.06615 103.58 0.730753C104.797 -0.113832 105.399 -0.299925 106.373 1.20315C109.653 6.32792 113.191 11.3095 116.542 16.3914C117.33 17.5938 118.247 17.2646 119.235 17.0785C125.179 15.9619 131.123 14.9026 137.024 13.6429C138.643 13.2993 138.585 14.2298 138.757 15.146C139.86 20.6859 140.977 26.2258 142.008 31.78C142.252 33.054 142.725 33.7698 144.114 34.0275C149.714 35.0725 155.3 36.2463 160.9 37.3056C162.204 37.549 162.748 37.8496 162.433 39.3813C161.216 45.1932 160.184 51.0337 158.995 56.8599C158.709 58.2771 158.938 59.0787 160.27 59.9376C165.24 63.1442 170.067 66.5655 174.994 69.8579C176.14 70.6309 176.326 71.2178 175.453 72.4489C172.029 77.2874 168.749 82.2404 165.412 87.1361C164.954 87.8089 165.011 88.3386 165.455 88.9971C168.749 93.8642 171.986 98.7742 175.324 103.613C176.183 104.858 176.283 105.474 174.822 106.404C169.738 109.654 164.796 113.104 159.755 116.425C158.637 117.169 158.809 118.071 159.01 119.13C160.141 125.014 161.259 130.911 162.376 136.795C162.433 137.081 162.476 137.353 162.519 137.539L162.49 137.511ZM81.1357 120.977C81.5797 120.977 81.8519 120.705 82.1526 120.419C84.0146 118.672 85.8909 116.897 87.6383 115.05C91.4912 110.971 95.5303 107.091 99.4548 103.083C104.855 97.5431 110.383 92.1178 115.855 86.6494C120.997 81.5103 126.139 76.3713 131.309 71.2608C132.398 70.1872 132.426 69.3283 131.309 68.2546C128.889 65.907 126.497 63.5307 124.162 61.0971C123.274 60.1667 122.572 60.0235 121.598 60.9969C115.926 66.6943 110.226 72.363 104.525 78.0461C101.131 81.4244 97.6788 84.7598 94.3272 88.1954C90.3884 92.2466 86.0199 95.854 82.3532 100.163C81.9664 100.607 81.4651 101.594 80.5628 100.721C77.0966 97.3284 73.6018 93.9501 70.1929 90.5002C67.7151 87.995 65.4807 85.2322 62.7879 82.9132C61.9142 82.1545 61.1838 82.0114 60.3101 82.9418C58.3765 84.9746 56.4285 86.9643 54.409 88.9112C51.6876 91.5451 50.9142 91.2588 54.5093 94.8376C63.0458 103.283 71.5393 111.772 80.0328 120.247C80.3623 120.576 80.6057 120.977 81.1357 120.962V120.977Z" fill="#4CE17F"/>
</svg>
