<svg width="304" height="32" viewBox="0 0 304 32" fill="none" xmlns="http://www.w3.org/2000/svg">
<g clip-path="url(#clip0_1015_1521)">
<path d="M2.4427 8.44809C2.4427 4.2402 2.4427 3.46514 2.38763 2.58029C2.33256 1.64054 2.05394 1.16905 1.44489 1.03018C1.14036 0.94622 0.777519 0.920385 0.443834 0.920385C0.165223 0.920385 0 0.865486 0 0.642658C0 0.477959 0.223537 0.41983 0.66737 0.41983C1.7235 0.41983 3.47292 0.503794 4.27635 0.503794C4.96964 0.503794 6.60891 0.41983 7.66504 0.41983C8.02464 0.41983 8.24818 0.47473 8.24818 0.642658C8.24818 0.865486 8.08295 0.920385 7.80434 0.920385C7.52573 0.920385 7.30543 0.94945 6.97175 1.00435C6.22339 1.14321 5.99985 1.6147 5.94478 2.58352C5.8897 3.46837 5.8897 4.24342 5.8897 8.45132V13.3245C5.8897 16.0113 5.8897 18.1976 5.99985 19.386C6.08408 20.132 6.27846 20.6326 7.11106 20.7424C7.49981 20.7973 8.11211 20.8522 8.52679 20.8522C8.83132 20.8522 8.97062 20.9361 8.97062 21.075C8.97062 21.2688 8.74708 21.3527 8.44256 21.3527C6.60891 21.3527 4.85949 21.2688 4.11113 21.2688C3.47292 21.2688 1.7235 21.3527 0.612296 21.3527C0.252694 21.3527 0.0583139 21.2688 0.0583139 21.075C0.0583139 20.9361 0.168462 20.8522 0.502147 20.8522C0.920064 20.8522 1.25051 20.7973 1.5032 20.7424C2.05718 20.6326 2.22565 20.1611 2.30988 19.357C2.44918 18.1944 2.44918 16.0081 2.44918 13.3212V8.44809H2.4427Z" fill="#FAFAFA"/>
<path d="M13.7946 4.64387C13.7946 4.19175 13.8626 3.87527 14.0894 3.87527C14.3389 3.87527 14.543 4.16915 14.9285 4.57605C15.2006 4.86993 18.6444 8.55143 21.9521 11.826C23.4941 13.36 26.6658 16.725 27.048 17.0867L26.8213 6.83339C26.7986 5.45444 26.5945 5.02817 26.0502 4.80211C25.7101 4.66647 25.1658 4.66647 24.8483 4.66647C24.5762 4.66647 24.4855 4.59866 24.4855 4.46302C24.4855 4.28218 24.7349 4.25957 25.0751 4.25957C26.2543 4.25957 27.3396 4.32739 27.8158 4.32739C28.0653 4.32739 28.927 4.25957 30.035 4.25957C30.3298 4.25957 30.5566 4.28218 30.5566 4.46302C30.5566 4.59866 30.4205 4.66647 30.1484 4.66647C29.9216 4.66647 29.7402 4.66647 29.4681 4.73429C28.8331 4.91514 28.6517 5.38986 28.629 6.65255C28.5383 11.4191 28.4703 16.1373 28.3795 20.9038C28.3795 21.4012 28.2888 21.6046 28.0847 21.6046C27.8353 21.6046 27.5631 21.3559 27.3137 21.1073C25.885 19.7509 22.9855 16.7928 20.6303 14.4677C18.1617 12.0295 15.5796 9.13918 15.1714 8.70967L15.4209 18.2622C15.4663 20.0222 15.7611 20.61 16.2146 20.7682C16.6001 20.9038 17.031 20.9264 17.3939 20.9264C17.6433 20.9264 17.7794 20.9717 17.7794 21.1073C17.7794 21.2881 17.5753 21.3333 17.2578 21.3333C15.7837 21.3333 14.8799 21.2655 14.449 21.2655C14.2449 21.2655 13.1791 21.3333 12.0031 21.3333C11.7082 21.3333 11.5042 21.3107 11.5042 21.1073C11.5042 20.9717 11.6402 20.9264 11.867 20.9264C12.1618 20.9264 12.57 20.9038 12.8875 20.8134C13.4771 20.6326 13.5678 19.977 13.5905 18.0135C13.6585 13.2243 13.7492 7.6472 13.7946 4.64387Z" fill="#FAFAFA"/>
<path d="M33.3459 21.0621C32.9831 20.9038 32.915 20.7908 32.915 20.2935C32.915 19.0502 33.0057 17.697 33.0284 17.3354C33.0511 16.9963 33.1191 16.7476 33.3006 16.7476C33.5047 16.7476 33.5273 16.9511 33.5273 17.1319C33.5273 17.4258 33.618 17.9005 33.7314 18.2848C34.2303 19.9544 35.5651 20.5647 36.9711 20.5647C39.0088 20.5647 40.0067 19.1858 40.0067 17.9909C40.0067 16.8832 39.6665 15.8466 37.7875 14.3772L36.7443 13.5634C34.253 11.6226 33.3913 10.0402 33.3913 8.21234C33.3913 5.72894 35.4744 3.94308 38.6233 3.94308C39.4851 3.94308 40.1654 4.03351 40.7064 4.12393C41.0919 4.19175 41.3868 4.25956 41.6362 4.32738C41.8403 4.37259 41.9537 4.44041 41.9537 4.59865C41.9537 4.89252 41.863 5.54809 41.863 7.30811C41.863 7.80543 41.7949 7.98628 41.6135 7.98628C41.4548 7.98628 41.3868 7.85064 41.3868 7.57938C41.3868 7.37592 41.2734 6.67515 40.7971 6.0874C40.457 5.65789 39.7993 4.97972 38.3285 4.97972C36.6504 4.97972 35.6331 5.95176 35.6331 7.30488C35.6331 8.34474 36.1547 9.13271 38.0337 10.5569L38.6687 11.0316C41.4094 13.0855 42.3846 14.6453 42.3846 16.7896C42.3846 18.1007 41.8857 19.6573 40.2561 20.7198C39.1222 21.4431 37.8555 21.6466 36.6536 21.6466C35.3383 21.6466 34.3211 21.4883 33.3459 21.0588V21.0621Z" fill="#FAFAFA"/>
<path d="M49.2493 13.9703C49.2493 17.2449 49.9069 18.6239 51.0181 19.5249C52.0386 20.3613 53.0785 20.4517 53.8496 20.4517C54.8474 20.4517 56.0687 20.1352 56.9759 19.231C58.2231 17.9877 58.2912 15.9564 58.2912 13.6313V10.8088C58.2912 7.37594 58.2912 6.74298 58.2458 6.01959C58.2004 5.251 58.019 4.88931 57.2707 4.73107C57.0892 4.68586 56.7037 4.66325 56.4543 4.66325C56.2048 4.66325 56.0687 4.61804 56.0687 4.4598C56.0687 4.30156 56.2275 4.25635 56.545 4.25635C57.7015 4.25635 59.127 4.32416 59.1497 4.32416C59.4218 4.32416 60.8472 4.25635 61.7317 4.25635C62.0492 4.25635 62.2079 4.30156 62.2079 4.4598C62.2079 4.61804 62.0718 4.66325 61.7997 4.66325C61.5503 4.66325 61.4142 4.68586 61.1421 4.73107C60.5298 4.8441 60.3483 5.22839 60.303 6.01959C60.2576 6.74298 60.2576 7.37594 60.2576 10.8088V13.2244C60.2576 15.7304 60.0082 18.3946 58.1065 20.0222C56.4964 21.4012 54.8668 21.6498 53.3928 21.6498C52.1909 21.6498 50.0171 21.582 48.3648 20.09C47.2083 19.0502 46.3498 17.3806 46.3498 14.106V10.8088C46.3498 7.37594 46.3498 6.74298 46.3044 6.01959C46.2591 5.251 46.0776 4.88931 45.3293 4.73107C45.1479 4.68586 44.7623 4.66325 44.4448 4.66325C44.1954 4.66325 44.0593 4.61804 44.0593 4.4598C44.0593 4.30156 44.2181 4.25635 44.5582 4.25635C45.7601 4.25635 47.1856 4.32416 47.8659 4.32416C48.4102 4.32416 49.8356 4.25635 50.652 4.25635C50.9922 4.25635 51.1509 4.30156 51.1509 4.4598C51.1509 4.61804 51.0149 4.66325 50.7881 4.66325C50.5386 4.66325 50.4026 4.68586 50.1305 4.73107C49.5182 4.8441 49.3367 5.22839 49.2914 6.01959C49.246 6.74298 49.246 7.37594 49.246 10.8088V13.9703H49.2493Z" fill="#FAFAFA"/>
<path d="M66.4001 10.8088C66.4001 7.37594 66.4001 6.74298 66.3547 6.01959C66.3094 5.251 66.1279 4.88931 65.3796 4.73107C65.1981 4.68586 64.8126 4.66325 64.4951 4.66325C64.2457 4.66325 64.1096 4.61804 64.1096 4.4598C64.1096 4.30156 64.2684 4.25635 64.6085 4.25635C65.8104 4.25635 67.2359 4.32416 67.7121 4.32416C68.4832 4.32416 70.2034 4.25635 70.9064 4.25635C72.3351 4.25635 73.8513 4.39198 75.0759 5.22839C75.7108 5.6579 76.6179 6.81079 76.6179 8.32215C76.6179 9.99174 75.9376 11.5063 73.6504 13.3568C75.6655 15.8854 77.2302 17.9199 78.565 19.3182C79.8349 20.6293 80.7388 20.7844 81.079 20.8522C81.3284 20.8974 81.5325 20.92 81.7139 20.92C81.8954 20.92 81.9861 20.9878 81.9861 21.1008C81.9861 21.2817 81.8273 21.3269 81.5552 21.3269H79.336C78.0661 21.3269 77.5024 21.2139 76.9128 20.8974C75.9376 20.3774 75.0791 19.3182 73.8092 17.5776C72.9021 16.3343 71.8621 14.8003 71.5673 14.4612C71.4539 14.3256 71.3179 14.303 71.1591 14.303L69.2574 14.2578C69.1441 14.2578 69.076 14.303 69.076 14.4386V14.7551C69.076 16.8542 69.076 18.64 69.1894 19.5895C69.2574 20.245 69.3935 20.7424 70.0738 20.8328C70.414 20.878 70.9129 20.9232 71.185 20.9232C71.3665 20.9232 71.4572 20.991 71.4572 21.1041C71.4572 21.2623 71.2984 21.3301 71.0036 21.3301C69.6883 21.3301 68.0134 21.2623 67.6732 21.2623C67.2424 21.2623 65.8169 21.3301 64.9098 21.3301C64.615 21.3301 64.4563 21.2623 64.4563 21.1041C64.4563 20.991 64.547 20.9232 64.8191 20.9232C65.1593 20.9232 65.4314 20.878 65.6355 20.8328C66.0891 20.7424 66.2024 20.245 66.2932 19.5895C66.4065 18.64 66.4065 16.8574 66.4065 14.7777V10.8023L66.4001 10.8088ZM69.0728 12.5914C69.0728 12.8401 69.1181 12.9305 69.2769 12.9983C69.7531 13.1565 70.4334 13.2244 70.9971 13.2244C71.9042 13.2244 72.199 13.1339 72.6072 12.8401C73.2876 12.3427 73.9452 11.3029 73.9452 9.45243C73.9452 6.24565 71.8168 5.31882 70.4788 5.31882C69.9119 5.31882 69.5037 5.34142 69.2769 5.40924C69.1181 5.45445 69.0728 5.54487 69.0728 5.72572V12.5914Z" fill="#FAFAFA"/>
<path d="M85.1837 15.4397C85.0703 15.4397 85.0249 15.4849 84.9796 15.6206L83.755 18.8499C83.5282 19.4151 83.4148 19.9576 83.4148 20.2289C83.4148 20.6358 83.6189 20.9297 84.3219 20.9297H84.6621C84.9342 20.9297 85.0023 20.9749 85.0023 21.1105C85.0023 21.2914 84.8662 21.3366 84.6167 21.3366C83.891 21.3366 82.9192 21.2688 82.2161 21.2688C81.9667 21.2688 80.7194 21.3366 79.5434 21.3366C79.2486 21.3366 79.1125 21.2914 79.1125 21.1105C79.1125 20.9749 79.2486 20.9297 79.43 20.9297C79.6341 20.9297 79.9063 20.9071 80.0877 20.8845C81.1309 20.7488 81.5617 19.9802 82.012 18.8532L87.6977 4.6697C87.9698 4.01414 88.1285 3.76547 88.3326 3.76547C88.514 3.76547 88.6728 3.96892 88.8996 4.48886C89.4438 5.73217 93.069 14.9456 94.5171 18.3785C95.3789 20.4097 96.0365 20.7262 96.5095 20.8392C96.8497 20.9071 97.1899 20.9297 97.462 20.9297C97.6434 20.9297 97.7568 20.9749 97.7568 21.1105C97.7568 21.2914 97.5527 21.3366 96.7136 21.3366C95.8746 21.3366 94.0863 21.3366 92.2721 21.2914C91.8639 21.2688 91.7505 21.2461 91.7505 21.1105C91.7505 20.9975 91.8412 20.9297 92.068 20.9071C92.2267 20.8619 92.3854 20.6584 92.2721 20.3871L90.4611 15.5979C90.4157 15.4849 90.3477 15.4397 90.2343 15.4397H85.1837ZM89.8067 14.3094C89.9201 14.3094 89.9427 14.2416 89.9201 14.1738L87.8823 8.59664C87.8143 8.39319 87.7236 8.32537 87.6329 8.59664L85.5498 14.1512C85.5271 14.2416 85.5498 14.3094 85.6405 14.3094H89.8099H89.8067Z" fill="#FAFAFA"/>
<path d="M99.7719 4.64387C99.7719 4.19175 99.8399 3.87527 100.067 3.87527C100.316 3.87527 100.52 4.16915 100.906 4.57605C101.178 4.86993 104.622 8.55143 107.929 11.826C109.471 13.36 112.643 16.725 113.025 17.0867L112.799 6.83339C112.776 5.45444 112.572 5.02817 112.028 4.80211C111.687 4.66647 111.143 4.66647 110.826 4.66647C110.553 4.66647 110.463 4.59866 110.463 4.46302C110.463 4.28218 110.712 4.25957 111.052 4.25957C112.232 4.25957 113.317 4.32739 113.793 4.32739C114.043 4.32739 114.904 4.25957 116.012 4.25957C116.307 4.25957 116.534 4.28218 116.534 4.46302C116.534 4.59866 116.398 4.66647 116.126 4.66647C115.899 4.66647 115.717 4.66647 115.445 4.73429C114.81 4.91514 114.629 5.38986 114.606 6.65255C114.516 11.4191 114.448 16.1373 114.357 20.9038C114.357 21.4012 114.266 21.6046 114.062 21.6046C113.813 21.6046 113.54 21.3559 113.291 21.1073C111.862 19.7509 108.963 16.7928 106.608 14.4677C104.139 12.0295 101.557 9.13918 101.149 8.70967L101.398 18.2622C101.444 20.0222 101.738 20.61 102.192 20.7682C102.577 20.9038 103.008 20.9264 103.371 20.9264C103.621 20.9264 103.757 20.9717 103.757 21.1073C103.757 21.2881 103.553 21.3333 103.235 21.3333C101.761 21.3333 100.857 21.2655 100.426 21.2655C100.222 21.2655 99.1564 21.3333 97.9804 21.3333C97.6855 21.3333 97.4814 21.3107 97.4814 21.1073C97.4814 20.9717 97.6175 20.9264 97.8443 20.9264C98.1391 20.9264 98.5473 20.9038 98.8648 20.8134C99.4544 20.6326 99.5451 19.977 99.5678 18.0135C99.6358 13.2243 99.7265 7.6472 99.7719 4.64387Z" fill="#FAFAFA"/>
<path d="M121.772 19.1858C119.553 17.2449 118.964 14.7131 118.964 12.5236C118.964 10.9864 119.44 8.32213 121.614 6.33606C123.243 4.84408 125.398 3.94308 128.773 3.94308C130.179 3.94308 131.015 4.03351 132.058 4.16914C132.92 4.28217 133.711 4.48562 134.391 4.55344C134.64 4.57604 134.663 4.68907 134.663 4.82471C134.663 5.00555 134.595 5.27682 134.55 6.06802C134.504 6.81401 134.527 8.05409 134.482 8.50621C134.459 8.84529 134.414 9.04875 134.209 9.04875C134.028 9.04875 133.983 8.84529 133.983 8.52881C133.96 7.82804 133.665 7.03684 133.098 6.45232C132.35 5.66112 130.584 5.05076 128.498 5.05076C126.528 5.05076 125.236 5.54809 124.238 6.45232C122.586 7.9669 122.155 10.1112 122.155 12.3007C122.155 17.6744 126.256 20.3419 129.292 20.3419C131.307 20.3419 132.531 20.1159 133.438 19.076C133.824 18.6465 134.119 17.9909 134.209 17.584C134.277 17.2223 134.323 17.1319 134.504 17.1319C134.663 17.1319 134.708 17.2901 134.708 17.471C134.708 17.7423 134.436 19.7057 134.209 20.4743C134.096 20.8586 134.005 20.9716 133.62 21.1299C132.713 21.4916 130.992 21.6498 129.541 21.6498C126.438 21.6498 123.833 20.9716 121.769 19.189L121.772 19.1858Z" fill="#FAFAFA"/>
<path d="M139.509 10.8088C139.509 7.37594 139.509 6.74297 139.464 6.01959C139.419 5.251 139.237 4.88931 138.489 4.73107C138.308 4.68585 137.922 4.66325 137.605 4.66325C137.355 4.66325 137.219 4.61804 137.219 4.4598C137.219 4.30156 137.378 4.25635 137.718 4.25635C138.761 4.25635 139.801 4.32416 140.98 4.32416C141.706 4.32416 146.212 4.32416 146.643 4.30156C147.074 4.25635 147.437 4.21113 147.618 4.16592C147.732 4.14332 147.868 4.0755 147.981 4.0755C148.095 4.0755 148.117 4.16592 148.117 4.27895C148.117 4.43719 148.004 4.70846 147.936 5.74832C147.913 5.97438 147.868 6.96903 147.822 7.2403C147.8 7.35333 147.754 7.48896 147.596 7.48896C147.437 7.48896 147.392 7.35333 147.392 7.08206C147.392 6.99164 147.369 6.62995 147.255 6.35868C147.097 5.95177 146.87 5.68051 145.736 5.54487C145.351 5.49966 142.973 5.45445 142.519 5.45445C142.406 5.45445 142.36 5.52227 142.36 5.68051V11.3933C142.36 11.5515 142.383 11.642 142.519 11.642C143.018 11.642 145.623 11.642 146.144 11.5967C146.689 11.5515 147.029 11.4837 147.233 11.2577C147.392 11.0768 147.482 10.9638 147.596 10.9638C147.686 10.9638 147.754 11.009 147.754 11.1446C147.754 11.2803 147.664 11.642 147.573 12.7916C147.55 13.2437 147.482 14.148 147.482 14.3062C147.482 14.487 147.482 14.7357 147.278 14.7357C147.119 14.7357 147.074 14.487 147.074 14.374C147.051 14.148 147.051 14.0123 146.983 13.7185C146.87 13.2663 146.552 12.9273 145.713 12.8368C145.283 12.7916 143.041 12.769 142.496 12.769C142.383 12.769 142.36 12.8594 142.36 12.9951V14.7777C142.36 15.5463 142.338 17.6228 142.36 18.2783C142.406 19.8381 142.769 20.174 145.078 20.174C145.668 20.174 146.62 20.174 147.207 19.9027C147.796 19.6315 148.069 19.1567 148.227 18.2331C148.273 17.9845 148.318 17.8941 148.477 17.8941C148.658 17.8941 148.658 18.0749 148.658 18.301C148.658 18.8209 148.477 20.3548 148.363 20.807C148.205 21.3947 148.001 21.3947 147.139 21.3947C145.124 21.3947 143.128 21.2591 140.864 21.2591C139.957 21.2591 139.03 21.3269 138.009 21.3269C137.715 21.3269 137.556 21.2591 137.556 21.1008C137.556 20.9878 137.647 20.92 137.919 20.92C138.259 20.92 138.531 20.8748 138.735 20.8296C139.189 20.7391 139.302 20.2418 139.393 19.5863C139.506 18.6368 139.506 16.8542 139.506 14.7745V10.7991L139.509 10.8088Z" fill="#FAFAFA"/>
<path d="M158.821 8.38672C160.11 4.07872 160.34 3.31659 160.551 2.38652C160.762 1.45646 160.639 1.09477 159.799 0.894546C159.553 0.826729 159.087 0.826729 158.698 0.794435C158.364 0.794435 158.228 0.694324 158.29 0.497331C158.348 0.297109 158.568 0.232521 159.035 0.232521C160.431 0.232521 161.73 0.332632 163.195 0.332632C164.092 0.332632 170.176 0.332632 170.72 0.300339C171.307 0.235751 171.825 0.167934 172.1 0.13564C172.275 0.103346 172.473 0.00323486 172.606 0.00323486C172.771 0.00323486 172.765 0.13564 172.726 0.268045C172.667 0.468267 172.347 0.865481 171.922 2.05713C171.731 2.58674 171.527 3.15189 171.203 4.01413C171.154 4.17883 170.999 4.47917 170.73 4.47917C170.529 4.47917 170.513 4.31447 170.591 3.94955C170.63 3.81714 170.759 3.3844 170.704 3.02271C170.662 2.49309 170.487 2.19276 169.107 2.02806C168.563 1.96347 165.589 1.89566 164.925 1.89566C164.792 1.89566 164.695 1.99577 164.636 2.19276L162.582 9.05521C162.524 9.25543 162.527 9.35231 162.692 9.35231C163.392 9.35231 166.583 9.35231 167.325 9.32002C168.177 9.2522 168.637 9.15532 168.994 8.85499C169.272 8.59018 169.434 8.49007 169.567 8.49007C169.7 8.49007 169.745 8.55788 169.697 8.72258C169.638 8.9228 169.314 9.55253 168.809 10.9089C168.64 11.474 168.184 12.6657 168.112 12.8982C168.044 13.1307 167.921 13.4278 167.656 13.4278C167.455 13.4278 167.445 13.1307 167.497 12.9628C167.542 12.698 167.594 12.5333 167.626 12.2006C167.649 11.5709 167.445 11.1414 166.311 11.0413C165.731 10.9767 162.948 10.9412 162.219 10.9412C162.054 10.9412 161.98 11.0736 161.931 11.2383L161.286 13.3923C160.998 14.3546 160.269 16.6733 160.046 17.5356C159.527 19.4894 159.829 19.9221 162.89 19.9221C163.655 19.9221 164.886 19.9221 165.715 19.5895C166.59 19.2245 167.092 18.6626 167.682 17.4678C167.837 17.1707 167.954 17.0027 168.187 17.0027C168.42 17.0027 168.339 17.2675 168.252 17.5679C168.035 18.2977 167.196 20.3193 166.859 20.8812C166.441 21.6111 166.175 21.6111 165.077 21.6111C162.184 21.6111 159.741 21.4464 156.78 21.4464C155.581 21.4464 154.357 21.5465 152.961 21.5465C152.562 21.5465 152.39 21.4464 152.452 21.2494C152.491 21.117 152.64 20.9523 153.042 20.9523C153.45 20.92 153.816 20.92 154.101 20.8522C154.739 20.7198 155.095 20.09 155.491 19.0954C155.97 17.936 156.618 15.782 157.341 13.36L158.831 8.38672H158.821Z" fill="#FAFAFA"/>
<path d="M179.318 12.3136L176.95 5.31879C176.62 4.26601 176.208 3.67826 175.347 3.41668C174.942 3.30043 174.715 3.27136 174.459 3.2423C174.284 3.2423 174.103 3.1551 174.164 2.94842C174.216 2.77404 174.41 2.71268 174.763 2.71268C175.35 2.71268 177.203 2.79987 178.7 2.79987C179.082 2.79987 180.692 2.71268 181.722 2.71268C182.075 2.71268 182.224 2.79987 182.173 2.97749C182.121 3.15187 181.985 3.21323 181.683 3.2423C181.528 3.27136 181.197 3.30043 180.974 3.35855C180.721 3.41668 180.588 3.56201 180.537 3.73962C180.485 3.91401 180.537 4.23695 180.624 4.53082C181.123 6.49106 181.751 8.21878 182.228 9.76889C183.277 8.71611 186.52 5.43828 187.188 4.67614C187.528 4.32414 187.693 3.97214 187.745 3.79775C187.806 3.5943 187.683 3.41668 187.437 3.35855C187.2 3.27136 186.906 3.27136 186.679 3.2423C186.533 3.2423 186.323 3.1551 186.374 2.97749C186.42 2.83216 186.543 2.71268 186.922 2.71268C187.949 2.71268 189.099 2.79987 189.627 2.79987C190.184 2.79987 191.328 2.71268 192.326 2.71268C192.588 2.71268 192.74 2.79987 192.695 2.94842C192.65 3.09374 192.433 3.2423 192.196 3.2423C191.924 3.27136 191.59 3.30043 191.27 3.38762C190.609 3.53294 189.906 4.12069 188.694 5.31879L182.739 11.0865C183.216 12.4331 185.344 18.9597 185.824 19.8091C186.067 20.3645 186.391 20.6584 187.006 20.8618C187.382 20.9781 187.677 20.9781 187.933 21.0072C188.137 21.0072 188.279 21.1234 188.234 21.272C188.182 21.4464 187.949 21.5368 187.625 21.5368C185.804 21.5368 183.689 21.5368 181.806 21.4496C181.197 21.4205 181.039 21.3624 181.084 21.2138C181.126 21.0685 181.282 20.949 181.531 20.8909C181.725 20.8328 181.875 20.6261 181.794 20.3064C181.155 18.0232 180.323 15.5075 179.762 13.7507L174.268 19.5475C173.889 19.9285 173.675 20.2515 173.626 20.5131C173.584 20.7456 173.775 20.8941 173.992 20.9523C174.161 20.9813 174.394 20.9813 174.592 21.0104C174.767 21.0104 174.9 21.1557 174.857 21.3043C174.806 21.4786 174.611 21.54 174.258 21.54C173.643 21.54 171.935 21.4528 171.232 21.4528C170.675 21.4528 169.298 21.54 168.534 21.54C168.268 21.54 168.158 21.4237 168.2 21.2752C168.245 21.1299 168.427 21.0104 168.66 21.0104C168.835 21.0104 169.227 20.9813 169.635 20.8941C170.432 20.6907 171.073 20.3096 172.321 19.0792L179.309 12.3169L179.318 12.3136Z" fill="#FAFAFA"/>
<path d="M195.131 9.91421C196.2 6.34251 196.446 5.52547 196.634 4.70521C196.813 3.91401 196.699 3.50388 195.98 3.35855C195.763 3.30043 195.361 3.27136 194.989 3.2423C194.723 3.2423 194.574 3.1551 194.626 2.97749C194.678 2.8031 194.882 2.71268 195.293 2.71268C196.615 2.71268 198.381 2.79987 199.054 2.79987C200.14 2.79987 201.666 2.71268 202.867 2.71268C206.127 2.71268 207.03 3.62013 207.513 4.26278C207.915 4.78917 208.32 5.78382 207.801 7.51155C206.836 10.7312 203.214 13.2179 199.573 13.2179C199.456 13.2179 199.132 13.2179 198.993 13.1888C198.892 13.1307 198.705 13.0726 198.756 12.8949C198.808 12.7205 199.032 12.6624 199.531 12.6624C201.115 12.6624 203.402 11.1123 204.147 8.62246C204.445 7.62781 204.908 5.98728 203.907 4.81824C203.234 4.02704 202.181 3.91078 201.536 3.91078C201.154 3.91078 200.794 3.93984 200.571 3.99797C200.415 4.02704 200.282 4.17236 200.188 4.4953L197.25 14.2997C196.583 16.5248 195.996 18.485 195.828 19.5378C195.669 20.2709 195.685 20.7972 196.424 20.8844C196.78 20.9716 197.308 20.9716 197.652 21.0007C197.976 21.0007 198.057 21.117 198.021 21.2332C197.969 21.4076 197.726 21.5271 197.464 21.5271C195.731 21.5271 193.907 21.4399 193.32 21.4399C192.821 21.4399 190.946 21.5271 189.919 21.5271C189.595 21.5271 189.446 21.4399 189.497 21.2623C189.533 21.146 189.695 20.9975 190.016 20.9975C190.379 20.9684 190.67 20.9684 190.952 20.9103C191.487 20.794 191.781 20.2967 192.109 19.5055C192.562 18.4818 193.123 16.6087 193.816 14.2965L195.131 9.90452V9.91421Z" fill="#FAFAFA"/>
<path d="M211.925 9.91421C213.066 6.10999 213.231 5.55454 213.409 4.76334C213.613 3.88494 213.493 3.50388 212.745 3.35855C212.441 3.30043 212.097 3.27136 211.783 3.2423C211.488 3.2423 211.368 3.1551 211.42 2.97749C211.472 2.8031 211.676 2.71268 212.058 2.71268C213.38 2.71268 215.146 2.79987 215.645 2.79987C216.438 2.79987 218.547 2.71268 219.429 2.71268C221.191 2.71268 222.869 2.88706 223.938 3.73639C224.602 4.26278 225.312 5.52224 224.803 7.2209C224.243 9.09395 222.863 10.7635 219.736 12.6657C221.103 15.359 222.231 17.6712 223.293 19.2213C224.256 20.7133 225.189 20.8295 225.626 20.949C225.882 20.9781 226.086 20.9781 226.284 21.0072C226.517 21.0072 226.601 21.1234 226.565 21.2397C226.504 21.4431 226.303 21.5336 225.979 21.5336H223.514C221.81 21.5336 221.129 21.3592 220.511 20.9781C219.649 20.4226 219.024 19.2794 218.223 17.4355C217.605 15.9725 216.983 14.4224 216.733 13.98C216.681 13.8638 216.542 13.8347 216.367 13.8347L214.3 13.7766C214.184 13.7766 214.077 13.8347 214.034 13.98L213.876 14.5064C213.202 16.7605 212.684 18.4882 212.492 19.512C212.33 20.245 212.34 20.8005 213.108 20.8877C213.435 20.9749 213.963 20.9749 214.307 21.0039C214.543 21.0039 214.595 21.1202 214.559 21.2364C214.507 21.4108 214.297 21.5303 213.973 21.5303C212.418 21.5303 210.387 21.4431 210.004 21.4431C209.564 21.4431 207.746 21.5303 206.719 21.5303C206.395 21.5303 206.246 21.4431 206.298 21.2655C206.334 21.1493 206.496 21.0007 206.787 21.0007C207.179 20.9716 207.5 20.9716 207.753 20.9135C208.287 20.7973 208.621 20.2709 208.909 19.5087C209.363 18.485 209.923 16.612 210.617 14.2997L211.932 9.90775L211.925 9.91421ZM214.673 11.8163C214.601 12.0488 214.627 12.1683 214.786 12.2265C215.253 12.4299 215.991 12.5203 216.665 12.5203C217.605 12.5203 218.052 12.4041 218.586 12.0811C219.477 11.5547 220.507 10.4697 221.103 8.48036C222.163 4.93773 220.008 4.0012 218.538 4.0012C217.922 4.0012 217.443 4.03027 217.18 4.11746C217.015 4.17559 216.931 4.26278 216.869 4.46946L214.669 11.8163H214.673Z" fill="#FAFAFA"/>
<path d="M231.538 9.91423C232.679 6.11001 232.88 5.43507 233.067 4.61804C233.255 3.79777 233.145 3.47483 232.407 3.30045C232.19 3.24232 231.778 3.24232 231.435 3.21325C231.14 3.21325 231.02 3.12606 231.072 2.94844C231.124 2.77406 231.318 2.7127 231.729 2.7127C232.964 2.7127 234.111 2.79989 235.403 2.79989C236.197 2.79989 241.568 2.79989 242.048 2.77083C242.563 2.7127 243.023 2.65457 243.266 2.6255C243.421 2.59644 243.593 2.50925 243.713 2.50925C243.859 2.50925 243.856 2.6255 243.82 2.74499C243.768 2.91938 243.486 3.27138 243.11 4.32416C242.942 4.79242 242.761 5.28975 242.475 6.05188C242.433 6.19721 242.294 6.46202 242.058 6.46202C241.883 6.46202 241.866 6.31669 241.934 5.99376C241.97 5.8775 242.083 5.49643 242.032 5.17349C241.996 4.70523 241.84 4.44042 240.622 4.2951C240.14 4.23697 237.516 4.17884 236.929 4.17884C236.813 4.17884 236.728 4.26603 236.673 4.44365L234.859 10.502C234.807 10.6764 234.81 10.7668 234.956 10.7668C235.572 10.7668 238.39 10.7668 239.048 10.7377C239.799 10.6796 240.208 10.5924 240.522 10.3276C240.768 10.0951 240.911 10.0047 241.031 10.0047C241.15 10.0047 241.189 10.0628 241.144 10.2081C241.092 10.3825 240.807 10.9412 240.36 12.1393C240.211 12.6366 239.806 13.6894 239.748 13.8961C239.686 14.0995 239.579 14.3643 239.343 14.3643C239.168 14.3643 239.158 14.0995 239.2 13.9542C239.242 13.7184 239.284 13.5731 239.314 13.2793C239.333 12.7238 239.155 12.3427 238.154 12.2555C237.642 12.1974 235.186 12.1683 234.538 12.1683C234.393 12.1683 234.328 12.2846 234.282 12.4332L233.712 14.3353C233.459 15.1846 232.815 17.232 232.617 17.9942C232.157 19.7219 232.426 20.0997 235.128 20.0997C235.802 20.0997 236.89 20.0997 237.622 19.8058C238.393 19.4829 238.837 18.9856 239.359 17.9328C239.495 17.668 239.599 17.5227 239.806 17.5227C240.013 17.5227 239.942 17.7584 239.864 18.02C239.67 18.6626 238.931 20.4485 238.636 20.9458C238.267 21.5885 238.034 21.5885 237.065 21.5885C234.512 21.5885 232.352 21.4431 229.737 21.4431C228.681 21.4431 227.596 21.5303 226.365 21.5303C226.011 21.5303 225.862 21.4431 225.914 21.2655C225.95 21.1493 226.083 21.0007 226.433 21.0007C226.796 20.9717 227.116 20.9717 227.369 20.9135C227.933 20.7973 228.247 20.2418 228.597 19.3634C229.021 18.3397 229.591 16.4376 230.23 14.2997L231.545 9.90777L231.538 9.91423Z" fill="#FAFAFA"/>
<path d="M243.188 21.2106C242.829 21.0362 242.793 20.8586 242.942 20.3613C243.389 18.8693 243.917 17.4064 244.076 16.9672C244.228 16.5571 244.387 16.3246 244.591 16.3246C244.824 16.3246 244.795 16.528 244.763 16.7347C244.695 17.0576 244.565 17.4968 244.588 17.9037C244.546 19.8058 245.926 20.597 247.597 20.597C249.946 20.597 251.433 19.1632 251.819 17.8747C252.169 16.7056 252.149 15.5915 250.452 14.0123L249.499 13.0758C247.251 10.8798 246.81 9.21345 247.422 7.16279C248.245 4.41135 251.239 2.36392 254.909 2.36392C256.082 2.36392 256.746 2.50924 257.443 2.62873C257.835 2.68686 258.162 2.77405 258.447 2.80312C258.674 2.83218 258.697 2.94844 258.645 3.12606C258.522 3.53619 258.194 4.23697 257.598 6.2295C257.433 6.78495 257.284 6.99163 257.077 6.99163C256.902 6.99163 256.866 6.81725 256.931 6.49431C256.999 6.17137 257.031 5.47059 256.817 4.91191C256.578 4.2402 255.949 3.59432 254.274 3.59432C252.337 3.59432 250.905 4.6471 250.474 6.08095C250.15 7.16279 250.39 8.12838 252.075 9.56546L252.729 10.1209C255.35 12.346 255.891 14.0737 255.181 16.4441C254.725 17.9651 253.562 19.6928 251.333 20.8651C249.774 21.6563 248.216 21.8597 246.865 21.8597C245.281 21.8597 244.157 21.6853 243.182 21.2171L243.188 21.2106Z" fill="#FAFAFA"/>
<path d="M257.576 21.2106C257.216 21.0362 257.18 20.8586 257.329 20.3613C257.777 18.8693 258.305 17.4064 258.463 16.9672C258.616 16.5571 258.774 16.3246 258.978 16.3246C259.212 16.3246 259.183 16.528 259.15 16.7347C259.082 17.0576 258.953 17.4968 258.975 17.9037C258.933 19.8058 260.313 20.597 261.985 20.597C264.334 20.597 265.821 19.1632 266.206 17.8747C266.556 16.7056 266.537 15.5915 264.839 14.0123L263.887 13.0758C261.638 10.8798 261.198 9.21345 261.81 7.16279C262.633 4.41135 265.626 2.36392 269.297 2.36392C270.47 2.36392 271.134 2.50924 271.83 2.62873C272.222 2.68686 272.549 2.77405 272.834 2.80312C273.061 2.83218 273.084 2.94844 273.032 3.12606C272.909 3.53619 272.582 4.23697 271.986 6.2295C271.82 6.78495 271.671 6.99163 271.464 6.99163C271.289 6.99163 271.254 6.81725 271.318 6.49431C271.386 6.17137 271.419 5.47059 271.205 4.91191C270.965 4.2402 270.337 3.59432 268.662 3.59432C266.724 3.59432 265.293 4.6471 264.862 6.08095C264.538 7.16279 264.777 8.12838 266.462 9.56546L267.117 10.1209C269.737 12.346 270.278 14.0737 269.569 16.4441C269.112 17.9651 267.949 19.6928 265.72 20.8651C264.162 21.6563 262.604 21.8597 261.253 21.8597C259.669 21.8597 258.544 21.6853 257.569 21.2171L257.576 21.2106Z" fill="#FAFAFA"/>
<path d="M304 21.976L272.941 21.9501L288.443 0.917145L304 21.976Z" fill="#FAFAFA"/>
<path d="M288.443 21.9534C292.855 21.9534 296.432 18.4935 296.432 14.2255C296.432 9.95744 292.855 6.49753 288.443 6.49753C284.031 6.49753 280.454 9.95744 280.454 14.2255C280.454 18.4935 284.031 21.9534 288.443 21.9534Z" fill="#0C2879"/>
<path d="M281.141 15.2847C281.274 15.2847 281.384 15.3331 281.478 15.43C281.569 15.5269 281.614 15.6432 281.614 15.7788C281.614 15.9144 281.569 16.0307 281.475 16.1276C281.381 16.2244 281.27 16.2697 281.141 16.2697C281.011 16.2697 280.898 16.2212 280.807 16.1276C280.717 16.0307 280.671 15.9144 280.671 15.7788C280.671 15.6432 280.717 15.5269 280.807 15.43C280.898 15.3331 281.011 15.2847 281.141 15.2847Z" fill="#FAFAFA"/>
<path d="M285.744 12.0908V13.4827H285.634C285.55 13.121 285.395 12.84 285.168 12.6495C284.941 12.4557 284.685 12.3589 284.397 12.3589C284.157 12.3589 283.937 12.4299 283.736 12.5752C283.535 12.7206 283.389 12.9079 283.295 13.1404C283.175 13.4375 283.117 13.7701 283.117 14.135C283.117 14.4999 283.159 14.8197 283.247 15.1168C283.334 15.4139 283.47 15.6335 283.655 15.7852C283.84 15.937 284.079 16.0113 284.374 16.0113C284.617 16.0113 284.837 15.9564 285.038 15.8466C285.239 15.7368 285.453 15.5463 285.676 15.275V15.6205C285.459 15.8563 285.236 16.0242 285.003 16.1308C284.769 16.2374 284.497 16.289 284.183 16.289C283.771 16.289 283.409 16.2018 283.088 16.0307C282.77 15.8595 282.524 15.6141 282.349 15.2911C282.174 14.9682 282.09 14.6259 282.09 14.2642C282.09 13.8831 282.187 13.5182 282.378 13.1759C282.57 12.8336 282.829 12.5655 283.156 12.3782C283.483 12.1909 283.83 12.0941 284.196 12.0941C284.465 12.0941 284.753 12.1554 285.051 12.2781C285.226 12.3492 285.336 12.3847 285.385 12.3847C285.446 12.3847 285.498 12.3621 285.544 12.3136C285.589 12.2684 285.618 12.1942 285.631 12.0941H285.741L285.744 12.0908Z" fill="#FAFAFA"/>
<path d="M288.307 12.1263C288.919 12.1037 289.418 12.2878 289.801 12.685C290.183 13.0822 290.374 13.5763 290.374 14.1738C290.374 14.684 290.231 15.1297 289.946 15.5172C289.567 16.0307 289.033 16.2858 288.343 16.2858C287.653 16.2858 287.115 16.0404 286.736 15.5527C286.438 15.1652 286.289 14.7066 286.289 14.177C286.289 13.5828 286.483 13.0855 286.872 12.6882C287.261 12.291 287.74 12.1037 288.307 12.1263ZM288.343 12.3169C287.99 12.3169 287.724 12.5042 287.539 12.8788C287.39 13.1856 287.316 13.628 287.316 14.2061C287.316 14.8907 287.432 15.3977 287.662 15.7239C287.824 15.9532 288.048 16.0662 288.336 16.0662C288.531 16.0662 288.693 16.0177 288.825 15.9176C288.991 15.7917 289.12 15.5882 289.214 15.3137C289.308 15.036 289.354 14.6743 289.354 14.2287C289.354 13.699 289.305 13.3018 289.211 13.037C289.117 12.7722 288.997 12.5881 288.848 12.4783C288.702 12.3685 288.534 12.3169 288.343 12.3169Z" fill="#FAFAFA"/>
<path d="M293.351 14.8293L294.394 12.1845H295.959V12.2943H295.833C295.719 12.2943 295.629 12.3137 295.561 12.3556C295.512 12.3847 295.476 12.4299 295.447 12.4945C295.428 12.5429 295.415 12.6657 295.415 12.8659V15.5107C295.415 15.7174 295.425 15.8434 295.447 15.895C295.467 15.9467 295.512 15.9919 295.574 16.0307C295.638 16.0694 295.723 16.0888 295.833 16.0888H295.959V16.1986H293.95V16.0888H294.077C294.19 16.0888 294.281 16.0694 294.349 16.0275C294.398 15.9984 294.433 15.9532 294.462 15.8854C294.482 15.8369 294.495 15.7142 294.495 15.514V12.5397L293.021 16.1986H292.953L291.456 12.5655V15.3913C291.456 15.5883 291.459 15.711 291.469 15.7562C291.495 15.8531 291.547 15.9338 291.631 15.9984C291.715 16.063 291.841 16.092 292.02 16.092V16.2018H290.704V16.092H290.743C290.827 16.092 290.908 16.0791 290.983 16.0501C291.057 16.021 291.113 15.979 291.151 15.9273C291.19 15.8757 291.219 15.8046 291.239 15.711C291.242 15.6884 291.245 15.5883 291.245 15.4106V12.8723C291.245 12.6689 291.236 12.5429 291.213 12.4913C291.194 12.4396 291.148 12.3976 291.087 12.3589C291.022 12.3201 290.938 12.3007 290.827 12.3007H290.704V12.1909H292.276L293.358 14.8358L293.351 14.8293Z" fill="#FAFAFA"/>
<path d="M176.092 32L175.35 31.2443C175.172 31.3961 175 31.5188 174.835 31.6157C174.673 31.7094 174.521 31.7869 174.381 31.8418C174.242 31.8967 174.116 31.9322 174.005 31.9516C173.895 31.971 173.805 31.9806 173.737 31.9871C173.51 31.9968 173.296 31.971 173.095 31.9096C172.894 31.8482 172.716 31.7514 172.557 31.6254C172.399 31.4995 172.269 31.3477 172.165 31.1733C172.062 30.9989 171.997 30.8019 171.971 30.5856C171.935 30.2691 171.977 29.9946 172.101 29.7588C172.224 29.5231 172.405 29.3035 172.642 29.1033C172.7 29.0548 172.774 28.9999 172.868 28.9321C172.962 28.8675 173.04 28.8126 173.102 28.7706C172.917 28.551 172.784 28.3185 172.703 28.0763C172.622 27.8341 172.599 27.5887 172.635 27.3368C172.661 27.1172 172.732 26.917 172.846 26.7361C172.959 26.5585 173.105 26.4067 173.283 26.2872C173.468 26.1678 173.672 26.087 173.895 26.045C174.119 26.0031 174.339 26.016 174.556 26.0741C174.773 26.1322 174.968 26.2356 175.143 26.3809C175.318 26.5294 175.447 26.7006 175.538 26.9008C175.632 27.101 175.677 27.311 175.674 27.5273C175.667 27.7469 175.616 27.9568 175.515 28.1603C175.431 28.3282 175.311 28.4768 175.156 28.6059C175 28.7351 174.825 28.8578 174.631 28.9709L175.327 29.6878C175.518 29.4197 175.658 29.2034 175.752 29.0419C175.842 28.8804 175.891 28.7965 175.891 28.79L176.847 29.255C176.847 29.255 176.785 29.3681 176.678 29.5618C176.571 29.7556 176.406 30.0075 176.183 30.3175C176.16 30.3433 176.144 30.3692 176.127 30.3886C176.111 30.4112 176.095 30.4338 176.079 30.4596L176.924 31.3574L176.095 31.9968L176.092 32ZM173.665 29.494C173.523 29.5715 173.4 29.6555 173.293 29.7459C173.27 29.7621 173.244 29.7879 173.209 29.8234C173.173 29.8589 173.14 29.9074 173.108 29.9655C173.076 30.0236 173.053 30.0915 173.034 30.1754C173.014 30.2562 173.014 30.3498 173.03 30.4564C173.047 30.6049 173.115 30.7309 173.241 30.8342C173.364 30.9408 173.513 30.9957 173.688 31.0086C173.814 31.0151 173.928 31.0021 174.031 30.9699C174.135 30.9376 174.226 30.8988 174.307 30.8504C174.388 30.8019 174.462 30.7535 174.524 30.7018C174.585 30.6501 174.644 30.5985 174.689 30.5533L173.662 29.4972L173.665 29.494ZM173.643 27.4046C173.626 27.5564 173.652 27.7146 173.72 27.8729C173.788 28.0343 173.873 28.1667 173.973 28.2701C174.048 28.2281 174.125 28.1797 174.206 28.1215C174.287 28.0634 174.359 28.0053 174.417 27.9471C174.579 27.7792 174.663 27.5822 174.663 27.3562C174.663 27.2205 174.615 27.1107 174.521 27.03C174.427 26.9493 174.316 26.9041 174.193 26.9008C174.07 26.8944 173.95 26.9331 173.84 27.0106C173.73 27.0881 173.665 27.2205 173.643 27.4046Z" fill="#FAFAFA"/>
<path d="M186.31 26.129V31.8902H185.202V28.9741L183.391 31.141L181.589 28.9741V31.8902H180.481V26.129H180.553L183.391 29.4553L186.238 26.129H186.31Z" fill="#FAFAFA"/>
<path d="M188.691 27.0978V28.5413H191.49V29.5425H188.691V30.8988H191.846V31.8934H187.583V26.1225H191.846V27.101H188.691V27.0978Z" fill="#FAFAFA"/>
<path d="M198.63 26.129V31.8902H197.522V28.9741L195.711 31.141L193.907 28.9741V31.8902H192.799V26.129H192.87L195.708 29.4553L198.556 26.129H198.627H198.63Z" fill="#FAFAFA"/>
<path d="M204.141 27.7243C204.141 27.8406 204.118 27.9633 204.07 28.0957C204.021 28.2281 203.956 28.3476 203.875 28.4606C203.794 28.5704 203.694 28.6641 203.577 28.7416C203.461 28.8191 203.334 28.8578 203.198 28.8643C203.341 28.874 203.483 28.9159 203.623 28.987C203.762 29.058 203.888 29.1517 203.998 29.2744C204.108 29.3939 204.199 29.5328 204.27 29.691C204.342 29.8492 204.377 30.0172 204.377 30.1948C204.377 30.508 204.329 30.7761 204.235 30.9924C204.141 31.2088 204.011 31.3864 203.846 31.5188C203.684 31.6512 203.493 31.7481 203.273 31.8063C203.052 31.8644 202.819 31.8934 202.573 31.8934H199.9V26.1225H202.447C202.68 26.1225 202.897 26.1451 203.104 26.1903C203.308 26.2356 203.49 26.3163 203.642 26.4358C203.794 26.5553 203.917 26.7167 204.005 26.9266C204.096 27.1333 204.141 27.4014 204.141 27.7275V27.7243ZM201.008 28.4671H202.369C202.479 28.4671 202.576 28.4477 202.657 28.4025C202.738 28.3605 202.806 28.3056 202.861 28.2345C202.916 28.1635 202.958 28.0892 202.988 28.002C203.017 27.9148 203.03 27.8276 203.03 27.7437C203.03 27.6597 203.013 27.579 202.981 27.4982C202.949 27.4175 202.907 27.3497 202.855 27.2916C202.803 27.2334 202.741 27.185 202.67 27.1495C202.599 27.114 202.524 27.0946 202.443 27.0946H201.005V28.4671H201.008ZM202.573 30.9117C202.667 30.9117 202.758 30.8891 202.842 30.8439C202.926 30.7987 203.001 30.7373 203.062 30.663C203.127 30.5855 203.175 30.5016 203.211 30.4112C203.247 30.3207 203.266 30.2271 203.266 30.1302C203.266 29.9364 203.195 29.7717 203.049 29.6426C202.903 29.5102 202.706 29.4456 202.453 29.4456H201.005V30.9117H202.57H202.573Z" fill="#FAFAFA"/>
<path d="M206.506 27.0978V28.5413H209.305V29.5425H206.506V30.8988H209.661V31.8934H205.398V26.1225H209.661V27.101H206.506V27.0978Z" fill="#FAFAFA"/>
<path d="M211.906 31.8902H210.798V26.1193H213.429C213.724 26.1193 213.996 26.1677 214.242 26.2646C214.488 26.3615 214.699 26.4971 214.871 26.6747C215.046 26.8491 215.182 27.0623 215.279 27.3045C215.376 27.5499 215.425 27.8147 215.425 28.1054C215.425 28.5413 215.314 28.9224 215.097 29.2486C214.88 29.5747 214.586 29.8073 214.223 29.9493C214.709 30.592 215.188 31.2379 215.664 31.887H214.343C214.113 31.5866 213.886 31.2863 213.665 30.9795C213.445 30.676 213.225 30.3659 213.005 30.0495H211.91V31.887L211.906 31.8902ZM211.906 29.0774H213.429C213.529 29.0774 213.633 29.058 213.74 29.0193C213.847 28.9805 213.944 28.9192 214.028 28.8384C214.113 28.7577 214.181 28.6544 214.239 28.5349C214.294 28.4154 214.32 28.2733 214.32 28.1086C214.32 28.0246 214.31 27.9245 214.287 27.8083C214.265 27.692 214.223 27.5822 214.161 27.4756C214.1 27.3691 214.009 27.2819 213.892 27.2076C213.776 27.1333 213.623 27.0978 213.426 27.0978H211.903V29.0774H211.906Z" fill="#FAFAFA"/>
<path d="M224.496 30.4725C224.369 30.705 224.214 30.9117 224.029 31.099C223.845 31.2863 223.64 31.4445 223.417 31.5802C223.193 31.7158 222.95 31.8192 222.688 31.8902C222.426 31.9613 222.157 32 221.878 32C221.467 32 221.078 31.9225 220.715 31.7643C220.352 31.606 220.035 31.3929 219.763 31.1216C219.49 30.8503 219.277 30.5339 219.118 30.1722C218.959 29.8105 218.881 29.423 218.881 29.0128C218.881 28.6027 218.959 28.2152 219.118 27.8535C219.277 27.4918 219.49 27.1753 219.763 26.904C220.035 26.6328 220.352 26.4196 220.715 26.2614C221.078 26.1031 221.467 26.0256 221.878 26.0256C222.157 26.0256 222.429 26.0612 222.688 26.1354C222.947 26.2097 223.19 26.3131 223.417 26.4455C223.644 26.5779 223.845 26.7393 224.029 26.9266C224.214 27.1139 224.369 27.3206 224.496 27.5467L223.459 27.9633C223.375 27.8373 223.274 27.7178 223.161 27.608C223.048 27.4982 222.921 27.4014 222.785 27.3174C222.649 27.2334 222.503 27.1688 222.351 27.1204C222.199 27.072 222.04 27.0494 221.878 27.0494C221.616 27.0494 221.369 27.1043 221.139 27.2108C220.909 27.3174 220.712 27.4627 220.543 27.6403C220.375 27.8179 220.239 28.0279 220.138 28.2668C220.038 28.5058 219.989 28.7545 219.989 29.0128C219.989 29.2712 220.038 29.5263 220.138 29.762C220.239 29.9978 220.372 30.2077 220.543 30.3853C220.712 30.5629 220.909 30.7082 221.139 30.8148C221.369 30.9214 221.616 30.9763 221.878 30.9763C222.04 30.9763 222.199 30.9537 222.351 30.9052C222.503 30.8568 222.649 30.7922 222.785 30.7082C222.921 30.6243 223.048 30.5242 223.161 30.4111C223.274 30.2981 223.375 30.1786 223.459 30.0527L224.496 30.4693V30.4725Z" fill="#FAFAFA"/>
<path d="M228.053 32C227.641 32 227.252 31.9225 226.89 31.7643C226.527 31.606 226.209 31.3929 225.937 31.1216C225.665 30.8503 225.451 30.5339 225.292 30.1722C225.134 29.8105 225.056 29.4197 225.056 29.0064C225.056 28.593 225.134 28.2087 225.292 27.8438C225.451 27.4789 225.665 27.1592 225.937 26.8911C226.209 26.6198 226.527 26.4067 226.89 26.2485C227.252 26.0902 227.641 26.0127 228.053 26.0127C228.464 26.0127 228.859 26.0902 229.222 26.2485C229.585 26.4067 229.902 26.6198 230.175 26.8911C230.447 27.1624 230.661 27.4789 230.819 27.8438C230.978 28.2087 231.056 28.5962 231.056 29.0064C231.056 29.4165 230.978 29.8105 230.819 30.1722C230.661 30.5339 230.447 30.8503 230.175 31.1216C229.902 31.3929 229.585 31.606 229.222 31.7643C228.859 31.9225 228.467 32 228.053 32ZM228.056 27.0429C227.793 27.0429 227.547 27.0978 227.317 27.2044C227.087 27.3109 226.89 27.4563 226.718 27.6339C226.546 27.8115 226.41 28.0214 226.313 28.2604C226.216 28.4994 226.164 28.748 226.164 29.0064C226.164 29.2647 226.212 29.5198 226.313 29.7556C226.413 29.9913 226.549 30.2012 226.718 30.3821C226.89 30.5629 227.09 30.7083 227.317 30.8148C227.547 30.9214 227.793 30.9763 228.056 30.9763C228.318 30.9763 228.564 30.9214 228.794 30.8148C229.024 30.7083 229.222 30.5629 229.394 30.3821C229.566 30.2012 229.702 29.9913 229.799 29.7556C229.899 29.5198 229.948 29.2712 229.948 29.0064C229.948 28.7416 229.896 28.4994 229.799 28.2604C229.702 28.0214 229.562 27.8115 229.394 27.6339C229.222 27.4563 229.021 27.3109 228.794 27.2044C228.564 27.0978 228.318 27.0429 228.056 27.0429Z" fill="#FAFAFA"/>
<path d="M237.866 26.129V31.8902H236.758V28.9741L234.947 31.141L233.142 28.9741V31.8902H232.034V26.129H232.105L234.943 29.4553L237.791 26.129H237.862H237.866Z" fill="#FAFAFA"/>
<path d="M241.718 26.1225C242.003 26.1225 242.268 26.1774 242.521 26.284C242.771 26.3906 242.988 26.5391 243.172 26.72C243.357 26.904 243.503 27.1204 243.61 27.3691C243.717 27.6177 243.772 27.8858 243.772 28.17C243.772 28.4541 243.723 28.7157 243.629 28.9579C243.535 29.2001 243.396 29.41 243.211 29.5909C243.027 29.7717 242.793 29.9138 242.511 30.0172C242.23 30.1205 241.902 30.1722 241.536 30.1722H240.247V31.8902H239.139V26.1193H241.718V26.1225ZM241.718 29.1808C241.88 29.1808 242.022 29.1517 242.145 29.0968C242.265 29.0419 242.366 28.9676 242.443 28.8707C242.521 28.7771 242.576 28.6673 242.612 28.5478C242.647 28.4283 242.667 28.3024 242.667 28.17C242.667 28.0376 242.644 27.9084 242.596 27.7792C242.547 27.65 242.479 27.537 242.392 27.4369C242.301 27.3368 242.191 27.256 242.061 27.1914C241.928 27.1269 241.776 27.0978 241.601 27.0978H240.25V29.1775H241.721L241.718 29.1808Z" fill="#FAFAFA"/>
<path d="M243.094 31.8902L246.052 26.129H246.162L249.12 31.8902H247.918L247.468 30.9828H244.74L244.296 31.8902H243.094ZM245.278 30.0204H246.93L246.107 28.2798L245.278 30.0204Z" fill="#FAFAFA"/>
<path d="M254.712 31.8902L250.908 28.4606V31.8902H249.801V26.129H249.92L253.724 29.6135V26.129H254.832V31.8902H254.712Z" fill="#FAFAFA"/>
<path d="M257.359 31.8902H256.251V26.129H257.359V31.8902Z" fill="#FAFAFA"/>
<path d="M259.889 27.0978V28.5413H262.688V29.5425H259.889V30.8988H263.044V31.8934H258.781V26.1225H263.044V27.101H259.889V27.0978Z" fill="#FAFAFA"/>
<path d="M263.955 31.1345L264.554 30.2529C264.846 30.4531 265.144 30.6243 265.451 30.7696C265.759 30.9149 266.083 30.986 266.42 30.986C266.598 30.986 266.757 30.9634 266.893 30.9182C267.029 30.873 267.146 30.8148 267.24 30.7438C267.334 30.6727 267.405 30.592 267.453 30.4983C267.502 30.4079 267.525 30.3175 267.525 30.2271C267.525 30.1108 267.489 30.0139 267.418 29.93C267.347 29.846 267.253 29.7814 267.133 29.7298C267.013 29.6781 266.874 29.6329 266.715 29.5973C266.553 29.5618 266.388 29.5263 266.213 29.494C266.096 29.4714 265.963 29.4488 265.808 29.4197C265.655 29.3907 265.497 29.3519 265.335 29.3002C265.173 29.2518 265.011 29.184 264.852 29.1033C264.693 29.0225 264.551 28.9192 264.424 28.7965C264.298 28.6737 264.198 28.5252 264.12 28.354C264.042 28.1829 264.006 27.9827 264.006 27.7501C264.006 27.4143 264.075 27.1333 264.211 26.9105C264.347 26.6877 264.522 26.5101 264.735 26.3809C264.949 26.2517 265.186 26.1613 265.448 26.1096C265.711 26.0579 265.96 26.0321 266.203 26.0321C266.446 26.0321 266.663 26.0483 266.851 26.0805C267.039 26.1128 267.217 26.1581 267.379 26.2194C267.541 26.2808 267.703 26.355 267.858 26.4487C268.014 26.5423 268.182 26.6489 268.361 26.7749L267.745 27.6436C267.47 27.453 267.207 27.3109 266.955 27.2108C266.702 27.1107 266.436 27.0623 266.154 27.0623C266.06 27.0623 265.95 27.0752 265.83 27.0978C265.711 27.1204 265.594 27.1592 265.487 27.2108C265.38 27.2625 265.289 27.3303 265.218 27.4111C265.147 27.4918 265.111 27.5919 265.111 27.7082C265.111 27.8244 265.153 27.9213 265.238 27.9988C265.322 28.0763 265.429 28.1441 265.562 28.1958C265.694 28.2475 265.837 28.2927 265.996 28.3314C266.154 28.367 266.307 28.4057 266.456 28.4412C266.566 28.4671 266.695 28.4929 266.848 28.5187C266.997 28.5446 267.152 28.5833 267.314 28.6285C267.476 28.6737 267.635 28.7383 267.794 28.8191C267.952 28.8998 268.092 28.9999 268.218 29.1226C268.344 29.2453 268.442 29.3971 268.519 29.5812C268.597 29.7653 268.633 29.9816 268.633 30.24C268.633 30.5403 268.581 30.7987 268.474 31.0215C268.367 31.2411 268.218 31.4252 268.024 31.5705C267.829 31.7158 267.596 31.8256 267.327 31.8967C267.058 31.9709 266.76 32.0065 266.433 32.0065C266.132 32.0065 265.866 31.9839 265.639 31.9387C265.409 31.8934 265.202 31.8321 265.011 31.7578C264.82 31.6803 264.641 31.5899 264.473 31.4865C264.305 31.38 264.13 31.2669 263.951 31.141L263.955 31.1345Z" fill="#FAFAFA"/>
</g>
<defs>
<clipPath id="clip0_1015_1521">
<rect width="304" height="32" fill="white"/>
</clipPath>
</defs>
</svg>
