<?xml version="1.0" encoding="UTF-8"?><svg id="_1_HERO_BANNER" xmlns="http://www.w3.org/2000/svg" xmlns:xlink="http://www.w3.org/1999/xlink" viewBox="0 0 1051.17 1025.53"><defs><style>.cls-1,.cls-2,.cls-3,.cls-4,.cls-5,.cls-6,.cls-7,.cls-8,.cls-9,.cls-10,.cls-11,.cls-12,.cls-13,.cls-14,.cls-15,.cls-16,.cls-17,.cls-18,.cls-19,.cls-20,.cls-21,.cls-22{stroke-width:2px;}.cls-1,.cls-3,.cls-5,.cls-7,.cls-12,.cls-23,.cls-13,.cls-16,.cls-18,.cls-20{fill:none;}.cls-1,.cls-4,.cls-6,.cls-7,.cls-9,.cls-12,.cls-14,.cls-16,.cls-18,.cls-20{stroke-miterlimit:10;}.cls-1,.cls-14{stroke:#f6f6f6;}.cls-2,.cls-24,.cls-6,.cls-17{fill:#f6f6f6;}.cls-2,.cls-3,.cls-5,.cls-7,.cls-8,.cls-9,.cls-10,.cls-11,.cls-13,.cls-15,.cls-17,.cls-19,.cls-21,.cls-22{stroke-linecap:round;}.cls-2,.cls-3,.cls-5,.cls-8,.cls-10,.cls-11,.cls-13,.cls-15,.cls-17,.cls-19,.cls-21,.cls-22{stroke-linejoin:round;}.cls-2,.cls-7,.cls-10,.cls-11,.cls-12,.cls-13,.cls-21,.cls-22{stroke:#1d1d1b;}.cls-25,.cls-9,.cls-11,.cls-14,.cls-19{fill:#fff;}.cls-26,.cls-10{fill:#dedfdf;}.cls-3{stroke:url(#_Безымянный_градиент_20);}.cls-27{clip-path:url(#clippath-2);}.cls-4,.cls-5,.cls-6,.cls-17,.cls-18{stroke:#ededed;}.cls-4,.cls-28{fill:#fcfcfc;}.cls-8{fill:#f9f9f9;}.cls-8,.cls-9,.cls-15,.cls-19{stroke:#dadada;}.cls-29{clip-path:url(#clippath-1);}.cls-30{clip-path:url(#clippath);}.cls-31,.cls-22{fill:#ebebeb;}.cls-32{clip-path:url(#clippath-3);}.cls-15,.cls-33{fill:#ededed;}.cls-16{stroke:url(#_Безымянный_градиент_20-3);}.cls-20{stroke:url(#_Безымянный_градиент_20-2);}.cls-21,.cls-34{fill:#c6c6c6;}.cls-35{fill:#1d1d1b;}</style><linearGradient id="_Безымянный_градиент_20" x1="332.32" y1="784.71" x2="985.37" y2="784.71" gradientUnits="userSpaceOnUse"><stop offset="0" stop-color="#000"/><stop offset=".89" stop-color="#f6f6f6"/></linearGradient><linearGradient id="_Безымянный_градиент_20-2" x1="686.41" y1="784.71" x2="1037.02" y2="784.71" xlink:href="#_Безымянный_градиент_20"/><linearGradient id="_Безымянный_градиент_20-3" x1="749.62" y1="785.65" x2="1050.02" y2="785.65" xlink:href="#_Безымянный_градиент_20"/><clipPath id="clippath"><rect class="cls-23" x="505.45" y="482.39" width="53.28" height="157.19" rx="26.64" ry="26.64" transform="translate(1064.17 1121.97) rotate(180)"/></clipPath><clipPath id="clippath-1"><circle class="cls-23" cx="532.25" cy="560.51" r="17.47"/></clipPath><clipPath id="clippath-2"><circle id="SVGID" class="cls-23" cx="532.25" cy="606.72" r="17.47"/></clipPath><clipPath id="clippath-3"><circle id="SVGID-2" class="cls-23" cx="532.25" cy="514.96" r="17.47"/></clipPath></defs><g id="left"><g id="road_lines"><path class="cls-3" d="M984.37,546.3c-217.02,158.94-434.03,317.88-651.05,476.82"/><path class="cls-20" d="M687.21,1023.12c116.33-158.94,232.67-317.88,349-476.82"/><path class="cls-16" d="M750.47,1025c99.57-159.57,199.13-319.13,298.7-478.7"/><line class="cls-14" x1="1051.17" y1="546.3" x2="831.23" y2="546.3"/></g><g id="_5_HOUSE"><path class="cls-4" d="M596.45,122.65c.03-16.59,.06-33.17,.1-49.76-18.74-14.16-37.48-28.33-56.22-42.49-.15,30.3-.29,60.6-.44,90.9,18.85,.45,37.71,.9,56.56,1.35Z"/><path class="cls-6" d="M540.33,110.65V30.4c-39.42,0-78.85,.01-118.27,.02V248.51c40.94,9.59,81.88,19.18,122.81,28.77-1.51-55.54-3.03-111.09-4.54-166.63Z"/><rect class="cls-28" x="435.89" y="59.8" width="37.93" height="37.93"/><rect class="cls-28" x="487.95" y="59.8" width="37.93" height="37.93"/><rect class="cls-28" x="435.89" y="126.02" width="37.93" height="37.93"/><rect class="cls-28" x="487.95" y="126.02" width="37.93" height="37.93"/><rect class="cls-28" x="435.89" y="192.24" width="37.93" height="37.93"/><rect class="cls-28" x="487.95" y="192.24" width="37.93" height="37.93"/></g><g id="_4_HOUSE"><path class="cls-4" d="M748.24,613.33c.03-78.48,.05-156.97,.08-235.45h31.85c17.02,11.98,34.05,23.95,51.07,35.93v155.95c-27.66,14.52-55.33,29.05-82.99,43.57Z"/><path class="cls-6" d="M780.16,377.87v218.13h-27.65c.25-72.71,.5-145.42,.74-218.13h26.91Z"/><line class="cls-4" x1="795.88" y1="389.86" x2="795.88" y2="334.05"/><circle class="cls-33" cx="795.88" cy="328.5" r="5.8"/></g><g id="_3_HOUSE"><path class="cls-17" d="M663.03,661.19c-17.83,9.82-35.66,19.64-53.48,29.46h-108.15V111.64h162.4l-.76,549.55Z"/><path class="cls-4" d="M663.79,111.64c30.03,27.48,60.07,54.95,90.1,82.43-.48,139.29-.95,278.57-1.43,417.86-29.81,16.42-59.62,32.84-89.43,49.26l.76-549.55Z"/><path class="cls-18" d="M663.74,111.64V657.93c-17.67-.22-35.34-.45-53.01-.67"/><path class="cls-24" d="M679.02,227.17c-.08-15.98-.16-31.96-.24-47.93l25.4,19.49c-.01,14.81-.03,29.63-.04,44.44-8.37-5.33-16.74-10.67-25.11-16Z"/><path class="cls-24" d="M717.53,251.71c-.07-14.29-.13-28.59-.2-42.88,8.43,6.47,16.85,12.93,25.28,19.4-.03,13.14-.05,26.27-.08,39.41-8.33-5.31-16.66-10.62-25-15.93Z"/><polygon class="cls-24" points="678.78 277.63 678.78 331.42 704.18 340.43 704.18 290.36 678.78 277.63"/><polygon class="cls-24" points="717.33 296.95 717.33 345.09 742.61 354.06 742.61 309.61 717.33 296.95"/><polygon class="cls-24" points="678.78 378.99 704.18 384.72 704.18 433.63 678.78 431.54 678.78 378.99"/><polygon class="cls-24" points="717.33 387.68 717.33 434.72 742.61 436.81 742.61 393.38 717.33 387.68"/><polygon class="cls-24" points="678.78 481.08 678.78 530.72 704.18 525.97 704.18 479.76 678.78 481.08"/><polygon class="cls-24" points="717.33 479.07 717.33 523.51 742.61 518.78 742.61 477.75 717.33 479.07"/><rect class="cls-28" x="525.79" y="161.07" width="115.52" height="51.46"/><path class="cls-28" d="M526.17,277.28c-.13-2.93-.25-5.87-.38-8.8h115.52v51.46h-30.41"/><path class="cls-28" d="M610.67,375.9h30.63v51.46h-30.41"/><path class="cls-28" d="M610.3,483.32h31.01v51.46h-30.41"/></g><g id="_2_HOUSE"><path class="cls-8" d="M610.88,307.33c-.44,128.24-.89,256.48-1.33,384.71-54.9,29.48-109.8,58.96-164.7,88.44,.07-177.32,.14-354.65,.21-531.97,55.27,19.61,110.55,39.22,165.82,58.82Z"/><path class="cls-9" d="M472.23,307.56l111.14,32.87c.06,20.17,.12,40.35,.18,60.52-37.11-6.64-74.21-13.29-111.32-19.93v-73.46Z"/><polygon class="cls-19" points="471.74 426.21 583.55 440.27 583.55 499.78 471.74 499.78 471.74 426.21"/><polygon class="cls-19" points="471.74 538.61 583.55 530.72 583.55 590.6 471.74 612.74 471.74 538.61"/><line class="cls-19" x1="445.05" y1="780.48" x2="407.61" y2="780.48"/><polyline class="cls-9" points="472.23 312.04 578.42 345.24 578.42 400.03"/><polyline class="cls-19" points="472.23 430.35 578.42 445.17 578.42 499.78"/><polyline class="cls-19" points="577.84 591.73 578.42 537.78 516.02 541.45"/><line class="cls-9" x1="527.03" y1="328.64" x2="527.03" y2="390.53"/><line class="cls-19" x1="527.03" y1="438.12" x2="527.03" y2="500.63"/><line class="cls-19" x1="527.03" y1="540.75" x2="527.03" y2="601.62"/><path class="cls-15" d="M407.13,267.64h37.93l165.82,57.87v-18.17l-165.82-58.82h-37.93v19.13Z"/></g><g id="TRAFFIC_LIGHTS"><rect class="cls-2" x="491.25" y="874.9" width="67.68" height="114.82"/><polygon class="cls-10" points="558.93 874.9 571.65 866.98 571.65 983.08 558.93 989.72 558.93 874.9"/><polygon class="cls-2" points="491.25 874.9 505.41 866.98 571.65 866.98 558.93 874.9 491.25 874.9"/><polyline class="cls-11" points="523.11 693.06 523.11 634.84 541.39 634.84 541.39 870.94 523.11 870.94 523.11 710.08"/><rect class="cls-26" x="524.19" y="634.72" width="3.25" height="234.9"/><line class="cls-11" x1="523.11" y1="704.34" x2="523.11" y2="699.79"/><rect class="cls-25" x="505.45" y="482.55" width="53.28" height="157.19" rx="26.64" ry="26.64"/><g class="cls-30"><path class="cls-26" d="M535.04,476.8c-7.28,4.56-17.88,12.93-22.2,26.58-.53,1.68-.97,3.37-1.55,7.09-1.5,9.5-.46,18.97-1.45,53.09-.39,13.45-.74,18.68-.36,28.8,.49,13.15,.17,26.07,4.8,34.29,5.44,9.66,5.63,9.99,5.63,9.99,3.17,5.38,4.27,6.86,3.93,7.21-.58,.59-5.13-2.29-23-18-.65-44.76-1.3-89.52-1.96-134.28,12.05-4.92,24.1-9.84,36.16-14.76Z"/></g><rect class="cls-13" x="505.61" y="482.39" width="53.28" height="157.19" rx="26.64" ry="26.64"/><circle class="cls-33" cx="532.25" cy="560.51" r="17.47"/><g class="cls-29"><path class="cls-26" d="M532.25,540.34c-8.12,5.89-12.44,15.31-11.05,24.43,1.27,8.34,6.85,13.43,8.64,14.94-2.16-.07-6.77-.53-10.8-3.78-6.47-5.21-7.84-14.66-5.22-21.89,2.75-7.61,9.98-12.98,18.44-13.7Z"/></g><circle class="cls-13" cx="532.25" cy="560.51" r="17.47"/><g class="cls-27"><path class="cls-33" d="M532.25,586.55c-8.12,5.89-12.44,15.31-11.05,24.43,1.27,8.34,6.85,13.43,8.64,14.94-2.16-.07-6.77-.53-10.8-3.78-6.47-5.21-7.84-14.66-5.22-21.89,2.75-7.61,9.98-12.98,18.44-13.7Z"/></g><circle class="cls-13" cx="532.25" cy="606.72" r="17.47"/><circle class="cls-26" cx="532.25" cy="514.96" r="17.47"/><g class="cls-32"><path class="cls-34" d="M532.25,494.78c-8.12,5.89-12.44,15.31-11.05,24.43,1.27,8.34,6.85,13.43,8.64,14.94-2.16-.07-6.77-.53-10.8-3.78-6.47-5.21-7.84-14.66-5.22-21.89,2.75-7.61,9.98-12.98,18.44-13.7Z"/></g><circle class="cls-13" cx="532.25" cy="514.96" r="17.47"/></g><g id="_1_HOUSE"><g id="house_decoration"><g><line class="cls-1" x1="219.38" y1="17.58" x2="407.61" y2="61.27"/><line class="cls-1" x1="217.37" y1="34.8" x2="407.61" y2="78.95"/><line class="cls-1" x1="217.05" y1="87.73" x2="404.21" y2="127.53"/><line class="cls-1" x1="217.82" y1="105.29" x2="404.21" y2="142.88"/><line class="cls-1" x1="237.08" y1="125.31" x2="404.21" y2="156.99"/><line class="cls-1" x1="218.98" y1="140.38" x2="404.21" y2="174.47"/><line class="cls-1" x1="218.92" y1="156.65" x2="404.21" y2="192.03"/><line class="cls-1" x1="218.98" y1="174.47" x2="404.21" y2="217.62"/><line class="cls-1" x1="308.68" y1="213.69" x2="404.21" y2="236.46"/><line class="cls-1" x1="217.82" y1="192.03" x2="291.12" y2="209.5"/><line class="cls-1" x1="271.68" y1="222.48" x2="404.21" y2="254.68"/><line class="cls-1" x1="218.6" y1="209.59" x2="249.75" y2="217.16"/><line class="cls-1" x1="373.21" y1="265.15" x2="404.21" y2="272.68"/><line class="cls-1" x1="218.21" y1="227.5" x2="354.35" y2="260.57"/><line class="cls-1" x1="356.45" y1="84.17" x2="407.61" y2="95.94"/><line class="cls-1" x1="218.16" y1="52.36" x2="333.77" y2="78.95"/><line class="cls-1" x1="217.05" y1="70.17" x2="407.61" y2="111.64"/><line class="cls-1" x1="303.97" y1="312.65" x2="407.61" y2="335.08"/><line class="cls-1" x1="219.02" y1="294.27" x2="291.5" y2="309.96"/><line class="cls-1" x1="371.09" y1="345.96" x2="407.61" y2="354.06"/><line class="cls-1" x1="217.26" y1="311.83" x2="351" y2="341.5"/><line class="cls-1" x1="275.77" y1="341.5" x2="407.61" y2="369.16"/><line class="cls-1" x1="218.05" y1="329.39" x2="257.47" y2="337.66"/><line class="cls-1" x1="219.38" y1="349.28" x2="407.61" y2="382.67"/><line class="cls-1" x1="217.73" y1="382.33" x2="407.61" y2="416.13"/><line class="cls-1" x1="218.52" y1="398.57" x2="407.61" y2="433.69"/><line class="cls-1" x1="217.9" y1="416.13" x2="407.61" y2="449.53"/><path class="cls-1" d="M218.84,433.69c50.75,6.81,101.5,13.62,152.25,20.43"/><path class="cls-1" d="M217.9,451.5c63.24,4.83,126.47,9.67,189.71,14.5"/><line class="cls-1" x1="218.52" y1="486.62" x2="407.61" y2="486.97"/><line class="cls-1" x1="386.11" y1="500.32" x2="407.61" y2="499.78"/><line class="cls-1" x1="265.01" y1="503.36" x2="364.61" y2="500.86"/><line class="cls-1" x1="218.12" y1="504.53" x2="241.95" y2="503.94"/><line class="cls-1" x1="281.34" y1="519.19" x2="407.61" y2="513.31"/><line class="cls-1" x1="218.91" y1="522.09" x2="265.02" y2="519.95"/><line class="cls-1" x1="217.17" y1="538.47" x2="407.61" y2="526.84"/><line class="cls-1" x1="218.29" y1="573.59" x2="407.61" y2="556.03"/><line class="cls-1" x1="219.38" y1="591.11" x2="407.61" y2="573.93"/><line class="cls-1" x1="217.96" y1="626.53" x2="407.61" y2="608.97"/><line class="cls-1" x1="219.38" y1="645.48" x2="407.61" y2="626.87"/><line class="cls-1" x1="217.73" y1="663.14" x2="407.61" y2="645.48"/><line class="cls-1" x1="219.08" y1="677.89" x2="407.61" y2="657.93"/><line class="cls-1" x1="218.84" y1="693.73" x2="407.61" y2="670.69"/><path class="cls-1" d="M241.95,760.72c44.99-11,89.99-22,134.98-33"/><path class="cls-1" d="M219.38,783.22c62.74-17.3,125.49-34.6,188.23-51.9"/><path class="cls-1" d="M219.38,833.84c62.74-23.85,125.49-47.71,188.23-71.56"/><line class="cls-1" x1="321.12" y1="380.87" x2="321.12" y2="477.75"/><line class="cls-1" x1="249.64" y1="8.25" x2="249.64" y2="24.6"/><line class="cls-1" x1="281.34" y1="15.36" x2="281.34" y2="31.96"/><line class="cls-1" x1="312.33" y1="22.32" x2="312.49" y2="39.19"/><line class="cls-1" x1="344.69" y1="30.76" x2="344.69" y2="46.66"/><line class="cls-1" x1="377.33" y1="39.42" x2="377.33" y2="52.7"/><line class="cls-1" x1="393.75" y1="58.05" x2="393.76" y2="75.74"/><line class="cls-1" x1="360.9" y1="50.43" x2="360.9" y2="68.2"/><line class="cls-1" x1="328" y1="42.79" x2="328" y2="59.8"/><line class="cls-1" x1="265.05" y1="28.18" x2="265.05" y2="43.92"/><line class="cls-1" x1="232.95" y1="20.73" x2="232.95" y2="38.42"/><line class="cls-1" x1="249.64" y1="43.92" x2="249.64" y2="58.05"/><line class="cls-1" x1="232.95" y1="56.88" x2="232.95" y2="73.63"/><line class="cls-1" x1="249.64" y1="77.27" x2="249.64" y2="94.66"/><line class="cls-1" x1="232.95" y1="91.12" x2="232.95" y2="108.34"/><line class="cls-1" x1="249.64" y1="111.71" x2="249.64" y2="127.53"/><line class="cls-1" x1="232.95" y1="123.92" x2="232.95" y2="142.95"/><line class="cls-1" x1="249.64" y1="146.02" x2="249.64" y2="162.52"/><line class="cls-1" x1="232.95" y1="159.33" x2="232.95" y2="177.72"/><line class="cls-1" x1="249.64" y1="181.61" x2="249.64" y2="199.61"/><line class="cls-1" x1="232.95" y1="195.63" x2="232.95" y2="213.07"/><line class="cls-1" x1="281.34" y1="49.65" x2="281.34" y2="65.26"/><line class="cls-1" x1="311.6" y1="56.67" x2="311.6" y2="73.63"/><line class="cls-1" x1="344.69" y1="64.35" x2="344.69" y2="81.47"/><line class="cls-1" x1="393.76" y1="92.75" x2="393.76" y2="107.63"/><line class="cls-1" x1="360.9" y1="85.19" x2="360.9" y2="94.66"/><line class="cls-1" x1="328" y1="77.63" x2="328" y2="87.73"/><line class="cls-1" x1="295.6" y1="70.17" x2="295.6" y2="80.94"/><line class="cls-1" x1="265.05" y1="63.15" x2="265.05" y2="74.15"/><line class="cls-1" x1="393.75" y1="125.31" x2="393.75" y2="139.43"/><line class="cls-1" x1="393.75" y1="155.01" x2="393.75" y2="172.54"/><line class="cls-1" x1="393.76" y1="189.82" x2="393.75" y2="213.07"/><line class="cls-1" x1="281.34" y1="188.99" x2="281.34" y2="207.17"/><line class="cls-1" x1="265.05" y1="205.02" x2="265.05" y2="220.87"/><line class="cls-1" x1="232.95" y1="232.13" x2="232.95" y2="240.48"/><line class="cls-1" x1="265.05" y1="240.48" x2="265.05" y2="248.51"/><line class="cls-1" x1="281.34" y1="225.3" x2="281.34" y2="242.84"/><line class="cls-1" x1="311.4" y1="198.08" x2="311.4" y2="212.94"/><line class="cls-1" x1="341.69" y1="203.05" x2="341.69" y2="221.56"/><line class="cls-1" x1="269.26" y1="186.18" x2="269.26" y2="181.61"/><line class="cls-1" x1="326.92" y1="199.61" x2="326.92" y2="195.63"/><line class="cls-1" x1="366.48" y1="208.83" x2="366.48" y2="203.05"/><line class="cls-1" x1="377.33" y1="211.36" x2="377.33" y2="230.17"/><line class="cls-1" x1="298.91" y1="211.36" x2="298.91" y2="227.5"/><line class="cls-1" x1="328" y1="219.43" x2="328" y2="235.14"/><line class="cls-1" x1="310.63" y1="231.95" x2="310.63" y2="248.51"/><line class="cls-1" x1="298.91" y1="248.51" x2="298.91" y2="256.84"/><line class="cls-1" x1="328" y1="254.17" x2="328" y2="263.68"/><line class="cls-1" x1="341.69" y1="240.23" x2="341.69" y2="256.84"/><line class="cls-1" x1="360.89" y1="226.13" x2="360.89" y2="244.16"/><line class="cls-1" x1="393.75" y1="235.14" x2="393.75" y2="250.09"/><line class="cls-1" x1="360.89" y1="262.16" x2="360.89" y2="269.8"/><line class="cls-1" x1="232.95" y1="282.04" x2="232.95" y2="297.29"/><line class="cls-1" x1="249.64" y1="300.9" x2="249.64" y2="319.01"/><line class="cls-1" x1="232.95" y1="315.31" x2="232.95" y2="332.52"/><line class="cls-1" x1="249.64" y1="337.31" x2="249.64" y2="354.06"/><line class="cls-1" x1="231.97" y1="351.51" x2="231.97" y2="367.43"/><line class="cls-1" x1="249.64" y1="370.56" x2="249.64" y2="386.44"/><line class="cls-1" x1="231.97" y1="385.84" x2="231.97" y2="400.24"/><line class="cls-1" x1="249.64" y1="405.4" x2="249.64" y2="420.29"/><line class="cls-1" x1="231.97" y1="418.6" x2="231.97" y2="432.83"/><line class="cls-1" x1="249.64" y1="439" x2="249.64" y2="451.5"/><line class="cls-1" x1="231.97" y1="452.57" x2="231.97" y2="469.06"/><line class="cls-1" x1="249.64" y1="470.79" x2="249.64" y2="486.62"/><line class="cls-1" x1="231.97" y1="486.97" x2="231.97" y2="504.53"/><line class="cls-1" x1="249.64" y1="504.53" x2="249.64" y2="520.66"/><line class="cls-1" x1="231.97" y1="522.57" x2="231.97" y2="537.57"/><line class="cls-1" x1="249.64" y1="536.49" x2="249.64" y2="552.28"/><line class="cls-1" x1="231.97" y1="554.87" x2="231.97" y2="571"/><line class="cls-1" x1="249.64" y1="570.68" x2="249.64" y2="586.6"/><line class="cls-1" x1="267.41" y1="289.66" x2="267.41" y2="304.74"/><line class="cls-1" x1="298.91" y1="297.2" x2="298.91" y2="309.96"/><line class="cls-1" x1="328" y1="317.85" x2="328" y2="303.39"/><line class="cls-1" x1="360.89" y1="311.83" x2="360.89" y2="323.91"/><line class="cls-1" x1="393.75" y1="317.85" x2="393.75" y2="332.08"/><line class="cls-1" x1="377.33" y1="329.39" x2="377.33" y2="347.34"/><line class="cls-1" x1="393.75" y1="351.51" x2="393.75" y2="364.77"/><line class="cls-1" x1="377.33" y1="364.77" x2="377.33" y2="377.29"/><line class="cls-1" x1="393.75" y1="380.21" x2="393.75" y2="396.11"/><line class="cls-1" x1="393.75" y1="413.66" x2="393.75" y2="429.31"/><line class="cls-1" x1="393.75" y1="486.62" x2="393.75" y2="499.78"/><line class="cls-1" x1="393.75" y1="447.09" x2="393.75" y2="464.94"/><line class="cls-1" x1="360.89" y1="345.23" x2="360.89" y2="358.14"/><line class="cls-1" x1="328" y1="336.4" x2="328" y2="351.68"/><line class="cls-1" x1="298.91" y1="332.08" x2="298.91" y2="346.35"/><line class="cls-1" x1="267.41" y1="322.96" x2="267.41" y2="339.22"/><line class="cls-1" x1="281.34" y1="307.76" x2="281.34" y2="325.5"/><line class="cls-1" x1="281.34" y1="342.67" x2="281.34" y2="361.23"/><line class="cls-1" x1="312.49" y1="315.31" x2="312.49" y2="332.08"/><line class="cls-1" x1="345.06" y1="356.04" x2="345.06" y2="371.57"/><line class="cls-1" x1="341.69" y1="322.96" x2="341.69" y2="338.37"/><line class="cls-1" x1="312.49" y1="349.28" x2="312.49" y2="364.77"/><line class="cls-1" x1="284.69" y1="486.62" x2="284.69" y2="478.7"/><line class="cls-1" x1="364.61" y1="486.8" x2="364.61" y2="480.68"/><line class="cls-1" x1="377.33" y1="502.16" x2="377.33" y2="513.49"/><line class="cls-1" x1="377.33" y1="530.35" x2="377.33" y2="543.19"/><line class="cls-1" x1="393.75" y1="543.19" x2="393.75" y2="556.37"/><line class="cls-1" x1="377.33" y1="558.84" x2="377.33" y2="562.93"/><line class="cls-1" x1="393.75" y1="575.2" x2="393.75" y2="589.43"/><line class="cls-1" x1="393.75" y1="612.74" x2="393.75" y2="626.87"/><line class="cls-1" x1="393.75" y1="646.76" x2="393.75" y2="659.4"/><line class="cls-1" x1="345.06" y1="486.97" x2="345.06" y2="499.78"/><line class="cls-1" x1="313.5" y1="486.62" x2="313.5" y2="502.14"/><line class="cls-1" x1="273.89" y1="486.97" x2="273.89" y2="502.14"/><line class="cls-1" x1="284.69" y1="502.14" x2="284.69" y2="517.7"/><line class="cls-1" x1="328" y1="502.33" x2="328" y2="517.02"/><line class="cls-1" x1="364.61" y1="514.49" x2="364.61" y2="529.47"/><line class="cls-1" x1="312.79" y1="517.02" x2="312.79" y2="529.47"/><line class="cls-1" x1="273.89" y1="519.54" x2="273.89" y2="532.66"/><line class="cls-1" x1="286.28" y1="534.78" x2="286.28" y2="549.78"/><line class="cls-1" x1="273.89" y1="552.28" x2="273.89" y2="567.79"/><line class="cls-1" x1="312.39" y1="549.78" x2="312.39" y2="562.93"/><line class="cls-1" x1="333.32" y1="531.38" x2="333.32" y2="547.25"/><line class="cls-1" x1="354.35" y1="544.38" x2="354.35" y2="558.84"/><line class="cls-1" x1="333.19" y1="562.93" x2="333.19" y2="567.79"/><line class="cls-1" x1="286.28" y1="567.79" x2="286.28" y2="573.59"/><line class="cls-1" x1="231.97" y1="589.96" x2="231.97" y2="606.72"/><line class="cls-1" x1="249.64" y1="606.72" x2="249.64" y2="623.59"/><line class="cls-1" x1="231.97" y1="644.23" x2="231.97" y2="626.87"/><line class="cls-1" x1="249.64" y1="642.48" x2="249.64" y2="657.93"/><line class="cls-1" x1="231.97" y1="661.82" x2="231.97" y2="673.92"/><line class="cls-1" x1="249.64" y1="674.65" x2="249.64" y2="688.48"/><line class="cls-1" x1="231.97" y1="693.73" x2="231.97" y2="710.97"/><line class="cls-1" x1="249.64" y1="708.07" x2="249.64" y2="722.89"/><line class="cls-1" x1="231.97" y1="730.82" x2="231.97" y2="743.53"/><line class="cls-1" x1="249.64" y1="743.53" x2="249.64" y2="757.69"/><line class="cls-1" x1="231.97" y1="763.16" x2="231.97" y2="779.75"/><line class="cls-1" x1="248.83" y1="775.1" x2="248.83" y2="790.56"/><line class="cls-1" x1="231.97" y1="798.06" x2="231.97" y2="813.75"/><line class="cls-1" x1="248.83" y1="809.22" x2="248.83" y2="820.79"/><line class="cls-1" x1="232.01" y1="829.04" x2="232.01" y2="847.43"/><line class="cls-1" x1="248.83" y1="844.6" x2="248.83" y2="856.37"/><line class="cls-1" x1="232.01" y1="866.98" x2="232.01" y2="874.9"/><line class="cls-1" x1="393.75" y1="698.26" x2="393.75" y2="714.33"/><line class="cls-1" x1="393.75" y1="737.18" x2="393.75" y2="750.61"/><line class="cls-1" x1="393.75" y1="771.46" x2="393.75" y2="785.85"/></g><g><line class="cls-1" x1="125.44" y1="782.88" x2="204.57" y2="782.88"/><line class="cls-1" x1="1.76" y1="782.88" x2="118.17" y2="782.88"/><polyline class="cls-1" points="39.93 800.44 217.89 800.44 407.61 747.38"/><line class="cls-1" x1="1.76" y1="800.44" x2="32.73" y2="800.44"/><path class="cls-1" d="M194.01,818h24.67c54.67-17.5,109.34-35.01,164.01-52.51"/><line class="cls-1" x1="125.44" y1="818" x2="186.81" y2="818"/><line class="cls-1" x1="2.55" y1="818" x2="102.84" y2="818"/><line class="cls-1" x1="17.24" y1="835.82" x2="204.25" y2="835.82"/><path class="cls-1" d="M1.43,853.38H217.57c54.65-22.51,109.3-45.02,163.95-67.53"/><path class="cls-1" d="M2.22,870.94H218.36c63.08-30.15,126.17-60.31,189.25-90.46"/><polyline class="cls-1" points="2.22 887.13 218.36 887.13 407.61 794.4"/><line class="cls-1" x1="62.49" y1="766.64" x2="62.49" y2="782.88"/><line class="cls-1" x1="44.73" y1="782.88" x2="44.73" y2="800.44"/><line class="cls-1" x1="26.49" y1="800.44" x2="26.49" y2="818"/><line class="cls-1" x1="62.49" y1="800.44" x2="62.49" y2="818"/><line class="cls-1" x1="44.73" y1="818" x2="44.73" y2="835.82"/><line class="cls-1" x1="26.49" y1="835.82" x2="26.49" y2="853.38"/><line class="cls-1" x1="44.73" y1="853.38" x2="44.73" y2="870.94"/><line class="cls-1" x1="97.05" y1="766.98" x2="97.05" y2="783.22"/><line class="cls-1" x1="133.05" y1="766.98" x2="133.05" y2="783.22"/><line class="cls-1" x1="115.29" y1="783.22" x2="115.29" y2="800.78"/><line class="cls-1" x1="97.05" y1="800.78" x2="97.05" y2="818.34"/><line class="cls-1" x1="133.05" y1="800.78" x2="133.05" y2="818.34"/><line class="cls-1" x1="165.21" y1="766.98" x2="165.21" y2="783.22"/><line class="cls-1" x1="183.45" y1="783.22" x2="183.45" y2="800.78"/><line class="cls-1" x1="165.21" y1="800.78" x2="165.21" y2="818.34"/><line class="cls-1" x1="78.81" y1="782.88" x2="78.81" y2="800.44"/><line class="cls-1" x1="149.84" y1="782.88" x2="149.84" y2="800.44"/><line class="cls-1" x1="78.81" y1="818.34" x2="78.81" y2="829.04"/><line class="cls-1" x1="115.29" y1="818.34" x2="115.29" y2="829.04"/><line class="cls-1" x1="149.84" y1="818.34" x2="149.84" y2="826.91"/><line class="cls-1" x1="183.45" y1="818" x2="183.45" y2="833.84"/><line class="cls-1" x1="165.21" y1="835.82" x2="165.21" y2="853.38"/><line class="cls-1" x1="183.45" y1="853.38" x2="183.45" y2="870.94"/><line class="cls-1" x1="97.45" y1="853.38" x2="97.45" y2="870.94"/><line class="cls-1" x1="133.84" y1="853.38" x2="133.84" y2="870.94"/><line class="cls-1" x1="62.89" y1="835.82" x2="62.89" y2="853.38"/><line class="cls-1" x1="62.89" y1="870.94" x2="62.89" y2="887.13"/><line class="cls-1" x1="26.1" y1="870.94" x2="26.1" y2="887.13"/><line class="cls-1" x1="45.13" y1="887.13" x2="45.13" y2="904.84"/><line class="cls-1" x1="83.81" y1="887.13" x2="83.81" y2="907.96"/><line class="cls-1" x1="183.85" y1="887.13" x2="183.85" y2="904.84"/><line class="cls-1" x1="164.61" y1="870.94" x2="164.61" y2="887.13"/><line class="cls-1" x1="117.78" y1="870.94" x2="117.78" y2="887.13"/><line class="cls-1" x1="114.9" y1="836.5" x2="114.9" y2="852.69"/></g><g><line class="cls-1" x1="2.94" y1="677.89" x2="219.08" y2="677.89"/><line class="cls-1" x1="174.42" y1="695.7" x2="204.64" y2="695.7"/><line class="cls-1" x1="79.21" y1="695.7" x2="160.5" y2="695.7"/><line class="cls-1" x1="1.83" y1="695.7" x2="70.74" y2="695.7"/><polyline class="cls-1" points="45.13 713.26 217.96 713.26 407.61 682.21"/><line class="cls-1" x1="1.83" y1="713.26" x2="39.54" y2="713.26"/><polyline class="cls-1" points="125.05 730.82 218.75 730.82 407.61 695.68"/><line class="cls-1" x1="2.62" y1="730.82" x2="106.86" y2="730.82"/><line class="cls-1" x1="26.89" y1="626.53" x2="26.89" y2="642.77"/><line class="cls-1" x1="62.89" y1="626.53" x2="62.89" y2="642.77"/><path class="cls-1" d="M45.13,660.33v-17.56H204.97"/><line class="cls-1" x1="26.89" y1="660.33" x2="26.89" y2="677.89"/><line class="cls-1" x1="62.89" y1="660.33" x2="62.89" y2="677.89"/><line class="cls-1" x1="45.13" y1="677.89" x2="45.13" y2="695.7"/><line class="cls-1" x1="26.89" y1="695.7" x2="26.89" y2="713.26"/><line class="cls-1" x1="45.13" y1="713.26" x2="45.13" y2="730.82"/><line class="cls-1" x1="97.45" y1="626.87" x2="97.45" y2="643.11"/><line class="cls-1" x1="133.45" y1="626.87" x2="133.45" y2="643.11"/><line class="cls-1" x1="115.69" y1="643.11" x2="115.69" y2="660.67"/><line class="cls-1" x1="133.45" y1="660.67" x2="133.45" y2="678.23"/><line class="cls-1" x1="165.61" y1="626.87" x2="165.61" y2="643.11"/><path class="cls-1" d="M183.85,643.11v17.23c-61.01,0-181.7,0-181.7,0"/><line class="cls-1" x1="165.61" y1="660.67" x2="165.61" y2="678.23"/><line class="cls-1" x1="79.21" y1="642.77" x2="79.21" y2="660.33"/><line class="cls-1" x1="150.24" y1="642.77" x2="150.24" y2="660.33"/><line class="cls-1" x1="79.21" y1="678.23" x2="79.21" y2="695.7"/><line class="cls-1" x1="115.69" y1="678.23" x2="115.69" y2="695.7"/><line class="cls-1" x1="150.24" y1="678.23" x2="150.24" y2="695.7"/><line class="cls-1" x1="183.85" y1="677.89" x2="183.85" y2="693.73"/><line class="cls-1" x1="165.61" y1="695.7" x2="165.61" y2="713.26"/><line class="cls-1" x1="183.85" y1="713.26" x2="183.85" y2="730.82"/><line class="cls-1" x1="62.1" y1="695.7" x2="62.1" y2="713.26"/><line class="cls-1" x1="97.45" y1="695.7" x2="97.45" y2="711.05"/><line class="cls-1" x1="133.45" y1="695.7" x2="133.45" y2="713.26"/><line class="cls-1" x1="150.24" y1="713.26" x2="150.24" y2="730.82"/><line class="cls-1" x1="79.21" y1="713.26" x2="79.21" y2="730.82"/><polyline class="cls-1" points="2.22 748.73 218.36 748.73 407.61 712.02"/><line class="cls-1" x1="3.01" y1="766.29" x2="219.15" y2="766.29"/><line class="cls-1" x1="45.52" y1="748.73" x2="45.52" y2="766.29"/><line class="cls-1" x1="166" y1="731.17" x2="166" y2="748.73"/><line class="cls-1" x1="184.24" y1="748.73" x2="184.24" y2="766.29"/><line class="cls-1" x1="62.49" y1="731.17" x2="62.49" y2="748.73"/><line class="cls-1" x1="97.84" y1="731.17" x2="97.84" y2="746.53"/><line class="cls-1" x1="133.84" y1="731.17" x2="133.84" y2="748.73"/><line class="cls-1" x1="150.63" y1="748.73" x2="150.63" y2="766.29"/><line class="cls-1" x1="116.08" y1="748.73" x2="116.08" y2="766.65"/><line class="cls-1" x1="79.6" y1="748.73" x2="79.6" y2="766.29"/></g><g><line class="cls-1" x1="125.05" y1="538.47" x2="204.18" y2="538.47"/><line class="cls-1" x1="1.36" y1="538.47" x2="117.78" y2="538.47"/><polyline class="cls-1" points="39.54 556.03 217.5 556.03 407.61 540.75"/><line class="cls-1" x1="1.36" y1="556.03" x2="32.34" y2="556.03"/><line class="cls-1" x1="193.62" y1="573.59" x2="218.29" y2="573.59"/><line class="cls-1" x1="125.05" y1="573.59" x2="186.42" y2="573.59"/><line class="cls-1" x1="2.15" y1="573.59" x2="102.45" y2="573.59"/><line class="cls-1" x1="16.85" y1="591.41" x2="203.85" y2="591.41"/><polyline class="cls-1" points="1.04 608.97 217.17 608.97 407.61 591.73"/><line class="cls-1" x1="1.83" y1="626.53" x2="217.96" y2="626.53"/><line class="cls-1" x1="62.1" y1="522.23" x2="62.1" y2="538.47"/><line class="cls-1" x1="44.34" y1="538.47" x2="44.34" y2="556.03"/><line class="cls-1" x1="26.1" y1="556.03" x2="26.1" y2="573.59"/><line class="cls-1" x1="62.1" y1="556.03" x2="62.1" y2="573.59"/><line class="cls-1" x1="44.34" y1="573.59" x2="44.34" y2="591.41"/><line class="cls-1" x1="26.1" y1="591.41" x2="26.1" y2="608.97"/><line class="cls-1" x1="44.34" y1="608.97" x2="44.34" y2="626.53"/><line class="cls-1" x1="96.66" y1="522.57" x2="96.66" y2="538.81"/><line class="cls-1" x1="132.66" y1="522.57" x2="132.66" y2="538.81"/><line class="cls-1" x1="114.9" y1="538.81" x2="114.9" y2="556.37"/><line class="cls-1" x1="96.66" y1="556.37" x2="96.66" y2="573.93"/><line class="cls-1" x1="132.66" y1="556.37" x2="132.66" y2="573.93"/><line class="cls-1" x1="164.82" y1="522.57" x2="164.82" y2="538.81"/><line class="cls-1" x1="183.06" y1="538.81" x2="183.06" y2="556.37"/><line class="cls-1" x1="164.82" y1="556.37" x2="164.82" y2="573.93"/><line class="cls-1" x1="78.42" y1="538.47" x2="78.42" y2="556.03"/><line class="cls-1" x1="149.45" y1="538.47" x2="149.45" y2="556.03"/><line class="cls-1" x1="78.42" y1="573.93" x2="78.42" y2="584.63"/><line class="cls-1" x1="114.9" y1="573.93" x2="114.9" y2="584.63"/><line class="cls-1" x1="149.45" y1="573.93" x2="149.45" y2="582.5"/><line class="cls-1" x1="183.06" y1="573.59" x2="183.06" y2="589.43"/><line class="cls-1" x1="164.82" y1="591.41" x2="164.82" y2="608.97"/><line class="cls-1" x1="183.06" y1="608.97" x2="183.06" y2="626.53"/></g><g><line class="cls-1" x1="2.71" y1="433.69" x2="218.84" y2="433.69"/><line class="cls-1" x1="174.19" y1="451.5" x2="204.41" y2="451.5"/><line class="cls-1" x1="78.97" y1="451.5" x2="160.27" y2="451.5"/><line class="cls-1" x1="1.59" y1="451.5" x2="70.51" y2="451.5"/><polyline class="cls-1" points="44.89 469.06 217.73 469.06 407.61 479.35"/><line class="cls-1" x1="1.59" y1="469.06" x2="39.31" y2="469.06"/><line class="cls-1" x1="124.81" y1="486.62" x2="218.52" y2="486.62"/><line class="cls-1" x1="2.38" y1="486.62" x2="106.63" y2="486.62"/><line class="cls-1" x1="26.65" y1="382.33" x2="26.65" y2="398.57"/><line class="cls-1" x1="62.65" y1="382.33" x2="62.65" y2="398.57"/><path class="cls-1" d="M44.89,416.13v-17.56H204.73"/><line class="cls-1" x1="26.65" y1="416.13" x2="26.65" y2="433.69"/><line class="cls-1" x1="62.65" y1="416.13" x2="62.65" y2="433.69"/><line class="cls-1" x1="44.89" y1="433.69" x2="44.89" y2="451.5"/><line class="cls-1" x1="26.65" y1="451.5" x2="26.65" y2="469.06"/><line class="cls-1" x1="44.89" y1="469.06" x2="44.89" y2="486.62"/><line class="cls-1" x1="97.21" y1="382.67" x2="97.21" y2="398.91"/><line class="cls-1" x1="133.21" y1="382.67" x2="133.21" y2="398.91"/><line class="cls-1" x1="115.45" y1="398.91" x2="115.45" y2="416.47"/><line class="cls-1" x1="133.21" y1="416.47" x2="133.21" y2="434.03"/><line class="cls-1" x1="165.37" y1="382.67" x2="165.37" y2="398.91"/><path class="cls-1" d="M183.61,398.91v17.23c-61.01,0-181.7,0-181.7,0"/><line class="cls-1" x1="165.37" y1="416.47" x2="165.37" y2="434.03"/><line class="cls-1" x1="78.97" y1="398.57" x2="78.97" y2="416.13"/><line class="cls-1" x1="150.01" y1="398.57" x2="150.01" y2="416.13"/><line class="cls-1" x1="78.97" y1="434.03" x2="78.97" y2="451.5"/><line class="cls-1" x1="115.45" y1="434.03" x2="115.45" y2="451.5"/><line class="cls-1" x1="150.01" y1="434.03" x2="150.01" y2="451.5"/><line class="cls-1" x1="183.61" y1="433.69" x2="183.61" y2="449.53"/><line class="cls-1" x1="165.37" y1="451.5" x2="165.37" y2="469.06"/><line class="cls-1" x1="183.61" y1="469.06" x2="183.61" y2="486.62"/><line class="cls-1" x1="61.87" y1="451.5" x2="61.87" y2="469.06"/><line class="cls-1" x1="97.21" y1="451.5" x2="97.21" y2="466.85"/><line class="cls-1" x1="133.21" y1="451.5" x2="133.21" y2="469.06"/><line class="cls-1" x1="150.01" y1="469.06" x2="150.01" y2="486.62"/><line class="cls-1" x1="78.97" y1="469.06" x2="78.97" y2="486.62"/><line class="cls-1" x1="1.99" y1="504.53" x2="218.12" y2="504.53"/><line class="cls-1" x1="2.78" y1="522.09" x2="218.91" y2="522.09"/><line class="cls-1" x1="45.29" y1="504.53" x2="45.29" y2="522.09"/><line class="cls-1" x1="165.77" y1="486.97" x2="165.77" y2="504.53"/><line class="cls-1" x1="184.01" y1="504.53" x2="184.01" y2="522.09"/><line class="cls-1" x1="62.26" y1="486.97" x2="62.26" y2="504.53"/><line class="cls-1" x1="97.61" y1="486.97" x2="97.61" y2="502.33"/><line class="cls-1" x1="133.61" y1="486.97" x2="133.61" y2="504.53"/><line class="cls-1" x1="150.4" y1="504.53" x2="150.4" y2="522.09"/><line class="cls-1" x1="115.85" y1="504.53" x2="115.85" y2="522.45"/><line class="cls-1" x1="79.37" y1="504.53" x2="79.37" y2="522.09"/></g><g><line class="cls-1" x1="124.81" y1="294.27" x2="203.95" y2="294.27"/><line class="cls-1" x1="1.13" y1="294.27" x2="117.55" y2="294.27"/><line class="cls-1" x1="39.31" y1="311.83" x2="217.26" y2="311.83"/><line class="cls-1" x1="1.13" y1="311.83" x2="32.11" y2="311.83"/><line class="cls-1" x1="193.39" y1="329.39" x2="218.05" y2="329.39"/><line class="cls-1" x1="124.81" y1="329.39" x2="186.19" y2="329.39"/><line class="cls-1" x1="1.92" y1="329.39" x2="102.21" y2="329.39"/><line class="cls-1" x1="16.62" y1="347.21" x2="203.62" y2="347.21"/><polyline class="cls-1" points=".81 364.77 216.94 364.77 407.61 398.57"/><line class="cls-1" x1="1.59" y1="382.33" x2="217.73" y2="382.33"/><line class="cls-1" x1="61.87" y1="278.03" x2="61.87" y2="294.27"/><line class="cls-1" x1="44.11" y1="294.27" x2="44.11" y2="311.83"/><line class="cls-1" x1="25.87" y1="311.83" x2="25.87" y2="329.39"/><line class="cls-1" x1="61.87" y1="311.83" x2="61.87" y2="329.39"/><line class="cls-1" x1="44.11" y1="329.39" x2="44.11" y2="347.21"/><line class="cls-1" x1="25.87" y1="347.21" x2="25.87" y2="364.77"/><line class="cls-1" x1="44.11" y1="364.77" x2="44.11" y2="382.33"/><line class="cls-1" x1="96.43" y1="278.37" x2="96.43" y2="294.61"/><line class="cls-1" x1="132.43" y1="278.37" x2="132.43" y2="294.61"/><line class="cls-1" x1="114.67" y1="294.61" x2="114.67" y2="312.17"/><line class="cls-1" x1="96.43" y1="312.17" x2="96.43" y2="329.73"/><line class="cls-1" x1="132.43" y1="312.17" x2="132.43" y2="329.73"/><line class="cls-1" x1="164.59" y1="278.37" x2="164.59" y2="294.61"/><line class="cls-1" x1="182.83" y1="294.61" x2="182.83" y2="312.17"/><line class="cls-1" x1="164.59" y1="312.17" x2="164.59" y2="329.73"/><line class="cls-1" x1="78.19" y1="294.27" x2="78.19" y2="311.83"/><line class="cls-1" x1="149.22" y1="294.27" x2="149.22" y2="311.83"/><line class="cls-1" x1="78.19" y1="329.73" x2="78.19" y2="340.43"/><line class="cls-1" x1="114.67" y1="329.73" x2="114.67" y2="340.43"/><line class="cls-1" x1="149.22" y1="329.73" x2="149.22" y2="338.3"/><line class="cls-1" x1="182.83" y1="329.39" x2="182.83" y2="345.23"/><line class="cls-1" x1="164.59" y1="347.21" x2="164.59" y2="364.77"/><line class="cls-1" x1="182.83" y1="364.77" x2="182.83" y2="382.33"/></g><g><line class="cls-1" x1="2.81" y1="156.65" x2="218.95" y2="156.65"/><line class="cls-1" x1="174.29" y1="174.47" x2="204.52" y2="174.47"/><line class="cls-1" x1="79.08" y1="174.47" x2="160.37" y2="174.47"/><line class="cls-1" x1="1.7" y1="174.47" x2="70.61" y2="174.47"/><line class="cls-1" x1="45" y1="192.03" x2="217.84" y2="192.03"/><line class="cls-1" x1="1.7" y1="192.03" x2="39.41" y2="192.03"/><line class="cls-1" x1="124.92" y1="209.59" x2="218.63" y2="209.59"/><line class="cls-1" x1="2.49" y1="209.59" x2="106.73" y2="209.59"/><line class="cls-1" x1="26.76" y1="105.29" x2="26.76" y2="121.53"/><line class="cls-1" x1="62.76" y1="105.29" x2="62.76" y2="121.53"/><path class="cls-1" d="M45,139.09v-17.56H204.84"/><line class="cls-1" x1="26.76" y1="139.09" x2="26.76" y2="156.65"/><line class="cls-1" x1="62.76" y1="139.09" x2="62.76" y2="156.65"/><line class="cls-1" x1="45" y1="156.65" x2="45" y2="174.47"/><line class="cls-1" x1="26.76" y1="174.47" x2="26.76" y2="192.03"/><line class="cls-1" x1="45" y1="192.03" x2="45" y2="209.59"/><line class="cls-1" x1="97.32" y1="105.63" x2="97.32" y2="121.87"/><line class="cls-1" x1="133.32" y1="105.63" x2="133.32" y2="121.87"/><line class="cls-1" x1="115.56" y1="121.87" x2="115.56" y2="139.43"/><line class="cls-1" x1="133.32" y1="139.43" x2="133.32" y2="156.99"/><line class="cls-1" x1="165.48" y1="105.63" x2="165.48" y2="121.87"/><path class="cls-1" d="M183.72,121.87v17.23c-61.01,0-181.7,0-181.7,0"/><line class="cls-1" x1="165.48" y1="139.43" x2="165.48" y2="156.99"/><line class="cls-1" x1="79.08" y1="121.53" x2="79.08" y2="139.09"/><line class="cls-1" x1="150.11" y1="121.53" x2="150.11" y2="139.09"/><line class="cls-1" x1="79.08" y1="156.99" x2="79.08" y2="174.47"/><line class="cls-1" x1="115.56" y1="156.99" x2="115.56" y2="174.47"/><line class="cls-1" x1="150.11" y1="156.99" x2="150.11" y2="174.47"/><line class="cls-1" x1="183.72" y1="156.65" x2="183.72" y2="172.49"/><line class="cls-1" x1="165.48" y1="174.47" x2="165.48" y2="192.03"/><line class="cls-1" x1="183.72" y1="192.03" x2="183.72" y2="209.59"/><line class="cls-1" x1="61.97" y1="174.47" x2="61.97" y2="192.03"/><line class="cls-1" x1="97.32" y1="174.47" x2="97.32" y2="189.82"/><line class="cls-1" x1="133.32" y1="174.47" x2="133.32" y2="192.03"/><line class="cls-1" x1="150.11" y1="192.03" x2="150.11" y2="209.59"/><line class="cls-1" x1="79.08" y1="192.03" x2="79.08" y2="209.59"/><line class="cls-1" x1="2.1" y1="227.5" x2="218.23" y2="227.5"/><line class="cls-1" x1="2.88" y1="245.06" x2="219.02" y2="245.06"/><line class="cls-1" x1="45.4" y1="227.5" x2="45.4" y2="245.06"/><line class="cls-1" x1="165.88" y1="209.94" x2="165.88" y2="227.5"/><line class="cls-1" x1="184.12" y1="227.5" x2="184.12" y2="245.06"/><line class="cls-1" x1="62.37" y1="209.94" x2="62.37" y2="227.5"/><line class="cls-1" x1="97.72" y1="209.94" x2="97.72" y2="225.3"/><line class="cls-1" x1="133.72" y1="209.94" x2="133.72" y2="227.5"/><line class="cls-1" x1="150.51" y1="227.5" x2="150.51" y2="245.06"/><line class="cls-1" x1="115.96" y1="227.5" x2="115.96" y2="245.42"/><line class="cls-1" x1="79.48" y1="227.5" x2="79.48" y2="245.06"/></g><g><line class="cls-1" x1="124.92" y1="17.24" x2="204.05" y2="17.24"/><line class="cls-1" x1="1.24" y1="17.24" x2="117.65" y2="17.24"/><line class="cls-1" x1="39.41" y1="34.8" x2="217.37" y2="34.8"/><line class="cls-1" x1="1.24" y1="34.8" x2="32.21" y2="34.8"/><line class="cls-1" x1="193.49" y1="52.36" x2="218.16" y2="52.36"/><line class="cls-1" x1="124.92" y1="52.36" x2="186.29" y2="52.36"/><line class="cls-1" x1="2.02" y1="52.36" x2="102.32" y2="52.36"/><line class="cls-1" x1="16.72" y1="70.17" x2="203.73" y2="70.17"/><line class="cls-1" x1=".91" y1="87.73" x2="217.05" y2="87.73"/><line class="cls-1" x1="1.7" y1="105.29" x2="217.84" y2="105.29"/><line class="cls-1" x1="61.97" y1="1" x2="61.97" y2="17.24"/><line class="cls-1" x1="44.21" y1="17.24" x2="44.21" y2="34.8"/><line class="cls-1" x1="25.97" y1="34.8" x2="25.97" y2="52.36"/><line class="cls-1" x1="61.97" y1="34.8" x2="61.97" y2="52.36"/><line class="cls-1" x1="44.21" y1="52.36" x2="44.21" y2="70.17"/><line class="cls-1" x1="25.97" y1="70.17" x2="25.97" y2="87.73"/><line class="cls-1" x1="44.21" y1="87.73" x2="44.21" y2="105.29"/><line class="cls-1" x1="96.53" y1="1.34" x2="96.53" y2="17.58"/><line class="cls-1" x1="132.53" y1="1.34" x2="132.53" y2="17.58"/><line class="cls-1" x1="114.77" y1="17.58" x2="114.77" y2="35.14"/><line class="cls-1" x1="96.53" y1="35.14" x2="96.53" y2="52.7"/><line class="cls-1" x1="132.53" y1="35.14" x2="132.53" y2="52.7"/><line class="cls-1" x1="164.69" y1="1.34" x2="164.69" y2="17.58"/><line class="cls-1" x1="182.93" y1="17.58" x2="182.93" y2="35.14"/><line class="cls-1" x1="164.69" y1="35.14" x2="164.69" y2="52.7"/><line class="cls-1" x1="78.29" y1="17.24" x2="78.29" y2="34.8"/><line class="cls-1" x1="149.32" y1="17.24" x2="149.32" y2="34.8"/><line class="cls-1" x1="78.29" y1="52.7" x2="78.29" y2="63.4"/><line class="cls-1" x1="114.77" y1="52.7" x2="114.77" y2="63.4"/><line class="cls-1" x1="149.32" y1="52.7" x2="149.32" y2="61.27"/><line class="cls-1" x1="182.93" y1="52.36" x2="182.93" y2="68.2"/><line class="cls-1" x1="164.69" y1="70.17" x2="164.69" y2="87.73"/><line class="cls-1" x1="182.93" y1="87.73" x2="182.93" y2="105.29"/></g></g><path class="cls-13" d="M301.58,259.76c35.18,7.93,70.37,15.86,105.55,23.79V135.45"/><polyline class="cls-13" points="217.37 1 1.24 1 1.24 907.96 219.38 907.96"/><path class="cls-13" d="M407.61,116.93V43.72C344.2,29.48,280.78,15.24,217.37,1c.67,302.32,1.34,604.64,2.01,906.96,62.74-34.63,125.49-69.26,188.23-103.89"/><path class="cls-2" d="M351.65,570.67c-31.52,3.67-63.04,7.34-94.56,11.01,0,101.82,.01,203.63,.02,305.45,42.92-23.69,85.85-47.38,128.77-71.07,.09-83.68,.17-167.37,.26-251.05-5.38,.75-10.76,1.5-16.13,2.25"/><path class="cls-12" d="M324.43,850.73c.09-90.93,.17-181.86,.26-272.79"/><path class="cls-13" d="M303.97,294.65c34.55,7.51,69.1,15.02,103.64,22.53v486.88"/><path class="cls-2" d="M257.1,361.23c-.34,38.49-.67,76.98-1.01,115.47,43.36,.88,86.71,1.76,130.07,2.65v-95.93c-43.02-7.4-86.04-14.79-129.06-22.19Z"/><path class="cls-10" d="M407.61,317.18v-33.19c-63.24-14.5-126.47-29.01-189.71-43.51,.03,12.27,.05,24.54,.08,36.81,63.21,13.3,126.42,26.6,189.63,39.9Z"/><path class="cls-10" d="M378.67,479.12v-87.25c-40.55-7.09-81.1-14.17-121.65-21.26,.03-3.12,.05-6.25,.08-9.38,43.02,7.4,86.04,14.79,129.06,22.19v95.93l-7.49-.23Z"/><path class="cls-10" d="M370.01,567.25s.97-.13,.99-.14c4.44-.62,10.7-1.49,15.14-2.11-.09,83.68-.17,167.37-.26,251.05-2.86,1.58-5.72,3.16-8.59,4.74l-1.86-243.92c-39.43,4.36-78.86,8.73-118.29,13.09,.06-3.64,.12-7.28,.19-10.92,31.59-3.24,63.18-6.48,94.77-9.72"/><path class="cls-2" d="M256.76,75.74v101c43.77,9.43,87.53,18.85,131.3,28.28,.1-34.21,.21-68.41,.32-102.62-43.87-8.89-87.74-17.77-131.61-26.66Z"/><path class="cls-10" d="M388.06,205.02c-2.64-.57-5.29-1.14-7.93-1.71,.28-31.36,.57-62.72,.85-94.07-41.41-8.47-82.81-16.94-124.22-25.42v-8.08c43.87,8.89,87.74,17.77,131.61,26.66-.1,34.21-.21,68.41-.32,102.62Z"/><path class="cls-10" d="M357.32,568.87c2.43-.36,4.86-.72,7.29-1.08"/><line class="cls-11" x1="407.61" y1="131.14" x2="407.61" y2="123.92"/><line class="cls-12" x1="321.12" y1="95.94" x2="321.12" y2="189.82"/><line class="cls-7" x1="314.81" y1="710.97" x2="314.81" y2="727.72"/><line class="cls-7" x1="324.65" y1="706.74" x2="324.65" y2="723.5"/><line class="cls-7" x1="333.32" y1="707.1" x2="333.32" y2="723.86"/><polygon class="cls-10" points="217.67 240.02 1 240.02 1 278.37 217.75 276.83 217.67 240.02"/><rect class="cls-2" x="64.14" y="65.25" width="85.18" height="85.18"/><rect class="cls-2" x="64.14" y="591.11" width="85.18" height="114.03"/><polyline class="cls-2" points="64.14 385 64.14 359.89 149.32 359.89 149.32 480.68 64.14 480.68 64.14 410.44"/><line class="cls-5" x1="200.69" y1="35.14" x2="200.69" y2="52.7"/><line class="cls-2" x1="64.14" y1="402.64" x2="64.14" y2="393.04"/></g></g><g id="boy"><path class="cls-22" d="M712.28,632.15c-7.32,.8-15.1,.3-18.5,2.65-4.68,3.24-7.4,11.6-5.14,19.97,1.76,.58,3.69,1.58,4.65,3.47,.64,1.26,.41,2.05,.72,2.52,1.01,1.51,7.71-.31,27.49-10.48,0,0,8.28-6.12,8.28-11.52,0-1.06,.64-6.55-2.73-8.43-1.88-1.05-4.06-.47-4.96-.17"/><path class="cls-11" d="M723.22,688.48s15.08,12.8,19.4,24.56,2.28,69.1,2.28,69.1h-10.05"/><polyline class="cls-11" points="674.43 930.83 674.43 944.64 643.74 944.64 662.12 927.76"/><path class="cls-11" d="M704.22,934.56v10.08h34.56c-5.92-4.48-11.84-8.96-17.76-13.44"/><polyline class="cls-11" points="733.04 809.8 759.49 809.8 759.49 844.84 729.82 844.84"/><polygon class="cls-22" points="734.94 790.56 721.02 931.2 709.2 933.56 703.74 807.36 698.46 831.36 677.82 931.68 658.62 926.88 670.46 794.4 734.94 790.56"/><path class="cls-11" d="M734.3,797.02c.56-.11,6.64-1.24,11.27,3.18,3.98,3.8,3.87,8.81,3.84,9.6"/><polygon class="cls-21" points="709.2 933.56 704.22 934.56 698.46 831.36 703.74 807.36 709.2 933.56"/><path class="cls-11" d="M689.34,679.68s-20.16,3.36-24,14.88c-3.84,11.52,2.88,99.84,2.88,99.84h30.24l10.74-8.79v8.79l25.58-2.28s.75-64.44-2.49-82.8c-3.24-18.36-12.24-25.2-18.72-27.36-6.48-2.16-24.24-2.28-24.24-2.28Z"/><polyline class="cls-11" points="690.9 663.14 690.9 676.56 705.66 678.23"/><path class="cls-11" d="M706.91,712.02c1.86,23.98,2.67,51.6,2.29,73.59"/><path class="cls-11" d="M706.41,704.88c.08,.97,.17,1.94,.25,2.92"/><path class="cls-11" d="M703.83,680.36c.82,6.98,1.56,14.13,2.21,21.43"/><polygon class="cls-11" points="690.9 676.56 689.34 679.68 699.51 685.56 704.18 683.41 706.56 685.56 710.91 681.29 710.91 678.23 690.9 676.56"/><path class="cls-11" d="M715.22,713.04s-2.16,14.64,.96,17.76c3.12,3.12,10.08,2.4,11.52-1.68,1.44-4.08,1.08-16.08,1.08-16.08h-13.56Z"/><path class="cls-11" d="M741.73,782.14s3.94,13.26,3.65,14.7-6.19,7.42-10.44,4.91"/><path class="cls-11" d="M721.5,650.28s.36,21.24-9.72,26.64-17.28-7.2-18.36-13.32c0,0-6.48-.36-7.2-4.68-.72-4.32,5.76-5.76,7.2-4.32s3.36,5.04,3.36,5.04v-4.32s6.36-3.24,8.88-7.2c0,0,6.12,3.24,15.84,2.16Z"/><path class="cls-11" d="M710.91,660.24s3.09,6.72,0,6.96"/><path class="cls-11" d="M700.69,667.36c-.24,2.54,1.07,4.93,3.24,6,2.84,1.39,5.59-.26,5.76-.36-1.51-.83-3.07-1.75-4.68-2.76-1.53-.96-2.97-1.93-4.32-2.88Z"/><path class="cls-11" d="M688.61,673.95c3.21-.98,6.41-1.95,9.62-2.93-2.95-4.69-5.9-9.39-8.85-14.08-2.99,.7-5.98,1.4-8.96,2.1l8.19,14.91Z"/><path class="cls-35" d="M704.89,659.04c2.41,0,2.42-3.75,0-3.75s-2.42,3.75,0,3.75h0Z"/><path class="cls-35" d="M716.05,659.58c2.41,0,2.42-3.75,0-3.75s-2.42,3.75,0,3.75h0Z"/><path class="cls-35" d="M700.13,697.92c2.41,0,2.42-3.75,0-3.75s-2.42,3.75,0,3.75h0Z"/><path class="cls-35" d="M700.66,723.12c2.41,0,2.42-3.75,0-3.75s-2.42,3.75,0,3.75h0Z"/><path class="cls-35" d="M701.66,748.32c2.41,0,2.42-3.75,0-3.75s-2.42,3.75,0,3.75h0Z"/><path class="cls-35" d="M703.83,773.52c2.41,0,2.42-3.75,0-3.75s-2.42,3.75,0,3.75h0Z"/><path class="cls-22" d="M718.85,630.89c-.93,.23-1.87,.47-2.8,.7"/><path class="cls-31" d="M690.05,680.68c-4.25,9.79-9.58,23.97-13.44,41.76-2.16,9.94-3.06,17.32-3.25,18.97-1.41,11.9-2.27,29.77,1.44,51.98-1.85-.01-3.7-.03-5.55-.04-.68-8.68-1.31-17.46-1.88-26.33-.81-12.55-1.49-24.93-2.04-37.12,5.72-15.81,11.44-31.62,17.16-47.43,2.52-.59,5.04-1.18,7.56-1.77Z"/><line class="cls-11" x1="664.99" y1="741.6" x2="653.26" y2="745.46"/><path class="cls-11" d="M674.95,677.49c-.27-3.71-.04-8.76,2.22-13.77,1.73-3.83,3.5-5.09,4.86-5.66,1.22-.52,3.22-.95,3.78-.18,.81,1.13-2.45,3.45-2.86,7.92-.06,.62-.35,3.76,1.06,4.5,2.03,1.07,5.81-3.88,6.89-3.1,.79,.58-.15,4.05-2.29,6.75-2.9,3.66-7.88,5.73-7.88,5.73h0"/><path class="cls-11" d="M652.6,705.19c-6.06,8.39-9.82,13.45-11.24,21.55-1.19,6.77-1.13,17.93,4.11,20.21,5.47,2.39,13.81-6.09,15.72-8.03,6.36-6.46,8.89-13.44,12.01-23.29,2.94-9.29,6.39-21.12,9.76-35.11-3.39-1.29-6.79-2.57-10.18-3.86-8.82,12.72-15.76,22.41-20.17,28.53Z"/><path class="cls-31" d="M642.96,724.98c.03,.59,.82,13.09,6.53,14.5,.35,.09,1.4,.3,4.45-.64,4.83-1.49,8.38-3.95,10.69-5.9-1.03,1.55-2.58,3.61-4.78,5.72-1.73,1.67-9.24,8.91-13.6,7.31-3.9-1.43-5.63-10.08-3.29-20.98Z"/><path class="cls-31" d="M735.83,703.36c1.26,15.23,1.73,27.76,1.92,36.6v41.22h-1.98c.12-5.2,.2-11.94,.14-19.82-.05-5.95-.2-10.76-.49-20.38-.06-2.06-.34-10.95-1.08-22.26-.31-4.73-.63-8.93-2.07-14.31-.99-3.71-2.17-6.69-3.06-8.73,1.37,1.31,2.8,2.83,4.23,4.56,.88,1.06,1.68,2.11,2.4,3.12Z"/><path class="cls-26" d="M708.89,633.52c-.4,.39-1.02,.94-1.86,1.44-1.88,1.12-3.51,1.21-4.8,1.44-.75,.14-4.46,.88-6.96,3.42-2.64,2.69-2.9,6.36-3,7.74-.17,2.47,.33,4.46,.72,5.64-.39-.12-.93-.23-1.56-.24-.91-.01-1.64,.19-2.11,.36-.52-2.37-1.06-6.64,.67-11.28,.75-2.01,1.81-4.85,4.57-6.55,1.55-.95,3.31-1.16,6.77-1.55,3.1-.35,5.71-.42,7.56-.42Z"/></g></svg>