<?xml version="1.0" encoding="UTF-8"?><svg id="_1_HERO_BANNER" xmlns="http://www.w3.org/2000/svg" xmlns:xlink="http://www.w3.org/1999/xlink" viewBox="0 0 1051.17 1025.53"><defs><style>.cls-1{fill:#f0f0f0;}.cls-2,.cls-3,.cls-4,.cls-5,.cls-6,.cls-7{fill:#fff;}.cls-8,.cls-9,.cls-10{fill:#dedfdf;}.cls-11,.cls-12,.cls-13{fill:#f6f6f6;}.cls-14{fill:url(#_Безымянный_градиент_11-3);stroke:url(#_Безымянный_градиент_3-3);}.cls-14,.cls-15,.cls-16,.cls-17,.cls-12,.cls-13,.cls-3,.cls-18,.cls-4,.cls-9,.cls-5,.cls-10,.cls-6,.cls-19,.cls-7,.cls-20,.cls-21,.cls-22,.cls-23,.cls-24,.cls-25,.cls-26,.cls-27{stroke-width:2px;}.cls-14,.cls-16,.cls-17,.cls-13,.cls-18,.cls-4,.cls-9,.cls-5,.cls-10,.cls-6,.cls-19,.cls-20,.cls-21,.cls-22,.cls-23,.cls-26,.cls-27{stroke-linecap:round;}.cls-14,.cls-16,.cls-17,.cls-18,.cls-9,.cls-5,.cls-19,.cls-22,.cls-23,.cls-26{stroke-linejoin:round;}.cls-28{clip-path:url(#clippath-2);}.cls-15{fill:#fcfcfc;}.cls-15,.cls-17,.cls-12,.cls-3{stroke:#ededed;}.cls-15,.cls-12,.cls-13,.cls-3,.cls-4,.cls-10,.cls-6,.cls-7,.cls-20,.cls-21,.cls-24,.cls-25,.cls-27{stroke-miterlimit:10;}.cls-16{fill:url(#_Безымянный_градиент_11);stroke:url(#_Безымянный_градиент_3);}.cls-17,.cls-18,.cls-29,.cls-19,.cls-24,.cls-27{fill:none;}.cls-30{clip-path:url(#clippath-6);}.cls-13,.cls-9,.cls-5,.cls-10,.cls-19,.cls-20,.cls-21,.cls-23,.cls-25,.cls-26{stroke:#1d1d1b;}.cls-31{clip-path:url(#clippath-1);}.cls-32{clip-path:url(#clippath-4);}.cls-18,.cls-4,.cls-24,.cls-27{stroke:#dadada;}.cls-33{fill:#f4f3f4;}.cls-34,.cls-23{fill:#dadada;}.cls-35{fill:#f9f9f9;}.cls-36{fill:#e9e8e8;}.cls-37{clip-path:url(#clippath);}.cls-38,.cls-25,.cls-26{fill:#ebebeb;}.cls-6{stroke:#c6c6c6;}.cls-7{stroke:#f6f6f6;}.cls-39{clip-path:url(#clippath-3);}.cls-20{fill:#ececec;}.cls-21{fill:#e4e5e4;}.cls-22{fill:url(#_Безымянный_градиент_11-2);stroke:url(#_Безымянный_градиент_3-2);}.cls-40{clip-path:url(#clippath-5);}.cls-41{fill:#d2d2d2;}.cls-42{fill:#1d1d1b;}.cls-43{fill:#ededed;}</style><linearGradient id="_Безымянный_градиент_11" x1="314.32" y1="776.69" x2="931.69" y2="776.69" gradientUnits="userSpaceOnUse"><stop offset=".52" stop-color="#f6f6f6"/><stop offset=".54" stop-color="#ededed"/><stop offset=".71" stop-color="#888"/><stop offset=".85" stop-color="#3f3f3f"/><stop offset=".95" stop-color="#111"/><stop offset="1" stop-color="#000"/></linearGradient><linearGradient id="_Безымянный_градиент_3" x1="313.32" y1="776.69" x2="932.69" y2="776.69" gradientUnits="userSpaceOnUse"><stop offset="0" stop-color="#fff"/><stop offset="1" stop-color="#000"/></linearGradient><linearGradient id="_Безымянный_градиент_11-2" x1="246.12" y1="783.04" x2="577.44" y2="783.04" xlink:href="#_Безымянный_градиент_11"/><linearGradient id="_Безымянный_градиент_3-2" x1="245.12" y1="783.04" x2="578.44" y2="783.04" xlink:href="#_Безымянный_градиент_3"/><linearGradient id="_Безымянный_градиент_11-3" x1="236.4" y1="781.95" x2="510.41" y2="781.95" xlink:href="#_Безымянный_градиент_11"/><linearGradient id="_Безымянный_градиент_3-3" x1="235.4" y1="781.95" x2="511.41" y2="781.95" xlink:href="#_Безымянный_градиент_3"/><clipPath id="clippath"><path class="cls-29" d="M751.56,642.38v44.91l-28.98-.12v-44.04c1.54-8.31,7.95-14.57,15.49-15.42,1.75,.55,5.64,2.06,9,5.94,2.92,3.36,4.04,6.9,4.49,8.73Z"/></clipPath><clipPath id="clippath-1"><path class="cls-29" d="M952.22,605.15c-2.09-1.19-8.42-4.44-16.61-3.24-11.97,1.76-17.96,11.57-18.77,12.94-5.9-7.52-15.62-10.58-23.94-7.77-10.08,3.41-16.41,14.9-13.59,26.47-9.41-7.5-23.06-5.16-29.12,3.95-5.51,8.28-3.54,20.33,5.18,26.86-7.23,1.67-12.51,7.9-12.94,15.21-.41,7.03,3.76,13.63,10.35,16.34-5.93,1.51-10.31,6.37-11,12.13-.88,7.37,4.75,12.26,5.18,12.62-7.44,4.57-9.28,14.49-4.53,21.03,4.4,6.06,13.37,7.73,20.06,3.24-1.46,5.44,0,11.19,3.88,14.88,4.83,4.61,12.63,5.31,18.78,1.43-1.37,4.85,.14,10.08,3.87,13.45,3.74,3.39,9.11,4.36,13.81,2.5"/></clipPath><clipPath id="clippath-2"><path class="cls-29" d="M876.72,710.63c-5.01-4.12-7.25-10.29-5.6-14.95,2.31-6.49,12.4-10.73,21.78-5.75-5.32-3.54-6.61-10.7-3.24-15.53,3.03-4.34,9.18-5.87,14.24-3.24,.11-.66,1.2-6.38,6.47-9.06,4.51-2.29,10.21-1.41,14.24,2.26-1.1-7.33,3.76-14.33,11-15.85,7.26-1.53,14.56,2.96,16.47,10.15"/></clipPath><clipPath id="clippath-3"><path class="cls-29" d="M947.26,698.98c-1.48-3.66-5.13-5.74-8.41-5.18-4.09,.7-7.22,5.44-5.82,10.35-2.53-3.92-7.66-4.89-11-2.59-2.78,1.91-3.94,5.83-2.55,9.36-.63-.1-5.91-.81-9.74,2.94-3.42,3.35-4.25,8.85-1.94,13.59-5.33,.95-9.05,5.31-9.06,9.71,0,5.45,5.68,10.7,12.61,9.71"/></clipPath><clipPath id="clippath-4"><path id="SVGID-9" class="cls-29" d="M987.85,737.88c3.33,2.12,7.51,1.69,9.85-.68,2.92-2.95,2.71-8.63-1.29-11.81,4.34,1.72,9.08-.48,10.45-4.29,1.15-3.17-.18-7.04-3.37-9.1,.57-.29,5.28-2.78,6.21-8.06,.83-4.71-1.69-9.68-6.33-12.18,3.79-3.87,4.27-9.59,1.72-13.17-3.16-4.44-10.85-5.4-15.9-.56"/></clipPath><clipPath id="clippath-5"><path class="cls-29" d="M601.84,869.11s-10.92,33.05-9.15,39.71c1.77,6.66,51.27-5.9,51.27-5.9l-1.83-6.16s-32.56,2.88-33.01,1.08c-.44-1.8,2.26-26.28,2.26-26.28l-9.54-2.45Z"/></clipPath><clipPath id="clippath-6"><path class="cls-29" d="M539.74,844.07c-2.15,.05-4.86,.53-6.8,2.5-4.92,5.01-1.34,16.13,1.44,25.49,3.14,10.55,7.23,25.45,11.35,44.48h14.99c-.7-16.89-1.4-33.77-2.1-50.66,5.72,2.31,14.83,5.5,26.44,7.37,15,2.41,25.52,4.11,32.6-2.17,7.49-6.64,7-18.52,6.48-23.51l-84.4-3.49Z"/></clipPath></defs><g id="_3_HOUSE"><path class="cls-12" d="M464.58,519.01c16.51-17.17,33.02-34.34,49.53-51.5l18.5,49.31v116.74h-68.69l.65-114.54Z"/><path class="cls-7" d="M412,534.96c-1.01,.44-7.64,3.46-9.75,10.72-1.93,6.64,.71,14.12,6.71,18.72-5.78,.69-10.63,4.12-12,8.64-1.96,6.49,3.2,15.4,12.96,17.28-4.31,5.32-3.32,12.74,1.15,16.13,3.47,2.63,8.74,2.62,12.88-.22"/><path class="cls-3" d="M512.9,454.33c-11.52,4.27-23.05,8.54-34.57,12.81-22.16,20.2-44.32,40.4-66.48,60.6,.07,3.21,.14,6.42,.21,9.63,17.51-6.12,35.02-12.24,52.52-18.37,18.64-19.66,37.28-39.32,55.93-58.98-2.54-1.9-5.07-3.8-7.61-5.69Z"/><path class="cls-3" d="M464.54,519.01c.03-3.49,.07-6.98,.1-10.46,16.47-16.98,32.94-33.96,49.41-50.94"/><path class="cls-15" d="M464.54,519.01c-.2,38.18-.41,76.36-.61,114.55-13.29-7.2-26.58-14.41-39.87-21.61-.01-26.25-.03-52.5-.04-78.74l40.53-14.19Z"/><path class="cls-3" d="M464.64,508.55c-17.6,6.4-35.2,12.8-52.8,19.2"/><path class="cls-3" d="M514.11,563.99c-3.55-4.48-9.26-6.17-13.63-4.41-5.75,2.31-8.93,10.5-5.12,17.61-.54-.08-9.51-1.2-14.4,4.8-4.79,5.88-3.83,16.34,3.84,23.04-6.12,1.28-10.5,6.13-10.8,11.52-.3,5.46,3.71,9.18,4.31,9.72-5.15,4.42-5.76,11.79-2.15,16.2,2.8,3.42,7.86,4.73,12.58,3.15-.67,1.97-1.59,5.7-.34,9.81,2.33,7.66,11.19,13.34,18.72,11.52,3.45-.83,5.77-3.03,6.93-4.32"/></g><path class="cls-16" d="M314.32,543.13c205.79,155.7,411.58,311.41,617.36,467.11"/><path class="cls-22" d="M577.44,1022.95c-110.44-159.94-220.88-319.88-331.32-479.82"/><path class="cls-14" d="M510.41,1020.77c-91.34-159.21-182.67-318.42-274.01-477.64"/><g id="_2_HOUSE"><g><path class="cls-18" d="M1009.33,658.9c7.41,1.99,15.74-.65,20.13-5.92,5.77-6.92,4.47-18.08-4.98-22.66,.73-.34,12.82-6.12,15.11-16.28,2.24-9.96-5.79-20.32-19.87-21.46,6.92-6.12,9.3-14.67,6.18-20.62-3.17-6.03-10.68-6.86-11.79-6.97,3.64-8.69-.38-16.99-7.83-18.86-5.77-1.45-13.03,1.1-17.98,6.43-.43-2.62-1.7-7.28-5.96-10.67-7.94-6.32-22.85-5.46-31.21,2.32-3.83,3.57-5.33,7.7-5.96,9.97"/><rect class="cls-4" x="913.45" y="457.88" width="108.39" height="59.18"/><g><rect class="cls-35" x="923.11" y="465.98" width="89.07" height="42.99"/><rect class="cls-24" x="923.11" y="465.98" width="89.07" height="42.99"/></g><line class="cls-4" x1="969.78" y1="465.67" x2="969.32" y2="508.37"/><g><path class="cls-35" d="M581.46,719.16c-.45-99.05-.89-198.09-1.34-297.14l-66.01,27.83c-.02,73.77-.05,147.54-.07,221.31,22.47,16,44.94,32,67.42,48Z"/><path class="cls-24" d="M581.46,719.16c-.45-99.05-.89-198.09-1.34-297.14l-66.01,27.83c-.02,73.77-.05,147.54-.07,221.31,22.47,16,44.94,32,67.42,48Z"/></g><path class="cls-4" d="M651.17,314.87c110.84,.24,221.68,.48,332.52,.71l69.12,93.27"/><g><path class="cls-43" d="M754.33,379.95l-16.82-11.65-.14-66.37c5.65-3.2,11.3-6.4,16.96-9.61v87.62Z"/><path class="cls-24" d="M754.33,379.95l-16.82-11.65-.14-66.37c5.65-3.2,11.3-6.4,16.96-9.61v87.62Z"/></g><g><path class="cls-11" d="M722.06,301.94l90.86-71.18,80.24,71.18h-16.32c-21.4-17.69-42.79-35.38-64.19-53.06-23.74,17.69-47.48,35.38-71.22,53.06h-19.37Z"/><path class="cls-24" d="M722.06,301.94l90.86-71.18,80.24,71.18h-16.32c-21.4-17.69-42.79-35.38-64.19-53.06-23.74,17.69-47.48,35.38-71.22,53.06h-19.37Z"/></g><g><path class="cls-35" d="M868.92,295.39c-.06,28.19-.12,56.38-.18,84.56h-114.41v-87.62l58.33-43.46,56.26,46.51Z"/><path class="cls-24" d="M868.92,295.39c-.06,28.19-.12,56.38-.18,84.56h-114.41v-87.62l58.33-43.46,56.26,46.51Z"/></g><rect class="cls-4" x="767.93" y="296.48" width="37.88" height="67.3"/><line class="cls-6" x1="767.93" y1="308.13" x2="805.82" y2="308.13"/><line class="cls-6" x1="767.93" y1="319.19" x2="805.82" y2="319.19"/><line class="cls-6" x1="767.93" y1="330.25" x2="805.82" y2="330.25"/><line class="cls-6" x1="767.93" y1="341.31" x2="805.82" y2="341.31"/><line class="cls-6" x1="767.93" y1="352.38" x2="805.82" y2="352.38"/><rect class="cls-4" x="818.15" y="296.48" width="37.88" height="67.3"/><line class="cls-6" x1="818.15" y1="308.13" x2="856.04" y2="308.13"/><line class="cls-6" x1="818.15" y1="319.19" x2="856.04" y2="319.19"/><line class="cls-6" x1="818.15" y1="330.25" x2="856.04" y2="330.25"/><line class="cls-6" x1="818.15" y1="341.31" x2="856.04" y2="341.31"/><line class="cls-6" x1="818.15" y1="352.38" x2="856.04" y2="352.38"/><rect class="cls-4" x="624.65" y="458.34" width="108.39" height="59.18"/><g><rect class="cls-35" x="634.31" y="466.43" width="89.07" height="42.99"/><rect class="cls-24" x="634.31" y="466.43" width="89.07" height="42.99"/></g><line class="cls-4" x1="680.98" y1="466.12" x2="680.51" y2="508.83"/><polygon class="cls-4" points="568.67 459.4 568.67 538.73 524.8 538.73 524.8 473.64 568.67 459.4"/><path class="cls-4" d="M568.67,466.84c-11.3,3.55-22.6,7.1-33.89,10.65v61.24"/><rect class="cls-4" x="555.86" y="495.5" width="12.81" height="43.23"/><g><path class="cls-11" d="M555.86,495.5c-15.49,4.99-30.99,9.97-46.48,14.96,.18,13.77,.36,27.54,.54,41.31,15.32-4.34,30.63-8.69,45.95-13.03v-43.23Z"/><path class="cls-24" d="M555.86,495.5c-15.49,4.99-30.99,9.97-46.48,14.96,.18,13.77,.36,27.54,.54,41.31,15.32-4.34,30.63-8.69,45.95-13.03v-43.23Z"/></g><g><path class="cls-34" d="M509.91,551.76h12.83l45.92-13.03h-12.81c-15.31,4.34-30.63,8.69-45.95,13.03Z"/><path class="cls-18" d="M509.91,551.76h12.83l45.92-13.03h-12.81c-15.31,4.34-30.63,8.69-45.95,13.03Z"/></g><polygon class="cls-4" points="524.8 592.07 524.8 642.85 568.67 665.51 568.67 587.03 524.8 592.07"/><polyline class="cls-4" points="568.67 594.59 530.16 597.83 530.16 645.62"/><path class="cls-27" d="M1049.2,426.47c-156.36-1.48-312.72-2.97-469.08-4.45l1.34,297.14c155.67-.12,311.35-.25,467.02-.37,.24-97.44,.48-194.88,.72-292.32Z"/><path class="cls-1" d="M1052.08,435.83c-157.02,.24-314.04,.48-471.07,.72l-65.91,26.88,.07-13.58,65.84-27.83c157.26-.68,314.52-1.35,471.79-2.03-.24,5.28-.48,10.56-.72,15.84Z"/><g><polygon class="cls-11" points="591.52 408.85 580.13 422.02 1052.8 419.99 1052.8 408.85 591.52 408.85"/><polygon class="cls-24" points="591.52 408.85 580.13 422.02 1052.8 419.99 1052.8 408.85 591.52 408.85"/></g><g><path class="cls-11" d="M514.06,457.61l-19.35-7.57,115.8-126.07,40.66-9.1-71.04,107.14c-22,9.28-44,18.55-66.01,27.83-.02,2.59-.04,5.18-.06,7.77Z"/><path class="cls-24" d="M514.06,457.61l-19.35-7.57,115.8-126.07,40.66-9.1-71.04,107.14c-22,9.28-44,18.55-66.01,27.83-.02,2.59-.04,5.18-.06,7.77Z"/></g><path class="cls-27" d="M588.85,408.85c-31.38,13.73-62.76,27.46-94.15,41.18"/><path class="cls-18" d="M974.23,583.43c2.62-4.81,6.99-8.12,11.01-7.78,5.76,.49,11.81,8.58,9.6,18.94,9.93-2.86,18.42,3.26,19.08,9.36,.52,4.77-3.67,10.5-10.44,12.79"/></g></g><g id="_1_HOUSE"><path class="cls-13" d="M959.2,781.11h-269.52v-208.84c55.45-37.3,110.9-74.6,166.35-111.9,34.96,36.01,69.91,72.02,104.87,108.03-.57,70.9-1.13,141.81-1.7,212.71Z"/><path class="cls-10" d="M623.28,744.23v-174.02l66.53-9.71c.14,73.4,.29,146.81,.43,220.21-22.32-12.16-44.64-24.32-66.96-36.48Z"/><path class="cls-36" d="M624.65,594.59l66.11-7.56,165.64-108.54c30.75,31.78,61.49,63.56,92.24,95.34,6.24-3.2,12.48-6.4,18.72-9.6-36.99-35.95-73.98-71.91-110.97-107.86l-165.51,111.9-66.24,10.19v16.13Z"/><path class="cls-5" d="M874.14,518.1c0,12.48-10.11,22.6-22.59,22.6-.58,0-1.15-.02-1.72-.07,10.62-1.88,18.7-11.25,18.7-22.53s-8.08-20.66-18.7-22.53c.57-.05,1.14-.07,1.72-.07,12.48,0,22.59,10.12,22.59,22.6Z"/><path class="cls-20" d="M868.53,518.1c0,11.28-8.08,20.65-18.7,22.53-11.68-.88-20.88-10.63-20.88-22.53s9.2-21.65,20.88-22.53c10.62,1.87,18.7,11.25,18.7,22.53Z"/><path class="cls-19" d="M849.83,495.57c-.14-.02-.28-.05-.42-.07"/><line class="cls-19" x1="849.41" y1="495.77" x2="849.41" y2="530.03"/><line class="cls-19" x1="828.95" y1="518.1" x2="860.76" y2="518.1"/><rect class="cls-20" x="792.16" y="632.08" width="74.72" height="115.41"/><path class="cls-5" d="M803,654.71v-11.86h21.65v33.44h-21.65v-6.82"/><rect class="cls-5" x="803" y="688.95" width="21.65" height="50.15"/><rect class="cls-5" x="834.04" y="642.66" width="21.65" height="33.44"/><rect class="cls-5" x="834.04" y="688.76" width="21.65" height="50.15"/><path class="cls-21" d="M809.24,478.49c15.93-10.94,31.87-21.88,47.8-32.82,13.46,14.02,26.95,28.01,40.46,41.96,24.79,25.62,49.68,51.15,74.66,76.59-2.72,1.12-5.44,2.24-8.16,3.36-35.99-37.07-71.98-74.15-107.97-111.22-55.4,37.3-110.81,74.6-166.22,111.9l-80.24,12.29v-8.41c26.74-3.88,53.49-7.77,80.24-11.65,37.73-25.91,75.46-51.82,113.19-77.72"/><path class="cls-5" d="M803,482.77c-37.73,25.91-75.46,51.82-113.19,77.73-26.75,3.88-53.5,7.77-80.24,11.65,60.45-40.42,120.9-80.85,181.34-121.27,22.04-1.74,44.08-3.47,66.13-5.21-15.94,10.94-31.87,21.88-47.81,32.82"/><path class="cls-10" d="M737.51,503.81l-23.54,12.18c-.11-21.4-.22-42.8-.33-64.2,7.91-3.6,15.82-7.19,23.73-10.79"/><polyline class="cls-13" points="737.48 489.09 737.37 441 761.1 441 761.1 490.08 743.84 500.54 737.51 503.81"/><path class="cls-19" d="M786.77,609.64h89.74c1.5,2.3,3.86,6.62,4.52,12.51,.42,3.7,.03,6.84-.43,9.06-28.19,.28-56.37,.56-84.56,.84,.36-2.1,.8-6.33-.86-11.19-2.2-6.46-6.71-10-8.41-11.22Z"/><rect class="cls-5" x="776.8" y="747.48" width="104.29" height="23.62"/><rect class="cls-5" x="766.24" y="767.75" width="123.6" height="20.38"/><path class="cls-9" d="M786.77,609.64v22.43c3.09,0,6.18-.02,9.27-.03,.36-2.1,.8-6.33-.86-11.19-2.2-6.46-6.71-10-8.41-11.22Z"/><g><path class="cls-20" d="M752.4,687.82l-31-.12v-45.42c1.65-8.57,8.5-15.02,16.57-15.9,1.87,.57,6.03,2.12,9.63,6.13,3.12,3.47,4.32,7.12,4.8,9v18.06"/><g class="cls-37"><path class="cls-33" d="M747.26,624.72c-5.41,21.53-10.81,43.05-16.22,64.58h-17.18l3.26-56.09c2.24-2.09,6.34-5.35,12.34-7.39,7.85-2.66,14.64-1.75,17.8-1.11Z"/></g><path class="cls-5" d="M752.37,668.3c.01-8.93,.02-17.86,.03-26.79-.48-1.88-1.68-5.53-4.8-9-3.6-4.01-7.76-5.56-9.63-6.13,9.43-1.04,18.76,5.72,20.86,15.9v45.56"/><path class="cls-5" d="M765.85,695.76c.08-.36,.49-2.43-.82-4.23-1.24-1.72-3.54-2.5-5.79-1.96-.37-2.94-2.29-5.44-4.99-6.44-3.09-1.15-6.67-.15-8.85,2.52-2.64-5.04-8.42-7.2-13.01-5.37-3.57,1.42-6.01,5.1-6.2,9.29-1.99-2.08-5.17-2.51-7.64-1.03s-3.59,4.5-2.68,7.23"/><path class="cls-10" d="M727.55,708.57h-6.52c-1.15,.06-3.31-.02-5.27-1.38-3.16-2.18-4.5-6.77-3.19-11.43h8.88c-.1,1.29-.15,4.23,1.44,7.44,1.48,2.96,3.6,4.64,4.66,5.37Z"/><path class="cls-19" d="M769.98,707.33c-.58,.44-1.76,1.15-3.72,1.24h-38.71c-1.06-.73-3.18-2.41-4.66-5.37-1.59-3.21-1.54-6.15-1.44-7.44h50.18c1.91,4.77,1.12,9.47-1.65,11.57Z"/><line class="cls-5" x1="752.4" y1="673.92" x2="752.4" y2="678.66"/></g><line class="cls-10" x1="689.86" y1="587.63" x2="689.86" y2="578.39"/><line class="cls-5" x1="803" y1="659.31" x2="803" y2="665.43"/><path class="cls-19" d="M849.83,540.63c-.14,.02-.28,.05-.42,.07v-6.23"/><line class="cls-19" x1="864.24" y1="518.1" x2="868.53" y2="518.1"/><line class="cls-13" x1="737.37" y1="495.77" x2="737.37" y2="498.83"/><path class="cls-10" d="M766.24,747.35v40.78h21.04v-20.38c-3.28-.04-6.56-.08-9.84-.12,.04-6.72,.08-13.43,.12-20.15-3.77-.04-7.55-.09-11.32-.14Z"/></g><g id="BUSH"><path class="cls-5" d="M1020.32,656.87c6.39-7.35,6-18.45-.72-25.2-6.48-6.51-17.07-7.2-24.48-1.44,5.69-11.04,.55-24.46-10.08-28.8-9.93-4.05-22.13,.85-26.64,11.52-5.12-7.58-13.95-11.74-22.86-10.75-12.42,1.38-18.29,12.03-18.77,12.94-5.9-7.52-15.62-10.58-23.94-7.77-10.08,3.41-16.41,14.9-13.59,26.47-9.41-7.5-23.06-5.16-29.12,3.95-5.51,8.28-3.54,20.33,5.18,26.85-7.23,1.67-12.51,7.9-12.94,15.21-.41,7.03,3.76,13.63,10.35,16.34-5.93,1.51-10.31,6.37-11,12.13-.88,7.37,4.75,12.26,5.18,12.62-7.44,4.57-9.28,14.49-4.53,21.03,4.4,6.06,13.37,7.73,20.06,3.24-1.46,5.44,0,11.19,3.88,14.88,4.83,4.61,12.63,5.31,18.78,1.43-1.37,4.85,.14,10.08,3.87,13.45,3.74,3.39,9.11,4.36,13.81,2.5,3.44,2.39,8.89,5.47,16.12,6.83,16.66,3.15,29.84-5.23,33.11-7.44,2.89,8.94,11.17,14.89,20.09,14.64,7.68-.22,14.68-4.99,18-12.24,2.63,4.95,8.2,7.27,12.96,5.76,3.71-1.18,6.48-4.55,7.2-8.64,7.14,3.85,15.92,2.23,20.88-3.6,5.52-6.48,5.08-16.7-1.44-23.04,1.2-.34,8.52-2.55,12.24-10.08,4.45-9.01-.22-17.62-.64-18.36,1.63-.74,8.26-3.98,10.72-11.16,2.84-8.32-1.08-18.57-10.08-24.48,3.77-6.59,3.49-14.73-.72-20.88-4.54-6.65-12.88-9.82-20.88-7.92Z"/><g><g class="cls-31"><path class="cls-5" d="M952.12,605.02c-2.09-1.19-8.42-4.44-16.61-3.24-11.97,1.76-17.96,11.57-18.77,12.94-5.9-7.52-15.62-10.58-23.94-7.77-10.08,3.41-16.41,14.9-13.59,26.47-9.41-7.5-23.06-5.16-29.12,3.95-5.51,8.28-3.54,20.33,5.18,26.86-7.23,1.67-12.51,7.9-12.94,15.21-.41,7.03,3.76,13.63,10.35,16.34-5.93,1.51-10.31,6.37-11,12.13-.88,7.37,4.75,12.26,5.18,12.62-7.44,4.57-9.28,14.49-4.53,21.03,4.4,6.06,13.37,7.73,20.06,3.24-1.46,5.44,0,11.19,3.88,14.88,4.83,4.61,12.63,5.31,18.78,1.43-1.37,4.85,.14,10.08,3.87,13.45,3.74,3.39,9.11,4.36,13.81,2.5"/><path class="cls-35" d="M972.23,608.13c-24.24-5.42-35.96-.83-42.19,4.46-4.37,3.71-6.24,8.74-12.24,10.08-9.66,2.16-15.87-7.9-22.02-5.03-6.62,3.09-2.27,16.08-10.02,20.51-5.27,3.01-9.52-1.7-18.36,1.8-2.67,1.06-7.34,2.9-9.36,7.2-3.11,6.59,3.75,10.99,1.8,20.16-1.48,6.97-5.98,6.95-6.48,13.32-.54,6.85,4.54,8.37,4.68,15.84,.12,6.08-3.22,6.83-5.76,15.48-1.39,4.73-4.26,14.49,0,21.6,1.87,3.12,7.87,5.84,19.8,11.16,10.51,4.68,13.02,5.15,16.92,8.64,5.49,4.91,5.07,8.05,9,12.6,5.32,6.17,12.26,7.55,31.51,10.67,15.53,2.52,28.1,4.39,36.48,5.6l-.96,20.71s-115.98-15.2-131.93-45.15-4.37-108.67,5.7-122.59c10.07-13.92,37.83-43.68,68.11-46.08,30.28-2.4,63.4,3.47,65.32,19.02Z"/></g><g class="cls-28"><path class="cls-35" d="M876.89,716.63c.98-.15,2.4-.52,3.2-1.65,1.53-2.15-.51-5.09-1.17-9.87-.37-2.66-1.04-7.57,1.08-10.08,4.42-5.22,18.7,2.61,21.24-1.31,2.03-3.13-6.04-9.68-3.6-14.17,1.28-2.35,3.83-1.18,9-4.32,5.2-3.16,4.69-5.59,9-7.56,4.78-2.18,6.54,.29,11.16-1.44,6.64-2.49,5.32-8.46,10.8-10.8,8.52-3.65,19.81,7.31,23.09,3.77,.71-.77,.67-1.85,.67-2.53,0-5.92-16.56-22.12-26.64-18.88-10.08,3.24-55.48,32.42-65.54,50.05-10.06,17.63-2.61,28.07,7.7,28.79Z"/></g><g class="cls-39"><path class="cls-35" d="M913.8,742.91s-5.38-3.24-3.39-9.72,14.11-21,18.85-22.56c4.74-1.56,22.36-5.88,22.73-10.56s-8.63-14.7-17.63-10.77c-9,3.93-36.37,23.37-38.35,36.33s-1.61,27.36,11.71,27c13.32-.36,11.8-5.76,6.08-9.72Z"/></g></g><path id="SVGID" class="cls-19" d="M893.65,671.03c3.09-1.55,6.95-1.64,10.33,.11,.11-.66,1.2-6.38,6.47-9.06,4.51-2.29,10.21-1.41,14.24,2.26-1.1-7.33,3.76-14.33,11-15.85,7.26-1.53,14.56,2.96,16.47,10.15"/><path id="SVGID-2" class="cls-19" d="M888.34,676.29c.31-1.03,.78-2.01,1.41-2.91"/><path id="SVGID-3" class="cls-19" d="M876.8,710.62c-5.01-4.12-7.25-10.29-5.6-14.95,2.31-6.49,12.4-10.73,21.78-5.75-3.24-2.16-4.99-5.67-5.09-9.17"/><path id="SVGID-4" class="cls-19" d="M900.77,741.93c2.12,3.31,6.34,5.62,11.14,4.94"/><path id="SVGID-5" class="cls-19" d="M899.69,735.44c-.25,.67-.38,1.36-.38,2.05,0,.55,.08,1.09,.24,1.62"/><path id="SVGID-6" class="cls-19" d="M947.84,698.98c-1.48-3.66-5.13-5.74-8.41-5.18-4.09,.7-7.22,5.44-5.82,10.35-2.53-3.92-7.66-4.89-11-2.59-2.78,1.91-3.94,5.83-2.55,9.36-.63-.1-5.91-.81-9.74,2.94-3.42,3.35-4.25,8.85-1.94,13.59-3.33,.59-6.03,2.51-7.59,4.94"/><path class="cls-19" d="M1020.32,656.87c6.39-7.35,6-18.45-.72-25.2-6.48-6.51-17.07-7.2-24.48-1.44,5.69-11.04,.55-24.46-10.08-28.8-9.93-4.05-22.13,.85-26.64,11.52-5.12-7.58-13.95-11.74-22.86-10.75-12.42,1.38-18.29,12.03-18.77,12.94-5.9-7.52-15.62-10.58-23.94-7.77-10.08,3.41-16.41,14.9-13.59,26.47-9.41-7.5-23.06-5.16-29.12,3.95-5.51,8.28-3.54,20.33,5.18,26.85-7.23,1.67-12.51,7.9-12.94,15.21-.41,7.03,3.76,13.63,10.35,16.34-5.93,1.51-10.31,6.37-11,12.13-.88,7.37,4.75,12.26,5.18,12.62-7.44,4.57-9.28,14.49-4.53,21.03,4.4,6.06,13.37,7.73,20.06,3.24-1.46,5.44,0,11.19,3.88,14.88,4.83,4.61,12.63,5.31,18.78,1.43-1.37,4.85,.14,10.08,3.87,13.45,3.74,3.39,9.11,4.36,13.81,2.5,3.44,2.39,8.89,5.47,16.12,6.83,16.66,3.15,29.84-5.23,33.11-7.44,2.89,8.94,11.17,14.89,20.09,14.64,7.68-.22,14.68-4.99,18-12.24,2.63,4.95,8.2,7.27,12.96,5.76,3.71-1.18,6.48-4.55,7.2-8.64,7.14,3.85,15.92,2.23,20.88-3.6,5.52-6.48,5.08-16.7-1.44-23.04,1.2-.34,8.52-2.55,12.24-10.08,4.45-9.01-.22-17.62-.64-18.36,1.63-.74,8.26-3.98,10.72-11.16,2.84-8.32-1.08-18.57-10.08-24.48,3.77-6.59,3.49-14.73-.72-20.88-4.54-6.65-12.88-9.82-20.88-7.92Z"/></g><g id="FENCE"><path class="cls-26" d="M745.36,849.14l26.64,16.32v-73.44c-4.77-8.09-9.55-16.19-14.32-24.28-4.23,5.45-8.45,10.91-12.68,16.36,.12,21.68,.24,43.36,.36,65.04Z"/><path class="cls-26" d="M798.14,773.92c.55-.86,1.11-1.72,1.66-2.57,4.92,7.44,9.84,14.88,14.76,22.32v78.84h-29.16v-78.84c3.34-5.18,6.68-10.36,10.03-15.54"/><path class="cls-26" d="M830.02,821.83v-28.16c4.8-7.44,9.6-14.88,14.4-22.32,4.92,7.44,9.84,14.88,14.76,22.32v78.84h-29.16v-39.87"/><path class="cls-26" d="M903.8,872.51h-29.16v-78.84c4.8-7.44,9.6-14.88,14.4-22.32,4.92,7.44,9.84,14.88,14.76,22.32v78.84Z"/><path class="cls-26" d="M948.42,872.51h-29.16v-78.84c4.8-7.44,9.6-14.88,14.4-22.32,4.92,7.44,9.84,14.88,14.76,22.32v78.84Z"/><circle class="cls-19" cx="756.87" cy="796.86" r="3.51"/><circle class="cls-19" cx="756.87" cy="836.15" r="3.51"/><circle class="cls-19" cx="799.98" cy="811.77" r="3.51"/><circle class="cls-19" cx="799.98" cy="851.06" r="3.51"/><circle class="cls-19" cx="844.6" cy="811.77" r="3.51"/><circle class="cls-19" cx="844.6" cy="851.06" r="3.51"/><circle class="cls-19" cx="889.26" cy="811.77" r="3.51"/><circle class="cls-19" cx="889.26" cy="851.06" r="3.51"/><circle class="cls-19" cx="933.84" cy="811.77" r="3.51"/><circle class="cls-19" cx="933.84" cy="851.06" r="3.51"/><line class="cls-19" x1="772" y1="796.86" x2="785.4" y2="802.67"/><line class="cls-19" x1="772" y1="805.36" x2="785.4" y2="811.17"/><line class="cls-19" x1="772" y1="836.91" x2="785.4" y2="842.72"/><line class="cls-19" x1="772" y1="845.41" x2="785.4" y2="851.22"/><line class="cls-19" x1="814.56" y1="804.67" x2="830.02" y2="804.67"/><line class="cls-19" x1="814.56" y1="812.17" x2="830.02" y2="812.17"/><line class="cls-19" x1="814.56" y1="844.3" x2="830.02" y2="844.3"/><line class="cls-19" x1="814.56" y1="851.81" x2="830.02" y2="851.81"/><line class="cls-19" x1="859.18" y1="804.67" x2="874.64" y2="804.67"/><line class="cls-19" x1="859.18" y1="812.17" x2="874.64" y2="812.17"/><line class="cls-19" x1="859.18" y1="844.3" x2="874.64" y2="844.3"/><line class="cls-19" x1="859.18" y1="851.81" x2="874.64" y2="851.81"/><line class="cls-19" x1="903.8" y1="804.67" x2="919.26" y2="804.67"/><line class="cls-19" x1="903.8" y1="812.17" x2="919.26" y2="812.17"/><line class="cls-19" x1="903.8" y1="844.3" x2="919.26" y2="844.3"/><line class="cls-19" x1="903.8" y1="851.81" x2="919.26" y2="851.81"/><line class="cls-26" x1="830.02" y1="828.47" x2="830.02" y2="825.59"/><path class="cls-26" d="M965.02,821.83v-28.16c4.8-7.44,9.6-14.88,14.4-22.32,4.92,7.44,9.84,14.88,14.76,22.32v78.84h-29.16v-39.87"/><path class="cls-26" d="M1038.8,872.51h-29.16v-78.84c4.8-7.44,9.6-14.88,14.4-22.32,4.92,7.44,9.84,14.88,14.76,22.32v78.84Z"/><circle class="cls-19" cx="979.6" cy="811.77" r="3.51"/><circle class="cls-19" cx="979.6" cy="851.06" r="3.51"/><circle class="cls-19" cx="1024.25" cy="811.77" r="3.51"/><circle class="cls-19" cx="1024.25" cy="851.06" r="3.51"/><line class="cls-19" x1="949.56" y1="804.67" x2="965.02" y2="804.67"/><line class="cls-19" x1="949.56" y1="812.17" x2="965.02" y2="812.17"/><line class="cls-19" x1="949.56" y1="844.3" x2="965.02" y2="844.3"/><line class="cls-19" x1="949.56" y1="851.81" x2="965.02" y2="851.81"/><line class="cls-19" x1="994.18" y1="804.67" x2="1009.64" y2="804.67"/><line class="cls-19" x1="994.18" y1="812.17" x2="1009.64" y2="812.17"/><line class="cls-19" x1="994.18" y1="844.3" x2="1009.64" y2="844.3"/><line class="cls-19" x1="994.18" y1="851.81" x2="1009.64" y2="851.81"/><line class="cls-26" x1="965.02" y1="828.47" x2="965.02" y2="825.59"/></g><line class="cls-7" x1="236.4" y1="543.13" x2="403.25" y2="543.13"/><path id="SVGID-7" class="cls-19" d="M1002.05,674.99c-3.62-1.53-8.41-1.06-11.98,2.22"/><path id="SVGID-8" class="cls-19" d="M1006.61,679.74c-.17-.69-.45-1.34-.84-1.91-.31-.45-.68-.85-1.11-1.2"/><g class="cls-32"><path class="cls-35" d="M989.52,682.69s6.26-.5,8.41,5.93c2.15,6.43,.73,25.29-2.21,29.31-2.95,4.03-14.77,17.79-12.35,21.81,2.42,4.02,15.58,6.94,20.61-1.49,5.03-8.43,15.99-40.17,10.06-51.86-5.93-11.69-14.6-23.19-25.23-15.15-10.63,8.04-6.25,11.55,.71,11.44Z"/></g><path id="SVGID-10" class="cls-19" d="M987.47,737.02c3.29,2.19,7.47,1.84,9.87-.48,2.98-2.89,2.88-8.57-1.04-11.83,4.31,1.81,9.08-.29,10.54-4.08,1.21-3.15-.04-7.04-3.18-9.16,.58-.28,5.34-2.67,6.38-7.93,.93-4.69-1.49-9.71-6.07-12.31,2.41-2.37,3.55-5.48,3.47-8.36"/><g><path class="cls-17" d="M477.8,287.27c3.81-1.45,5.44-5.84,3.8-9.12-1.5-2.99-5.4-4.41-8.76-2.88,.34-3.2-1.09-6.34-3.72-8.16-4-2.77-8.42-.86-8.64-.76,1.16-4.46-.38-9.12-3.84-11.72-4.14-3.11-10.31-2.72-14.4,1.18,1.39-4.27,.04-8.95-3.36-11.74-3.65-2.99-8.96-3.21-12.96-.48-1.03-4.07-4.57-6.99-8.64-7.2-4.4-.22-8.47,2.78-9.6,7.2-3.02-5.46-9.24-8.38-15.36-7.2-6.15,1.18-10.86,6.26-11.6,12.49-6.88-2.26-14.15,.57-17.2,6.23-2.37,4.39-1.92,9.97,1.05,14.4-3.01-.28-5.92,.76-7.29,2.88-2.05,3.17-.68,8.77,4.32,11.52-5.57,2.08-8.9,7.57-8.16,12.96,.6,4.35,3.78,8.06,8.16,9.6"/><path class="cls-17" d="M581.92,196.43c-2.4-2.57-6.02-3.46-9.12-2.28-3.84,1.46-4.91,5.37-5.01,5.76-1.9-2.13-4.88-2.89-7.47-1.92-2.86,1.07-4.67,4.05-4.32,7.2-.93-2.88-3.39-4.95-6.24-5.28-3.4-.39-6.79,1.78-7.98,5.28-2.46-2.09-5.86-2.64-8.82-1.44-4.43,1.81-5.21,6.5-5.24,6.72-.02-3.72-2.66-6.75-5.8-7.2-3.76-.54-7.74,2.66-7.87,7.2-3.86-1.1-7.93,.03-10.37,2.88-2.7,3.16-2.21,7.04-2.12,7.68"/><path class="cls-17" d="M565.6,261.35c3.34-3.46,8.42-3.12,10.56-.48,1.54,1.91,1.58,5.05,0,7.68,3.08-4.16,8.87-5.14,12.96-2.4,3.79,2.54,5.22,7.67,3.19,12,2.74-2.2,6.27-2.47,8.33-.96,2.72,2,3.28,7.41-.48,11.04,.66-.27,5.52-2.14,10.08,.48,4.27,2.45,6.49,7.83,5.28,13.23,2.31-2.35,5.79-3.03,8.64-1.71,3.82,1.76,4.3,6.06,4.32,6.24"/><path class="cls-17" d="M503.39,260.87c-1.82-3.48-.55-7.57,2.21-9.12,3.12-1.76,7.93-.18,9.5,4.06,1.66-3.78,5.76-5.88,9.7-5.02,3.74,.82,6.53,4.12,6.72,8.03,4.93-3.61,11.51-3.18,15.36,.61,2.99,2.94,3.99,7.57,2.62,11.87,4.88-1.63,10.23,0,13.22,3.97,2.67,3.55,3.05,8.42,.96,12.48,5.56,1.81,8.39,7.68,6.72,12.48-1.39,3.97-5.68,6.68-10.38,6.24"/><path class="cls-17" d="M405.75,193.63c-4.28-2.64-4.89-8.16-2.39-11.01,2.11-2.4,6.46-2.9,9.79-.48-1.8-3.14-1.69-7.05,.29-10.08,1.98-3.04,5.51-4.71,9.12-4.32-1.56-4.43,.79-9.18,4.8-10.56,3.48-1.2,7.6,.35,9.61,3.84,1.72-3.19,5.03-5.22,8.63-5.28,3.73-.07,7.2,1.98,8.98,5.28,2.32-3.55,6.62-5.28,10.7-4.32,3.91,.92,6.9,4.15,7.56,8.16,3.71-4.55,10.18-5.12,14.04-1.92,3.11,2.58,4.18,7.32,2.39,11.52"/><path class="cls-17" d="M478.32,467.15s7.84-13.8-5.48-25.44-45.72-21.46-57.24-26.27-24.24-10.09-38.16-10.09-17.76-13.73-25.44-19.1c-7.68-5.38-21.12-9.7-21.12-9.7"/><path class="cls-17" d="M349.6,376.55s14.4,8.16,21.12,14.88c6.72,6.72,41.12,8.64,41.12,8.64,0,0-3.2-8.64-3.68-17.28s-.48-15.84-.48-15.84"/><path class="cls-17" d="M413.92,366.95s-4.9,24.48,10.03,33.12c14.93,8.64,48.95,15.1,56.66,21.95,0,0-16.29-22.91-23.01-32.99s-24-36.65-24-36.65"/><path class="cls-17" d="M463.93,342.47s8.98,17.76,16.69,24.48c7.71,6.72,11.07,16.56,11.07,16.56,0,0-2.37-24.72-2.38-33.36-.02-8.64-1.46-19.68-6.74-25.44"/><path class="cls-17" d="M489.3,324.71s3.63,4.32,5.41,12.48c0,0,7.06-2.4,8.02-8.64,.96-6.24,3.84-13.67,3.84-13.67"/><path class="cls-17" d="M510.41,318.95s.47,15.84-3.85,20.64c-4.32,4.8-8.63,5.76-8.63,5.76,0,0,.99,13.92,6.25,23.52,5.26,9.6,6.25,17.38,6.25,17.38,0,0,11.96-10.18,14.37-17.38s10.26-1.2,14.49-14.76c4.23-13.56,3.75-20.45,4.71-20.84"/><path class="cls-17" d="M562.26,326.03s-15.55,11.16-14.51,15.96c1.05,4.8-1.02,12.12-1.02,12.12,0,0,13.11-1.56,17.91-5.4s4.48-8.64,12.8-8.64c8.32,0,11.41-2.88,11.41-2.88"/><path class="cls-17" d="M592.31,340.07s-19.72,5.76-19.38,8.64c.35,2.88-2.97,10.95-10.67,13.16s-17.3,2.68-25.46,12.28c-8.16,9.6-10.08,22.08-8.64,25.92s6.61,6.35,6.61,6.35"/><path class="cls-17" d="M491.68,383.51s11.11,36.43,23.42,44.33"/><path class="cls-17" d="M510.43,386.24s-8.11,10.28-8.87,22.61"/><line class="cls-17" x1="480.61" y1="422.02" x2="497.93" y2="445.67"/><path class="cls-17" d="M595.72,340.07c-2.53,2.75-9.95-6.8-9.95-6.8,0,0-13.3,7.68-17.97,3.92-4.67-3.76-1.71-12.48-1.71-12.48,0,0-7.12,3.84-19.35,5.76-12.23,1.92-19.01-15.59-19.01-15.59,0,0-3.88,5.03-12.62,4.07-8.74-.96-15.26-7.2-15.26-7.2l-8.16,9.12c-8.16,9.12-17.81-1.92-17.81-1.92,0,0-2.83,3.84-5.23,10.56-2.4,6.72-4.72,12.96-12,18.24s-18.4-3.36-18.4-3.36c0,0-8.48,19.2-19.04,22.56-10.56,3.36-13.45-5.08-13.45-5.08,0,0-3.35,7-16.31,11.38s-24.96-6.3-24.96-6.3c0,0-1.92,7.2-9.12,9.6-7.2,2.4-20.64-5.28-20.64-5.28,0,0-3.84,5.28-14.9,10.93-11.06,5.65-23.02,4.04-23.02,4.04,0,0-11.52,7.1-22.56,4.22-11.04-2.88-5.76-17.22-5.76-17.22,0,0-11.04-1.58-7.2-14.74,3.84-13.16,22.08-15.08,22.08-15.08,0,0-3.84-18.24,4.8-24.48s21.6-19.68,21.6-19.68c0,0-19.68-5.52-20.16-24.24-.48-18.72,21.6-13.92,21.6-13.92,0,0-6.72-12-.24-20.64,6.48-8.64,35.52,6.48,35.52,6.48,0,0,.72-13.44,12.24-15.6,0,0-8.64-7.56-3.6-15.84,5.04-8.28,13.68-4.68,13.68-4.68,0,0-13.32-9.72-11.16-19.8s21.96-12.24,21.96-12.24c0,0,.36-10.8,4.68-12.96s9.36-2.16,9.36-2.16c0,0-8.64-5.76-4.68-10.8s24.19-3.96,24.19-3.96c0,0-.07-12.24,5.33-13.32l5.4-1.08s-1.8-13.68,8.28-14.04c10.08-.36,13.32,7.2,13.32,7.2,0,0,19.8-4.68,24.12,3.24s3.24,12.24,3.24,12.24c0,0,7.2-.72,12.96-5.04s23.4-7.2,32.4-.72c9,6.48,8.64,20.52,8.64,20.52,0,0,10.8,2.88,13.32,2.52s11.16-4.32,18.36,2.52,7.2,13.32,7.2,13.32c0,0,5.4-2.52,9.36,3.96s6.84,16.2,6.84,16.2c0,0,9-5.4,15.48,2.52,6.48,7.92,9.36,23.4,9.36,23.4,0,0,10.44-7.2,17.28-.72,6.84,6.48,2.52,23.76,2.52,23.76,0,0,11.52,2.47,12.24,10.42s-8.28,15.86-8.28,15.86c0,0,5.4-4.68,16.2,1.8,10.8,6.48,12.96,17.28,12.96,17.28,0,0,6.84-7.56,15.48-2.52,8.64,5.04,10.8,26.72,10.8,26.72"/><path class="cls-17" d="M545.77,366.95s-1.41,13.63,7.53,19.3"/><path class="cls-17" d="M538.26,356.88s-16.34,9.03-21.14,4.99c-4.8-4.04-6.69-7.76-6.69-7.76,0,0-4.54,2.68-10.2,4.4"/><path class="cls-17" d="M489.3,360.71s-10.49,.31-11.49,3.39"/><path class="cls-17" d="M454.59,384.48s-10.18,11.03-17.38,13.07-17.84-1.25-17.84-1.25"/><path class="cls-17" d="M364.58,400.07s-6.81,7.42-14.97,6.35c-8.16-1.07-6.24-13.62-12.48-15.26-6.24-1.65-16.32,2.14-19.68,7.68-3.36,5.55-10.56,8.11-21.6,6.83-11.04-1.28-24.21-16.25-24.21-16.25"/></g><g><path class="cls-17" d="M759.22,270.45c3.81-1.45,5.44-5.84,3.8-9.12-1.5-2.99-5.4-4.41-8.76-2.88,.34-3.2-1.09-6.34-3.72-8.16-4-2.77-8.42-.86-8.64-.76,1.16-4.46-.38-9.12-3.84-11.72-4.14-3.11-10.31-2.72-14.4,1.18,1.39-4.27,.04-8.95-3.36-11.74-3.65-2.99-8.96-3.21-12.96-.48-1.03-4.07-4.57-6.99-8.64-7.2-4.4-.22-8.47,2.78-9.6,7.2-3.02-5.46-9.24-8.38-15.36-7.2-6.15,1.18-10.86,6.26-11.6,12.49-6.88-2.26-14.15,.57-17.2,6.23-2.37,4.39-1.92,9.97,1.05,14.4-3.01-.28-5.92,.76-7.29,2.88"/><path class="cls-17" d="M857.94,194.96c-2.4-2.57-6.02-3.46-9.12-2.28-3.84,1.46-4.91,5.37-5.01,5.76-1.9-2.13-4.88-2.89-7.47-1.92-2.86,1.07-4.67,4.05-4.32,7.2-.93-2.88-3.39-4.95-6.24-5.28-3.4-.39-6.79,1.78-7.98,5.28-2.46-2.09-5.86-2.64-8.82-1.44-4.43,1.81-5.21,6.5-5.24,6.72-.02-3.72-2.66-6.75-5.8-7.2-3.76-.54-7.74,2.66-7.87,7.2-3.86-1.1-7.93,.03-10.37,2.88-2.7,3.16-2.21,7.04-2.12,7.68"/><path class="cls-17" d="M681.77,192.17c-4.28-2.64-4.89-8.16-2.39-11.01,2.11-2.4,6.46-2.9,9.79-.48-1.8-3.14-1.69-7.05,.29-10.08,1.98-3.04,5.51-4.71,9.12-4.32-1.56-4.43,.79-9.18,4.8-10.56,3.48-1.2,7.6,.35,9.61,3.84,1.72-3.19,5.03-5.22,8.63-5.28,3.73-.07,7.2,1.98,8.98,5.28,2.32-3.55,6.62-5.28,10.7-4.32,3.91,.92,6.9,4.15,7.56,8.16,3.71-4.55,10.18-5.12,14.04-1.92,3.11,2.58,4.18,7.32,2.39,11.52"/><line class="cls-17" x1="756.63" y1="420.55" x2="773.95" y2="444.2"/><path class="cls-17" d="M624.04,221.63c.08-1.35,.57-7.78,5.4-11.16,6.01-4.21,15.38-1.37,15.38-1.11h0s-13.32-9.72-11.16-19.8c2.16-10.08,21.96-12.24,21.96-12.24-4.84-4.48-4.6-12-.26-15.81,3.82-3.35,10.15-3.27,14.3,.69-3.91-10.85,.24-21.64,7.78-25.17,6.65-3.12,13.81,.39,14.97,.98-1.73-7.52,2.13-15.22,9.03-18.26,7.21-3.17,15.88-.44,20.06,6.45,2.31-4.88,7.35-7.83,12.58-7.41,5.7,.46,10.5,4.84,11.54,10.65,.94-1.13,6.57-7.63,15.34-7.77,8.96-.15,17.53,6.41,20.64,16.32,6.63-3.61,10.39-3.19,12.62-2.07,7.4,3.72,8.64,20.52,8.64,20.52h0c.2-.23,3.54-3.87,8.02-3.09,4.05,.7,7.29,4.72,7.2,9.6,6.72-4.49,14.12-5.93,18.24-2.88,5.64,4.18,6.17,17.53,5.42,14.73h0c5.15-3.45,11.59-3.48,15.7-.33,5.49,4.2,6.53,13.86,.5,20.49,6.83-3.56,14.98-2.92,20.62,1.59,6.88,5.5,8.89,15.85,4.22,24.33,3.9-1.87,8.45-.67,10.66,2.55,1.8,2.62,1.8,6.23,0,9.12,1.04,.15,12.12,1.99,17.13,12.14,4.04,8.17,2.47,18.35-4.03,25.51,.54-.22,8.96-3.44,16.2,1.8,5.52,4,8.02,11.23,6.22,18.15,12.58-6.57,18.85-5.42,22.22-3.39,9.31,5.63,10.8,26.72,10.8,26.72h0"/></g><path class="cls-2" d="M598.84,752.15s-4.06,4.91-2.9,10.48c1.16,5.58,13.68,3.67,15.32,2.75s-7.78-11.22-12.42-13.23Z"/><path class="cls-2" d="M569.88,730.88s-4.06,4.91-2.9,10.48c1.16,5.58,13.68,3.67,15.32,2.75s-7.78-11.22-12.42-13.23Z"/><g id="girl_dog"><path class="cls-38" d="M496.43,839.02s8.45,8.29,8.81,14.05c.36,5.76-.47,16.66-.47,16.66,0,0,5.69-4.96,6.41-13.42s-2.3-14.56-7.37-16.15-7.37-1.14-7.37-1.14Z"/><g id="girl"><path class="cls-38" d="M597.64,737.15c2.68,4.2,3.85,8.54,4.32,10.32,.64,2.43,.98,4.66,1.67,14.17,.31,4.33,.54,7.97,.69,10.63,4.37,1.61,8.73,3.23,13.1,4.84,.08-10.71-1.55-19.34-3.08-25.25-2.58-9.96-4.53-17.08-11.09-22.38-5.19-4.19-10.92-5.34-11.9-5.52-4.76-.9-8.72-.3-11.01,.22,4.11,1.42,12.17,4.92,17.3,12.97Z"/><path class="cls-19" d="M575.62,783.73c-1.65-3.96-3.31-8.84-4.5-14.54-1.56-7.45-1.84-14.04-1.68-19.2l3.7-4.31c-1.23,1.44-2.47,2.88-3.7,4.31-.52-.99-4.88-9.48-.72-17.28,2.28-4.28,5.99-6.22,7.44-6.96,7.82-3.97,17.79-2.44,24.6,1.89,8.72,5.56,11.18,14.99,14.04,25.95,2.74,10.51,2.83,19.55,2.48,25.42"/><path class="cls-38" d="M606.77,773.12c3.5,1.17,8.5,3.43,12.59,8.04,3.41,3.85,6.74,10.02,7.2,31.68,.19,8.85-.12,20.75-2.16,34.81-5.54-.31-11.07-.61-16.61-.92,3.59-7.22,10.89-24.45,7.97-46.34-1.59-11.9-5.66-21.19-8.99-27.27Z"/><path class="cls-5" d="M558.06,807.34c-4.42,4.3-8.84,8.59-13.25,12.89-8.96,1.12-17.92,2.24-26.88,3.36-1.6-.9-4.33-2.17-7.92-2.64-1.67-.22-5.77-.7-10.32,1.2-4.37,1.83-7.93,5.35-7.44,6.24,.76,1.37,11.62-2.44,15.5-.48,.56,.28,.68,.54,.7,.7,.18,1.47-6.39,3.25-6.23,4.96,.03,.27,.21,.45,.34,.58,1.88,1.9,8.59-1.73,14.89-2.88,1.27-.23,5.82,.24,14.88,1.2,13.24,1.4,16.15,1.8,20.29,.16,.91-.36,3.14-1.23,7.18-4.11,1.45-1.03,3.32-2.46,5.41-4.31"/><path class="cls-5" d="M572.66,790.08c-5.21,5.25-10.41,10.5-15.62,15.75,2.91,4.32,5.81,8.65,8.72,12.97"/><path class="cls-5" d="M573.14,745.67c-.04,1.66-.25,18.91,9.66,24.11,.89,.47,2.87,1.46,5.41,1.3,7.18-.45,12.07-9.66,12.95-14.62,0,0,6.48-.36,7.2-4.68,.72-4.32-5.76-5.76-7.2-4.32-1.44,1.44-3.36,5.04-3.36,5.04v-4.32c-1.04-.42-2.28-1.08-3.49-2.11-3.73-3.18-4.48-7.62-4.66-9.09-.69,1.31-2.63,4.56-6.65,6.77-4.32,2.38-8.42,2.09-9.86,1.93Z"/><path class="cls-5" d="M603.68,756.01c-.15,2.98-.13,6.38,.22,10.13,.26,2.76,.67,5.3,1.14,7.58"/><path class="cls-5" d="M583.68,753.11s-3.09,6.72,0,6.96"/><path class="cls-5" d="M591.88,761.15c-.02,.27-.2,2.33-2.04,3.6-1.66,1.14-3.42,.79-3.72,.72"/><path class="cls-42" d="M577.8,754.02c2.41,0,2.42-3.75,0-3.75s-2.42,3.75,0,3.75h0Z"/><path class="cls-42" d="M589.39,752.46c2.41,0,2.42-3.75,0-3.75s-2.42,3.75,0,3.75h0Z"/><path class="cls-19" d="M564.59,838.16c.01-10.99,1.08-20.15,2.21-27.01,4.08-24.72,11.06-29.81,13.68-31.44,2.86-1.78,5.65-2.53,7.59-2.88,1.29,3.67,4.16,6.41,7.29,6.72,4.58,.45,9.92-4.28,9.88-11.28,3.95,1.16,9.6,3.49,14.12,8.52,3.06,3.4,6.73,9.45,7.2,31.68,.19,8.85-.12,20.75-2.16,34.81-5.54-.31-11.07-.61-16.61-.92"/><path class="cls-8" d="M579.08,872.9c-.49,2.86-5.68,33.72-1.24,45.51,.51,1.36,1.53,4.55,4.56,6.34,4.17,2.47,9,1.83,11.52,1.35,8.68-1.67,25.88-5.67,48.15-11.7-1.25-4.51-2.5-9.02-3.75-13.53-13.83,1.79-27.66,3.59-41.49,5.38,3.42-10.32,6.83-20.64,10.25-30.95l-28-2.39Z"/><g class="cls-40"><path class="cls-41" d="M579.14,872.92c-.49,2.86-5.68,33.72-1.24,45.51,.51,1.36,1.53,4.55,4.56,6.34,4.17,2.47,9,1.83,11.52,1.35,8.68-1.67,25.88-5.67,48.15-11.7-1.25-4.51-2.5-9.02-3.75-13.53-13.83,1.79-27.66,3.59-41.49,5.38,3.42-10.32,6.83-20.64,10.25-30.95l-28-2.39Z"/></g><path class="cls-5" d="M637.99,900.56c5.34-1.63,10.68-3.26,16.02-4.89l8.34,29.54c-6.76-3.41-13.52-6.81-20.28-10.22"/><path class="cls-5" d="M560.99,916.53c.12,5.58,.23,11.16,.35,16.74h-30.69c5.12-5.58,10.23-11.16,15.35-16.74"/><path class="cls-38" d="M540,844.07c-2.15,.05-4.86,.53-6.8,2.5-4.92,5.01-1.34,16.13,1.44,25.49,3.14,10.55,7.23,25.45,11.35,44.48h14.99c-.7-16.89-1.4-33.77-2.1-50.66,5.72,2.31,14.83,5.5,26.44,7.37,15,2.41,25.52,4.11,32.6-2.17,7.49-6.64,7-18.52,6.48-23.51l-84.4-3.49Z"/><g class="cls-30"><path class="cls-8" d="M617.42,844.07s1.14,27.16-13.1,25.58-48.8-11.33-50.24-10.05,2.96,61.02,2.96,61.02l8.16-2.14,1.73-38.17s45.7,3.32,53.86-5.41c8.16-8.74,8.64-29.47,8.64-29.47l-12.02-1.35Z"/></g><path class="cls-19" d="M539.74,844.07c-2.15,.05-4.86,.53-6.8,2.5-4.92,5.01-1.34,16.13,1.44,25.49,3.14,10.55,7.23,25.45,11.35,44.48h14.99c-.7-16.89-1.4-33.77-2.1-50.66,5.72,2.31,14.83,5.5,26.44,7.37,15,2.41,25.52,4.11,32.6-2.17,7.49-6.64,7-18.52,6.48-23.51l-84.4-3.49Z"/><path class="cls-5" d="M588.22,771.08c-.05,2.01-.1,4.02-.15,6.02"/><path class="cls-5" d="M601.04,827.12c-2.41,3.49-4.82,6.98-7.23,10.47-8.96,1.12-17.92,2.24-26.88,3.36-1.6-.9-4.33-2.17-7.92-2.64-4.28-.56-7.54,.38-10.32,1.2-3.77,1.11-8.95,3.34-8.69,4.55,.08,.34,.59,.62,3.22,.9,7.15,.76,9.03-.69,13.53,.3,2.09,.46,1.38,.71,6.35,2.3,3.24,1.04,4.93,1.58,7.33,1.8,1.91,.18,2.14,0,5.62,.09,1.35,.04,3.03,.13,5.28,.37,13.24,1.4,16.15,1.8,20.29,.16,2.1-.83,4.63-2.11,7.18-4.11,6.55-5.15,9.12-11.86,10.08-15.01"/><path class="cls-19" d="M605.14,799.79c-1.19,5.66-2.52,11.46-4.02,17.4-.78,3.09-1.58,6.13-2.4,9.12,7.96,1.84,15.92,3.68,23.88,5.52,1.96-5.77,4.38-15.29,3.61-27.1-.57-8.75-2.7-15.86-4.63-20.79"/><path class="cls-19" d="M579.08,872.9c-.49,2.86-5.68,33.72-1.24,45.51,.51,1.36,1.53,4.55,4.56,6.34,4.17,2.47,9,1.83,11.52,1.35,8.68-1.67,25.88-5.67,48.15-11.7-1.25-4.51-2.5-9.02-3.75-13.53-13.83,1.79-27.66,3.59-41.49,5.38,3.42-10.32,6.83-20.64,10.25-30.95l-28-2.39Z"/></g><g id="dog"><path class="cls-5" d="M455.32,845.27c-.77,2.59-1.68,6.87-.97,11.98,.71,5.1,3.23,12.49,5.94,12.48,3.66-.02,6.21-13.49,6.62-15.7"/><path class="cls-5" d="M459.42,841.16c-.5,.32-1.2,.82-1.9,1.57"/><path class="cls-5" d="M476.17,839.71c-1.51-.63-5.18-1.91-9.83-1.14-.37,.06-1.69,.29-3.3,.86"/><path class="cls-5" d="M500.59,890.51c1.59,15.37-4.79,28.34-8.3,34.39-6.89-.43-13.78-.85-20.67-1.28-2.88-4.26-10.78-17.18-7.99-33.11,2.08-11.9,10.39-27.08,19.25-26.64,6.59,.33,11.65,9.22,13.38,12.24,1.1,1.93,3.54,6.68,4.34,14.4Z"/><path class="cls-19" d="M488.9,839.71c1.51-.63,5.18-1.91,9.83-1.14,.77,.13,5.7,1,8.82,4.16,7.83,7.94,1.12,26.96-2.78,27-1.68,.02-3.94-3.45-6.73-17.56"/><circle class="cls-5" cx="482.53" cy="854.03" r="15.62"/><ellipse class="cls-23" cx="482.87" cy="859.59" rx="7.52" ry="5.54"/><ellipse class="cls-42" cx="482.83" cy="858.83" rx="3.15" ry="2.52"/><path class="cls-42" d="M477.16,851.97c3.22,0,3.22-5,0-5s-3.22,5,0,5h0Z"/><path class="cls-42" d="M490.12,852.15c3.22,0,3.22-5,0-5s-3.22,5,0,5h0Z"/><polyline class="cls-5" points="479.16 890.51 479.16 925.79 471.92 924.9"/><path class="cls-25" d="M465.08,896.54c-1.37,1.54-3.94,4.91-4.63,9.81-1.4,9.83,6.04,16.85,6.81,17.56,0,0-7.7-3.88-11.4-2.08-3.7,1.8-3.7,6.84,2.06,7.56,5.76,.72,20.24,0,20.24,0-2.18-1.92-4.37-3.84-6.55-5.77"/><ellipse class="cls-5" cx="476.3" cy="927.22" rx="6.38" ry="3.32"/><path class="cls-5" d="M471.92,924.9l-8.3-34.39,8.3,34.39Z"/><polyline class="cls-5" points="485.04 890.51 485.04 925.79 492.28 924.9"/><path class="cls-25" d="M499.13,896.54c1.37,1.54,3.94,4.91,4.63,9.81,1.4,9.83-6.04,16.85-6.81,17.56,0,0,7.7-3.88,11.4-2.08,3.7,1.8,3.7,6.84-2.06,7.56-5.76,.72-20.24,0-20.24,0,.27-1.79,.54-3.59,.82-5.38,.75-.11,1.9-.2,3.24,.1,.91,.2,1.64,.51,2.18,.79"/><ellipse class="cls-5" cx="487.9" cy="927.22" rx="6.38" ry="3.32"/><path class="cls-5" d="M492.28,924.9l8.3-34.39-8.3,34.39Z"/><path class="cls-19" d="M490.15,867.66c5.45,9.56,15.3,15.18,25.31,14.36,10.44-.85,16.76-8.37,18.05-9.97"/><path class="cls-23" d="M492.43,871.03c-2.03,.95-6.2,2.55-11.6,2.19-3.98-.26-7.05-1.49-8.9-2.4,.95-1.08,1.9-2.17,2.85-3.25,1.23,.7,3.86,1.97,7.43,2.05,3.85,.08,6.7-1.27,7.94-1.96,.76,1.12,1.52,2.25,2.28,3.37Z"/></g></g></svg>