<?xml version="1.0" encoding="UTF-8"?><svg id="Layer_1" xmlns="http://www.w3.org/2000/svg" viewBox="0 0 896.7 98.9"><defs><style>.cls-1{fill:#fff;}.cls-2{fill:#192339;}</style></defs><path class="cls-1" d="M348.59,52.47c0-2.77,.04-5.46,0-8.15-.15-7.69-.33-15.38-.5-23.07-.03-1.35-.11-2.71-.43-4.03-.38-1.53-1.38-2.39-2.92-2.59-.87-.12-1.75-.13-2.62-.21-.48-.04-1.21,.19-1.18-.6,.02-.72,.75-.62,1.22-.61,1.92,0,3.84-.01,5.75,.12,3.32,.23,6.62-.19,9.94-.12,.65,.01,1.75-.33,1.76,.64,.02,.94-1.06,.53-1.66,.57-2.79,.19-3.83,1.17-4.08,3.98-.36,4.06-.23,8.13-.32,12.19-.25,11.44-.42,22.88-.63,34.31-.01,.67,.04,1.47-.69,1.79-.72,.31-1.31-.24-1.8-.68-3.72-3.34-7.17-6.95-10.7-10.47-4.86-4.86-9.71-9.71-14.5-14.64-4.36-4.5-8.62-9.09-13.01-13.74-.19,1.65,0,3.24,.04,4.83,.1,4.94,.18,9.88,.41,14.82,.21,4.61-.07,9.25,.62,13.84,.47,3.11,1.48,3.92,4.61,4.04,.4,.02,.8,.02,1.2,.04,.43,.02,.95-.03,.98,.6,.04,.71-.55,.69-1.01,.74-.47,.05-.96,.03-1.44,.01-4.99-.17-9.98-.09-14.97-.03-6.1,.07-12.21,.16-18.32-.12-.2,0-.4-.03-.6-.04-.29-.02-.57-.07-.63-.42-.07-.4,.19-.63,.52-.68,1.38-.19,1.3-.98,.91-1.99-1.75-4.57-3.49-9.14-5.19-13.72-.31-.82-.68-1.19-1.62-1.18-4.92,.04-9.83,0-14.75-.04-.36,0-.49,.07-.6,.38-1.53,4.26-3.42,8.39-4.66,12.76-.01,.04-.01,.08-.02,.12-.48,2.75,.21,3.55,3.02,3.62,.57,.02,1.61-.45,1.57,.65-.03,.99-1.02,.67-1.63,.66-1.44,0-2.87-.17-4.31-.13-4.1,.14-8.2,.16-12.3,.26-4.55,.11-8.09-1.64-11-5.02-3.6-4.18-6.82-8.65-9.81-13.27-1.66-2.56-3.43-4.16-6.64-3.56-.73,.14-1.52,.05-2.27-.03-.89-.09-1.08,.3-1.07,1.11,.06,4.9-.11,9.81,.26,14.71,.04,.55,.1,1.11,.2,1.66,.36,2.09,1.07,2.73,3.14,2.89,.91,.07,1.83,.17,2.74,.23,.43,.03,.84,.07,.86,.6,.02,.53-.41,.65-.81,.7-1.75,.22-3.51,.05-5.26-.02-4.4-.17-8.78-.09-13.17,.09-.56,.02-1.12,.04-1.67-.09-.38-.09-.71-.21-.69-.67,.03-.46,.39-.56,.76-.59,.6-.05,1.2-.02,1.79-.1,1.83-.26,2.37-.8,2.75-2.62,.38-1.84,.47-3.71,.47-5.59,.03-6.26-.06-12.53,.07-18.79,.12-6.21,.27-12.41,.13-18.62-.08-3.47-.92-4.38-4.34-4.69-.52-.05-1.04-.06-1.55-.1-.42-.03-.99,.1-1-.55-.01-.69,.6-.66,1.06-.67,1.56-.02,3.12-.07,4.68,.04,4.67,.31,9.34,.07,14.01-.04,2.92-.07,5.82,.08,8.7,.68,9.25,1.94,11.96,10.17,9.33,17.38-1.38,3.79-4.05,6.64-7.1,9.14-.97,.79-.97,1.24-.19,2.2,4.67,5.72,9.06,11.66,14.1,17.06,1.53,1.65,3.26,3.04,5.28,4.07,.8,.41,1.4,.3,2.05-.25,1.22-1.05,1.98-2.39,2.57-3.84,2.54-6.26,5.07-12.53,7.59-18.8,3.56-8.85,7.1-17.7,10.65-26.55,.24-.59,.51-1.17,.83-1.72,.71-1.2,1.6-1.22,2.21,.04,.89,1.86,1.68,3.78,2.46,5.69,5.19,12.87,10.36,25.75,15.55,38.62,.72,1.78,1.59,3.47,2.73,5.02,1.06,1.45,2.38,2.4,4.24,2.59,1.76,.18,3.51,.23,5.26,0,1.74-.22,2.35-.81,2.68-2.54,.58-3.03,.43-6.11,.51-9.18,.35-12.95,.62-25.9,.72-38.85,0-.12-.02-.25,.02-.36,.17-.58-.04-1.39,.74-1.63,.78-.25,1.25,.37,1.71,.87,7.42,8.09,15.15,15.88,22.88,23.68,5.06,5.1,9.97,10.34,14.95,15.52,.13,.13,.27,.26,.44,.42ZM213.28,28.38c0,3.47,.02,6.94-.01,10.41,0,.86,.3,1.3,1.15,1.51,1.52,.38,3.07,.45,4.62,.53,4.96,.28,7.04-2.42,8.3-5.91,.89-2.48,1-5.07,.77-7.67-.66-7.44-6-11.68-13.39-10.7-1.02,.14-1.51,.48-1.48,1.65,.09,3.39,.03,6.78,.03,10.17Zm64.22,15.72c-.85-3.28-6.16-17.4-6.84-18.09-.98,2.6-1.94,5.16-2.9,7.72-1.17,3.12-2.33,6.24-3.47,9.38-.13,.36-.64,.99,.33,.99,4.26,.01,8.53,0,12.88,0Z"/><path class="cls-1" d="M697.42,66.02c-3.67-.18-8.78-.33-13.8,.23-3.91,.43-7.78,.23-11.66,.31-4.24,.09-7.28-1.85-9.34-5.54-2.08-3.73-3.54-7.73-5.25-11.63-.59-1.35-.96-2.92-1.92-3.94-1.04-1.1-2.79-.42-4.23-.56-2.85-.28-2.85-.24-3.67,2.53-1.31,4.42-2.69,8.83-3.69,13.34-.1,.47-.19,.94-.26,1.41-.2,1.48,.34,2.32,1.8,2.57,1.1,.19,2.22,.23,3.33,.34,.39,.04,.88-.03,.9,.53,.02,.5-.35,.79-.8,.91-.27,.07-.55,.08-.83,.08-3.31-.05-6.63-.14-9.94-.14-3.31,0-6.63,.09-9.94,.14-.36,0-.72-.01-1.08-.03-.26-.01-.48-.13-.56-.37-.1-.31,.09-.53,.33-.71,.48-.35,1.06-.41,1.61-.36,2.78,.28,4.24-1.2,5.17-3.62,2.84-7.36,4.94-14.94,6.95-22.55,1.67-6.35,3.77-12.57,5.43-18.92,.04-.15,.1-.3,.13-.46,.74-3.27,.08-4.16-3.31-4.45-.48-.04-.96-.04-1.44-.09-.36-.03-.78-.06-.8-.53-.02-.46,.3-.74,.73-.81,.43-.08,.87-.09,1.31-.09,4.04,.05,8.07,.17,12.11,.13,3.75-.04,7.51-.21,11.26-.09,2.08,.07,4.13,.35,6.13,.95,5.24,1.56,7.65,5.84,6.28,11.12-1.31,5.03-4.5,8.71-8.45,11.85-1.66,1.32-3.4,2.51-5.22,3.6-.42,.25-.67,.41-.37,.99,3.13,6.13,6.02,12.38,9.88,18.12,1.44,2.15,3.21,3.93,5.85,4.42,1.92,.35,3.9,.09,5.74-.49,1.34-.42,1.82-1.82,2.32-3.04,1.77-4.32,3.04-8.79,4.4-13.25,2.74-8.98,5.66-17.9,8.19-26.94,.29-1.03,.54-2.08,.69-3.14,.2-1.39-.3-2.05-1.65-2.49-1.05-.34-2.13-.27-3.21-.3-.39-.01-.88,.01-.92-.52-.04-.52,.35-.82,.83-.85,1.2-.06,2.4-.09,3.59-.06,8.67,.23,17.34,.2,26.02,.05,1.47-.03,2.96-.18,4.38-.58,.88-.25,1.26,.07,.86,.84-1.6,3.04-2.64,6.3-3.87,9.49-.2,.51-.61,.96-1.19,.76-.65-.23-.28-.83-.2-1.25,.68-3.61,.13-4.36-3.58-4.75-3.34-.35-6.7-.21-10.06-.33-.68-.02-1,.28-1.18,.91-1.59,5.46-3.21,10.92-4.82,16.37-.18,.6-.29,1.07,.66,1.05,3.95-.07,7.91,.09,11.86-.23,1.38-.11,2.68-.41,3.67-1.5,.29-.32,.76-.68,1.15-.39,.41,.3,.09,.81-.08,1.2-1.41,3.2-2.59,6.5-3.72,9.81-.06,.19-.14,.37-.24,.54-.21,.36-.51,.7-.95,.55-.41-.14-.39-.57-.35-.93,.08-.63,.19-1.26,.29-1.89,.25-1.63-.29-2.49-1.93-2.88-2.19-.53-4.45-.37-6.68-.44-1.4-.04-2.8,.02-4.2-.02-.66-.02-1.03,.18-1.22,.84-1.62,5.53-3.28,11.06-4.91,16.59-.12,.42-.17,.86-.21,1.3-.17,1.76,.41,2.65,2.12,3.05,2.39,.56,4.84,.5,7.27,.42,.92-.03,1.83-.12,2.74-.22,3.13-.36,5.25-2.12,6.65-4.85,.31-.6,.64-1.19,1.02-1.75,.2-.3,.54-.55,.92-.42,.46,.16,.27,.6,.25,.93,0,.16-.05,.32-.1,.47-.95,2.83-2.08,5.58-3.5,8.22-.68,1.27-1.68,1.78-3.11,1.8-5,.04-9.99-.17-16.38-.33Zm-35.38-48.58c-1.34-.33-2.67-.27-4.01-.01-1.32-.07-2.05,.5-2.37,1.82-.41,1.7-.99,3.35-1.49,5.02-1.46,4.83-2.93,9.65-4.39,14.48-.39,1.31-.23,1.63,1.08,1.96,.81,.2,1.64,.37,2.47,.43,2.67,.2,5.29,.17,7.68-1.39,3.35-2.18,5.18-5.42,6.51-9.02,.83-2.25,1.2-4.6,.96-6.99-.28-2.81-2.09-5.63-6.45-6.3Z"/><path class="cls-1" d="M491.3,66.46c-5.89-.42-12.4,.16-18.91,.14-.66,0-1.68,.29-1.73-.72-.05-.99,.97-.99,1.71-1.09,.51-.07,1.04-.11,1.55-.09,2.46,.09,4.04-1.12,5.07-3.28,2.09-4.4,3.46-9.06,4.83-13.72,3.7-12.59,7.34-25.2,10.98-37.81,.41-1.41,.81-2.84,.89-4.32,.07-1.48-.45-2.16-1.9-2.63-1.31-.43-2.69-.28-4.03-.49-.52-.08-1.25,.13-1.28-.7-.04-.91,.75-.98,1.36-.99,2.4-.01,4.79,0,7.19,.09,7.11,.27,14.23,.15,21.34,.12,3.99-.02,7.99,.21,11.96-.47,.59-.1,1.17-.24,1.74-.4,.3-.09,.64-.2,.9,.07,.27,.28,.16,.6,0,.88-2.09,3.61-3.14,7.64-4.65,11.49-.15,.37-.32,.74-.65,.99-.32,.25-.7,.46-1.1,.24-.42-.23-.37-.63-.28-1.05,.25-1.12,.53-2.23,.42-3.42-.12-1.37-.87-2.07-2.07-2.47-2.16-.72-4.41-.68-6.63-.78-2.75-.13-5.51-.09-8.27-.2-1.02-.04-1.53,.33-1.81,1.29-2.02,6.87-4.06,13.73-6.1,20.59-.15,.52-.42,1.03,.51,1.01,5.11-.1,10.23,.21,15.34-.22,1.62-.14,3.15-.52,4.36-1.71,.2-.19,.45-.34,.7-.46,.28-.13,.59-.35,.89-.09,.3,.26,.17,.6,.04,.89-1.94,4.28-3.33,8.77-4.88,13.2-.12,.35-.31,.64-.58,.89-.26,.24-.57,.29-.89,.17-.33-.12-.3-.43-.32-.71-.08-.85,.23-1.65,.32-2.48,.28-2.42-.58-3.56-3-3.97-2.06-.35-4.14-.24-6.21-.34-2.27-.11-4.55-.04-6.83-.11-.78-.02-1.22,.27-1.42,.98-2.01,6.95-4.32,13.82-6.12,20.83-.06,.23-.12,.46-.16,.7-.53,3.07,.3,4.35,3.4,4.81,4.33,.65,8.68,.64,13-.16,2.9-.54,4.92-2.34,6.38-4.82,.59-.99,1.12-2.02,1.74-2.99,.28-.44,.75-.83,1.31-.56,.57,.28,.32,.86,.18,1.28-1.23,3.7-2.72,7.3-4.48,10.79-.76,1.5-1.96,2.16-3.66,2.18-6.51,.09-13.02-.24-20.15-.37Z"/><path class="cls-1" d="M46.85,27.3c.14,5.69,.22,11.39,.45,17.08,.22,5.33,.04,10.68,.64,15.99,.04,.35,.14,.7,.2,1.05,.32,1.9,1.42,2.97,3.37,3.12,.8,.06,1.59,.1,2.39,.15,.41,.03,.85,.07,.88,.6,.04,.61-.47,.71-.89,.73-1.04,.05-2.08,.09-3.12,.02-4.55-.31-9.1-.04-13.65,0-.63,0-1.62,.26-1.67-.65-.05-1.02,1-.68,1.59-.71,3.58-.18,4.17-.64,4.48-4.17,.43-4.84,.39-9.71,.48-14.57,.21-10.6,.37-21.2,.58-31.8,.01-.75-.2-1.78,.69-2.13,.96-.38,1.48,.55,2.03,1.15,5.17,5.66,10.47,11.19,15.89,16.61,7.2,7.2,14.25,14.54,21.29,21.89,.26,.27,.42,.65,.72,1.12,0-4.85,.04-9.29-.01-13.74-.05-4.22-.16-8.44-.32-12.66-.1-2.63,.06-5.26-.29-7.88-.38-2.88-1.26-3.74-4.1-4-.6-.05-1.2-.06-1.79-.09-.46-.02-1.1,.09-1.08-.6,.02-.65,.66-.61,1.11-.61,1.4-.02,2.8-.08,4.19,.04,3.87,.32,7.74-.03,11.61-.04,.66,0,1.76-.3,1.79,.62,.04,.95-1.04,.55-1.64,.58-2.85,.18-4,1.25-4.12,4.2-.17,4.1-.22,8.21-.3,12.31-.22,11.36-.43,22.71-.65,34.07-.01,.62,.05,1.36-.65,1.68-.69,.32-1.25-.18-1.7-.59-1.42-1.28-2.83-2.58-4.18-3.94-11.33-11.36-22.78-22.61-33.59-34.47-.15-.17-.25-.39-.37-.58-.08,.07-.16,.15-.24,.22Z"/><path class="cls-1" d="M896.7,65.89h-79.07c13.22-18.5,26.33-36.83,39.49-55.24,13.19,18.41,26.31,36.71,39.58,55.24Zm-40.04-1.21c10.64,0,19.31-8.6,19.34-19.19,.03-10.69-8.59-19.37-19.26-19.39-10.71-.02-19.39,8.6-19.4,19.25,0,10.68,8.64,19.33,19.32,19.33Z"/><path class="cls-1" d="M558.87,33.22c4.82-4.97,9.52-9.8,14.18-14.67,.67-.7,1.52-1.6,1.14-2.58-.39-1.03-1.66-.69-2.56-.86-.5-.1-1.22-.03-1.22-.66,0-.77,.75-.82,1.36-.81,1.68,.01,3.36-.01,5.03,.09,3.36,.2,6.71-.16,10.06-.08,.47,.01,1.19-.24,1.25,.53,.05,.68-.58,.95-1.16,.95-3.33,.02-5.79,1.74-8.05,3.94-5.92,5.76-11.86,11.51-17.82,17.23-.64,.61-.74,1.1-.45,1.95,2.46,7.23,4.79,14.5,7.54,21.63,.43,1.11,.85,2.25,1.64,3.17,1.17,1.37,2.77,1.78,4.49,1.91,.5,.04,1.3-.12,1.33,.64,.03,.8-.77,.85-1.35,.85-5.79,.07-11.59,.03-17.38-.25-.44-.02-1.19,.22-1.28-.53-.07-.63,.56-.82,1.04-.98,.85-.28,1.14-.85,.91-1.66-1.73-6.11-3.66-12.15-5.43-17.61-2.19,1.96-4.63,3.96-6.86,6.17-3.04,3-5.92,6.15-8.88,9.23-.64,.66-1.28,1.32-1.65,2.18-.43,.98-.15,1.51,.91,1.71,.51,.1,1.03,.14,1.55,.19,.4,.04,.74,.17,.77,.6,.02,.44-.23,.77-.69,.84-.43,.07-.87,.14-1.31,.12-5.11-.18-10.22-.22-15.33,0-.24,.01-.49,.02-.72-.02-.3-.06-.68-.05-.72-.48-.03-.42,.23-.68,.59-.8,.3-.1,.63-.16,.94-.16,3.44,.02,6.09-1.67,8.46-3.93,5.16-4.94,10.3-9.91,15.44-14.86,1.75-1.69,3.5-3.39,5.27-5.06,.43-.41,.52-.75,.32-1.34-2.22-6.56-4.41-13.13-6.59-19.7-1.02-3.08-3.16-4.67-6.34-4.99-.49-.05-1.2,.07-1.21-.65-.01-.78,.7-.93,1.3-.93,1.99,0,3.99,.06,5.98,.11,4.31,.11,8.63,.06,12.94-.15,.59-.03,1.2,.02,1.79,.09,.31,.03,.67,.13,.67,.55,0,.41-.26,.68-.65,.74-.71,.12-1.42,.19-2.13,.29-1.57,.22-2.05,.78-1.78,2.33,.63,3.62,1.93,7.05,3,10.55,.51,1.67,1.07,3.33,1.68,5.2Z"/><path class="cls-1" d="M179.93,33.3c0-4.74,.02-9.49,0-14.23-.02-3.22-1.08-4.28-4.29-4.46-.4-.02-.8-.01-1.2-.04-.5-.04-1.18,.07-1.18-.66,0-.67,.68-.58,1.12-.59,1.48-.01,2.96,.01,4.43,.07,3.79,.14,7.59,0,11.38-.08,.28,0,.56-.03,.84,0,.48,.06,1.21-.11,1.2,.63-.01,.71-.72,.61-1.21,.63-3.84,.19-4.62,.98-4.64,4.88-.04,7.5-.03,15-.09,22.49-.03,3.79-.31,7.55-1.29,11.24-2.28,8.68-9.73,12.97-16.54,13.6-3.55,.33-7.11,.29-10.61-.53-7.59-1.78-12.07-6.6-13.64-14.17-.53-2.54-.75-5.12-.75-7.72,0-7.94-.02-15.88-.04-23.81,0-.95-.08-1.91-.19-2.86-.19-1.65-.95-2.44-2.58-2.87-.9-.24-1.82-.21-2.74-.26-.55-.03-1.41,.2-1.39-.65,.02-.84,.9-.6,1.44-.6,2.2,0,4.39,.05,6.59,.11,4.04,.12,8.07-.07,12.1-.11,.58,0,1.54-.26,1.57,.59,.04,.87-.91,.64-1.5,.67-3.17,.15-4.12,1.14-4.14,4.54-.04,7.54,.09,15.08-.13,22.61-.07,2.29-.38,4.57-.13,6.86,.28,2.5,.68,4.98,1.78,7.27,2.44,5.11,7.72,7.95,13.5,7.29,6.25-.71,10.29-4.28,11.61-10.17,.79-3.53,.75-7.12,.82-10.7,.06-2.99,.01-5.98,.01-8.98-.04,0-.08,0-.12,0Z"/><path class="cls-1" d="M607.31,13.66c3.87,.02,7.75-.12,11.63,0,1.96,.06,3.9,.35,5.77,.95,4.89,1.56,7.27,5.59,6.19,10.6-1.6,7.4-6.34,12.23-12.92,15.49-3.6,1.78-7.43,2.63-11.47,2.45-.32-.01-.65-.01-.94-.11-.29-.1-.6-.29-.58-.68,.02-.36,.27-.57,.61-.65,.27-.07,.55-.13,.83-.13,5.07-.08,8.59-2.82,11.41-6.69,2.2-3.02,3.2-6.5,3.31-10.19,.13-4.32-2.6-7.25-6.9-7.67-4.44-.44-4.71-.29-5.94,3.94-3.48,11.91-7.2,23.75-10.52,35.72-.49,1.76-.93,3.55-1.15,5.37-.19,1.59,.36,2.34,1.94,2.57,1.1,.16,2.23,.19,3.34,.29,.42,.03,.97-.06,1,.57,.03,.6-.44,.81-.94,.88-.43,.07-.87,.11-1.31,.1-6.63-.13-13.26-.24-19.89-.01-.65,.02-1.73,.31-1.79-.58-.06-1.01,1.1-.75,1.78-.9,.31-.07,.64-.07,.96-.05,1.79,.1,2.93-.78,3.68-2.33,1.47-3.06,2.48-6.29,3.46-9.52,3.25-10.7,6.65-21.35,9.66-32.11,.3-1.07,.58-2.14,.63-3.28,.05-1.25-.55-1.94-1.7-2.25-1.01-.27-2.05-.29-3.09-.35-.42-.02-.99,.04-1-.58-.01-.6,.49-.8,1-.81,2.16-.02,4.32,0,6.47,0,2.16,0,4.31,0,6.47,0Z"/><path class="cls-1" d="M397.81,12.22c5.13-.15,10.19,.56,15.21,1.54,2.45,.48,2.41,.46,2.3,2.95-.13,2.99-.19,5.98-.29,8.96-.02,.55-.11,1.11-.21,1.66-.06,.34-.31,.56-.68,.56-.4,0-.56-.28-.61-.61-.06-.35-.06-.71-.1-1.07-.32-3.58-1.89-6.38-5.18-8.04-4.33-2.18-8.96-2.68-13.73-2.46-10.56,.49-15.51,7.75-16.84,15.51-1.03,6.02-.94,12.02,1.65,17.7,3.43,7.56,9.2,12.32,17.48,13.68,3.2,.53,6.47,.29,9.64-.49,4.26-1.05,6.73-3.88,7.85-8.01,.04-.15,.04-.32,.09-.47,.12-.4,.31-.76,.82-.69,.53,.07,.59,.47,.58,.89-.07,2.12-.49,4.19-.8,6.28-.15,.98-.45,1.94-.61,2.92-.21,1.31-1.01,1.98-2.22,2.37-3.04,.97-6.17,1.26-9.32,1.39-5.98,.25-11.88-.16-17.61-2.1-11.19-3.78-18.12-13.38-18.14-25.17-.01-9.5,3.55-17.2,11.53-22.62,4.48-3.04,9.58-4.26,14.9-4.64,1.43-.1,2.87-.02,4.31-.02Z"/><path class="cls-1" d="M13.79,66.05c-3.87,0-7.74,0-11.61,0-.48,0-.95,.02-1.42-.14-.44-.15-.7-.43-.63-.88,.06-.41,.41-.56,.8-.6,1.03-.09,2.07-.15,3.1-.26,1.58-.17,2.27-.74,2.67-2.29,.68-2.65,.67-5.37,.71-8.07,.06-4.74,.03-9.49,.06-14.24,.04-8.21,.15-16.42,.13-24.63,0-2.82,.07-5.66-.39-8.47-.4-2.46-1.49-3.43-3.99-3.62-.72-.05-1.44-.05-2.15-.1C.52,2.7-.05,2.58,0,1.88c.05-.61,.61-.69,1.09-.69,2.28,0,4.56-.08,6.83,.08,5.23,.37,10.45-.17,15.68-.1,.36,0,.72,0,1.08,.03,.42,.04,.81,.19,.83,.69,.02,.54-.35,.78-.83,.83-.83,.09-1.68,.1-2.5,.23-2.57,.42-3.46,1.43-3.75,4.02-.22,1.99-.25,3.98-.25,5.97-.01,12.84-.03,25.69,0,38.53,0,3.14-.13,6.3,.45,9.42,.42,2.23,1.39,3.06,3.63,3.28,1.27,.12,2.55,.18,3.82,.26,.62,.04,1.48-.13,1.48,.75,0,.9-.91,.87-1.56,.87-1.88,0-3.75-.05-5.63-.06-2.19-.01-4.39,0-6.58,0v.08Z"/><path class="cls-1" d="M441.03,66.18c-4.75-.18-9.5-.14-14.25,.1-.43,.02-.87-.04-1.31-.1-.38-.05-.75-.23-.72-.65,.03-.39,.39-.59,.78-.62,.4-.03,.8,0,1.2-.04,2.37-.16,3.06-.8,3.46-3.13,.38-2.21,.4-4.44,.42-6.67,.07-6.78,.08-13.56,.05-20.34-.03-5.38-.13-10.76-.24-16.14-.05-2.75-1.03-3.75-3.82-4.02-.75-.07-1.51-.12-2.27-.16-.39-.02-.76-.09-.78-.54-.02-.44,.36-.61,.73-.63,.8-.04,1.6-.06,2.39-.03,8.51,.33,17.02,.24,25.52,.09,1.31-.02,2.63-.16,3.9-.56,.85-.27,1.21,.01,1.05,.92-.51,2.75-.68,5.53-.81,8.32-.02,.51-.1,1.14-.8,1.11-.66-.03-.57-.67-.6-1.12-.27-3.42-1.17-4.35-4.61-4.73-3.26-.36-6.54-.17-9.81-.41-.7-.05-1.01,.22-1.01,.96,.02,5.74,0,11.49,0,17.23,0,.51,.02,.95,.75,.93,3.91-.08,7.83,.14,11.74-.16,1.15-.09,2.2-.36,2.93-1.37,.22-.3,.55-.52,.93-.39,.48,.16,.31,.62,.27,.92-.46,3.28-.68,6.58-.86,9.88-.02,.37-.07,.79-.49,.85-.52,.07-.63-.39-.7-.79-.08-.47-.1-.95-.17-1.42-.3-2.08-1.19-3.12-3.24-3.41-3.45-.48-6.94-.23-10.41-.33-.56-.02-.67,.33-.66,.78,.12,5.98-.33,11.96,.17,17.94,.19,2.27,1.14,3.3,3.39,3.71,3.29,.59,6.61,.6,9.9,0,2.77-.51,3.98-1.99,4.51-5.01,.11-.63-.12-1.71,.98-1.54,.91,.14,.57,1.11,.54,1.71-.12,2.27-.38,4.52-.78,6.76-.34,1.92-.78,2.39-2.76,2.37-4.23-.04-8.47-.16-12.7-.25-.6-.01-1.2,0-1.79,0Z"/><path class="cls-1" d="M739.31,67.32c-3.07,.1-6.19-.2-9.14-1.51-1.5-.66-1.74-1.05-1.26-2.58,1.09-3.41,2.25-6.79,3.39-10.18,.09-.26,.26-.49,.4-.73,.24-.4,.59-.72,1.08-.55,.55,.2,.43,.71,.33,1.13-.32,1.24-.58,2.48-.52,3.77,.16,3.68,2.08,6.09,5.7,6.8,4.58,.89,8.73-.03,12.15-3.38,2.74-2.69,4.4-7.89,.89-12.26-1.86-2.32-4.18-4.17-6.18-6.34-2.21-2.39-4.24-4.93-4.96-8.18-.98-4.38,.13-8.41,2.72-11.98,3.54-4.88,8.54-7.39,14.38-8.39,4.74-.81,9.38-.04,14.03,.82,.76,.14,.94,.59,.7,1.2-1.21,3.12-2.16,6.32-3.22,9.49-.07,.22-.21,.43-.34,.63-.22,.32-.54,.5-.93,.38-.47-.14-.39-.55-.37-.9,.03-.48,.13-.95,.18-1.42,.38-3.85-1.44-6.3-5.29-6.89-4.23-.65-8.07,.25-11.01,3.53-2.95,3.29-2.9,7-.01,10.35,1.86,2.15,4.17,3.83,6.22,5.78,2.36,2.24,4.55,4.66,5.44,7.87,1.39,5.02-.05,9.57-2.9,13.68-3.9,5.63-9.52,8.55-16.21,9.58-1.7,.26-3.42,.32-5.25,.28Z"/><path class="cls-1" d="M779.8,67.32c-3.22,.07-6.3-.18-9.21-1.49-1.52-.68-1.78-1.13-1.28-2.68,1.06-3.29,2.18-6.56,3.28-9.84,.06-.19,.14-.38,.23-.55,.29-.52,.61-1.22,1.3-.98,.78,.27,.39,1.03,.25,1.55-.33,1.25-.47,2.5-.37,3.79,.22,2.96,1.69,5,4.48,6.04,4.47,1.67,10.44,.18,13.64-3.36,3.23-3.58,3.41-8.32,.47-12.11-1.06-1.36-2.32-2.53-3.56-3.71-1.59-1.51-3.1-3.09-4.49-4.8-5.83-7.17-3.11-15.13,1.3-19.72,4.06-4.23,9.15-6.23,14.91-6.76,4.03-.36,7.95,.36,11.88,1.05,.79,.14,1.02,.54,.76,1.25-1.16,3.09-2.17,6.23-3.15,9.38-.06,.19-.17,.36-.27,.53-.24,.42-.6,.69-1.08,.55-.53-.16-.38-.66-.32-1.02,.22-1.27,.3-2.53,.01-3.8-.4-1.79-1.37-3.11-3.07-3.86-4.27-1.87-10.52-.31-13.41,3.34-2.44,3.09-2.44,6.53-.01,9.63,1.39,1.77,3.16,3.15,4.83,4.63,1.19,1.06,2.36,2.15,3.45,3.31,4.83,5.18,5.47,10.56,2.35,17.07-3.29,6.86-9.13,10.52-16.44,12.05-2.16,.45-4.35,.58-6.47,.51Z"/><path class="cls-1" d="M101.95,58.28c0-1.63,0-3.26,0-4.9,0-.28,.06-.56,.13-.82,.11-.41,.18-.94,.76-.91,.58,.04,.63,.55,.64,.99,.05,1.32,.29,2.62,.65,3.88,1.28,4.49,5.17,7.14,10.22,6.96,3.88-.14,7.05-1.59,8.55-5.39,1.15-2.91,.52-5.73-1.1-8.32-1.22-1.95-2.91-3.49-4.69-4.92-2.96-2.37-6.07-4.56-8.68-7.33-3.01-3.19-5.12-6.76-5.35-11.29-.28-5.46,2.42-10.03,7.47-12.36,4.1-1.89,8.41-2.03,12.79-1.53,1.74,.2,3.46,.61,5.19,.91,.8,.14,1.13,.54,1.06,1.4-.23,2.78-.34,5.57-.29,8.36,0,.24-.01,.48-.07,.71-.1,.43-.21,.9-.79,.88-.61-.02-.66-.53-.68-.95-.08-1.99-.79-3.71-2.07-5.23-3-3.56-9.57-4.18-13.18-1.25-2.62,2.13-3.21,6.15-1.31,9.22,1.39,2.25,3.4,3.9,5.46,5.49,3.06,2.37,6.22,4.62,8.93,7.41,4.64,4.77,6.59,10.34,4.79,16.84-1.55,5.61-5.71,8.74-11.15,10.08-5.35,1.32-10.69,.91-15.89-1-1.25-.46-1.75-1.21-1.68-2.51,.07-1.47,.02-2.95,.02-4.43,.09,0,.19,0,.28,0Z"/><path class="cls-1" d="M627.68,89.2c2.6,1.24,3.47,3.03,2.89,5.8-.45,2.16-2.21,3.58-4.71,3.64-2.75,.06-5.51-.01-8.27,.03-.69,.01-.76-.27-.76-.83,.02-5.42,0-10.84,0-16.26,0-.44-.09-.87,.62-.85,2.87,.1,5.75-.17,8.62,.15,2.13,.24,3.28,1.21,3.72,2.98,.56,2.26,.07,3.73-1.68,5.03-.13,.09-.26,.18-.45,.32Zm-4.47,6.03v.07c.6,0,1.2-.01,1.8,0,1.22,.04,2.2-.86,2.35-2.16,.12-1.05-.69-2.04-1.93-2.16-1.19-.11-2.4,0-3.59-.13-1.3-.15-1.69,.36-1.52,1.57,.13,.93-.41,2.19,.22,2.72,.53,.45,1.75,.09,2.66,.09Zm-.47-7.39c.52,0,1.04,.01,1.56,0,1.4-.05,2.16-.81,2.16-2.15,0-1.2-.71-1.93-2.05-1.99-1.12-.05-2.24,.01-3.35-.02-.6-.02-.78,.23-.73,.78,.03,.32,0,.64,0,.96q0,2.43,2.41,2.43Z"/><path class="cls-1" d="M716.29,80.66c2.09,2.44,4.19,4.89,6.28,7.33,.65,.76,1.34,1.48,1.93,2.28,.45,.6,.69,.51,1.13-.02,2.54-3.02,5.12-6.01,7.68-9.01,.15-.18,.32-.35,.49-.52,.43,.18,.25,.55,.25,.83,.01,5.3-.01,10.6,.03,15.91,0,.89-.3,1.03-1.09,1.02-2.37-.03-2.37,0-2.37-2.35v-6.51c-1.22,1.45-2.26,2.72-3.34,3.94-.76,.85-1.32,2.41-2.29,2.36-.77-.04-1.46-1.53-2.18-2.38-1.03-1.22-2.05-2.44-3.08-3.67-.4,.21-.21,.57-.21,.85-.02,2.31-.03,4.62,0,6.94,0,.61-.14,.81-.79,.83-2.74,.09-2.74,.12-2.74-2.58v-15.14c.1-.03,.2-.06,.3-.09Z"/><path class="cls-1" d="M609.62,89.54c-2,2.38-3.78,4.49-5.61,6.67-1.81-2.15-3.59-4.26-5.59-6.63,0,2.83-.05,5.33,.03,7.81,.03,.94-.28,1.1-1.13,1.09-2.33-.05-2.33-.01-2.33-2.38,0-5.1,0-10.2,0-15.31,.47-.13,.57,.25,.75,.47,2.58,2.99,5.16,5.98,7.7,9,.47,.55,.68,.54,1.13,0,2.47-2.93,4.97-5.82,7.46-8.73,.25-.29,.52-.57,.79-.87,.33,.37,.18,.74,.18,1.07,.01,5.18-.01,10.37,.03,15.55,0,.87-.13,1.24-1.13,1.2-2.28-.08-2.28-.02-2.28-2.31,0-2.09,0-4.19,0-6.63Z"/><path class="cls-1" d="M574.9,80.48c0,5.94,0,11.57,.01,17.19,0,.63-.18,.79-.8,.8-2.61,.05-2.61,.08-2.61-2.57v-6.35c-1.77,2.11-3.37,3.97-4.91,5.88-.5,.63-.77,.76-1.34,.04-1.51-1.9-3.1-3.74-4.68-5.62-.42,.29-.22,.68-.23,.99-.02,2.23-.04,4.47,0,6.7,.02,.74-.2,.93-.93,.93-2.56,0-2.56,.04-2.56-2.5v-15.17c.42-.2,.53,.15,.69,.33,2.49,2.91,5,5.8,7.45,8.75,.66,.8,1.02,.99,1.79,.05,2.26-2.79,4.64-5.48,6.97-8.21,.3-.35,.62-.68,1.14-1.24Z"/><path class="cls-1" d="M665.7,98.61c-1.4,0-2.55-.02-3.69,.01-.48,.02-.73-.24-.97-.57-1.01-1.38-2.11-2.71-3.01-4.17-.5-.8-1.03-1.03-1.91-1-2.07,.06-2.07,.02-2.07,2.03,0,.96-.03,1.92,.01,2.87,.02,.52-.14,.65-.67,.68-2.82,.16-2.82,.17-2.82-2.61,0-4.71,.03-9.42-.02-14.12-.01-.96,.28-1.2,1.2-1.18,2.24,.07,4.48,.02,6.72,.02,3.24,0,5.36,1.58,6.2,4.57,.84,3-.23,5.57-2.99,7.23-.1,.06-.2,.12-.38,.22,1.42,1.94,2.83,3.87,4.4,6.02Zm-11.61-12.08c0,.97,0,1.77,0,2.57,0,.34,0,.66,.47,.65,1.55-.05,3.12,.18,4.66-.12,1.49-.29,2.42-1.77,2.22-3.33-.21-1.6-1.18-2.47-2.8-2.49-.56,0-1.12-.01-1.68,0-.91,.02-2.13-.3-2.66,.16-.63,.55-.11,1.8-.21,2.56Z"/><path class="cls-1" d="M703.88,80.34c5.2,.13,9.29,4.38,9.15,9.51-.15,5.17-4.39,9.17-9.6,9.04-5.06-.13-9.01-4.41-8.87-9.61,.13-4.99,4.38-9.07,9.32-8.94Zm5.83,9.14c0-3.23-2.69-5.94-5.92-5.95-3.12-.01-6.05,2.87-6.03,5.93,.02,3.16,2.79,5.94,5.97,5.96,3.12,.03,5.97-2.81,5.97-5.94Z"/><path class="cls-1" d="M538.87,89.68c.72,.67,1.36,1.27,2.1,1.96,.41-.64,.91-1.26,1.22-1.95,.32-.71,.69-.76,1.27-.37,.1,.07,.21,.1,.32,.16q2.06,.96,.78,2.93-1.12,1.73,.31,3.27c.19,.2,.38,.41,.59,.6,.46,.41,.4,.69-.09,1.1-1.87,1.56-1.86,1.6-3.64-.16-.45-.44-.72-.51-1.26-.11-1.54,1.13-3.24,1.84-5.23,1.67-2.06-.17-3.78-1.44-4.41-3.33-.66-1.97-.12-3.88,1.49-5.29,.09-.08,.18-.17,.28-.22,1.11-.57,1.47-1.14,.64-2.41-1.1-1.69-.7-4.29,.51-5.6,1.27-1.38,3.54-1.9,5.29-1.22,3.4,1.33,4.06,5.67,1.21,7.96-.4,.32-.83,.61-1.37,1.02Zm-2.52,5.9c.58,.05,1.16-.13,1.72-.48,1.22-.75,1.23-.81,.17-1.79-.61-.57-1.19-1.17-1.81-1.72-.21-.19-.39-.48-.81-.32-1.04,.4-1.73,1.52-1.56,2.66,.16,1.1,.9,1.66,2.29,1.65Zm1.15-12.36c-1.09,0-1.65,.6-1.62,1.79,.02,.87,.12,1.84,1.05,2.16,.63,.22,1.94-1.63,1.95-2.56,.01-.98-.62-1.27-1.37-1.4Z"/><path class="cls-1" d="M782.89,91.34c0-3.36,.05-6.49-.03-9.63-.02-.95,.28-1.1,1.13-1.08,2.37,.05,2.37,.01,2.37,2.35,0,4.83,0,9.65,0,14.48,0,.3,.16,.72-.14,.89-.42,.23-.62-.25-.86-.46-3.37-3-6.72-6.01-10.07-9.02-.28-.25-.57-.5-1.03-.91,0,3.27-.05,6.32,.03,9.37,.02,.98-.3,1.16-1.19,1.14-2.23-.06-2.23-.02-2.23-2.23,0-4.87,0-9.73,0-14.6,0-.3-.17-.72,.13-.89,.42-.24,.61,.24,.86,.46,3.35,3.07,6.7,6.15,10.04,9.22,.28,.26,.56,.51,1,.9Z"/><path class="cls-1" d="M578.75,89.66c0-2.71,.02-5.42-.01-8.13,0-.66,.15-.89,.85-.89,3.87,.03,7.75,.03,11.62,0,.6,0,.81,.13,.83,.78,.05,2.26,.08,2.26-2.13,2.26-2.24,0-4.47,.02-6.71-.01-.68-.01-.92,.2-.87,.88,.07,1.14-.34,2.61,.22,3.35,.54,.7,2.09,.18,3.19,.21,1.44,.04,2.88,.04,4.31,0,.62-.02,.9,.07,.9,.81,.01,2.35,.05,2.35-2.34,2.35-1.8,0-3.6,.03-5.39-.01-.66-.01-.88,.15-.9,.85-.09,3.31-.11,3.31,3.22,3.31,1.84,0,3.68,.02,5.51-.01,.69-.01,.98,.12,.99,.9,.02,2.3,.06,2.3-2.21,2.3-3.32,0-6.63-.04-9.95,.03-.99,.02-1.18-.3-1.16-1.21,.06-2.59,.02-5.18,.02-7.77Z"/><path class="cls-1" d="M798.49,89.54c0-2.59,.04-5.18-.02-7.77-.02-.85,.13-1.15,1.08-1.13,3.71,.07,7.43,.05,11.15,0,.84-.01,1.08,.19,1.05,1.04-.05,2.01,0,2.01-1.99,2.01-2.24,0-4.48,.02-6.71-.01-.66,0-1.04,.06-.98,.88,.09,1.14-.37,2.66,.21,3.34,.6,.72,2.17,.18,3.31,.21,1.44,.04,2.88,.04,4.31,0,.64-.02,.79,.2,.8,.81,.04,2.35,.07,2.35-2.25,2.35-1.84,0-3.68,.03-5.51-.02-.69-.02-.92,.19-.86,.87,.09,1.06-.43,2.43,.2,3.11,.59,.63,1.97,.17,3,.18,1.88,.03,3.76,.03,5.63,0,.6-.01,.81,.14,.83,.78,.07,2.42,.09,2.42-2.31,2.42-3.24,0-6.47-.04-9.71,.02-.95,.02-1.3-.16-1.27-1.21,.09-2.63,.03-5.26,.03-7.89Z"/><path class="cls-1" d="M633.77,89.62c0-2.63,.03-5.26-.02-7.89-.01-.78,.12-1.1,1.01-1.09,3.75,.05,7.51,.05,11.26,0,.87-.01,1.06,.26,1.04,1.08-.05,1.98,0,1.98-1.93,1.98-2.24,0-4.47,.03-6.71-.02-.83-.02-1.28,.12-1.15,1.08,.14,1.09-.47,2.56,.25,3.19,.62,.54,2.05,.16,3.13,.17,1.52,.01,3.04,.03,4.55-.01,.58-.01,.72,.17,.74,.73,.08,2.43,.1,2.43-2.27,2.43-1.84,0-3.68,.03-5.51-.01-.67-.01-.87,.18-.89,.86-.08,3.3-.1,3.3,3.23,3.3,1.88,0,3.76,.03,5.63-.02,.75-.02,.93,.24,.93,.95,0,2.25,.03,2.25-2.24,2.25-3.36,0-6.71-.03-10.07,.02-.8,.01-1.02-.22-1-1,.05-2.67,.02-5.34,.02-8.01Z"/><path class="cls-1" d="M742.7,80.76c1.48,0,2.98-.19,4.42,.04,3.34,.53,5.54,3.61,5.25,7.06-.27,3.14-2.76,5.26-6.38,5.4-1.08,.04-2.17,.1-3.24-.02-1.13-.12-1.36,.33-1.28,1.34,.08,1.07,0,2.15,.03,3.23,.02,.62-.19,.8-.82,.82-2.67,.09-2.67,.11-2.67-2.52,0-4.83,.02-9.65-.02-14.48,0-.77,.18-1.03,.98-.98,1.24,.07,2.48,.02,3.72,.02,0,.03,0,.07,0,.1Zm-1.13,5.87s-.04,0-.06,0c0,.72,.07,1.44-.02,2.14-.12,.95,.29,1.14,1.14,1.08,.95-.07,1.92-.08,2.87,0,2.42,.19,3.83-1.5,3.2-3.87-.48-1.8-1.55-2.47-4.05-2.44-1.02,.01-2.39-.45-2.97,.21-.49,.56-.1,1.89-.1,2.88Z"/><path class="cls-1" d="M821.91,80.54c2.17-.08,4.08,.62,5.84,1.83,.42,.29,.52,.5,.16,.91-.55,.63-.92,1.57-1.6,1.89-.65,.3-1.34-.59-2.05-.87-1.4-.55-2.81-.99-4.3-.47-.83,.29-1.73,.64-1.77,1.7-.05,1.08,.92,1.35,1.67,1.6,1.09,.36,2.24,.55,3.37,.78,.94,.19,1.9,.3,2.77,.73,2.19,1.07,3.25,3.03,2.92,5.35-.33,2.28-1.91,3.91-4.3,4.38-3.41,.67-6.56-.09-9.53-1.8-.48-.28-.56-.48-.22-.99,1.38-2.09,1.34-2.08,3.57-.95,1.62,.82,3.3,1.43,5.17,.91,.59-.16,1.13-.39,1.54-.85,.86-.97,.67-2.09-.5-2.64-1.02-.49-2.15-.62-3.24-.8-1.11-.18-2.18-.44-3.22-.87-2.43-1-3.54-2.88-3.22-5.49,.27-2.22,1.97-3.82,4.44-4.16,.83-.11,1.67-.13,2.51-.2Z"/><path class="cls-1" d="M675.57,89.44c.11-6.5,6.62-10.88,12.68-8.46,1.71,.68,3.14,1.88,4.19,3.45,.3,.45,.39,.77-.27,.93-.19,.04-.38,.13-.55,.23-1.23,.71-2.13,.77-3.31-.48-2.03-2.15-5.3-1.97-7.44,.03-2.3,2.16-2.57,5.62-.64,8.14,2.2,2.87,5.96,3.05,8.63,.28,.71-.74,1.2-.69,1.99-.35,2.23,.96,2.26,1.05,.52,2.81-2.61,2.65-6.73,3.53-10.05,2.14-3.57-1.5-5.82-4.91-5.76-8.72Z"/><path class="cls-1" d="M768.5,98.45c-1.06,0-2.08-.01-3.11,0-.38,0-.58-.17-.72-.49-.25-.54-.57-1.06-.78-1.61-.23-.59-.61-.72-1.2-.71-2.2,.03-4.4,.02-6.59,0-.46,0-.92-.03-1.05,.53-.65,2.74-2.7,2.44-4.87,2.15,.99-1.94,1.97-3.84,2.94-5.73,1.92-3.75,3.84-7.5,5.76-11.25,.12-.24,.16-.59,.46-.64,.35-.06,.42,.3,.54,.54,2.87,5.59,5.73,11.18,8.59,16.77,.05,.09,.02,.22,.03,.44Zm-11.47-5.74c1.57,0,2.92,0,4.26,0,.35,0,.69,0,.46-.5-.71-1.53-1.43-3.06-2.22-4.72-.86,1.79-1.64,3.42-2.51,5.22Z"/><path class="cls-1" d="M790.81,89.44c0-2.63,.03-5.26-.02-7.89-.01-.75,.21-.91,.93-.91,2.57,0,2.57-.02,2.57,2.52,0,4.7-.02,9.41,.02,14.11,0,.87-.12,1.25-1.14,1.22-2.35-.08-2.36-.01-2.36-2.35s0-4.46,0-6.7Z"/><path class="cls-2" d="M856.66,64.67c-10.69,0-19.33-8.65-19.32-19.33,0-10.66,8.69-19.27,19.4-19.25,10.67,.02,19.29,8.69,19.26,19.39-.03,10.59-8.69,19.2-19.34,19.19Zm11.28-17.39c-1.07-2.38-2.07-4.59-3.07-6.8-.16-.34-.22-.77-.79-.74-.79,.04-1.58,.01-2.37,.01,1.09,.23,1.25,.95,1.24,1.83-.02,1.88,0,3.75,0,5.63,0,1.05,.1,2.16-1.24,2.56h3.19c-.48-.33-1.15-.48-1.16-1.19-.02-2.11,0-4.23,0-6.34,.06-.01,.12-.02,.19-.03,1.16,2.54,2.32,5.08,3.58,7.86,1.32-2.97,2.53-5.7,3.74-8.42,.17,2.09,.15,4.12,.18,6.15,.01,.93-.02,1.77-1.18,2h3.91c-1.3-.22-1.16-1.19-1.15-2.11,.01-1.96,.03-3.91,0-5.87-.02-.93,0-1.76,1.26-1.95-.64-.1-1.19-.03-1.71-.11-1.01-.16-1.47,.31-1.83,1.19-.85,2.09-1.8,4.13-2.78,6.35Zm-16.95-2.55c-.02,3.13,1.97,5.31,4.86,5.32,2.92,.01,4.97-2.13,4.98-5.22,.01-3.12-1.99-5.3-4.87-5.32-2.95-.02-4.95,2.08-4.97,5.21Zm-1.28,3.32c-.41,.29-.81,.61-1.24,.88-2.21,1.39-4.81,.48-5.58-2-.5-1.61-.44-3.24,.23-4.79,.56-1.3,1.55-2.13,3.03-2.12,1.43,0,2.37,.76,2.95,2.05,.12,.28,.08,.74,.68,.75-.05-1.1,.02-2.18-.27-3.41-.75,.98-1.51,.38-2.24,.23-2.3-.49-4.47,.34-5.63,2.2-1.21,1.94-1.1,4.67,.27,6.4,1.31,1.66,3.69,2.31,5.85,1.53,.84-.3,1.67-.67,1.95-1.72Zm-10.39,1.77c.58-.04,.84-.39,.83-.86-.01-.47-.29-.83-.83-.82-.58,.01-.87,.35-.84,.91,.03,.51,.36,.76,.83,.77Z"/><path class="cls-1" d="M867.95,47.28c.98-2.22,1.93-4.27,2.78-6.35,.36-.88,.82-1.35,1.83-1.19,.53,.08,1.08,.01,1.71,.11-1.26,.19-1.28,1.02-1.26,1.95,.04,1.95,.02,3.91,0,5.87,0,.92-.14,1.9,1.15,2.11h-3.91c1.16-.23,1.19-1.07,1.18-2-.03-2.03,0-4.06-.18-6.15-1.21,2.73-2.42,5.45-3.74,8.42-1.27-2.78-2.43-5.32-3.58-7.86-.06,.01-.12,.02-.19,.03,0,2.11-.02,4.23,0,6.34,0,.71,.68,.86,1.16,1.19h-3.19c1.34-.4,1.24-1.5,1.24-2.56,0-1.88-.01-3.75,0-5.63,0-.88-.15-1.6-1.24-1.83,.79,0,1.58,.03,2.37-.01,.56-.03,.63,.4,.79,.74,1.01,2.21,2,4.42,3.07,6.8Z"/><path class="cls-1" d="M851,44.73c.02-3.13,2.02-5.23,4.97-5.21,2.89,.02,4.88,2.2,4.87,5.32-.01,3.08-2.06,5.23-4.98,5.22-2.89-.01-4.88-2.2-4.86-5.32Zm8.06,.04c.03-.92-.02-1.84-.37-2.7-.48-1.18-1.35-1.96-2.68-2.06-1.12-.08-2.31,.7-2.78,1.89-.75,1.93-.75,3.9,.02,5.82,.48,1.2,1.68,1.95,2.8,1.85,1.32-.12,2.18-.9,2.65-2.1,.34-.86,.39-1.78,.36-2.7Z"/><path class="cls-1" d="M849.72,48.04c-.27,1.04-1.1,1.42-1.95,1.72-2.17,.77-4.54,.13-5.85-1.53-1.37-1.73-1.48-4.47-.27-6.4,1.16-1.85,3.33-2.69,5.63-2.2,.73,.16,1.49,.75,2.24-.23,.29,1.23,.22,2.31,.27,3.41-.61,0-.56-.48-.68-.75-.57-1.28-1.52-2.05-2.95-2.05-1.48,0-2.47,.83-3.03,2.12-.67,1.55-.73,3.19-.23,4.79,.77,2.48,3.37,3.39,5.58,2,.43-.27,.83-.59,1.24-.88Z"/><path class="cls-1" d="M839.33,49.82c-.47-.01-.8-.26-.83-.77-.04-.56,.26-.9,.84-.91,.54-.01,.82,.35,.83,.82,.01,.47-.26,.82-.83,.86Z"/><path class="cls-2" d="M859.05,44.76c.03,.92-.02,1.84-.36,2.7-.47,1.19-1.33,1.98-2.65,2.1-1.12,.1-2.32-.65-2.8-1.85-.77-1.92-.77-3.89-.02-5.82,.47-1.2,1.66-1.98,2.78-1.89,1.33,.1,2.2,.88,2.68,2.06,.35,.86,.4,1.78,.37,2.7Z"/></svg>