<?xml version="1.0" encoding="UTF-8"?><svg id="_Слой_1" xmlns="http://www.w3.org/2000/svg" viewBox="0 0 214.74 176.78"><defs><style>.cls-1{fill:#f6f6f6;}.cls-1,.cls-2,.cls-3,.cls-4{stroke:#1d1d1b;stroke-linecap:round;stroke-linejoin:round;stroke-width:2px;}.cls-2{fill:#fff;}.cls-3{fill:#b2b2b2;}.cls-4{fill:#dadada;}</style></defs><g><rect class="cls-1" x="158.68" y="77.14" width="55.06" height="98.64"/><path class="cls-4" d="M158.68,175.78c-5.9-3.96-11.8-7.92-17.7-11.88V65.26c5.9,3.96,11.8,7.92,17.7,11.88v98.64Z"/><path class="cls-4" d="M140.98,65.26h53.1c6.55,3.96,13.11,7.92,19.66,11.88h-55.06c-5.9-3.96-11.8-7.92-17.7-11.88Z"/><rect class="cls-2" x="169.58" y="89.74" width="11.16" height="12.96"/><rect class="cls-2" x="194.78" y="89.74" width="11.16" height="12.96"/><rect class="cls-2" x="169.58" y="114.46" width="11.16" height="12.96"/><rect class="cls-2" x="194.78" y="114.46" width="11.16" height="12.96"/><rect class="cls-2" x="169.58" y="139.44" width="11.16" height="12.96"/><rect class="cls-2" x="194.78" y="139.44" width="11.16" height="12.96"/></g><g><rect class="cls-1" x="73.77" y="24.58" width="85.48" height="151.2"/><path class="cls-4" d="M73.77,175.78c-5.9-3.96-11.8-7.92-17.7-11.88V12.7c5.9,3.96,11.8,7.92,17.7,11.88V175.78Z"/><path class="cls-4" d="M56.06,12.7h83.52c6.55,3.96,13.11,7.92,19.66,11.88H73.77c-5.9-3.96-11.8-7.92-17.7-11.88Z"/><rect class="cls-2" x="86.66" y="59.02" width="11.16" height="12.96"/><rect class="cls-2" x="137.06" y="59.02" width="11.16" height="12.96"/><rect class="cls-2" x="86.66" y="83.74" width="11.16" height="12.96"/><rect class="cls-2" x="111.86" y="83.74" width="11.16" height="12.96"/><rect class="cls-2" x="137.06" y="83.74" width="11.16" height="12.96"/><rect class="cls-2" x="86.66" y="108.46" width="11.16" height="12.96"/><rect class="cls-2" x="111.86" y="108.46" width="11.16" height="12.96"/><rect class="cls-2" x="137.06" y="108.46" width="11.16" height="12.96"/><rect class="cls-2" x="97.82" y="137.44" width="38.34" height="38.34"/><line class="cls-2" x1="116.99" y1="137.44" x2="116.99" y2="175.78"/><rect class="cls-2" x="111.86" y="59.02" width="11.16" height="12.96"/><path class="cls-3" d="M132.38,14.14c1.68,1.2,3.36,2.4,5.04,3.6-8.94,8.94-17.88,17.88-26.82,26.82-.9-.82-1.8-1.64-2.7-2.46-.08-3.56-.16-7.12-.24-10.68-3.44-.03-6.88-.06-10.32-.09-.96-.97-1.91-1.94-2.87-2.91,.02-4.76,.03-9.52,.05-14.28h13.14V1h13.68c.98,1.2,1.96,2.4,2.94,3.6-.98,3.18-1.96,6.36-2.94,9.54h11.04Z"/><polygon class="cls-2" points="137.42 17.74 137.42 31.42 124.28 31.42 124.28 44.56 110.6 44.56 110.6 31.42 97.46 31.42 97.46 17.74 110.6 17.74 110.6 4.6 124.28 4.6 124.28 17.74 137.42 17.74"/></g><g><rect class="cls-1" x="18.7" y="77.14" width="55.06" height="98.64"/><path class="cls-4" d="M18.7,175.78c-5.9-3.96-11.8-7.92-17.7-11.88V65.26c5.9,3.96,11.8,7.92,17.7,11.88v98.64Z"/><path class="cls-4" d="M1,65.26H54.1c6.55,3.96,13.11,7.92,19.66,11.88H18.7c-5.9-3.96-11.8-7.92-17.7-11.88Z"/><rect class="cls-2" x="29.6" y="89.74" width="11.16" height="12.96"/><rect class="cls-2" x="54.8" y="89.74" width="11.16" height="12.96"/><rect class="cls-2" x="29.6" y="114.46" width="11.16" height="12.96"/><rect class="cls-2" x="54.8" y="114.46" width="11.16" height="12.96"/><rect class="cls-2" x="29.6" y="139.44" width="11.16" height="12.96"/><rect class="cls-2" x="54.8" y="139.44" width="11.16" height="12.96"/></g></svg>