<?xml version="1.0" encoding="UTF-8"?><svg id="_Слой_1" xmlns="http://www.w3.org/2000/svg" viewBox="0 0 438.15 258.51"><defs><style>.cls-1{fill:#f6f6f6;}.cls-1,.cls-2,.cls-3,.cls-4{stroke:#1d1d1b;stroke-linecap:round;stroke-linejoin:round;stroke-width:2px;}.cls-2{fill:#fff;}.cls-3{fill:#ececec;}.cls-4{fill:#b2b2b2;}</style></defs><g><path class="cls-4" d="M137.96,143.85c2.82,.21,5.64,.42,8.46,.64,10.85,17.25,21.7,34.5,32.55,51.75l-7.74,6.27-33.27-58.66Z"/><path class="cls-4" d="M437.15,42.33c-8.12,16.59-16.23,33.17-24.35,49.76-6.01,12.37-12.02,24.73-18.03,37.1-2.71,.98-5.42,1.96-8.12,2.94-6.3-9.31-12.6-18.62-18.9-27.93-63.89,41.82-127.78,83.64-191.68,125.45-3.89-.15-7.77-.29-11.66-.44-10.13-15.47-20.25-30.94-30.38-46.41-36.59,23.94-73.18,47.89-109.76,71.83-3.44-.54-6.87-1.09-10.31-1.63,39.71-27.52,79.42-55.04,119.13-82.56,9.96,15.01,19.92,30.03,29.89,45.04,89.6-58.02,179.19-116.04,268.79-174.06,1.8,.3,3.59,.61,5.39,.91Z"/><polygon class="cls-2" points="431.76 41.42 409.52 87.23 387.26 133.02 364.46 99.33 185.49 216.47 164.82 230 130.75 177.93 14.52 254 1 233.35 137.78 143.81 137.85 143.92 137.96 143.85 171.97 195.82 350.63 78.88 330.18 48.69 380.97 45.06 431.76 41.42"/><g><g><rect class="cls-1" x="285.82" y="154.51" width="21.9" height="102.99"/><path class="cls-4" d="M313.74,254.08l-6.02,3.42c0-34.33,0-68.66,0-102.99l6.32-3.3c-.1,34.29-.2,68.58-.29,102.86Z"/><path class="cls-4" d="M307.72,154.51h-21.9c1.92-1.1,3.85-2.2,5.77-3.3h22.45l-6.31,3.3Z"/></g><g><rect class="cls-1" x="330.73" y="125.37" width="21.9" height="132.14"/><path class="cls-4" d="M359.37,253.52c-2.25,1.33-4.49,2.66-6.74,3.99,0-44.05,0-88.09,0-132.14,2.11-1.1,4.21-2.2,6.32-3.3,.14,43.82,.28,87.63,.42,131.45Z"/><path class="cls-4" d="M352.63,125.37h-21.9c1.92-1.1,3.85-2.2,5.77-3.3h22.45l-6.31,3.3Z"/></g><g><rect class="cls-1" x="56.49" y="231.38" width="21.9" height="26.12"/><path class="cls-4" d="M84.64,254.92c-2.08,.86-4.16,1.72-6.24,2.59,0-8.71,0-17.41,0-26.12,2.11-1.1,4.21-2.2,6.32-3.3-.03,8.94-.05,17.89-.08,26.83Z"/><path class="cls-4" d="M78.4,231.38h-21.9c1.92-1.1,3.85-2.2,5.77-3.3h22.45l-6.31,3.3Z"/></g><g><rect class="cls-1" x="104.57" y="199.74" width="21.9" height="57.76"/><path class="cls-4" d="M132.62,254.36c-2.05,1.05-4.1,2.1-6.15,3.15,0-19.25,0-38.51,0-57.76l6.32-3.3c-.06,19.3-.11,38.61-.17,57.91Z"/><path class="cls-4" d="M126.47,199.74h-21.9c1.92-1.1,3.85-2.2,5.77-3.3h22.45l-6.31,3.3Z"/></g></g></g><g><path class="cls-4" d="M268.92,253.08c-2,1.47-4.01,2.95-6.01,4.42v-58.29c2.05-1.55,4.1-3.1,6.14-4.64-.04,19.5-.09,39.01-.13,58.51Z"/><path class="cls-4" d="M269.05,194.57h-117.86c-2.77,1.55-5.54,3.1-8.31,4.64h120.03c2.05-1.55,4.1-3.1,6.14-4.64Z"/><path class="cls-4" d="M201.99,141.54c.56,5.09,1.73,21.71-8.83,37.97-7.39,11.37-17.03,17.18-21.93,19.7h71.81c-4.84-2.57-13.31-7.93-20.02-17.87-11.33-16.77-9.55-34.53-8.89-39.45l-12.13-.34Z"/><rect class="cls-2" x="142.88" y="199.22" width="120.03" height="58.29"/><path class="cls-3" d="M129.55,14.79s-18.45-4.58-32.43,6.25c-7.8,6.04-10.67,13.96-11.57,16.52-8.39,23.99,7.62,60.71,36.94,73.14,15.48,6.56,30.53,4.59,39.48,2.41l-7.31-13c-2.94,1.3-7.28,2.77-12.59,2.94-19.02,.63-31.72-15.86-33.24-17.91-12.92-17.32-14.6-47.17-.47-55.72,9.34-5.65,22.34-.02,26,1.62l-4.81-16.26Z"/><path class="cls-4" d="M281.68,17.36c2.64-.82,18.78-5.56,31.66,3.68,7.71,5.53,10.5,13.38,11.57,16.52,8.39,24.62-7.43,62.51-36.94,73.14-5.4,1.95-16.32,4.8-31.4,1.26,29.01-4.96,51.46-22.32,56.5-44.36,.91-4,5.2-22.75-6.97-37.19-8.54-10.13-20.37-12.44-24.41-13.05Z"/><path class="cls-4" d="M242.95,1h39.66c.59,71.35-22.75,127.24-60.24,138.92-6.51,2.03-14.62,3.09-24.62,1.64,15.07-46.85,30.13-93.7,45.2-140.55Z"/><path class="cls-3" d="M276.42,14.79s18.45-4.58,32.43,6.25c7.8,6.04,10.67,13.96,11.57,16.52,8.39,23.99-7.62,60.71-36.94,73.14-15.48,6.56-30.53,4.59-39.48,2.41l7.31-13c2.94,1.3,7.28,2.77,12.59,2.94,19.02,.63,31.72-15.86,33.24-17.91,12.92-17.32,14.6-47.17,.47-55.72-9.34-5.65-22.34-.02-26,1.62l4.81-16.26Z"/><path class="cls-1" d="M130.13,1h146.35c2.83,72.63-22.48,128.07-60.24,138.92-15.26,4.38-28.41,.29-31.69-.83-37.16-12.62-60.06-67.69-54.42-138.09Z"/><path class="cls-4" d="M204.65,26.25c4.82-.02,9.63-.04,14.45-.05-.04,17.4-.08,34.8-.12,52.2,3.69,0,7.37,0,11.06,0,.02,5.75,.04,11.51,.06,17.26-1.48,.65-2.96,1.3-4.44,1.95-6.35-.65-12.7-1.3-19.05-1.95-.65-23.13-1.31-46.27-1.96-69.4Z"/><path class="cls-3" d="M197.75,141.55c.56,5.09,1.73,21.71-8.83,37.97-7.39,11.37-17.03,17.18-21.93,19.7h71.81c-4.84-2.57-13.31-7.93-20.02-17.87-11.33-16.77-9.55-34.53-8.89-39.45l-12.13-.34Z"/><path class="cls-2" d="M200.38,26.25h14.17v55.09h11.12v16.26h-42.6v-16.26h12.59V45.45l-12.59,4.72v-17.31l17.31-6.61Z"/></g></svg>