<svg xmlns="http://www.w3.org/2000/svg" xmlns:xlink="http://www.w3.org/1999/xlink" id="Layer_1" data-name="Layer 1" viewBox="0 0 99.46 96.74"><defs><style>.cls-1{fill:none;}.cls-2{clip-path:url(#clip-path);}.cls-3{fill:url(#linear-gradient);}.cls-4{clip-path:url(#clip-path-2);}.cls-5{fill:url(#linear-gradient-2);}.cls-6{clip-path:url(#clip-path-3);}.cls-7{fill:url(#linear-gradient-3);}.cls-8{fill:#fff;}.cls-9{fill:#0d0d0d;}.cls-10{fill:#231f20;}.cls-11{clip-path:url(#clip-path-4);}.cls-12{fill:#4f81bd;}</style><clipPath id="clip-path" transform="translate(0)"><polygon class="cls-1" points="21.81 63.67 56.25 49.27 56.54 36.84 21.81 63.67"></polygon></clipPath><linearGradient id="linear-gradient" y1="96.74" x2="1" y2="96.74" gradientTransform="matrix(34.73, 0, 0, -34.73, 21.81, 3410.45)" gradientUnits="userSpaceOnUse"><stop offset="0" stop-color="#23476c"></stop><stop offset="0.44" stop-color="#4b83a7"></stop><stop offset="0.81" stop-color="#68afd2"></stop><stop offset="1" stop-color="#73c0e2"></stop></linearGradient><clipPath id="clip-path-2" transform="translate(0)"><polygon class="cls-1" points="73.05 62.45 56.03 49.36 56.54 36.84 70.94 48.22 73.05 62.45"></polygon></clipPath><linearGradient id="linear-gradient-2" x1="0" y1="96.74" x2="1" y2="96.74" gradientTransform="matrix(17.01, 0, 0, -17.01, 56.03, 1695.45)" xlink:href="#linear-gradient"></linearGradient><clipPath id="clip-path-3" transform="translate(0)"><polygon class="cls-1" points="83.12 30.48 73.05 62.45 70.78 48.18 83.12 30.48"></polygon></clipPath><linearGradient id="linear-gradient-3" y1="96.74" x2="1" y2="96.74" gradientTransform="matrix(12.33, 0, 0, -12.33, 70.78, 1239.65)" gradientUnits="userSpaceOnUse"><stop offset="0" stop-color="#23476c"></stop><stop offset="0.46" stop-color="#5c8aae"></stop><stop offset="0.82" stop-color="#82b7db"></stop><stop offset="1" stop-color="#91c8ec"></stop><stop offset="1" stop-color="#bcbec0"></stop></linearGradient><clipPath id="clip-path-4" transform="translate(0)"><rect class="cls-1" width="99.46" height="96.74"></rect></clipPath></defs><title>logo</title><g class="cls-2"><rect class="cls-3" x="21.81" y="36.84" width="34.73" height="26.83"></rect></g><g class="cls-4"><rect class="cls-5" x="56.03" y="36.84" width="17.01" height="25.61"></rect></g><g class="cls-6"><rect class="cls-7" x="70.78" y="30.48" width="12.33" height="31.97"></rect></g><polygon class="cls-8" points="56.54 0 46.42 9.2 46.42 40.64 56.54 32.67 56.54 0"></polygon><polygon class="cls-9" points="56.54 0 46.42 9.2 46.42 40.64 56.54 32.67 56.54 0"></polygon><polygon class="cls-9" points="43.97 42.74 43.97 10.07 34.07 18.92 34.07 50.26 43.97 42.74"></polygon><polygon class="cls-9" points="31.36 19.62 31.36 52.29 21.37 60.26 21.37 28.55 31.36 19.62"></polygon><rect class="cls-10" x="51.37" y="55.34" width="3.34" height="3.34"></rect><rect class="cls-9" x="51.37" y="60.09" width="3.34" height="3.34"></rect><rect class="cls-9" x="57.01" y="55.34" width="3.34" height="3.34"></rect><rect class="cls-10" x="57.01" y="60.09" width="3.34" height="3.34"></rect><g class="cls-11"><path class="cls-9" d="M0,89.46v-21H3L9.69,79.08a57.92,57.92,0,0,1,3.77,6.82l.07,0c-.25-2.8-.31-5.36-.31-8.63V68.45h2.55v21H13L6.36,78.8a65.71,65.71,0,0,1-3.93-7l-.09,0c.15,2.64.22,5.17.22,8.66v9Z" transform="translate(0)"></path><path class="cls-9" d="M33,85.34c0,1.56,0,2.93.12,4.12H30.73L30.58,87h-.07a5.65,5.65,0,0,1-5,2.81c-2.37,0-5.21-1.31-5.21-6.61V74.37h2.74v8.35c0,2.87.88,4.8,3.37,4.8A4,4,0,0,0,30.05,85a4.11,4.11,0,0,0,.25-1.4V74.37H33Z" transform="translate(0)"></path><path class="cls-9" d="M37.68,68.73a26.29,26.29,0,0,1,5-.44c2.71,0,4.45.47,5.76,1.53a4.39,4.39,0,0,1,1.75,3.71,5,5,0,0,1-3.55,4.61v.06a5.43,5.43,0,0,1,4.33,5.27,5.67,5.67,0,0,1-1.78,4.21c-1.46,1.34-3.83,2-7.26,2a30.89,30.89,0,0,1-4.21-.25Zm2.72,8.6h2.46c2.86,0,4.55-1.49,4.55-3.52,0-2.46-1.87-3.43-4.62-3.43a11,11,0,0,0-2.39.19Zm0,10.07a14.85,14.85,0,0,0,2.27.12c2.8,0,5.39-1,5.39-4.08,0-2.87-2.46-4-5.42-4H40.4Z" transform="translate(0)"></path><path class="cls-9" d="M67.11,85.34c0,1.56,0,2.93.12,4.12H64.8L64.64,87h-.06a5.68,5.68,0,0,1-5,2.81c-2.36,0-5.2-1.31-5.2-6.61V74.37h2.74v8.35c0,2.87.87,4.8,3.37,4.8A4,4,0,0,0,64.11,85a3.88,3.88,0,0,0,.25-1.4V74.37h2.75Z" transform="translate(0)"></path><path class="cls-9" d="M74.71,70.13A1.62,1.62,0,0,1,73,71.82a1.64,1.64,0,0,1-1.66-1.69A1.67,1.67,0,0,1,73,68.42a1.62,1.62,0,0,1,1.68,1.71m-3,4.24H74.4V89.46H71.66Z" transform="translate(0)"></path><rect class="cls-9" x="78.95" y="67.33" width="2.74" height="22.13"></rect><path class="cls-9" d="M99.33,67.33V85.56c0,1.34,0,2.87.13,3.9H97l-.13-2.62h-.06a5.58,5.58,0,0,1-5.14,3c-3.65,0-6.45-3.09-6.45-7.67,0-5,3.08-8.1,6.76-8.1a5.06,5.06,0,0,1,4.55,2.3h.06v-9ZM96.59,80.51a5,5,0,0,0-.12-1.15,4,4,0,0,0-4-3.18C89.67,76.18,88,78.67,88,82c0,3,1.5,5.58,4.46,5.58a4.13,4.13,0,0,0,4-3.28,4.86,4.86,0,0,0,.12-1.18Z" transform="translate(0)"></path><rect class="cls-12" x="0.79" y="92.11" width="0.59" height="4.56"></rect><path class="cls-12" d="M5.54,96.67V92.11h.65l1.46,2.3a14.16,14.16,0,0,1,.81,1.48h0A18.31,18.31,0,0,1,8.41,94V92.11H9v4.56H8.37L6.92,94.35a12.88,12.88,0,0,1-.85-1.52h0c0,.57,0,1.12,0,1.88v2Z" transform="translate(0)"></path><path class="cls-12" d="M13,96a2.13,2.13,0,0,0,1.06.3c.6,0,1-.32,1-.78s-.24-.67-.86-.91S13,93.91,13,93.27A1.31,1.31,0,0,1,14.46,92a2,2,0,0,1,1,.23l-.16.48a1.82,1.82,0,0,0-.87-.22c-.62,0-.86.37-.86.68s.28.64.91.88,1.16.67,1.16,1.34-.52,1.31-1.59,1.31a2.36,2.36,0,0,1-1.16-.29Z" transform="translate(0)"></path><path class="cls-12" d="M20.18,92.11v2.7c0,1,.45,1.45,1.06,1.45s1.11-.45,1.11-1.45v-2.7H23v2.66c0,1.4-.74,2-1.73,2s-1.64-.53-1.64-1.95V92.11Z" transform="translate(0)"></path><path class="cls-12" d="M27.1,92.17a6.23,6.23,0,0,1,1.13-.09,1.86,1.86,0,0,1,1.32.37,1.11,1.11,0,0,1,.35.86,1.19,1.19,0,0,1-.85,1.16v0a1.13,1.13,0,0,1,.67.92,6.35,6.35,0,0,0,.35,1.25h-.61a5.68,5.68,0,0,1-.31-1.09c-.13-.63-.37-.87-.91-.89h-.55v2H27.1Zm.59,2.08h.6c.63,0,1-.35,1-.87s-.43-.85-1.05-.85a2.86,2.86,0,0,0-.58,0Z" transform="translate(0)"></path><path class="cls-12" d="M34.64,95.23l-.47,1.44h-.61l1.55-4.56h.71l1.55,4.56h-.63l-.48-1.44Zm1.5-.46-.45-1.31c-.1-.3-.17-.57-.24-.83h0c-.07.27-.14.55-.23.82l-.45,1.32Z" transform="translate(0)"></path><path class="cls-12" d="M41.18,96.67V92.11h.64l1.46,2.3a14.38,14.38,0,0,1,.82,1.48h0c0-.61-.07-1.16-.07-1.87V92.11h.56v4.56H44l-1.45-2.32a14.49,14.49,0,0,1-.85-1.52h0c0,.57,0,1.12,0,1.88v2Z" transform="translate(0)"></path><path class="cls-12" d="M51.94,96.52a2.92,2.92,0,0,1-1.2.21,2.12,2.12,0,0,1-2.25-2.3A2.26,2.26,0,0,1,50.87,92a2.51,2.51,0,0,1,1.08.2l-.14.48a2.17,2.17,0,0,0-.92-.19,1.69,1.69,0,0,0-1.78,1.88,1.66,1.66,0,0,0,1.75,1.83,2.28,2.28,0,0,0,1-.19Z" transform="translate(0)"></path><polygon class="cls-12" points="58.17 94.53 56.4 94.53 56.4 96.17 58.37 96.17 58.37 96.67 55.81 96.67 55.81 92.11 58.27 92.11 58.27 92.6 56.4 92.6 56.4 94.04 58.17 94.04 58.17 94.53"></polygon><path class="cls-12" d="M70.31,96.46a4.12,4.12,0,0,1-1.4.25A2.33,2.33,0,1,1,69,92.06a2.83,2.83,0,0,1,1.13.21l-.14.48a2.35,2.35,0,0,0-1-.19,1.7,1.7,0,0,0-1.83,1.83A1.68,1.68,0,0,0,69,96.23a2,2,0,0,0,.78-.12V94.75h-.92v-.48h1.5Z" transform="translate(0)"></path><path class="cls-12" d="M74.34,92.17a6.31,6.31,0,0,1,1.13-.09,1.86,1.86,0,0,1,1.32.37,1.12,1.12,0,0,1,.36.86,1.19,1.19,0,0,1-.86,1.16v0a1.13,1.13,0,0,1,.67.92,7.18,7.18,0,0,0,.35,1.25H76.7a7,7,0,0,1-.3-1.09c-.14-.63-.38-.87-.92-.89h-.55v2h-.59Zm.59,2.08h.6c.63,0,1-.35,1-.87s-.43-.85-1-.85a2.94,2.94,0,0,0-.58,0Z" transform="translate(0)"></path><path class="cls-12" d="M85,94.34a2.14,2.14,0,0,1-2.12,2.4,2.09,2.09,0,0,1-2-2.31A2.17,2.17,0,0,1,83,92a2.08,2.08,0,0,1,2,2.31m-3.54.07c0,1,.53,1.85,1.45,1.85s1.46-.86,1.46-1.89-.47-1.85-1.45-1.85-1.46.89-1.46,1.89" transform="translate(0)"></path><path class="cls-12" d="M89.51,92.11v2.7c0,1,.46,1.45,1.06,1.45s1.11-.45,1.11-1.45v-2.7h.6v2.66c0,1.4-.74,2-1.73,2s-1.63-.53-1.63-1.95V92.11Z" transform="translate(0)"></path><path class="cls-12" d="M96.43,92.16a8,8,0,0,1,1.13-.08,1.9,1.9,0,0,1,1.28.37,1.24,1.24,0,0,1,.4,1,1.34,1.34,0,0,1-.35,1,1.92,1.92,0,0,1-1.4.5,2.29,2.29,0,0,1-.47,0v1.83h-.59Zm.59,2.2a2.17,2.17,0,0,0,.49,0c.71,0,1.14-.35,1.14-1s-.43-.89-1.08-.89a2.26,2.26,0,0,0-.55,0Z" transform="translate(0)"></path></g></svg>