<svg id="RIGHT" xmlns="http://www.w3.org/2000/svg" xmlns:xlink="http://www.w3.org/1999/xlink" viewBox="0 0 830.88 930.87"><defs><style>.cls-1,.cls-10,.cls-13,.cls-18,.cls-2,.cls-25,.cls-30{fill:none;}.cls-2,.cls-4,.cls-5,.cls-6{stroke:#ededed;}.cls-10,.cls-11,.cls-15,.cls-18,.cls-2,.cls-20,.cls-21,.cls-23,.cls-24,.cls-25,.cls-26,.cls-27,.cls-30,.cls-31,.cls-32,.cls-7,.cls-8,.cls-9{stroke-linecap:round;}.cls-10,.cls-2,.cls-23,.cls-25,.cls-27,.cls-31,.cls-32,.cls-7,.cls-8,.cls-9{stroke-linejoin:round;}.cls-10,.cls-11,.cls-13,.cls-15,.cls-18,.cls-2,.cls-20,.cls-21,.cls-23,.cls-24,.cls-25,.cls-26,.cls-27,.cls-3,.cls-30,.cls-31,.cls-32,.cls-4,.cls-5,.cls-6,.cls-7,.cls-8,.cls-9{stroke-width:2px;}.cls-11,.cls-15,.cls-23,.cls-3,.cls-5{fill:#fff;}.cls-3{stroke:#f6f6f6;}.cls-11,.cls-13,.cls-15,.cls-18,.cls-20,.cls-21,.cls-24,.cls-26,.cls-3,.cls-30,.cls-4,.cls-5,.cls-6{stroke-miterlimit:10;}.cls-16,.cls-20,.cls-4{fill:#f6f6f6;}.cls-6{fill:#fcfcfc;}.cls-7{fill:url(#Безымянный_градиент_11);stroke:url(#Безымянный_градиент_3);}.cls-8{fill:url(#Безымянный_градиент_11-2);stroke:url(#Безымянный_градиент_3-2);}.cls-9{fill:url(#Безымянный_градиент_11-3);stroke:url(#Безымянный_градиент_3-3);}.cls-10,.cls-11,.cls-13,.cls-18{stroke:#dadada;}.cls-12{fill:#f9f9f9;}.cls-14{fill:#ededed;}.cls-15{stroke:#c6c6c6;}.cls-17{fill:#dadada;}.cls-19{fill:#f0f0f0;}.cls-20,.cls-21,.cls-23,.cls-24,.cls-25,.cls-26,.cls-27,.cls-30,.cls-31,.cls-32{stroke:#1d1d1b;}.cls-21,.cls-27{fill:#dedfdf;}.cls-22{fill:#e9e8e8;}.cls-24{fill:#ececec;}.cls-26{fill:#e4e5e4;}.cls-28{clip-path:url(#clip-path);}.cls-29{fill:#f4f3f4;}.cls-31{fill:#ebebeb;}.cls-32{fill:#c6c6c6;}</style><linearGradient id="Безымянный_градиент_11" x1="474.31" y1="809.01" x2="1091.67" y2="809.01" gradientUnits="userSpaceOnUse"><stop offset="0.52" stop-color="#f6f6f6"/><stop offset="0.54" stop-color="#ededed"/><stop offset="0.71" stop-color="#898989"/><stop offset="0.85" stop-color="#3f3f3f"/><stop offset="0.95" stop-color="#121212"/><stop offset="1"/></linearGradient><linearGradient id="Безымянный_градиент_3" x1="473.31" y1="809.01" x2="1092.67" y2="809.01" gradientUnits="userSpaceOnUse"><stop offset="0" stop-color="#fff"/><stop offset="1"/></linearGradient><linearGradient id="Безымянный_градиент_11-2" x1="406.11" y1="815.37" x2="737.43" y2="815.37" xlink:href="#Безымянный_градиент_11"/><linearGradient id="Безымянный_градиент_3-2" x1="405.11" y1="815.37" x2="738.43" y2="815.37" xlink:href="#Безымянный_градиент_3"/><linearGradient id="Безымянный_градиент_11-3" x1="396.39" y1="814.28" x2="670.4" y2="814.28" xlink:href="#Безымянный_градиент_11"/><linearGradient id="Безымянный_градиент_3-3" x1="395.39" y1="814.28" x2="671.4" y2="814.28" xlink:href="#Безымянный_градиент_3"/><clipPath id="clip-path" transform="translate(-395.39 -125.4)"><path class="cls-1" d="M911.55,674.71v44.91l-29-.12v-44c1.54-8.31,7.94-14.56,15.49-15.41a19.79,19.79,0,0,1,9,5.94A21,21,0,0,1,911.55,674.71Z"/></clipPath></defs><g id="right-street"><g id="HALLOw_tree" data-name="HALLOw tree"><path class="cls-2" d="M970.42,366.59S958.33,349,955,318.22,949.54,282,949.54,282l-34.9-34.35H879.18l-4.12,29.68,14,10.71,12.36-7.42-10.71,16.49-22.26-14.84V261.61l-25.56,31.85v26.69l-8.25-34.63,37.93-43.69-7.42-16.49H838l-14,14,12.36-23.08h34.63l11.54,23.08,37.93-1.65L964.1,274l11.54,51.94,14.84,12.37-4.12-106.36-16.49-33.8-66.78-35.45-28,8.24-9.89,14,5-22.26,37.1-12.37,72.55,41.22L997.08,227l8.24,102.91,12.37,9.21,13.19-76.67,30.51-45.35,60.18-22.26-23.91,16.49,23.91,14,23.09.82-16.56,6.6,10.78,14.84-53.58-30.51-18.14,10.72-24.74,42.87-11.54,63.48,47.82-35.45,66,4.12,25.55,34.63-23.08,42.87,12.37-43.69-23.09-23.91H1085.3l-42.88,33,42,1.64,9.89,18.14,25.56,1.65,8.18,12.37-9.83,17.31,2.48-18.14-7.42-4.12h-11.55l5.78,14-17.32,19,5.77-23.09-16.94-28-46.54.83-5,14a47.63,47.63,0,0,1,.21,7.74,55.78,55.78,0,0,1-3.5,17" transform="translate(-395.39 -125.4)"/><polyline class="cls-2" points="563.99 215.36 547.28 202.58 539.45 180.73 524.61 173.31 500.29 181.14 489.15 197.63 502.76 217.42 526.57 217.42 531.2 203.81"/><path class="cls-2" d="M954.35,265.89V242.65s-36.83-21.85-36.83-28,4.12-19.38-2.06-21.44-19.79-1.23-21,4.13S899.38,213,899.38,213L894.27,222l5.94,3.71" transform="translate(-395.39 -125.4)"/><polyline class="cls-2" points="489.15 85.92 489.15 78.09 499.7 78.09"/><polyline class="cls-2" points="491.63 56.24 505.23 52.53 511.83 59.95 509.71 66.85"/><path class="cls-2" d="M947.2,226.16s-2.47-8.66-7.42-7-6.66,9.87-6.66,9.87" transform="translate(-395.39 -125.4)"/><polyline class="cls-2" points="555.09 49.49 558.97 29.86 534.91 8.42 511.83 8.42 537.73 1 567.07 29.03 562.24 53.55"/><polyline class="cls-2" points="603.18 120.18 622.3 103.61 636.32 106.94 623.13 110.24 603.81 128.03"/><path class="cls-2" d="M1004.3,210.55s10.34-16.54,10.34-22.31-10.34-10.31-10.34-10.31L985,196.48" transform="translate(-395.39 -125.4)"/><path class="cls-2" d="M1034.25,315.63a29.31,29.31,0,0,0,11.88-14.86c3.71-10.3,8.66-15.66,13.61-18.13s19-.42,21.43-9.07,4.54-19.26,8.25-20.14,19,4.06,17.31,8.18-8.24,14.84-8.24,14.84l.82,9.9" transform="translate(-395.39 -125.4)"/><polyline class="cls-2" points="723.71 123.02 715.88 119.31 708.04 123.02 706 130.81"/><polyline class="cls-2" points="718.76 148.99 714.86 143.63 707.49 143.63"/><path class="cls-2" d="M1065,281.36s.06-11.09-5.3-12.33-7.42,5.36-7.42,5.36" transform="translate(-395.39 -125.4)"/><path class="cls-2" d="M1066.93,326.86s29.5,2.77,31.56,4.42a27,27,0,0,1,4.39,5.36s16.22-4.54,19.1-2.48,8.11,4.54,6.12,8.66-11.89,12.37-11.89,12.37l-6-6.6,3.9,12s15.67-10.2,19.38-16.85-5.78-14.26-10.31-16.84-17.73,0-17.73,0-16.16-7.44-26.42-9.34" transform="translate(-395.39 -125.4)"/></g><g id="HAllow_tree-2" data-name="HAllow tree"><path class="cls-2" d="M733.06,568s-22-77-34.07-86.84-38.48-56.06-38.48-56.06,12.09-17.59,15.39-48.37,5.5-36.27,5.5-36.27l34.9-34.36h35.45l4.12,29.68-14,10.72-12.37-7.42,10.72,16.49,22.26-14.84V320.1L788,351.94v26.7L796.27,344l-37.92-43.7,7.42-16.49H793l14,14-12.37-23.09H760l-11.55,23.09-37.92-1.65-43.7,36.28-11.54,51.94-14.84,12.36,4.12-106.35,16.49-33.8,66.78-35.45,28,8.24,9.9,14-4.95-22.26-37.1-12.37L651.17,250l-17.31,35.45-8.25,102.92-12.37,9.21-13.19-76.68-30.5-45.34-60.19-22.26,23.91,16.49-23.91,14-23.08.83,16.56,6.59-10.79,14.84,53.59-30.5,18.14,10.72,24.73,42.87,11.54,63.48L552.24,357.2l-66,4.12L460.72,396l23.09,42.87-12.37-43.7,23.08-23.9h51.12l42.87,33-42,1.65L536.57,424,511,425.63,502.84,438l9.82,17.31-2.47-18.14,7.42-4.12h11.54l-5.77,14,17.31,19-5.77-23.09,17-28,46.53.83,5,14a54.86,54.86,0,0,0,3.3,24.77c5,12.37,16.49,27.21,16.49,39.58s21.43,48.64,17.31,57.71.83,37.92.83,37.92" transform="translate(-395.39 -125.4)"/><polyline class="cls-2" points="276.17 273.84 292.88 261.06 300.71 239.22 315.55 231.8 339.87 239.63 351 256.12 337.4 275.9 313.59 275.9 308.96 262.3"/><path class="cls-2" d="M676.58,324.37V301.14s36.84-21.85,36.84-28-4.13-19.38,2.06-21.44,19.78-1.24,21,4.12-5,15.67-5,15.67l5.11,9.07-5.93,3.71" transform="translate(-395.39 -125.4)"/><polyline class="cls-2" points="351 144.41 351 136.57 340.46 136.57"/><polyline class="cls-2" points="348.53 114.72 334.93 111.02 328.33 118.44 330.45 125.33"/><path class="cls-2" d="M683.73,284.65s2.48-8.66,7.42-7,6.67,9.86,6.67,9.86" transform="translate(-395.39 -125.4)"/><polyline class="cls-2" points="285.07 107.97 281.19 88.34 305.25 66.91 328.33 66.91 302.43 59.49 273.09 87.52 277.92 112.04"/><path class="cls-2" d="M656.37,247.07l-15.09-6.53s-9.07-19.37-15.26-23.08-23.91-6.29-23.91-6.29l-22.67,12.06-5.77,20.35,16.08,26.23,19.37,4.53L625.61,257l-19,10.12L591.81,262l-11.54-19.23L586,226.11l20.2-7.42s15.25,5.77,19,7.42,12.37,21,12.37,21l12,6.21" transform="translate(-395.39 -125.4)"/><polyline class="cls-2" points="236.98 178.67 217.86 162.1 203.84 165.43 217.03 168.73 236.35 186.51"/><path class="cls-2" d="M551.87,269s-10.35-16.55-10.35-22.32,10.35-10.3,10.35-10.3L571.2,255" transform="translate(-395.39 -125.4)"/><path class="cls-2" d="M596.68,374.11a29.26,29.26,0,0,1-11.88-14.85c-3.71-10.31-8.66-15.66-13.6-18.14s-19-.41-21.44-9.07-4.53-19.25-8.24-20.13-19,4.06-17.32,8.18,8.25,14.84,8.25,14.84l-.83,9.89" transform="translate(-395.39 -125.4)"/><polyline class="cls-2" points="116.45 181.5 124.28 177.79 132.11 181.5 134.16 189.29"/><polyline class="cls-2" points="121.4 207.48 125.3 202.12 132.67 202.12"/><path class="cls-2" d="M565.9,339.85s-.06-11.09,5.3-12.33,7.42,5.36,7.42,5.36" transform="translate(-395.39 -125.4)"/><path class="cls-2" d="M564,385.34s-29.5,2.78-31.56,4.43a26.78,26.78,0,0,0-4.39,5.35s-16.22-4.53-19.11-2.47-8.11,4.54-6.11,8.66,11.88,12.36,11.88,12.36l6-6.59L516.78,419s-15.66-10.19-19.37-16.84,5.77-14.26,10.31-16.85,17.72,0,17.72,0,16.16-7.43,26.43-9.34" transform="translate(-395.39 -125.4)"/></g><g id="_3_HOUSE" data-name="3 HOUSE"><path id="HALLOW_bush" data-name="HALLOW bush" class="cls-3" d="M583.28,635.71s-2.59-10.19-1.59-15.92l12.6-8,9.15,7.85-7,6.34,13.33-4.46-15-14.51-12.5,7,14.6-26.56L619.14,591l-.61,12.72-9.07,1.15,11.06,2.82,1-19.53-25.63-5-13.67,21.9q4.23-19.25,8.45-38.5L575.54,550l-20.1,3.63,18.71,2.3,9.21,11.72L582,580.39l-9.17-12.15-9.26,3.08.62,10.72,2.51-7.49,4.35-2.43,8.41,10.46-2.15,20.07-2,10.15-6.24-9.5c-1-2.94-1.93-5.87-2.9-8.8l4.82-2,2.67,4.94.61-9.16L561.32,594l.82,7-20.38-24.95-6.54,17.11,6.59-7.52,12.06,13.27,14.91,13.16-21.53-8.16L538,611l3.11,8.34,7.11,1.47-6.55-4.06.56-5.29,4.71-4.75,13.86,6.74,10.38,6.84.88,9.74" transform="translate(-395.39 -125.4)"/><path class="cls-4" d="M624.57,551.34l49.53-51.5,18.5,49.31V665.88H623.91Z" transform="translate(-395.39 -125.4)"/><path class="cls-5" d="M672.88,486.66l-34.57,12.82-66.48,60.6.21,9.63,52.53-18.37,55.92-59Z" transform="translate(-395.39 -125.4)"/><path class="cls-5" d="M624.53,551.34l.1-10.46L674,489.94" transform="translate(-395.39 -125.4)"/><path class="cls-6" d="M624.53,551.34q-.31,57.27-.62,114.54L584,644.27l0-78.74Z" transform="translate(-395.39 -125.4)"/><path class="cls-5" d="M624.63,540.88l-52.8,19.2" transform="translate(-395.39 -125.4)"/><path id="HALLOW_bush-2" data-name="HALLOW bush" class="cls-5" d="M659.79,684.79s2.59-10.18,1.59-15.91l-12.6-8-9.14,7.85,7,6.34-13.32-4.45,14.94-14.52,12.5,7L646.18,636.6l-22.25,3.52.62,12.71,9.07,1.16-11.07,2.81-1-19.52,25.63-5,13.66,21.91q-4.23-19.26-8.45-38.51L667.54,599l20.09,3.64L668.93,605l-9.21,11.72,1.37,12.8,9.16-12.16,9.26,3.09-.61,10.72-2.51-7.49L672,621.21l-8.41,10.45,2.15,20.08,2,10.14q3.12-4.74,6.23-9.5l2.91-8.8-4.82-2-2.67,4.94-.62-9.16,13,5.71-.83,7.05,20.39-25,6.54,17.12-6.6-7.52L689.2,648l-14.91,13.15L695.83,653l9.24,7.1L702,668.47l-7.11,1.47,6.56-4.06-.57-5.3-4.7-4.74-13.86,6.73-10.39,6.85-.87,9.74" transform="translate(-395.39 -125.4)"/></g><path class="cls-7" d="M474.31,575.46l617.36,467.11" transform="translate(-395.39 -125.4)"/><path class="cls-8" d="M737.43,1055.28,406.11,575.46" transform="translate(-395.39 -125.4)"/><path class="cls-9" d="M670.4,1053.09l-274-477.63" transform="translate(-395.39 -125.4)"/><g id="_2_HOUSE" data-name="2 HOUSE"><path class="cls-10" d="M1096.64,678.41s8.53-13.74,9.73-22.61l-14.78-17.53-17.07,7.27,7.35,12.55-17.48-12.72L1093.06,631l15.07,16.1-9.07-45.73-34.27-5.16-5,18.93,12.77,5.9-17.54-1,7.58-29.12,39.93,4.54L1112.4,634l5.48-60.4,29.95-17.34,27.79,14.67-28.5-5.33-18.95,12.92-3.93,19.4,19.08-13.57,12.15,8.82-5.88,15.44-.2-12.15-5.26-5.58-17.19,11.42-6.16,30.45q-.9,7.9-1.78,15.81l13.55-11q4.18-5.78,8.35-11.56l-6.13-5.18-6.22,6,3.36-13.72,16.33,14.39-4.48,10,41.49-27.13,27,26.19-7.65,20.3-.28-18-19.15-19.91-28.29,19.3-28,12.37,35.37-2,10.26,14.71L1166.06,674,1155,672.9l11.5-2.92,1.63-8-4.7-9.15-23.46,3.44-18.41,5.22-5.81,13.88" transform="translate(-395.39 -125.4)"/><rect class="cls-11" x="678.05" y="364.81" width="108.39" height="59.18"/><rect class="cls-12" x="687.71" y="372.9" width="89.07" height="42.99"/><rect class="cls-13" x="687.71" y="372.9" width="89.07" height="42.99"/><line class="cls-11" x1="734.38" y1="372.59" x2="733.91" y2="415.3"/><path class="cls-12" d="M741.45,751.49q-.68-148.57-1.34-297.15l-66,27.83L674,703.48Z" transform="translate(-395.39 -125.4)"/><path class="cls-13" d="M741.45,751.49q-.68-148.57-1.34-297.15l-66,27.83L674,703.48Z" transform="translate(-395.39 -125.4)"/><path class="cls-11" d="M811.15,347.2l332.52.72,69.12,93.26" transform="translate(-395.39 -125.4)"/><path class="cls-14" d="M914.32,412.28,897.5,400.63l-.14-66.36,17-9.61Z" transform="translate(-395.39 -125.4)"/><path class="cls-13" d="M914.32,412.28,897.5,400.63l-.14-66.36,17-9.61Z" transform="translate(-395.39 -125.4)"/><path class="cls-15" d="M752.3,384.7" transform="translate(-395.39 -125.4)"/><path class="cls-16" d="M882.05,334.27l90.86-71.18,80.24,71.18h-16.32l-64.19-53.06-71.22,53.06Z" transform="translate(-395.39 -125.4)"/><path class="cls-13" d="M882.05,334.27l90.86-71.18,80.24,71.18h-16.32l-64.19-53.06-71.22,53.06Z" transform="translate(-395.39 -125.4)"/><path class="cls-12" d="M1028.9,327.72l-.18,84.56H914.32V324.66l58.32-43.45Z" transform="translate(-395.39 -125.4)"/><path class="cls-13" d="M1028.9,327.72l-.18,84.56H914.32V324.66l58.32-43.45Z" transform="translate(-395.39 -125.4)"/><rect class="cls-11" x="532.53" y="203.4" width="37.88" height="67.3"/><line class="cls-15" x1="532.53" y1="215.05" x2="570.41" y2="215.05"/><line class="cls-15" x1="532.53" y1="226.11" x2="570.41" y2="226.11"/><line class="cls-15" x1="532.53" y1="237.17" x2="570.41" y2="237.17"/><line class="cls-15" x1="532.53" y1="248.24" x2="570.41" y2="248.24"/><line class="cls-15" x1="532.53" y1="259.3" x2="570.41" y2="259.3"/><rect class="cls-11" x="582.75" y="203.4" width="37.88" height="67.3"/><line class="cls-15" x1="582.75" y1="215.05" x2="620.63" y2="215.05"/><line class="cls-15" x1="582.75" y1="226.11" x2="620.63" y2="226.11"/><line class="cls-15" x1="582.75" y1="237.17" x2="620.63" y2="237.17"/><line class="cls-15" x1="582.75" y1="248.24" x2="620.63" y2="248.24"/><line class="cls-15" x1="582.75" y1="259.3" x2="620.63" y2="259.3"/><rect class="cls-11" x="389.24" y="365.26" width="108.39" height="59.18"/><rect class="cls-12" x="398.91" y="373.36" width="89.07" height="42.99"/><rect class="cls-13" x="398.91" y="373.36" width="89.07" height="42.99"/><line class="cls-11" x1="445.58" y1="373.05" x2="445.11" y2="415.75"/><polygon class="cls-11" points="333.26 366.33 333.26 445.65 289.39 445.65 289.39 380.56 333.26 366.33"/><path class="cls-11" d="M728.65,499.17l-33.89,10.65v61.24" transform="translate(-395.39 -125.4)"/><rect class="cls-11" x="320.46" y="402.42" width="12.81" height="43.23"/><path class="cls-16" d="M715.85,527.83l-46.49,14.95.54,41.31,46-13Z" transform="translate(-395.39 -125.4)"/><path class="cls-13" d="M715.85,527.83l-46.49,14.95.54,41.31,46-13Z" transform="translate(-395.39 -125.4)"/><path class="cls-17" d="M669.9,584.09h12.83l45.92-13h-12.8Z" transform="translate(-395.39 -125.4)"/><path class="cls-10" d="M669.9,584.09h12.83l45.92-13h-12.8Z" transform="translate(-395.39 -125.4)"/><polygon class="cls-11" points="289.39 498.99 289.39 549.77 333.26 572.43 333.26 493.95 289.39 498.99"/><polyline class="cls-11" points="333.26 501.51 294.76 504.75 294.76 552.54"/><path class="cls-18" d="M1209.19,458.8l-469.08-4.46,1.34,297.15,467-.37Z" transform="translate(-395.39 -125.4)"/><path class="cls-19" d="M1212.07,468.16,741,468.88l-65.91,26.88.07-13.59L741,454.34l471.79-2Z" transform="translate(-395.39 -125.4)"/><polygon class="cls-16" points="356.12 315.78 344.72 328.94 817.4 326.91 817.4 315.78 356.12 315.78"/><polygon class="cls-13" points="356.12 315.78 344.72 328.94 817.4 326.91 817.4 315.78 356.12 315.78"/><path class="cls-16" d="M674,489.94l-19.35-7.57L770.49,356.3l40.66-9.1-71,107.14-66,27.83Z" transform="translate(-395.39 -125.4)"/><path class="cls-13" d="M674,489.94l-19.35-7.57L770.49,356.3l40.66-9.1-71,107.14-66,27.83Z" transform="translate(-395.39 -125.4)"/><path class="cls-18" d="M748.84,441.18l-94.15,41.19" transform="translate(-395.39 -125.4)"/><g id="HALLOW_spider_web" data-name="HALLOW spider web"><path class="cls-13" d="M1069.8,375.55a94.39,94.39,0,0,0,2.13,46.07" transform="translate(-395.39 -125.4)"/><path class="cls-13" d="M1029.63,369.71a127.49,127.49,0,0,0,40.17,5.84" transform="translate(-395.39 -125.4)"/><path class="cls-13" d="M1067.15,376.11c-12.22,12.12-24.39,24.25-37.15,35.8" transform="translate(-395.39 -125.4)"/><path class="cls-13" d="M1030.81,328.69c34.7,42,41.36,58.41,93.73,83.77" transform="translate(-395.39 -125.4)"/><path class="cls-13" d="M1078.08,385.7q-5,2.73-10.11,5.22c-3.22-1.65-6.4-3.39-9.45-5.34-.86-1.39-1.72-2.86-2.57-4.43-1.22-2.24-2.29-4.41-3.21-6.48l6.85-10.41" transform="translate(-395.39 -125.4)"/><path class="cls-13" d="M1088.05,392.43c-6.73,1.84-13,3.85-18.23,8.68a81.75,81.75,0,0,0-18.88-8.92,68.41,68.41,0,0,0-6.65-18.53c1-2.13,2.09-4.32,3.28-6.55,1.94-3.68,3.94-7.09,5.92-10.23" transform="translate(-395.39 -125.4)"/><path class="cls-13" d="M1104.09,402.34c-4.93.64-10.75,1-15.39,2.48-6.87,2.15-12,6.42-17.29,10.92-8.43-5.88-18-10.32-27.1-15.13-2.57-9.63-6.56-19.22-9.51-28.78a32.33,32.33,0,0,0,4.56-9.23c1.6-4.68,3.22-9.77,5-14.45" transform="translate(-395.39 -125.4)"/></g><g id="HALLOW_spider_web-2" data-name="HALLOW spider web"><path class="cls-13" d="M875.82,372.41a89.6,89.6,0,0,1,1.76,14.72,91.43,91.43,0,0,1-3.8,29.43" transform="translate(-395.39 -125.4)"/><path class="cls-13" d="M914.32,366.81a122.53,122.53,0,0,1-38.5,5.6" transform="translate(-395.39 -125.4)"/><path class="cls-13" d="M878.36,373c11.71,11.6,23.38,23.23,35.6,34.3" transform="translate(-395.39 -125.4)"/><path class="cls-13" d="M913.19,327.5c-33.26,40.25-39.64,56-89.82,80.28" transform="translate(-395.39 -125.4)"/><path class="cls-13" d="M867.89,382.14q4.79,2.6,9.69,5c3.08-1.58,6.13-3.24,9-5.11.82-1.33,1.65-2.75,2.47-4.24,1.17-2.16,2.19-4.24,3.08-6.22l-6.57-10" transform="translate(-395.39 -125.4)"/><path class="cls-13" d="M858.33,388.58c6.45,1.77,12.49,3.69,17.48,8.32a79,79,0,0,1,18.08-8.55,65.82,65.82,0,0,1,6.38-17.76q-1.44-3.06-3.14-6.27c-1.87-3.53-3.78-6.8-5.68-9.81" transform="translate(-395.39 -125.4)"/><path class="cls-13" d="M843,398.08c4.73.61,10.31,1,14.76,2.37,6.58,2.07,11.48,6.15,16.56,10.47,8.07-5.63,17.27-9.89,26-14.5,2.46-9.22,6.28-18.41,9.11-27.58A31.31,31.31,0,0,1,905,360c-1.53-4.48-3.08-9.36-4.79-13.85" transform="translate(-395.39 -125.4)"/></g></g><g id="_1_HOUSE" data-name="1 HOUSE"><path class="cls-20" d="M1119.19,813.44H849.67V604.59L1016,492.7l104.87,108Q1120,707.09,1119.19,813.44Z" transform="translate(-395.39 -125.4)"/><path class="cls-21" d="M783.27,776.56v-174l66.53-9.7q.21,110.1.43,220.21Z" transform="translate(-395.39 -125.4)"/><path class="cls-22" d="M784.63,626.92l66.11-7.56,165.65-108.54,92.24,95.34,18.72-9.6-111-107.86L850.87,600.6l-66.24,10.18Z" transform="translate(-395.39 -125.4)"/><path class="cls-23" d="M1034.13,550.43a22.59,22.59,0,0,1-22.59,22.6c-.58,0-1.15,0-1.72-.07a22.92,22.92,0,0,0,0-45.06c.57,0,1.14-.07,1.72-.07A22.59,22.59,0,0,1,1034.13,550.43Z" transform="translate(-395.39 -125.4)"/><path class="cls-24" d="M1028.52,550.43a20,20,0,1,1-18.7-22.53A22.81,22.81,0,0,1,1028.52,550.43Z" transform="translate(-395.39 -125.4)"/><path class="cls-25" d="M1009.82,527.9l-.42-.07" transform="translate(-395.39 -125.4)"/><line class="cls-25" x1="614.01" y1="402.69" x2="614.01" y2="436.95"/><line class="cls-25" x1="593.55" y1="425.02" x2="625.36" y2="425.02"/><rect class="cls-24" x="556.76" y="539" width="74.72" height="115.41"/><path class="cls-23" d="M963,687V675.18h21.66v33.44H963V701.8" transform="translate(-395.39 -125.4)"/><rect class="cls-23" x="567.6" y="595.88" width="21.65" height="50.15"/><rect class="cls-23" x="598.64" y="549.58" width="21.65" height="33.44"/><rect class="cls-23" x="598.64" y="595.69" width="21.65" height="50.15"/><path class="cls-26" d="M969.22,510.82,1017,478q20.19,21,40.45,42,37.2,38.43,74.67,76.6l-8.16,3.36L1016,488.7,849.8,600.6l-80.24,12.29v-8.41l80.24-11.65L963,515.1" transform="translate(-395.39 -125.4)"/><path class="cls-23" d="M963,515.09,849.8,592.83l-80.24,11.65L950.9,483.2,1017,478l-47.81,32.81" transform="translate(-395.39 -125.4)"/><path class="cls-21" d="M897.5,536.14,874,548.32l-.33-64.2,23.73-10.79" transform="translate(-395.39 -125.4)"/><polyline class="cls-20" points="502.08 396.01 501.97 347.92 525.7 347.92 525.7 397 508.44 407.46 502.11 410.73"/><path class="cls-25" d="M946.76,642h89.74a29,29,0,0,1,4.52,12.51,28.65,28.65,0,0,1-.43,9.06l-84.56.84a22.78,22.78,0,0,0-.86-11.19A23,23,0,0,0,946.76,642Z" transform="translate(-395.39 -125.4)"/><rect class="cls-23" x="541.4" y="654.41" width="104.29" height="23.62"/><rect class="cls-23" x="530.84" y="674.67" width="123.6" height="20.38"/><path class="cls-27" d="M946.76,642v22.44l9.27,0a22.78,22.78,0,0,0-.86-11.19A23,23,0,0,0,946.76,642Z" transform="translate(-395.39 -125.4)"/><path class="cls-24" d="M912.39,720.15l-31-.12V674.61c1.65-8.57,8.5-15,16.57-15.9a21.26,21.26,0,0,1,14.43,15.13V691.9" transform="translate(-395.39 -125.4)"/><g class="cls-28"><path class="cls-29" d="M907.25,657q-8.12,32.3-16.22,64.58H873.85l3.26-56.08a34.2,34.2,0,0,1,12.34-7.39A34.55,34.55,0,0,1,907.25,657Z" transform="translate(-395.39 -125.4)"/></g><path class="cls-23" d="M912.36,700.63l0-26.79A21.26,21.26,0,0,0,898,658.71c9.43-1,18.76,5.72,20.86,15.9v45.56" transform="translate(-395.39 -125.4)"/><path class="cls-23" d="M925.84,728.09a5.22,5.22,0,0,0-6.61-6.2A7.75,7.75,0,0,0,905.39,718c-2.64-5-8.42-7.2-13-5.37a10.37,10.37,0,0,0-6.2,9.29,6.17,6.17,0,0,0-10.32,6.2" transform="translate(-395.39 -125.4)"/><path class="cls-21" d="M887.54,740.9H881a8.49,8.49,0,0,1-5.27-1.38c-3.16-2.18-4.5-6.77-3.19-11.43h8.88a14.19,14.19,0,0,0,6.1,12.81Z" transform="translate(-395.39 -125.4)"/><path class="cls-25" d="M930,739.66a6.48,6.48,0,0,1-3.72,1.24H887.54a14.19,14.19,0,0,1-6.1-12.81h50.18C933.53,732.86,932.74,737.56,930,739.66Z" transform="translate(-395.39 -125.4)"/><line class="cls-23" x1="517" y1="580.84" x2="517" y2="585.58"/><line class="cls-21" x1="454.46" y1="494.55" x2="454.46" y2="485.31"/><line class="cls-23" x1="567.6" y1="566.23" x2="567.6" y2="572.35"/><path class="cls-25" d="M1009.82,573l-.42.07V566.8" transform="translate(-395.39 -125.4)"/><line class="cls-25" x1="628.84" y1="425.02" x2="633.13" y2="425.02"/><line class="cls-20" x1="501.97" y1="402.69" x2="501.97" y2="405.75"/><path class="cls-21" d="M926.23,779.68v40.77h21V800.08l-9.84-.12.12-20.15Z" transform="translate(-395.39 -125.4)"/><g id="HALLOW_spider_web-3" data-name="HALLOW spider web"><path class="cls-30" d="M943.29,499.41a67.3,67.3,0,0,1-11,2.51,65.68,65.68,0,0,1-11.09.6" transform="translate(-395.39 -125.4)"/><path class="cls-30" d="M950.93,523.37a116.23,116.23,0,0,1-4.64-12.27,114.14,114.14,0,0,1-3-11.69" transform="translate(-395.39 -125.4)"/><path class="cls-30" d="M943.29,499.41l-22.2,23" transform="translate(-395.39 -125.4)"/><path class="cls-30" d="M970.9,508.88a59.14,59.14,0,0,1-48.86-34" transform="translate(-395.39 -125.4)"/><path class="cls-30" d="M936.56,496c-.1.63-.23,1.33-.42,2.06a18.3,18.3,0,0,1-1.31,3.5l2.13,4.65a35.22,35.22,0,0,0,4.72,1.19c1.28.22,2.48.36,3.59.45.37-.62.77-1.25,1.18-1.89.59-.91,1.19-1.77,1.77-2.58" transform="translate(-395.39 -125.4)"/><path class="cls-30" d="M933,490.85a26.63,26.63,0,0,1-1,7.07,26.11,26.11,0,0,1-1.82,4.77,6.22,6.22,0,0,1,2.3,2.87,6.44,6.44,0,0,1-.36,5.12q4.67.38,9.36.81l5.08.46c.88-1,1.77-2,2.66-3q1.68-1.94,3.2-3.82" transform="translate(-395.39 -125.4)"/><path class="cls-30" d="M927.65,485a57.73,57.73,0,0,1-.19,8c-.58,3.63-2.05,6.34-3.7,9.49a14.45,14.45,0,0,1,4.42,13.55,93.07,93.07,0,0,0,9.81,1.08,89.78,89.78,0,0,0,10.56,0c.69-.88,1.43-1.76,2.22-2.65a56.53,56.53,0,0,1,7.32-6.88" transform="translate(-395.39 -125.4)"/></g></g><g id="FENCE"><path class="cls-31" d="M905.35,881.47,932,897.8V824.36q-7.15-12.15-14.32-24.28L905,816.44Z" transform="translate(-395.39 -125.4)"/><path class="cls-31" d="M958.13,806.25l1.66-2.57L974.55,826v78.84H945.39V826q5-7.79,10-15.55" transform="translate(-395.39 -125.4)"/><path class="cls-31" d="M990,854.16V826l14.4-22.32L1019.17,826v78.84H990V865" transform="translate(-395.39 -125.4)"/><path class="cls-31" d="M1063.79,904.84h-29.16V826l14.4-22.32L1063.79,826Z" transform="translate(-395.39 -125.4)"/><path class="cls-31" d="M1108.41,904.84h-29.16V826l14.4-22.32L1108.41,826Z" transform="translate(-395.39 -125.4)"/><circle class="cls-25" cx="521.46" cy="703.78" r="3.51"/><circle class="cls-25" cx="521.46" cy="743.07" r="3.51"/><circle class="cls-25" cx="564.58" cy="718.69" r="3.51"/><circle class="cls-25" cx="564.58" cy="757.98" r="3.51"/><circle class="cls-25" cx="609.2" cy="718.69" r="3.51"/><circle class="cls-25" cx="609.2" cy="757.98" r="3.51"/><circle class="cls-25" cx="653.85" cy="718.69" r="3.51"/><circle class="cls-25" cx="653.85" cy="757.98" r="3.51"/><circle class="cls-25" cx="698.44" cy="718.69" r="3.51"/><circle class="cls-25" cx="698.44" cy="757.98" r="3.51"/><line class="cls-25" x1="536.6" y1="703.78" x2="550" y2="709.59"/><line class="cls-25" x1="536.6" y1="712.29" x2="550" y2="718.09"/><line class="cls-25" x1="536.6" y1="743.84" x2="550" y2="749.65"/><line class="cls-25" x1="536.6" y1="752.34" x2="550" y2="758.15"/><line class="cls-25" x1="579.16" y1="711.59" x2="594.62" y2="711.59"/><line class="cls-25" x1="579.16" y1="719.09" x2="594.62" y2="719.09"/><line class="cls-25" x1="579.16" y1="751.23" x2="594.62" y2="751.23"/><line class="cls-25" x1="579.16" y1="758.73" x2="594.62" y2="758.73"/><line class="cls-25" x1="623.78" y1="711.59" x2="639.24" y2="711.59"/><line class="cls-25" x1="623.78" y1="719.09" x2="639.24" y2="719.09"/><line class="cls-25" x1="623.78" y1="751.23" x2="639.24" y2="751.23"/><line class="cls-25" x1="623.78" y1="758.73" x2="639.24" y2="758.73"/><line class="cls-25" x1="668.4" y1="711.59" x2="683.86" y2="711.59"/><line class="cls-25" x1="668.4" y1="719.09" x2="683.86" y2="719.09"/><line class="cls-25" x1="668.4" y1="751.23" x2="683.86" y2="751.23"/><line class="cls-25" x1="668.4" y1="758.73" x2="683.86" y2="758.73"/><line class="cls-31" x1="594.62" y1="735.39" x2="594.62" y2="732.51"/><path class="cls-31" d="M1125,854.16V826l14.4-22.32L1154.17,826v78.84H1125V865" transform="translate(-395.39 -125.4)"/><path class="cls-31" d="M1198.79,904.84h-29.16V826l14.4-22.32L1198.79,826Z" transform="translate(-395.39 -125.4)"/><circle class="cls-25" cx="744.2" cy="718.69" r="3.51"/><circle class="cls-25" cx="744.2" cy="757.98" r="3.51"/><circle class="cls-25" cx="788.85" cy="718.69" r="3.51"/><circle class="cls-25" cx="788.85" cy="757.98" r="3.51"/><line class="cls-25" x1="714.16" y1="711.59" x2="729.62" y2="711.59"/><line class="cls-25" x1="714.16" y1="719.09" x2="729.62" y2="719.09"/><line class="cls-25" x1="714.16" y1="751.23" x2="729.62" y2="751.23"/><line class="cls-25" x1="714.16" y1="758.73" x2="729.62" y2="758.73"/><line class="cls-25" x1="758.78" y1="711.59" x2="774.24" y2="711.59"/><line class="cls-25" x1="758.78" y1="719.09" x2="774.24" y2="719.09"/><line class="cls-25" x1="758.78" y1="751.23" x2="774.24" y2="751.23"/><line class="cls-25" x1="758.78" y1="758.73" x2="774.24" y2="758.73"/><line class="cls-31" x1="729.62" y1="735.39" x2="729.62" y2="732.51"/></g><line class="cls-3" x1="1" y1="450.06" x2="167.84" y2="450.06"/><g id="HALLOWEEn_bush" data-name="HALLOWEEn bush"><path class="cls-23" d="M1106.27,822.29s6.39-17.18,5.72-27.3l-20.37-16.16-17.32,11.92,11,12.29L1063,792.84l28.62-22.39L1112,784.94l-20.37-48.77-39.23,2-1.3,22.16,15.51,3.7-19.71,2.83,1.87-34.06,45.39-3.95,19.62,40.53-7.5-68.35,29.38-26,34.18,10-32.87.5-18.15,18.62v22.44L1137,707.22l15.48,7.07-3,18.48-3-13.46-7.1-5-16.53,16.56v35.23l1.59,18L1137,768.73l6.68-14.73-8-4.38-5.55,8.07.64-16L1152.13,754l-2.74,12.08,40-39.49,35.88,23-3.94,24.28L1217,754l-25.76-17.82L1164.12,764l-28.31,20,38.87-10.14,14.71,14-7,13.89-12.6,1.22,12.13-5.82v-9.29l-7.28-9.1-25.29,9.1-19.29,9.94.06,20.14" transform="translate(-395.39 -125.4)"/><polyline class="cls-25" points="683.86 604.71 676.13 591.55 683.86 580.84 696.28 585.59 694.93 592.78"/><polyline class="cls-25" points="690.42 611.06 678.48 620.09 686.21 626.08"/><path class="cls-25" d="M1152.56,685.29s7.7,4.11,5.78,6.61-6.24,4.22-9.12,0" transform="translate(-395.39 -125.4)"/><polyline class="cls-25" points="775.81 631.32 794.64 626.08 799.44 633.63 796.56 641.09 788.85 641.09 786.41 635.78"/><polyline class="cls-25" points="757.17 661.39 766.51 666.22 763.26 671.71"/><polyline class="cls-25" points="787.62 607.48 785.35 592.78 774.24 590.59 770.64 599.04"/></g></g><g id="metla"><g id="metla-2" data-name="metla"><rect class="cls-23" x="764.76" y="915.36" width="5.76" height="142.68" transform="translate(1407.34 160.27) rotate(93.77)"/><path class="cls-23" d="M845.25,984.37l-10.51-4q-.62,5.55-1.24,11.11l2.16,3.42-2.16,1.44-.18,5.59,11.06-4.27a122.65,122.65,0,0,0,58.24,10.56L902,997.4l-9.32-1.8,9.54-3.06.36-2.16-14-1.8,13.86-1.08c.17-1.11.34-2.21.5-3.32l-4.46-1,4.48-1.82.56-4.85a127.23,127.23,0,0,0-22.86-.18A129,129,0,0,0,845.25,984.37Z" transform="translate(-395.39 -125.4)"/><path class="cls-23" d="M845.25,984.37a28,28,0,0,0-1.31,7.87,27.45,27.45,0,0,0,.44,5.4" transform="translate(-395.39 -125.4)"/></g></g><g id="static_pumps-R" data-name="static pumps-R"><path class="cls-23" d="M948.36,746.38a28,28,0,0,1,.71-8.16,9.84,9.84,0,0,0-3.28-.46s-1,5.89,0,8.77" transform="translate(-395.39 -125.4)"/><path class="cls-23" d="M947.77,746.82s-4.25-1.64-8.66,2.94c-5.21,5.41-10.68,13.19-7.64,20.2,2.54,5.88,9.22,7.79,13.43,9,2.75.79,8.72,2.41,15.43,0,6.53-2.34,14.62-8.82,14.17-16.33-.26-4.27-3.18-7.16-8-12-3.55-3.52-6.52-6.37-10.9-6.52A12.63,12.63,0,0,0,947.77,746.82Z" transform="translate(-395.39 -125.4)"/><path class="cls-32" d="M940.8,766a9.83,9.83,0,0,0,2.48,3.94,10.21,10.21,0,0,0,6,2.74L953,770.1l2.83,3.17,5.68-1.44,3.82-5.41,1,1.42.51-1.39q.82-2.24,1.64-4.5c-.54.39-1.1.78-1.68,1.18s-1.23.82-1.83,1.2l-.67-1.81a12.61,12.61,0,0,1-1.93,3.73s-6,1.81-8.49,1.65a19.39,19.39,0,0,0-3.5-3.46,14.85,14.85,0,0,0-2.49,4.3,15.23,15.23,0,0,1-2.18-.46A17.16,17.16,0,0,1,940.8,766Z" transform="translate(-395.39 -125.4)"/><path class="cls-32" d="M956,762.52l3.06-.91c-1.16-1.88-2.49-2.88-3.06-2.6S955.46,760.77,956,762.52Z" transform="translate(-395.39 -125.4)"/><path class="cls-32" d="M959.92,759.18a7.17,7.17,0,0,1,6.56-2.62c-.81-2.37-2.59-4-4.52-4.08a3.49,3.49,0,0,0-2.77,1C958.09,754.78,958.24,757.19,959.92,759.18Z" transform="translate(-395.39 -125.4)"/><path class="cls-32" d="M951.56,760.77a19.59,19.59,0,0,0-3.77-.13,19.81,19.81,0,0,0-7.25,1.88,5.61,5.61,0,1,1,11-1.75Z" transform="translate(-395.39 -125.4)"/><path class="cls-23" d="M1060.78,926.77a55.91,55.91,0,0,1,5.71-9.35c3.12-3.9,5.72-4.68,5.72-4.68s3.64,4.81,4.16,7c0,0-6.5,2.53-9.62,5.75" transform="translate(-395.39 -125.4)"/><path class="cls-23" d="M1072.21,927.68c1.93,1.34,4.36,4.44,9.16,10.56,8.07,10.27,8.76,12.12,8.91,14.26.4,5.79-3.36,10.34-4.71,12s-5.31,6-15.57,8.56c-5.39,1.36-25.48,6.45-39.25-5.59-1.32-1.16-11.24-10.06-9.09-19.1.36-1.52,1.2-3.75,8.33-9.92,11.29-9.78,16.94-14.66,25.38-15.23A27.58,27.58,0,0,1,1072.21,927.68Z" transform="translate(-395.39 -125.4)"/><path class="cls-32" d="M1057.58,945.24c-.19-4.09,1.89-7.49,4.75-8.33a6.52,6.52,0,0,1,4.7.63,7.94,7.94,0,0,1,3.88,5.87,19.68,19.68,0,0,0-5.21-.39A20.28,20.28,0,0,0,1057.58,945.24Z" transform="translate(-395.39 -125.4)"/><path class="cls-32" d="M1048.84,944.19c1.34-3.89,0-7.47-2-8.32a6,6,0,0,0-4.15-.15l-.18.07a6.87,6.87,0,0,0-3.85,4.72,16.23,16.23,0,0,1,10.15,3.68Z" transform="translate(-395.39 -125.4)"/><path class="cls-32" d="M1030,945.06c3.26,6.42,5.5,7.91,7,7.7l4.16-2.49s3.9,4.44,4.94,4.83,5.2-2.47,5.2-2.47,4.81,3,6.37,4.16c0,0,5.58-1.69,6.23-4l4,2.86,10-5.49a16.54,16.54,0,0,1-3.33,7.35c-6.14,7.53-17.78,6.52-24.31,5.95-6.94-.61-12.8-1.12-16.79-5.95C1029.74,953,1029.79,947.37,1030,945.06Z" transform="translate(-395.39 -125.4)"/></g></svg>