<?xml version="1.0" encoding="utf-8"?>
<!-- Generator: Adobe Illustrator 26.3.1, SVG Export Plug-In . SVG Version: 6.00 Build 0)  -->
<svg version="1.1" id="Layer_1" xmlns="http://www.w3.org/2000/svg" xmlns:xlink="http://www.w3.org/1999/xlink" x="0px" y="0px"
	 viewBox="0 0 980 208" style="enable-background:new 0 0 980 208;" xml:space="preserve">
<style type="text/css">
	.st0{fill:#051784;}
	.st1{fill:#DB0908;}
	.st2{fill:#DA1F26;}
	.st3{fill:#FFFFFF;}
	.st4{fill:#E00A09;}
</style>
<g>
	<path class="st0" d="M32.1,94.5c0-13,0-15.4-0.2-18.2c-0.2-2.9-1-4.4-2.9-4.8c-0.9-0.3-2.1-0.3-3.1-0.3c-0.9,0-1.4-0.2-1.4-0.9
		c0-0.5,0.7-0.7,2.1-0.7c3.3,0,8.7,0.3,11.1,0.3c2.1,0,7.2-0.3,10.5-0.3c1.1,0,1.8,0.2,1.8,0.7c0,0.7-0.5,0.9-1.4,0.9
		c-0.9,0-1.5,0.1-2.6,0.3c-2.3,0.4-3,1.9-3.2,4.9c-0.2,2.7-0.2,5.1-0.2,18.2v15.1c0,8.3,0,15.1,0.3,18.8c0.3,2.3,0.9,3.9,3.4,4.2
		c1.2,0.2,3.1,0.3,4.4,0.3c0.9,0,1.4,0.3,1.4,0.7c0,0.6-0.7,0.9-1.6,0.9c-5.7,0-11.1-0.3-13.4-0.3c-2,0-7.4,0.3-10.8,0.3
		c-1.1,0-1.7-0.3-1.7-0.9c0-0.4,0.3-0.7,1.4-0.7c1.3,0,2.3-0.2,3.1-0.3c1.7-0.3,2.2-1.8,2.5-4.3c0.4-3.6,0.4-10.4,0.4-18.7V94.5z"/>
	<path class="st0" d="M67.1,82.8c0-1.4,0.2-2.4,0.9-2.4c0.8,0,1.4,0.9,2.6,2.2c0.8,0.9,11.5,12.3,21.7,22.4
		c4.8,4.8,14.5,15.2,15.7,16.3l-0.7-31.7c-0.1-4.3-0.7-5.6-2.4-6.3c-1-0.4-2.7-0.4-3.7-0.4c-0.8,0-1.1-0.2-1.1-0.6
		c0-0.6,0.8-0.6,1.8-0.6c3.6,0,7,0.2,8.5,0.2c0.8,0,3.4-0.2,6.9-0.2c0.9,0,1.6,0.1,1.6,0.6c0,0.4-0.4,0.6-1.3,0.6
		c-0.7,0-1.3,0-2.1,0.2c-2,0.6-2.5,2-2.6,5.9c-0.3,14.8-0.5,29.4-0.8,44.1c0,1.5-0.3,2.2-0.9,2.2c-0.8,0-1.6-0.8-2.4-1.5
		c-4.4-4.2-13.4-13.4-20.6-20.6c-7.6-7.6-15.6-16.5-16.9-17.8l0.8,29.6c0.1,5.5,1,7.3,2.4,7.8c1.2,0.4,2.5,0.5,3.6,0.5
		c0.8,0,1.2,0.1,1.2,0.6c0,0.6-0.6,0.7-1.6,0.7c-4.5,0-7.3-0.2-8.7-0.2c-0.6,0-3.9,0.2-7.6,0.2c-0.9,0-1.5-0.1-1.5-0.7
		c0-0.4,0.4-0.6,1.1-0.6c0.9,0,2.2-0.1,3.1-0.3c1.8-0.6,2.1-2.6,2.2-8.7C66.7,109.3,67,92.1,67.1,82.8z"/>
	<path class="st0" d="M127.5,133.6c-1.1-0.5-1.3-0.8-1.3-2.4c0-3.8,0.3-8,0.3-9.2c0.1-1,0.3-1.8,0.8-1.8c0.6,0,0.7,0.6,0.7,1.2
		c0,0.9,0.3,2.4,0.6,3.6c1.5,5.2,5.7,7.1,10,7.1c6.3,0,9.4-4.3,9.4-8c0-3.4-1-6.6-6.9-11.2l-3.2-2.5c-7.7-6-10.3-10.9-10.3-16.6
		c0-7.7,6.4-13.2,16.2-13.2c2.7,0,4.8,0.3,6.4,0.6c1.2,0.2,2.1,0.4,2.9,0.6c0.6,0.1,1,0.3,1,0.8c0,0.9-0.3,2.9-0.3,8.4
		c0,1.5-0.2,2.1-0.8,2.1c-0.5,0-0.7-0.4-0.7-1.3c0-0.6-0.3-2.8-1.8-4.6c-1-1.3-3.1-3.4-7.6-3.4c-5.2,0-8.3,3-8.3,7.2
		c0,3.2,1.6,5.7,7.4,10.1l2,1.5c8.5,6.4,11.5,11.2,11.5,17.8c0,4.1-1.5,8.9-6.6,12.2c-3.5,2.2-7.4,2.9-11.1,2.9
		C133.6,135.4,130.5,134.9,127.5,133.6z"/>
	<path class="st0" d="M176.6,111.7c0,10.1,2,14.4,5.5,17.2c3.1,2.6,6.4,2.9,8.7,2.9c3.1,0,6.9-1,9.7-3.8c3.8-3.8,4.1-10.1,4.1-17.3
		v-8.7c0-10.6,0-12.6-0.1-14.8c-0.1-2.4-0.7-3.5-3-4c-0.6-0.1-1.7-0.2-2.5-0.2s-1.2-0.1-1.2-0.6c0-0.5,0.5-0.6,1.5-0.6
		c3.6,0,8,0.2,8,0.2c0.8,0,5.2-0.2,8-0.2c1,0,1.5,0.1,1.5,0.6c0,0.5-0.4,0.6-1.3,0.6c-0.8,0-1.2,0.1-2,0.2c-1.9,0.3-2.4,1.5-2.6,4
		c-0.1,2.2-0.1,4.2-0.1,14.8v7.5c0,7.8-0.8,16-6.6,21c-5,4.3-10,5-14.5,5c-3.7,0-10.4-0.2-15.5-4.8c-3.6-3.2-6.2-8.4-6.2-18.5v-10.2
		c0-10.6,0-12.6-0.1-14.8c-0.1-2.4-0.7-3.5-3-4c-0.6-0.1-1.7-0.2-2.7-0.2c-0.8,0-1.2-0.1-1.2-0.6c0-0.5,0.5-0.6,1.5-0.6
		c3.7,0,8.1,0.2,10.2,0.2c1.7,0,6.1-0.2,8.6-0.2c1,0,1.5,0.1,1.5,0.6c0,0.5-0.4,0.6-1.1,0.6c-0.8,0-1.2,0.1-2,0.2
		c-1.9,0.3-2.4,1.5-2.6,4c-0.1,2.2-0.1,4.2-0.1,14.8V111.7z"/>
	<path class="st0" d="M229.5,101.9c0-10.6,0-12.6-0.1-14.8c-0.1-2.4-0.7-3.5-3-4c-0.6-0.1-1.7-0.2-2.7-0.2c-0.8,0-1.2-0.1-1.2-0.6
		c0-0.5,0.5-0.6,1.5-0.6c3.7,0,8.1,0.2,9.6,0.2c2.4,0,7.7-0.2,9.9-0.2c4.4,0,9.1,0.4,12.9,3c2,1.3,4.8,4.9,4.8,9.6
		c0,5.2-2.1,9.9-9.2,15.6c6.2,7.8,11,14.1,15.2,18.5c3.9,4.1,6.7,4.5,7.8,4.8c0.8,0.1,1.4,0.2,2,0.2c0.6,0,0.8,0.2,0.8,0.6
		c0,0.6-0.5,0.7-1.3,0.7h-6.9c-3.9,0-5.7-0.3-7.5-1.3c-3-1.6-5.7-4.9-9.6-10.3c-2.8-3.8-6-8.6-6.9-9.7c-0.3-0.4-0.8-0.5-1.3-0.5
		l-5.9-0.1c-0.3,0-0.6,0.1-0.6,0.6v1c0,6.5,0,12,0.3,15c0.2,2,0.6,3.6,2.7,3.8c1,0.1,2.6,0.3,3.4,0.3c0.6,0,0.8,0.2,0.8,0.6
		c0,0.5-0.5,0.7-1.4,0.7c-4.1,0-9.2-0.2-10.3-0.2c-1.3,0-5.7,0.2-8.5,0.2c-0.9,0-1.4-0.2-1.4-0.7c0-0.3,0.3-0.6,1.1-0.6
		c1,0,1.9-0.1,2.5-0.3c1.4-0.3,1.7-1.8,2-3.8c0.3-2.9,0.3-8.5,0.3-14.9V101.9z M237.8,107.4c0,0.8,0.1,1,0.6,1.3
		c1.5,0.5,3.6,0.7,5.3,0.7c2.8,0,3.7-0.3,5-1.2c2.1-1.5,4.1-4.8,4.1-10.5c0-9.9-6.6-12.8-10.7-12.8c-1.7,0-3,0.1-3.7,0.3
		c-0.5,0.1-0.6,0.4-0.6,1V107.4z"/>
	<path class="st0" d="M287.5,116.2c-0.3,0-0.5,0.1-0.6,0.6l-3.8,10c-0.7,1.7-1,3.4-1,4.3c0,1.3,0.6,2.2,2.8,2.2c0.3,0,0.8,0,1,0
		c0.8,0,1,0.1,1,0.6c0,0.6-0.4,0.7-1.2,0.7c-2.2,0-5.2-0.2-7.4-0.2c-0.8,0-4.6,0.2-8.3,0.2c-0.9,0-1.3-0.1-1.3-0.7
		c0-0.4,0.4-0.6,1-0.6c0.6,0,1.5-0.1,2-0.1c3.2-0.4,4.5-2.8,5.9-6.3l17.6-43.9c0.8-2,1.3-2.8,2-2.8c0.6,0,1,0.6,1.7,2.2
		c1.7,3.8,12.9,32.4,17.3,43c2.7,6.3,4.7,7.3,6.2,7.6c1,0.2,2.1,0.3,2.9,0.3c0.6,0,0.9,0.1,0.9,0.6c0,0.6-0.6,0.7-3.2,0.7
		c-2.5,0-8.1,0-13.7-0.1c-1.3-0.1-1.6-0.1-1.6-0.6c0-0.3,0.3-0.6,1-0.6c0.5-0.1,1-0.8,0.6-1.6l-5.6-14.8c-0.1-0.3-0.4-0.5-0.7-0.5
		H287.5z M301.8,112.7c0.3,0,0.4-0.2,0.3-0.4L295.8,95c-0.2-0.6-0.5-0.8-0.8,0l-6.4,17.2c-0.1,0.3,0,0.5,0.3,0.5H301.8z"/>
	<path class="st0" d="M332.5,82.8c0-1.4,0.2-2.4,0.9-2.4c0.8,0,1.4,0.9,2.6,2.2c0.8,0.9,11.5,12.3,21.7,22.4
		c4.8,4.8,14.5,15.2,15.7,16.3l-0.7-31.7c-0.1-4.3-0.7-5.6-2.4-6.3c-1-0.4-2.7-0.4-3.7-0.4c-0.8,0-1.1-0.2-1.1-0.6
		c0-0.6,0.8-0.6,1.8-0.6c3.6,0,7,0.2,8.5,0.2c0.8,0,3.4-0.2,6.9-0.2c0.9,0,1.6,0.1,1.6,0.6c0,0.4-0.4,0.6-1.3,0.6
		c-0.7,0-1.3,0-2.1,0.2c-2,0.6-2.5,2-2.6,5.9c-0.3,14.8-0.5,29.4-0.8,44.1c0,1.5-0.3,2.2-0.9,2.2c-0.8,0-1.6-0.8-2.4-1.5
		c-4.4-4.2-13.4-13.4-20.6-20.6c-7.6-7.6-15.6-16.5-16.9-17.8l0.8,29.6c0.1,5.5,1,7.3,2.4,7.8c1.2,0.4,2.5,0.5,3.6,0.5
		c0.8,0,1.2,0.1,1.2,0.6c0,0.6-0.6,0.7-1.6,0.7c-4.5,0-7.3-0.2-8.7-0.2c-0.6,0-3.9,0.2-7.6,0.2c-0.9,0-1.5-0.1-1.5-0.7
		c0-0.4,0.4-0.6,1.1-0.6c0.9,0,2.2-0.1,3.1-0.3c1.8-0.6,2.1-2.6,2.2-8.7C332.1,109.3,332.4,92.1,332.5,82.8z"/>
	<path class="st0" d="M400.4,127.8c-6.9-6-8.7-13.8-8.7-20.6c0-4.8,1.5-13,8.2-19.2c5-4.6,11.7-7.4,22.1-7.4c4.3,0,6.9,0.3,10.1,0.7
		c2.7,0.4,5.1,1,7.2,1.2c0.8,0.1,0.8,0.4,0.8,0.8c0,0.6-0.2,1.4-0.3,3.8c-0.1,2.3-0.1,6.2-0.2,7.6c-0.1,1-0.2,1.7-0.8,1.7
		c-0.6,0-0.7-0.6-0.7-1.6c-0.1-2.2-1-4.6-2.7-6.4c-2.3-2.4-7.8-4.3-14.2-4.3c-6.1,0-10.1,1.5-13.1,4.3c-5.1,4.7-6.4,11.3-6.4,18.1
		c0,16.6,12.7,24.9,22,24.9c6.2,0,10-0.7,12.8-3.9c1.2-1.3,2.1-3.4,2.4-4.6c0.2-1.1,0.3-1.4,0.9-1.4c0.5,0,0.6,0.5,0.6,1
		c0,0.8-0.8,6.9-1.5,9.3c-0.3,1.2-0.6,1.5-1.8,2c-2.8,1.1-8.1,1.6-12.6,1.6C414.8,135.4,406.8,133.3,400.4,127.8z"/>
	<path class="st0" d="M455.2,101.9c0-10.6,0-12.6-0.1-14.8c-0.1-2.4-0.7-3.5-3-4c-0.6-0.1-1.7-0.2-2.7-0.2c-0.8,0-1.2-0.1-1.2-0.6
		c0-0.5,0.5-0.6,1.5-0.6c3.2,0,6.4,0.2,10.1,0.2c2.2,0,16.2,0,17.5-0.1c1.3-0.1,2.4-0.3,3-0.4c0.3-0.1,0.8-0.3,1.1-0.3
		s0.4,0.3,0.4,0.6c0,0.5-0.3,1.3-0.6,4.5c-0.1,0.7-0.2,3.8-0.3,4.6c-0.1,0.3-0.2,0.8-0.7,0.8s-0.6-0.4-0.6-1.3
		c0-0.3-0.1-1.4-0.4-2.2c-0.5-1.3-1.2-2.1-4.7-2.5c-1.2-0.1-8.5-0.3-9.9-0.3c-0.3,0-0.5,0.2-0.5,0.7v17.7c0,0.5,0.1,0.8,0.5,0.8
		c1.5,0,9.6,0,11.2-0.1c1.7-0.1,2.7-0.3,3.4-1c0.5-0.6,0.8-0.9,1.1-0.9c0.3,0,0.5,0.1,0.5,0.6s-0.3,1.5-0.6,5.1
		c-0.1,1.4-0.3,4.2-0.3,4.7c0,0.6,0,1.3-0.6,1.3c-0.5,0-0.6-0.8-0.6-1.1c-0.1-0.7-0.1-1.1-0.3-2c-0.3-1.4-1.3-2.4-3.9-2.7
		c-1.3-0.1-8.3-0.2-9.9-0.2c-0.3,0-0.4,0.3-0.4,0.7v5.5c0,2.4-0.1,8.8,0,10.8c0.1,4.8,1.3,5.9,8.4,5.9c1.8,0,4.8,0,6.6-0.8
		c1.8-0.8,2.7-2.3,3.1-5.2c0.1-0.8,0.3-1,0.8-1c0.6,0,0.6,0.6,0.6,1.3c0,1.6-0.6,6.4-0.9,7.8c-0.5,1.8-1.1,1.8-3.8,1.8
		c-6.2,0-12.4-0.4-19.4-0.4c-2.8,0-5.7,0.2-8.8,0.2c-0.9,0-1.4-0.2-1.4-0.7c0-0.3,0.3-0.6,1.1-0.6c1,0,1.9-0.1,2.5-0.3
		c1.4-0.3,1.7-1.8,2-3.8c0.3-2.9,0.3-8.5,0.3-14.9V101.9z"/>
</g>
<g>
	<path class="st1" d="M514.8,94.4c4-13.3,4.7-15.7,5.3-18.6c0.7-2.9,0.3-4-2.3-4.6c-0.8-0.2-2.2-0.2-3.4-0.3c-1,0-1.4-0.3-1.3-0.9
		c0.2-0.6,0.9-0.8,2.3-0.8c4.3,0,8.3,0.3,12.8,0.3c2.8,0,21.6,0,23.2-0.1c1.8-0.2,3.4-0.4,4.3-0.5c0.5-0.1,1.1-0.4,1.6-0.4
		c0.5,0,0.5,0.4,0.4,0.8c-0.2,0.6-1.2,1.8-2.5,5.5c-0.6,1.6-1.2,3.4-2.2,6.1c-0.2,0.5-0.6,1.4-1.5,1.4c-0.6,0-0.7-0.5-0.4-1.6
		c0.1-0.4,0.5-1.7,0.3-2.9c-0.1-1.6-0.7-2.6-4.9-3.1c-1.7-0.2-10.9-0.4-12.9-0.4c-0.4,0-0.7,0.3-0.9,0.9l-6.3,21.2
		c-0.2,0.6-0.2,0.9,0.3,0.9c2.2,0,12,0,14.3-0.1c2.6-0.2,4.1-0.5,5.2-1.4c0.9-0.8,1.4-1.1,1.8-1.1s0.6,0.2,0.4,0.7
		c-0.2,0.6-1.2,2.6-2.7,6.8c-0.5,1.7-1.9,5.4-2.1,6.2c-0.2,0.7-0.6,1.6-1.4,1.6c-0.6,0-0.6-0.9-0.5-1.4c0.1-0.8,0.3-1.3,0.4-2.4
		c0.1-1.9-0.6-3.3-4.1-3.6c-1.8-0.2-10.4-0.3-12.6-0.3c-0.5,0-0.7,0.4-0.9,0.9l-2,6.7c-0.9,3-3.1,10.2-3.8,12.8
		c-1.6,6.1-0.7,7.4,8.8,7.4c2.4,0,6.2,0,8.7-1c2.7-1.1,4.2-2.9,6.1-6.6c0.5-0.9,0.8-1.4,1.6-1.4c0.7,0,0.5,0.8,0.2,1.7
		c-0.7,2.3-3.3,8.5-4.3,10.3c-1.3,2.3-2.1,2.3-5.5,2.3c-8.9,0-16.5-0.5-25.6-0.5c-3.7,0-7.5,0.3-11.8,0.3c-1.2,0-1.8-0.3-1.6-0.9
		c0.1-0.4,0.6-0.9,1.8-0.9c1.3-0.1,2.4-0.1,3.3-0.3c2-0.4,3.1-2.4,4.3-5.4c1.5-3.6,3.5-10.3,5.7-17.8L514.8,94.4z"/>
	<path class="st1" d="M575.2,109.1l-6.6-19.7c-0.9-3-2.1-4.6-4.5-5.4c-1.1-0.3-1.8-0.4-2.5-0.5c-0.5,0-1-0.2-0.8-0.8
		c0.1-0.5,0.7-0.7,1.7-0.7c1.6,0,6.8,0.2,11.1,0.2c1.1,0,5.6-0.2,8.5-0.2c1,0,1.4,0.2,1.3,0.7c-0.1,0.5-0.5,0.7-1.4,0.7
		c-0.4,0.1-1.4,0.2-2,0.3c-0.7,0.2-1.1,0.6-1.2,1.1c-0.1,0.5,0,1.4,0.2,2.2c1.4,5.5,3.2,10.4,4.5,14.8c2.9-3,12-12.2,13.9-14.3
		c1-1,1.4-2,1.6-2.5c0.2-0.6-0.2-1.1-0.9-1.2c-0.7-0.2-1.5-0.2-2.1-0.3c-0.4,0-1-0.2-0.9-0.7c0.1-0.4,0.5-0.7,1.5-0.7
		c2.9,0,6.1,0.2,7.6,0.2c1.6,0,4.8-0.2,7.6-0.2c0.7,0,1.2,0.2,1,0.7c-0.1,0.4-0.7,0.8-1.4,0.8c-0.8,0.1-1.7,0.2-2.6,0.4
		c-1.9,0.4-3.8,2.1-7.2,5.4l-16.7,16.2c1.3,3.8,7.3,22.2,8.7,24.6c0.7,1.6,1.6,2.4,3.3,3c1.1,0.3,1.9,0.3,2.6,0.4
		c0.6,0,1,0.3,0.8,0.7c-0.1,0.5-0.8,0.7-1.7,0.7c-5.1,0-11,0-16.3-0.2c-1.7-0.1-2.2-0.2-2-0.7c0.1-0.4,0.6-0.7,1.3-0.9
		c0.5-0.2,1-0.7,0.7-1.6c-1.8-6.4-4.1-13.5-5.7-18.5L561,129.4c-1.1,1.1-1.7,2-1.8,2.7c-0.1,0.7,0.4,1.1,1,1.2
		c0.5,0.1,1.1,0.1,1.7,0.2c0.5,0,0.9,0.4,0.7,0.8c-0.1,0.5-0.7,0.7-1.7,0.7c-1.7,0-6.5-0.2-8.5-0.2c-1.6,0-5.4,0.2-7.6,0.2
		c-0.7,0-1.1-0.3-0.9-0.7c0.1-0.4,0.6-0.7,1.3-0.7c0.5,0,1.6-0.1,2.7-0.3c2.2-0.6,4-1.6,7.5-5.1L575.2,109.1z"/>
	<path class="st1" d="M619.5,102.3c3-10.1,3.7-12.4,4.2-14.7c0.5-2.2,0.2-3.4-1.8-3.8c-0.6-0.2-1.7-0.2-2.8-0.3
		c-0.7,0-1.2-0.2-1-0.7c0.1-0.5,0.7-0.7,1.9-0.7c3.7,0,8.7,0.2,10.6,0.2c3,0,7.3-0.2,10.7-0.2c9.1,0,11.7,2.6,13,4.4
		c1.1,1.5,2.3,4.3,0.8,9.1c-2.7,9.1-12.9,16.1-23.1,16.1c-0.3,0-1.2,0-1.6-0.1c-0.3-0.2-0.8-0.3-0.7-0.8c0.1-0.5,0.8-0.7,2.2-0.7
		c4.4,0,10.9-4.4,13-11.4c0.8-2.8,2.1-7.4-0.7-10.7c-1.9-2.2-4.8-2.6-6.7-2.6c-1.1,0-2.1,0.1-2.7,0.2c-0.4,0.1-0.8,0.5-1.1,1.4
		l-8.2,27.6c-1.9,6.3-3.5,11.8-4,14.8c-0.5,2.1-0.4,3.5,1.7,3.8c1,0.2,2.5,0.2,3.4,0.3c0.9,0,1.1,0.3,1,0.7
		c-0.1,0.5-0.8,0.8-1.6,0.8c-4.9,0-10-0.2-11.6-0.2c-1.4,0-6.7,0.2-9.6,0.2c-0.9,0-1.3-0.2-1.2-0.7c0.1-0.3,0.6-0.7,1.5-0.7
		c1-0.1,1.8-0.1,2.6-0.2c1.5-0.3,2.3-1.7,3.2-4c1.3-2.9,2.8-8.2,4.8-14.7L619.5,102.3z"/>
	<path class="st1" d="M666.7,102.3c3.2-10.7,3.7-12.3,4.2-14.5c0.6-2.5,0.2-3.5-1.9-4c-0.9-0.2-1.8-0.2-2.7-0.3
		c-0.8,0-1.2-0.2-1-0.7c0.1-0.5,0.7-0.7,1.8-0.7c3.7,0,8.7,0.2,10.1,0.2c2.2,0,8.2-0.2,10.6-0.2c4.9,0,9.7,0.5,12.7,2.9
		c1.9,1.5,3.9,5,2.4,9.8c-1.6,5.3-5.4,10-14.2,15.3c3.8,7.6,7,14.1,10,18.5c2.7,4.2,5.3,4.5,6.5,4.9c0.7,0.1,1.3,0.1,1.8,0.2
		c0.7,0,0.9,0.3,0.8,0.7c-0.2,0.6-0.7,0.8-1.6,0.8h-6.9c-4.8,0-6.7-0.5-8.4-1.6c-2.4-1.6-4.2-4.8-6.4-10c-1.7-4.1-3.5-8.5-4.2-9.7
		c-0.1-0.3-0.5-0.4-1-0.4l-5.8-0.2c-0.3,0-0.6,0.2-0.7,0.6l-0.4,1.5c-1.9,6.3-3.3,11.2-3.9,14.1c-0.5,2.1-0.4,3.6,1.7,3.9
		c0.9,0.2,2.4,0.2,3.4,0.3c0.7,0,0.8,0.3,0.7,0.7c-0.1,0.5-0.7,0.8-1.6,0.8c-4.4,0-10.1-0.2-11.1-0.2c-1.2,0-6.3,0.2-9.2,0.2
		c-0.9,0-1.3-0.2-1.2-0.7c0.1-0.3,0.6-0.7,1.4-0.7c1.1-0.1,2-0.1,2.7-0.2c1.5-0.3,2.4-1.8,3.2-4c1.3-2.9,2.8-8.2,4.8-14.7
		L666.7,102.3z M674.4,107.7c-0.2,0.7-0.1,1,0.3,1.2c1.3,0.6,3.4,0.8,5.3,0.8c2.6,0,3.9-0.3,5.4-1.2c2.5-1.5,5.4-4.5,7.1-10.1
		c3-10-3.1-12.6-7.2-12.6c-1.7,0-3.1,0.1-3.8,0.3c-0.5,0.2-0.7,0.4-0.9,1L674.4,107.7z"/>
	<path class="st1" d="M721.7,102.3c3.2-10.7,3.8-12.6,4.3-14.9s0.2-3.2-1.9-3.7c-0.6-0.2-1.8-0.2-2.7-0.2c-0.8,0-1.2-0.2-1-0.7
		c0.1-0.5,0.7-0.7,1.8-0.7c3.5,0,6.7,0.2,10.3,0.2c2.2,0,17.3,0,18.6-0.1c1.5-0.2,2.7-0.3,3.4-0.4c0.4-0.1,0.9-0.3,1.3-0.3
		c0.4,0,0.4,0.3,0.3,0.7c-0.1,0.5-0.9,1.5-2,4.4c-0.5,1.3-1,2.7-1.8,4.9c-0.1,0.4-0.5,1.2-1.2,1.2c-0.5,0-0.5-0.4-0.3-1.3
		c0.1-0.3,0.4-1.4,0.3-2.3c-0.1-1.3-0.5-2.1-4-2.5c-1.4-0.2-8.7-0.3-10.4-0.3c-0.3,0-0.6,0.2-0.7,0.7L731,104
		c-0.1,0.5-0.1,0.7,0.3,0.7c1.7,0,9.6,0,11.5-0.1c2.1-0.2,3.3-0.4,4.1-1.2c0.7-0.7,1.1-0.9,1.4-0.9c0.3,0,0.4,0.2,0.3,0.6
		c-0.1,0.5-0.9,2.1-2.2,5.4c-0.4,1.4-1.6,4.4-1.7,4.9c-0.2,0.6-0.5,1.3-1.1,1.3c-0.5,0-0.5-0.7-0.4-1.2c0.1-0.7,0.2-1.1,0.3-1.9
		c0.1-1.6-0.4-2.6-3.3-2.9c-1.4-0.2-8.3-0.2-10.1-0.2c-0.4,0-0.6,0.3-0.7,0.7l-1.6,5.4c-0.7,2.4-2.5,8.2-3.1,10.3
		c-1.3,4.9-0.5,5.9,7,5.9c1.9,0,4.9,0,7-0.8c2.2-0.9,3.4-2.3,4.9-5.3c0.4-0.7,0.7-1.2,1.3-1.2s0.4,0.7,0.2,1.4
		c-0.5,1.8-2.6,6.8-3.5,8.2c-1,1.8-1.7,1.8-4.4,1.8c-7.2,0-13.2-0.4-20.6-0.4c-3,0-6,0.2-9.5,0.2c-1,0-1.4-0.2-1.3-0.7
		c0.1-0.3,0.5-0.7,1.5-0.7c1-0.1,1.9-0.1,2.6-0.2c1.6-0.3,2.5-1.9,3.4-4.4c1.2-2.9,2.8-8.2,4.6-14.3L721.7,102.3z"/>
	<path class="st1" d="M754.4,134.1c-1-0.5-1.1-1-0.7-2.4c1.3-4.2,2.7-8.3,3.2-9.6c0.4-1.2,0.9-1.8,1.4-1.8c0.7,0,0.6,0.6,0.5,1.2
		c-0.2,0.9-0.6,2.1-0.5,3.3c-0.1,5.4,3.8,7.6,8.5,7.6c6.6,0,10.8-4,11.8-7.7c1-3.3,0.9-6.4-3.8-10.9l-2.7-2.6
		c-6.3-6.2-7.5-10.9-5.8-16.6c2.3-7.7,10.7-13.5,21-13.5c3.3,0,5.2,0.4,7.1,0.7c1.1,0.2,2,0.4,2.8,0.5c0.6,0.1,0.7,0.4,0.6,0.9
		c-0.3,1.2-1.3,3.1-2.9,8.7c-0.5,1.6-0.9,2.1-1.5,2.1c-0.5,0-0.6-0.5-0.4-1.4c0.2-0.9,0.3-2.9-0.3-4.4c-0.7-1.9-2.4-3.7-7.1-3.7
		c-5.4,0-9.5,3-10.7,7c-0.9,3-0.2,5.8,4.5,9.8l1.8,1.6c7.4,6.3,8.9,11.1,6.9,17.8c-1.3,4.3-4.5,9.1-10.8,12.4
		c-4.4,2.2-8.7,2.8-12.5,2.8C760.3,136,757.2,135.5,754.4,134.1z"/>
	<path class="st1" d="M794.8,134.1c-1-0.5-1.1-1-0.7-2.4c1.3-4.2,2.7-8.3,3.2-9.6c0.4-1.2,0.9-1.8,1.4-1.8c0.7,0,0.6,0.6,0.5,1.2
		c-0.2,0.9-0.6,2.1-0.5,3.3c-0.1,5.4,3.8,7.6,8.5,7.6c6.6,0,10.8-4,11.8-7.7c1-3.3,0.9-6.4-3.8-10.9l-2.7-2.6
		c-6.3-6.2-7.5-10.9-5.8-16.6c2.3-7.7,10.7-13.5,21-13.5c3.3,0,5.2,0.4,7.1,0.7c1.1,0.2,2,0.4,2.8,0.5c0.6,0.1,0.7,0.4,0.6,0.9
		c-0.3,1.2-1.3,3.1-2.9,8.7c-0.5,1.6-0.9,2.1-1.5,2.1c-0.5,0-0.6-0.5-0.4-1.4c0.2-0.9,0.3-2.9-0.3-4.4c-0.7-1.9-2.4-3.7-7.1-3.7
		c-5.4,0-9.5,3-10.7,7c-0.9,3-0.2,5.8,4.5,9.8l1.8,1.6c7.4,6.3,8.9,11.1,6.9,17.8c-1.3,4.3-4.5,9.1-10.8,12.4
		c-4.4,2.2-8.7,2.8-12.5,2.8C800.7,136,797.5,135.5,794.8,134.1z"/>
</g>
<polygon class="st0" points="921.4,134.4 842.5,134.4 881.9,79.2 "/>
<ellipse class="st2" cx="882" cy="114.5" rx="20.9" ry="20"/>
<g>
	<path class="st3" d="M862.8,117.4c0.3,0,0.6,0.1,0.9,0.4c0.2,0.3,0.4,0.6,0.4,0.9c0,0.4-0.1,0.7-0.4,0.9c-0.2,0.3-0.5,0.4-0.9,0.4
		s-0.6-0.1-0.9-0.4c-0.2-0.2-0.4-0.6-0.4-0.9c0-0.4,0.1-0.7,0.4-0.9S862.4,117.4,862.8,117.4z"/>
	<path class="st3" d="M874.8,109v3.6h-0.3c-0.2-1-0.6-1.7-1.2-2.2c-0.6-0.5-1.3-0.8-2-0.8c-0.6,0-1.2,0.2-1.7,0.6
		c-0.5,0.4-0.9,0.9-1.1,1.5c-0.3,0.8-0.5,1.6-0.5,2.6c0,0.9,0.1,1.8,0.3,2.6c0.2,0.8,0.6,1.4,1.1,1.8c0.5,0.4,1.1,0.6,1.9,0.6
		c0.6,0,1.2-0.1,1.7-0.4c0.5-0.3,1.1-0.8,1.7-1.5v0.9c-0.6,0.6-1.2,1.1-1.8,1.3c-0.6,0.3-1.3,0.4-2.1,0.4c-1.1,0-2-0.2-2.9-0.7
		c-0.8-0.4-1.5-1.1-1.9-1.9c-0.5-0.8-0.7-1.7-0.7-2.7c0-1,0.2-2,0.8-2.9c0.5-0.9,1.2-1.6,2-2.1s1.8-0.7,2.7-0.7
		c0.7,0,1.5,0.2,2.2,0.5c0.5,0.2,0.7,0.3,0.9,0.3c0.2,0,0.3-0.1,0.4-0.2c0.1-0.1,0.2-0.3,0.2-0.6H874.8z"/>
	<path class="st3" d="M881.5,109.1c1.6-0.1,2.9,0.4,3.9,1.5c1,1,1.5,2.3,1.5,3.9c0,1.3-0.4,2.5-1.1,3.5c-1,1.3-2.4,2-4.2,2
		c-1.8,0-3.2-0.6-4.2-1.9c-0.8-1-1.2-2.2-1.2-3.6c0-1.6,0.5-2.9,1.5-3.9C878.7,109.6,880,109.1,881.5,109.1z M881.6,109.6
		c-0.9,0-1.6,0.5-2.1,1.5c-0.4,0.8-0.6,2-0.6,3.5c0,1.8,0.3,3.1,0.9,4c0.4,0.6,1,0.9,1.8,0.9c0.5,0,0.9-0.1,1.3-0.4
		c0.4-0.3,0.8-0.9,1-1.6c0.2-0.7,0.4-1.7,0.4-2.8c0-1.4-0.1-2.4-0.4-3.1c-0.2-0.7-0.6-1.2-0.9-1.5S882.1,109.6,881.6,109.6z"/>
	<path class="st3" d="M894.6,116.2l2.7-6.9h4.1v0.3h-0.3c-0.3,0-0.5,0.1-0.7,0.2c-0.1,0.1-0.2,0.2-0.3,0.4c-0.1,0.1-0.1,0.4-0.1,1
		v6.9c0,0.5,0,0.9,0.1,1c0.1,0.1,0.2,0.3,0.3,0.4c0.2,0.1,0.4,0.2,0.7,0.2h0.3v0.3h-5.2v-0.3h0.3c0.3,0,0.5-0.1,0.7-0.2
		c0.1-0.1,0.2-0.2,0.3-0.4c0.1-0.1,0.1-0.4,0.1-1v-7.8l-3.9,9.6h-0.2l-3.9-9.5v7.4c0,0.5,0,0.8,0,1c0.1,0.3,0.2,0.5,0.4,0.6
		s0.6,0.2,1,0.2v0.3h-3.4v-0.3h0.1c0.2,0,0.4,0,0.6-0.1c0.2-0.1,0.3-0.2,0.4-0.3c0.1-0.1,0.2-0.3,0.2-0.6c0-0.1,0-0.3,0-0.8v-6.7
		c0-0.5,0-0.9-0.1-1c-0.1-0.1-0.2-0.2-0.3-0.3c-0.2-0.1-0.4-0.2-0.7-0.2h-0.3v-0.3h4.1L894.6,116.2z"/>
</g>
<g>
	<path class="st4" d="M568.1,167.5l-2.3-2.3c-0.6,0.5-1.1,0.9-1.6,1.1c-0.5,0.3-1,0.5-1.4,0.7c-0.4,0.2-0.8,0.3-1.2,0.3
		c-0.3,0.1-0.6,0.1-0.8,0.1c-0.7,0-1.4,0-2-0.2s-1.2-0.5-1.7-0.9s-0.9-0.9-1.2-1.4c-0.3-0.5-0.5-1.2-0.6-1.8c-0.1-1,0-1.8,0.4-2.6
		c0.4-0.7,0.9-1.4,1.7-2c0.2-0.1,0.4-0.3,0.7-0.5c0.3-0.2,0.5-0.4,0.7-0.5c-0.6-0.7-1-1.4-1.2-2.1c-0.3-0.7-0.3-1.5-0.2-2.3
		c0.1-0.7,0.3-1.3,0.6-1.9c0.3-0.6,0.8-1,1.4-1.4c0.6-0.4,1.2-0.6,1.9-0.7s1.4-0.1,2,0.1s1.3,0.5,1.8,1c0.5,0.5,0.9,1,1.2,1.6
		c0.3,0.6,0.4,1.3,0.4,1.9c0,0.7-0.2,1.3-0.5,2c-0.3,0.5-0.6,1-1.1,1.4s-1,0.8-1.6,1.1l2.1,2.2c0.6-0.8,1-1.5,1.3-2
		c0.3-0.5,0.4-0.8,0.4-0.8l3,1.4c0,0-0.2,0.3-0.5,1c-0.3,0.6-0.8,1.4-1.5,2.3c-0.1,0.1-0.1,0.2-0.2,0.2c0,0.1-0.1,0.1-0.1,0.2
		l2.6,2.8L568.1,167.5z M560.6,159.7c-0.4,0.2-0.8,0.5-1.1,0.8c-0.1,0-0.2,0.1-0.3,0.2c-0.1,0.1-0.2,0.3-0.3,0.4
		c-0.1,0.2-0.2,0.4-0.2,0.6c-0.1,0.3-0.1,0.5,0,0.9c0,0.5,0.3,0.8,0.6,1.2c0.4,0.3,0.8,0.5,1.4,0.5c0.4,0,0.7,0,1.1-0.1
		s0.6-0.2,0.9-0.4c0.3-0.1,0.5-0.3,0.7-0.5s0.4-0.3,0.5-0.5L560.6,159.7z M560.5,153.3c0,0.5,0,1,0.2,1.5c0.2,0.5,0.5,0.9,0.8,1.2
		c0.2-0.1,0.5-0.3,0.7-0.5c0.3-0.2,0.5-0.4,0.6-0.5c0.5-0.5,0.8-1.1,0.8-1.8c0-0.4-0.1-0.8-0.4-1s-0.6-0.4-1-0.4
		c-0.4,0-0.7,0.1-1.1,0.3S560.6,152.7,560.5,153.3z"/>
	<path class="st4" d="M599.6,149.3v17.8h-3.4v-9l-5.6,6.7l-5.6-6.7v9h-3.4v-17.8h0.2l8.8,10.3l8.8-10.3H599.6z"/>
	<path class="st4" d="M607,152.3v4.5h8.6v3.1H607v4.2h9.7v3.1h-13.2v-17.9h13.2v3H607z"/>
	<path class="st4" d="M637.7,149.3v17.8h-3.4v-9l-5.6,6.7l-5.6-6.7v9h-3.4v-17.8h0.2l8.8,10.3l8.8-10.3H637.7z"/>
	<path class="st4" d="M654.7,154.2c0,0.4-0.1,0.7-0.2,1.2c-0.1,0.4-0.3,0.8-0.6,1.1c-0.3,0.3-0.6,0.6-0.9,0.9
		c-0.4,0.2-0.7,0.4-1.2,0.4c0.4,0,0.9,0.2,1.3,0.4c0.4,0.2,0.8,0.5,1.2,0.9c0.3,0.4,0.6,0.8,0.8,1.3c0.2,0.5,0.3,1,0.3,1.6
		c0,1-0.1,1.8-0.4,2.5c-0.3,0.7-0.7,1.2-1.2,1.6c-0.5,0.4-1.1,0.7-1.8,0.9c-0.7,0.2-1.4,0.3-2.2,0.3h-8.2v-17.9h7.9
		c0.7,0,1.4,0.1,2,0.2c0.6,0.1,1.2,0.4,1.7,0.8s0.8,0.9,1.1,1.5C654.5,152.4,654.7,153.2,654.7,154.2z M645,156.5h4.2
		c0.3,0,0.6-0.1,0.9-0.2c0.3-0.1,0.5-0.3,0.6-0.5s0.3-0.5,0.4-0.7c0.1-0.3,0.1-0.5,0.1-0.8c0-0.3,0-0.5-0.1-0.8
		c-0.1-0.2-0.2-0.5-0.4-0.6c-0.2-0.2-0.4-0.3-0.6-0.4c-0.2-0.1-0.5-0.2-0.7-0.2H645V156.5z M649.9,164.1c0.3,0,0.6-0.1,0.8-0.2
		c0.3-0.1,0.5-0.3,0.7-0.6c0.2-0.2,0.4-0.5,0.5-0.8c0.1-0.3,0.2-0.6,0.2-0.9c0-0.6-0.2-1.1-0.7-1.5c-0.4-0.4-1.1-0.6-1.8-0.6H645
		v4.5H649.9z"/>
	<path class="st4" d="M662,152.3v4.5h8.6v3.1H662v4.2h9.7v3.1h-13.2v-17.9h13.2v3H662z"/>
	<path class="st4" d="M678.7,167.1h-3.4v-17.9h8.1c0.9,0,1.7,0.2,2.5,0.5c0.8,0.3,1.4,0.7,1.9,1.3c0.5,0.5,1,1.2,1.3,2
		c0.3,0.8,0.5,1.6,0.5,2.5c0,1.4-0.3,2.5-1,3.5s-1.6,1.7-2.7,2.2c1.5,2,3,4,4.4,6h-4.1c-0.7-0.9-1.4-1.9-2.1-2.8
		c-0.7-0.9-1.4-1.9-2-2.9h-3.4V167.1z M678.7,158.4h4.7c0.3,0,0.6-0.1,1-0.2s0.6-0.3,0.9-0.6c0.3-0.3,0.5-0.6,0.6-0.9
		c0.2-0.4,0.3-0.8,0.3-1.3c0-0.3,0-0.6-0.1-0.9c-0.1-0.4-0.2-0.7-0.4-1s-0.5-0.6-0.8-0.8c-0.4-0.2-0.8-0.3-1.4-0.3h-4.7V158.4z"/>
	<path class="st4" d="M717.5,162.7c-0.4,0.7-0.9,1.4-1.4,1.9c-0.6,0.6-1.2,1.1-1.9,1.5s-1.4,0.7-2.2,1s-1.6,0.3-2.5,0.3
		c-1.3,0-2.5-0.2-3.6-0.7c-1.1-0.5-2.1-1.2-2.9-2c-0.8-0.8-1.5-1.8-2-2.9s-0.7-2.3-0.7-3.6s0.2-2.5,0.7-3.6c0.5-1.1,1.2-2.1,2-2.9
		c0.8-0.8,1.8-1.5,2.9-2c1.1-0.5,2.3-0.7,3.6-0.7c0.9,0,1.7,0.1,2.5,0.3s1.6,0.5,2.2,1s1.3,0.9,1.9,1.5s1,1.2,1.4,1.9l-3.2,1.3
		c-0.3-0.4-0.6-0.8-0.9-1.1c-0.3-0.3-0.7-0.6-1.2-0.9c-0.4-0.3-0.9-0.5-1.3-0.6c-0.5-0.1-1-0.2-1.5-0.2c-0.8,0-1.6,0.2-2.3,0.5
		c-0.7,0.3-1.3,0.8-1.8,1.3c-0.5,0.6-0.9,1.2-1.2,1.9c-0.3,0.7-0.5,1.5-0.5,2.3c0,0.8,0.2,1.6,0.5,2.3c0.3,0.7,0.7,1.4,1.2,1.9
		c0.5,0.6,1.1,1,1.8,1.3c0.7,0.3,1.5,0.5,2.3,0.5c0.5,0,1-0.1,1.5-0.2c0.5-0.1,0.9-0.3,1.3-0.6s0.8-0.6,1.2-0.9
		c0.4-0.3,0.7-0.7,0.9-1.1L717.5,162.7z"/>
	<path class="st4" d="M728.5,167.5c-1.3,0-2.5-0.2-3.6-0.7c-1.1-0.5-2.1-1.2-2.9-2c-0.8-0.8-1.5-1.8-2-2.9s-0.7-2.3-0.7-3.6
		c0-1.3,0.2-2.5,0.7-3.6c0.5-1.1,1.2-2.1,2-3c0.8-0.8,1.8-1.5,2.9-2c1.1-0.5,2.3-0.7,3.6-0.7c1.3,0,2.5,0.2,3.6,0.7s2.1,1.2,2.9,2
		c0.8,0.8,1.5,1.8,2,3c0.5,1.1,0.7,2.3,0.7,3.6c0,1.3-0.2,2.5-0.7,3.6s-1.2,2.1-2,2.9c-0.8,0.8-1.8,1.5-2.9,2
		S729.8,167.5,728.5,167.5z M728.5,152.1c-0.8,0-1.6,0.2-2.3,0.5c-0.7,0.3-1.3,0.8-1.9,1.3c-0.5,0.6-0.9,1.2-1.3,1.9
		s-0.5,1.5-0.5,2.3c0,0.8,0.2,1.6,0.5,2.3c0.3,0.7,0.7,1.4,1.3,1.9c0.5,0.6,1.1,1,1.9,1.3c0.7,0.3,1.5,0.5,2.3,0.5s1.6-0.2,2.3-0.5
		c0.7-0.3,1.3-0.8,1.9-1.3c0.5-0.6,0.9-1.2,1.3-1.9c0.3-0.7,0.5-1.5,0.5-2.3c0-0.8-0.2-1.6-0.5-2.3s-0.7-1.4-1.3-1.9
		c-0.5-0.6-1.1-1-1.9-1.3C730.1,152.3,729.3,152.1,728.5,152.1z"/>
	<path class="st4" d="M758.8,149.3v17.8h-3.4v-9l-5.6,6.7l-5.6-6.7v9h-3.4v-17.8h0.2l8.8,10.3l8.8-10.3H758.8z"/>
	<path class="st4" d="M770.7,149.3c0.9,0,1.7,0.2,2.5,0.5c0.8,0.3,1.4,0.8,2,1.4c0.6,0.6,1,1.2,1.4,2c0.3,0.8,0.5,1.6,0.5,2.5
		c0,0.9-0.1,1.7-0.4,2.4c-0.3,0.7-0.7,1.4-1.3,2c-0.6,0.6-1.3,1-2.2,1.3c-0.9,0.3-1.9,0.5-3,0.5h-4v5.3h-3.4v-17.9H770.7z
		 M770.7,158.7c0.5,0,0.9-0.1,1.3-0.3c0.4-0.2,0.7-0.4,0.9-0.7c0.2-0.3,0.4-0.6,0.5-1c0.1-0.4,0.2-0.8,0.2-1.2
		c0-0.4-0.1-0.8-0.2-1.2c-0.1-0.4-0.4-0.8-0.6-1.1c-0.3-0.3-0.6-0.6-1-0.8c-0.4-0.2-0.9-0.3-1.4-0.3h-4.2v6.4H770.7z"/>
	<path class="st4" d="M774.9,167.1l9.1-17.8h0.3l9.1,17.8h-3.7l-1.4-2.8H780l-1.4,2.8H774.9z M781.7,161.4h5.1l-2.5-5.4L781.7,161.4
		z"/>
	<path class="st4" d="M810.8,167.1L799,156.5v10.6h-3.4v-17.8h0.4l11.7,10.8v-10.8h3.4v17.8H810.8z"/>
	<path class="st4" d="M819,167.1h-3.4v-17.8h3.4V167.1z"/>
	<path class="st4" d="M826.8,152.3v4.5h8.6v3.1h-8.6v4.2h9.7v3.1h-13.2v-17.9h13.2v3H826.8z"/>
	<path class="st4" d="M839.3,164.8l1.9-2.7c0.9,0.6,1.8,1.2,2.8,1.6c1,0.4,1.9,0.7,3,0.7c0.6,0,1-0.1,1.5-0.2
		c0.4-0.1,0.8-0.3,1.1-0.5c0.3-0.2,0.5-0.5,0.7-0.8c0.1-0.3,0.2-0.6,0.2-0.8c0-0.4-0.1-0.7-0.3-0.9s-0.5-0.5-0.9-0.6
		c-0.4-0.2-0.8-0.3-1.3-0.4c-0.5-0.1-1-0.2-1.5-0.3c-0.4-0.1-0.8-0.1-1.2-0.2c-0.5-0.1-1-0.2-1.5-0.4c-0.5-0.2-1-0.4-1.5-0.6
		c-0.5-0.3-0.9-0.6-1.3-1c-0.4-0.4-0.7-0.8-0.9-1.4c-0.2-0.5-0.4-1.2-0.4-1.9c0-1,0.2-1.9,0.6-2.6c0.4-0.7,1-1.2,1.6-1.6
		c0.7-0.4,1.4-0.7,2.2-0.8s1.6-0.2,2.3-0.2s1.4,0,2,0.1s1.1,0.2,1.6,0.4c0.5,0.2,1,0.4,1.5,0.7c0.5,0.3,1,0.6,1.5,1L851,154
		c-0.8-0.6-1.7-1-2.4-1.3c-0.8-0.3-1.6-0.5-2.5-0.5c-0.3,0-0.6,0-1,0.1c-0.4,0.1-0.7,0.2-1.1,0.4c-0.3,0.2-0.6,0.4-0.8,0.6
		c-0.2,0.3-0.3,0.6-0.3,0.9s0.1,0.7,0.4,0.9c0.3,0.2,0.6,0.4,1,0.6c0.4,0.2,0.9,0.3,1.3,0.4c0.5,0.1,1,0.2,1.4,0.3
		c0.3,0.1,0.7,0.2,1.2,0.2c0.5,0.1,0.9,0.2,1.4,0.3s1,0.3,1.5,0.6s0.9,0.6,1.3,0.9c0.4,0.4,0.7,0.9,0.9,1.4s0.4,1.2,0.4,2
		c0,0.9-0.2,1.7-0.5,2.4c-0.3,0.7-0.8,1.2-1.4,1.7c-0.6,0.4-1.3,0.8-2.1,1c-0.8,0.2-1.7,0.3-2.8,0.3c-0.9,0-1.7-0.1-2.5-0.2
		c-0.7-0.1-1.4-0.3-1.9-0.6c-0.6-0.2-1.1-0.5-1.7-0.8C840.4,165.5,839.9,165.2,839.3,164.8z"/>
</g>
</svg>
