<?xml version="1.0" encoding="UTF-8"?><svg id="_Слой_1" xmlns="http://www.w3.org/2000/svg" viewBox="0 0 810.13 226.95"><defs><style>.cls-1,.cls-2{fill:#fff;}.cls-3{fill:#b2b2b2;}.cls-4{fill:#f6f6f6;}.cls-4,.cls-2,.cls-5,.cls-6,.cls-7{stroke:#1d1d1b;stroke-linecap:round;stroke-width:2px;}.cls-4,.cls-5,.cls-7{stroke-miterlimit:10;}.cls-2,.cls-6{stroke-linejoin:round;}.cls-5{fill:#dedfdf;}.cls-6{fill:none;}.cls-7{fill:#ececec;}.cls-8{fill:#c6c6c6;}</style></defs><g><path class="cls-4" d="M493.21,227.47h-176.29V48.52c13.94-8.78,44.91-25.54,86.99-25.84,43.41-.31,75.35,17.05,89.3,25.84V227.47Z"/><path class="cls-7" d="M316.92,227.47h-112.5V8.61c37.5,13.3,75,26.61,112.5,39.91V227.47Z"/><path class="cls-7" d="M605.71,227.47h-112.5V48.52c37.5-13.3,75-26.61,112.5-39.91V227.47Z"/><rect class="cls-4" x="605.71" y="8.61" width="197.17" height="218.86"/><rect class="cls-4" x="7.25" y="8.61" width="197.17" height="218.86"/><g><path class="cls-5" d="M300.59,67.19c-25.75-7.94-51.5-15.88-77.25-23.82V227.47h77.25V67.19Z"/><line class="cls-6" x1="249.74" y1="52.24" x2="249.74" y2="227.47"/><line class="cls-6" x1="277.42" y1="60.04" x2="277.42" y2="227.47"/><line class="cls-6" x1="300.59" y1="114.39" x2="223.35" y2="97.66"/><line class="cls-6" x1="300.59" y1="160.95" x2="223.35" y2="155.77"/></g><g><rect class="cls-2" x="368.44" y="75.19" width="73.93" height="152.28"/><path class="cls-5" d="M442.37,169.51c-24.64,0-49.29,0-73.93,0l.41-16.55h73.52v16.56Z"/><line class="cls-2" x1="404.72" y1="75.19" x2="405.4" y2="227.47"/><line class="cls-2" x1="368.44" y1="100.94" x2="442.37" y2="100.94"/><line class="cls-2" x1="368.44" y1="127.47" x2="442.37" y2="127.47"/><path class="cls-7" d="M469.04,168.5c-3.33,2.8-6.65,5.59-9.96,8.37-3.52-3.36-23.4-21.74-54.44-21.12-29.1,.57-47.52,17.42-51.4,21.12-4.05-2.78-8.1-5.57-12.15-8.37,4.71-4.48,26.97-24.83,62.14-25.52,37.52-.74,61.55,21.47,65.81,25.52Z"/></g><g><path class="cls-5" d="M510.84,67.19c25.75-7.94,51.5-15.88,77.25-23.82,0,61.37,0,122.73,0,184.1h-77.25V67.19Z"/><line class="cls-6" x1="561.69" y1="52.24" x2="561.69" y2="227.47"/><line class="cls-6" x1="534.01" y1="60.04" x2="534.01" y2="227.47"/><line class="cls-6" x1="510.84" y1="114.39" x2="588.08" y2="97.66"/><line class="cls-6" x1="510.84" y1="160.95" x2="588.08" y2="155.77"/></g><g><rect class="cls-2" x="22.37" y="38.72" width="42.48" height="63.08"/><rect class="cls-2" x="84.33" y="38.72" width="42.48" height="63.08"/><rect class="cls-2" x="146.3" y="38.72" width="42.48" height="63.08"/><line class="cls-2" x1="22.37" y1="58.03" x2="64.85" y2="58.03"/><line class="cls-2" x1="43.61" y1="38.72" x2="43.61" y2="101.8"/><line class="cls-2" x1="146.3" y1="57.71" x2="188.78" y2="57.71"/><line class="cls-2" x1="167.54" y1="38.72" x2="167.54" y2="101.48"/><line class="cls-2" x1="84.33" y1="57.71" x2="126.82" y2="57.71"/><line class="cls-2" x1="105.57" y1="38.72" x2="105.57" y2="101.48"/><rect class="cls-2" x="21.79" y="133.15" width="42.48" height="63.08"/><rect class="cls-2" x="83.75" y="133.15" width="42.48" height="63.08"/><rect class="cls-2" x="145.72" y="133.15" width="42.48" height="63.08"/><line class="cls-2" x1="21.79" y1="152.46" x2="64.27" y2="152.46"/><line class="cls-2" x1="43.03" y1="133.15" x2="43.03" y2="196.23"/><line class="cls-2" x1="145.72" y1="152.14" x2="188.2" y2="152.14"/><line class="cls-2" x1="166.96" y1="133.15" x2="166.96" y2="195.91"/><line class="cls-2" x1="83.75" y1="152.46" x2="126.24" y2="152.46"/><line class="cls-2" x1="105" y1="133.15" x2="105" y2="196.23"/></g><g><rect class="cls-2" x="620.51" y="38.94" width="42.48" height="63.08"/><rect class="cls-2" x="682.47" y="38.94" width="42.48" height="63.08"/><rect class="cls-2" x="744.44" y="38.94" width="42.48" height="63.08"/><line class="cls-2" x1="620.51" y1="58.26" x2="663" y2="58.26"/><line class="cls-2" x1="641.75" y1="38.94" x2="641.75" y2="102.03"/><line class="cls-2" x1="744.44" y1="57.93" x2="786.92" y2="57.93"/><line class="cls-2" x1="765.68" y1="38.94" x2="765.68" y2="101.71"/><line class="cls-2" x1="682.47" y1="57.93" x2="724.38" y2="57.93"/><line class="cls-2" x1="703.14" y1="39.91" x2="703.14" y2="101.71"/><rect class="cls-2" x="619.93" y="133.37" width="42.48" height="63.08"/><rect class="cls-2" x="681.9" y="133.37" width="42.48" height="63.08"/><rect class="cls-2" x="743.86" y="133.37" width="42.48" height="63.08"/><line class="cls-2" x1="619.93" y1="152.68" x2="662.42" y2="152.68"/><line class="cls-2" x1="641.17" y1="133.37" x2="641.17" y2="196.46"/><line class="cls-2" x1="743.86" y1="152.36" x2="786.34" y2="152.36"/><line class="cls-2" x1="765.1" y1="133.37" x2="765.1" y2="196.13"/><line class="cls-2" x1="682.47" y1="152.36" x2="723.8" y2="152.36"/><line class="cls-2" x1="702.56" y1="133.37" x2="702.56" y2="196.13"/></g><path class="cls-8" d="M387.95,58.2c0-.45,0-.89,0-1.33-.02-1.25-.05-2.5-.08-3.75,0-.22-.02-.44-.07-.66-.06-.25-.22-.39-.47-.42-.14-.02-.28-.02-.43-.03-.08,0-.2,.03-.19-.1,0-.12,.12-.1,.2-.1,.31,0,.62,0,.94,.02,.54,.04,1.08-.03,1.62-.02,.1,0,.28-.05,.29,.1,0,.15-.17,.09-.27,.09-.45,.03-.62,.19-.66,.65-.06,.66-.04,1.32-.05,1.98-.04,1.86-.07,3.72-.1,5.58,0,.11,0,.24-.11,.29-.12,.05-.21-.04-.29-.11-.6-.54-1.17-1.13-1.74-1.7-.79-.79-1.58-1.58-2.36-2.38-.71-.73-1.4-1.48-2.12-2.23-.03,.27,0,.53,0,.79,.02,.8,.03,1.61,.07,2.41,.03,.75-.01,1.5,.1,2.25,.08,.51,.24,.64,.75,.66,.06,0,.13,0,.19,0,.07,0,.15,0,.16,.1,0,.11-.09,.11-.16,.12-.08,0-.16,0-.23,0-.81-.03-1.62-.01-2.43,0-.99,.01-1.99,.03-2.98-.02-.03,0-.06,0-.1,0-.05,0-.09-.01-.1-.07-.01-.06,.03-.1,.08-.11,.22-.03,.21-.16,.15-.32-.28-.74-.57-1.49-.84-2.23-.05-.13-.11-.19-.26-.19-.8,0-1.6,0-2.4,0-.06,0-.08,.01-.1,.06-.25,.69-.56,1.36-.76,2.08,0,0,0,.01,0,.02-.08,.45,.03,.58,.49,.59,.09,0,.26-.07,.26,.11,0,.16-.17,.11-.27,.11-.23,0-.47-.03-.7-.02-.67,.02-1.33,.03-2,.04-.74,.02-1.31-.27-1.79-.82-.59-.68-1.11-1.41-1.59-2.16-.27-.42-.56-.68-1.08-.58-.12,.02-.25,0-.37,0-.14-.01-.17,.05-.17,.18,.01,.8-.02,1.6,.04,2.39,0,.09,.02,.18,.03,.27,.06,.34,.17,.44,.51,.47,.15,.01,.3,.03,.45,.04,.07,0,.14,.01,.14,.1,0,.09-.07,.11-.13,.11-.29,.04-.57,0-.86,0-.71-.03-1.43-.01-2.14,.01-.09,0-.18,0-.27-.01-.06-.01-.12-.03-.11-.11,0-.08,.06-.09,.12-.1,.1,0,.2,0,.29-.02,.3-.04,.39-.13,.45-.43,.06-.3,.08-.6,.08-.91,0-1.02,0-2.04,.01-3.06,.02-1.01,.04-2.02,.02-3.03-.01-.56-.15-.71-.7-.76-.08,0-.17,0-.25-.02-.07,0-.16,.02-.16-.09,0-.11,.1-.11,.17-.11,.25,0,.51-.01,.76,0,.76,.05,1.52,.01,2.28,0,.47-.01,.95,.01,1.41,.11,1.5,.32,1.94,1.65,1.52,2.83-.22,.62-.66,1.08-1.16,1.49-.16,.13-.16,.2-.03,.36,.76,.93,1.47,1.9,2.29,2.78,.25,.27,.53,.49,.86,.66,.13,.07,.23,.05,.33-.04,.2-.17,.32-.39,.42-.62,.41-1.02,.82-2.04,1.23-3.06,.58-1.44,1.15-2.88,1.73-4.32,.04-.1,.08-.19,.14-.28,.12-.19,.26-.2,.36,0,.15,.3,.27,.61,.4,.93,.84,2.09,1.69,4.19,2.53,6.28,.12,.29,.26,.56,.44,.82,.17,.24,.39,.39,.69,.42,.29,.03,.57,.04,.85,0,.28-.04,.38-.13,.44-.41,.1-.49,.07-.99,.08-1.49,.06-2.11,.1-4.21,.12-6.32,0-.02,0-.04,0-.06,.03-.09,0-.23,.12-.27,.13-.04,.2,.06,.28,.14,1.21,1.32,2.46,2.58,3.72,3.85,.82,.83,1.62,1.68,2.43,2.52,.02,.02,.04,.04,.07,.07Zm-22-3.92c0,.56,0,1.13,0,1.69,0,.14,.05,.21,.19,.25,.25,.06,.5,.07,.75,.09,.81,.05,1.15-.39,1.35-.96,.14-.4,.16-.82,.13-1.25-.11-1.21-.98-1.9-2.18-1.74-.17,.02-.25,.08-.24,.27,.01,.55,0,1.1,0,1.65Zm10.44,2.56c-.14-.53-1-2.83-1.11-2.94-.16,.42-.32,.84-.47,1.25-.19,.51-.38,1.02-.56,1.52-.02,.06-.1,.16,.05,.16,.69,0,1.39,0,2.1,0Z"/><path class="cls-3" d="M444.67,60.41c-.6-.03-1.43-.05-2.24,.04-.64,.07-1.26,.04-1.9,.05-.69,.01-1.18-.3-1.52-.9-.34-.61-.58-1.26-.85-1.89-.1-.22-.16-.48-.31-.64-.17-.18-.45-.07-.69-.09-.46-.05-.46-.04-.6,.41-.21,.72-.44,1.44-.6,2.17-.02,.08-.03,.15-.04,.23-.03,.24,.05,.38,.29,.42,.18,.03,.36,.04,.54,.05,.06,0,.14,0,.15,.09,0,.08-.06,.13-.13,.15-.04,.01-.09,.01-.14,.01-.54,0-1.08-.02-1.62-.02-.54,0-1.08,.02-1.62,.02-.06,0-.12,0-.18,0-.04,0-.08-.02-.09-.06-.02-.05,.01-.09,.05-.11,.08-.06,.17-.07,.26-.06,.45,.04,.69-.19,.84-.59,.46-1.2,.8-2.43,1.13-3.67,.27-1.03,.61-2.04,.88-3.08,0-.03,.02-.05,.02-.07,.12-.53,.01-.68-.54-.72-.08,0-.16,0-.23-.01-.06,0-.13-.01-.13-.09,0-.08,.05-.12,.12-.13,.07-.01,.14-.01,.21-.01,.66,0,1.31,.03,1.97,.02,.61,0,1.22-.03,1.83-.01,.34,.01,.67,.06,1,.15,.85,.25,1.24,.95,1.02,1.81-.21,.82-.73,1.42-1.37,1.93-.27,.21-.55,.41-.85,.59-.07,.04-.11,.07-.06,.16,.51,1,.98,2.01,1.61,2.95,.23,.35,.52,.64,.95,.72,.31,.06,.63,.01,.93-.08,.22-.07,.3-.3,.38-.49,.29-.7,.49-1.43,.71-2.15,.45-1.46,.92-2.91,1.33-4.38,.05-.17,.09-.34,.11-.51,.03-.23-.05-.33-.27-.41-.17-.06-.35-.04-.52-.05-.06,0-.14,0-.15-.08,0-.08,.06-.13,.13-.14,.19,0,.39-.01,.58,0,1.41,.04,2.82,.03,4.23,0,.24,0,.48-.03,.71-.09,.14-.04,.21,.01,.14,.14-.26,.5-.43,1.02-.63,1.54-.03,.08-.1,.16-.19,.12-.11-.04-.05-.14-.03-.2,.11-.59,.02-.71-.58-.77-.54-.06-1.09-.03-1.64-.05-.11,0-.16,.05-.19,.15-.26,.89-.52,1.78-.78,2.66-.03,.1-.05,.17,.11,.17,.64-.01,1.29,.02,1.93-.04,.22-.02,.44-.07,.6-.24,.05-.05,.12-.11,.19-.06,.07,.05,.01,.13-.01,.2-.23,.52-.42,1.06-.61,1.59-.01,.03-.02,.06-.04,.09-.03,.06-.08,.11-.16,.09-.07-.02-.06-.09-.06-.15,.01-.1,.03-.2,.05-.31,.04-.27-.05-.4-.31-.47-.36-.09-.72-.06-1.09-.07-.23,0-.46,0-.68,0-.11,0-.17,.03-.2,.14-.26,.9-.53,1.8-.8,2.7-.02,.07-.03,.14-.03,.21-.03,.29,.07,.43,.34,.5,.39,.09,.79,.08,1.18,.07,.15,0,.3-.02,.45-.04,.51-.06,.85-.35,1.08-.79,.05-.1,.1-.19,.17-.28,.03-.05,.09-.09,.15-.07,.07,.03,.04,.1,.04,.15,0,.03,0,.05-.02,.08-.15,.46-.34,.91-.57,1.34-.11,.21-.27,.29-.51,.29-.81,0-1.62-.03-2.66-.05Zm-5.75-7.9c-.22-.05-.43-.04-.65,0-.21-.01-.33,.08-.39,.3-.07,.28-.16,.55-.24,.82-.24,.78-.48,1.57-.71,2.35-.06,.21-.04,.26,.18,.32,.13,.03,.27,.06,.4,.07,.43,.03,.86,.03,1.25-.23,.55-.36,.84-.88,1.06-1.47,.13-.37,.19-.75,.16-1.14-.04-.46-.34-.92-1.05-1.02Z"/><path class="cls-3" d="M411.15,60.48c-.96-.07-2.02,.03-3.07,.02-.11,0-.27,.05-.28-.12,0-.16,.16-.16,.28-.18,.08-.01,.17-.02,.25-.01,.4,.01,.66-.18,.82-.53,.34-.72,.56-1.47,.79-2.23,.6-2.05,1.19-4.1,1.79-6.15,.07-.23,.13-.46,.14-.7,.01-.24-.07-.35-.31-.43-.21-.07-.44-.05-.66-.08-.08-.01-.2,.02-.21-.11,0-.15,.12-.16,.22-.16,.39,0,.78,0,1.17,.02,1.16,.04,2.31,.02,3.47,.02,.65,0,1.3,.03,1.95-.08,.1-.02,.19-.04,.28-.07,.05-.01,.1-.03,.15,.01,.04,.05,.03,.1,0,.14-.34,.59-.51,1.24-.76,1.87-.02,.06-.05,.12-.11,.16-.05,.04-.11,.08-.18,.04-.07-.04-.06-.1-.05-.17,.04-.18,.09-.36,.07-.56-.02-.22-.14-.34-.34-.4-.35-.12-.72-.11-1.08-.13-.45-.02-.9-.01-1.34-.03-.17,0-.25,.05-.29,.21-.33,1.12-.66,2.23-.99,3.35-.02,.08-.07,.17,.08,.16,.83-.02,1.66,.03,2.49-.04,.26-.02,.51-.08,.71-.28,.03-.03,.07-.05,.11-.07,.05-.02,.1-.06,.14-.01,.05,.04,.03,.1,0,.14-.32,.7-.54,1.43-.79,2.15-.02,.06-.05,.1-.09,.14-.04,.04-.09,.05-.14,.03-.05-.02-.05-.07-.05-.12-.01-.14,.04-.27,.05-.4,.05-.39-.09-.58-.49-.65-.34-.06-.67-.04-1.01-.05-.37-.02-.74,0-1.11-.02-.13,0-.2,.04-.23,.16-.33,1.13-.7,2.25-.99,3.39,0,.04-.02,.08-.03,.11-.09,.5,.05,.71,.55,.78,.7,.11,1.41,.1,2.11-.03,.47-.09,.8-.38,1.04-.78,.1-.16,.18-.33,.28-.49,.05-.07,.12-.14,.21-.09,.09,.05,.05,.14,.03,.21-.2,.6-.44,1.19-.73,1.75-.12,.24-.32,.35-.6,.36-1.06,.01-2.12-.04-3.28-.06Z"/><path class="cls-8" d="M338.88,54.11c.02,.93,.04,1.85,.07,2.78,.04,.87,0,1.74,.1,2.6,0,.06,.02,.11,.03,.17,.05,.31,.23,.48,.55,.51,.13,0,.26,.02,.39,.02,.07,0,.14,.01,.14,.1,0,.1-.08,.12-.15,.12-.17,0-.34,.01-.51,0-.74-.05-1.48,0-2.22,0-.1,0-.26,.04-.27-.11,0-.17,.16-.11,.26-.12,.58-.03,.68-.1,.73-.68,.07-.79,.06-1.58,.08-2.37,.03-1.72,.06-3.45,.09-5.17,0-.12-.03-.29,.11-.35,.16-.06,.24,.09,.33,.19,.84,.92,1.7,1.82,2.58,2.7,1.17,1.17,2.32,2.36,3.46,3.56,.04,.04,.07,.11,.12,.18,0-.79,0-1.51,0-2.23,0-.69-.03-1.37-.05-2.06-.02-.43,0-.86-.05-1.28-.06-.47-.2-.61-.67-.65-.1,0-.19,0-.29-.01-.08,0-.18,.01-.18-.1,0-.11,.11-.1,.18-.1,.23,0,.46-.01,.68,0,.63,.05,1.26,0,1.89,0,.11,0,.29-.05,.29,.1,0,.15-.17,.09-.27,.1-.46,.03-.65,.2-.67,.68-.03,.67-.04,1.33-.05,2-.04,1.85-.07,3.69-.11,5.54,0,.1,0,.22-.11,.27-.11,.05-.2-.03-.28-.1-.23-.21-.46-.42-.68-.64-1.84-1.85-3.7-3.68-5.46-5.61-.02-.03-.04-.06-.06-.09-.01,.01-.03,.02-.04,.04Z"/><path class="cls-8" d="M477.08,60.38h-12.86c2.15-3.01,4.28-5.99,6.42-8.98,2.15,2.99,4.28,5.97,6.44,8.98Zm-6.51-.2c1.73,0,3.14-1.4,3.14-3.12,0-1.74-1.4-3.15-3.13-3.15-1.74,0-3.15,1.4-3.15,3.13,0,1.74,1.4,3.14,3.14,3.14Z"/><path class="cls-3" d="M422.14,55.07c.78-.81,1.55-1.59,2.31-2.39,.11-.11,.25-.26,.19-.42-.06-.17-.27-.11-.42-.14-.08-.02-.2,0-.2-.11,0-.12,.12-.13,.22-.13,.27,0,.55,0,.82,.01,.55,.03,1.09-.03,1.64-.01,.08,0,.19-.04,.2,.09,0,.11-.09,.15-.19,.15-.54,0-.94,.28-1.31,.64-.96,.94-1.93,1.87-2.9,2.8-.1,.1-.12,.18-.07,.32,.4,1.18,.78,2.36,1.23,3.52,.07,.18,.14,.37,.27,.52,.19,.22,.45,.29,.73,.31,.08,0,.21-.02,.22,.1,0,.13-.12,.14-.22,.14-.94,.01-1.88,0-2.83-.04-.07,0-.19,.04-.21-.09-.01-.1,.09-.13,.17-.16,.14-.05,.19-.14,.15-.27-.28-.99-.59-1.98-.88-2.86-.36,.32-.75,.64-1.12,1-.49,.49-.96,1-1.44,1.5-.1,.11-.21,.22-.27,.35-.07,.16-.02,.25,.15,.28,.08,.02,.17,.02,.25,.03,.06,0,.12,.03,.12,.1,0,.07-.04,.12-.11,.14-.07,.01-.14,.02-.21,.02-.83-.03-1.66-.04-2.49,0-.04,0-.08,0-.12,0-.05,0-.11,0-.12-.08,0-.07,.04-.11,.1-.13,.05-.02,.1-.03,.15-.03,.56,0,.99-.27,1.38-.64,.84-.8,1.67-1.61,2.51-2.42,.29-.27,.57-.55,.86-.82,.07-.07,.09-.12,.05-.22-.36-1.07-.72-2.14-1.07-3.2-.17-.5-.51-.76-1.03-.81-.08,0-.19,.01-.2-.11,0-.13,.11-.15,.21-.15,.32,0,.65,0,.97,.02,.7,.02,1.4,0,2.1-.02,.1,0,.19,0,.29,.01,.05,0,.11,.02,.11,.09,0,.07-.04,.11-.11,.12-.12,.02-.23,.03-.35,.05-.26,.04-.33,.13-.29,.38,.1,.59,.31,1.15,.49,1.72,.08,.27,.17,.54,.27,.85Z"/><path class="cls-8" d="M360.52,55.08c0-.77,0-1.54,0-2.31,0-.52-.18-.7-.7-.72-.06,0-.13,0-.19,0-.08,0-.19,.01-.19-.11,0-.11,.11-.09,.18-.1,.24,0,.48,0,.72,.01,.62,.02,1.23,0,1.85-.01,.05,0,.09,0,.14,0,.08,.01,.2-.02,.2,.1,0,.12-.12,.1-.2,.1-.62,.03-.75,.16-.75,.79,0,1.22,0,2.44-.02,3.66,0,.62-.05,1.23-.21,1.83-.37,1.41-1.58,2.11-2.69,2.21-.58,.05-1.16,.05-1.72-.09-1.23-.29-1.96-1.07-2.22-2.3-.09-.41-.12-.83-.12-1.25,0-1.29,0-2.58,0-3.87,0-.16-.01-.31-.03-.46-.03-.27-.15-.4-.42-.47-.15-.04-.3-.03-.44-.04-.09,0-.23,.03-.23-.11,0-.14,.15-.1,.23-.1,.36,0,.71,0,1.07,.02,.66,.02,1.31-.01,1.97-.02,.09,0,.25-.04,.26,.1,0,.14-.15,.1-.24,.11-.52,.02-.67,.19-.67,.74,0,1.23,.02,2.45-.02,3.68-.01,.37-.06,.74-.02,1.12,.05,.41,.11,.81,.29,1.18,.4,.83,1.26,1.29,2.2,1.19,1.02-.12,1.67-.7,1.89-1.65,.13-.57,.12-1.16,.13-1.74,.01-.49,0-.97,0-1.46h-.02Z"/><path class="cls-3" d="M430.02,51.89c.63,0,1.26-.02,1.89,0,.32,.01,.63,.06,.94,.15,.8,.25,1.18,.91,1.01,1.72-.26,1.2-1.03,1.99-2.1,2.52-.58,.29-1.21,.43-1.86,.4-.05,0-.11,0-.15-.02-.05-.02-.1-.05-.09-.11,0-.06,.04-.09,.1-.11,.04-.01,.09-.02,.13-.02,.82-.01,1.4-.46,1.86-1.09,.36-.49,.52-1.06,.54-1.66,.02-.7-.42-1.18-1.12-1.25-.72-.07-.77-.05-.97,.64-.57,1.94-1.17,3.86-1.71,5.81-.08,.29-.15,.58-.19,.87-.03,.26,.06,.38,.31,.42,.18,.03,.36,.03,.54,.05,.07,0,.16-.01,.16,.09,0,.1-.07,.13-.15,.14-.07,.01-.14,.02-.21,.02-1.08-.02-2.16-.04-3.24,0-.11,0-.28,.05-.29-.09,0-.16,.18-.12,.29-.15,.05-.01,.1-.01,.16,0,.29,.02,.48-.13,.6-.38,.24-.5,.4-1.02,.56-1.55,.53-1.74,1.08-3.47,1.57-5.22,.05-.17,.09-.35,.1-.53,0-.2-.09-.32-.28-.37-.16-.04-.33-.05-.5-.06-.07,0-.16,0-.16-.09,0-.1,.08-.13,.16-.13,.35,0,.7,0,1.05,0,.35,0,.7,0,1.05,0Z"/><path class="cls-8" d="M395.95,51.66c.83-.02,1.66,.09,2.47,.25,.4,.08,.39,.07,.37,.48-.02,.49-.03,.97-.05,1.46,0,.09-.02,.18-.03,.27-.01,.06-.05,.09-.11,.09-.07,0-.09-.04-.1-.1,0-.06-.01-.12-.02-.17-.05-.58-.31-1.04-.84-1.31-.7-.36-1.46-.44-2.23-.4-1.72,.08-2.52,1.26-2.74,2.52-.17,.98-.15,1.95,.27,2.88,.56,1.23,1.5,2,2.84,2.22,.52,.09,1.05,.05,1.57-.08,.69-.17,1.09-.63,1.28-1.3,0-.02,0-.05,.01-.08,.02-.07,.05-.12,.13-.11,.09,.01,.1,.08,.09,.14-.01,.34-.08,.68-.13,1.02-.02,.16-.07,.32-.1,.47-.03,.21-.16,.32-.36,.39-.49,.16-1,.2-1.52,.23-.97,.04-1.93-.03-2.86-.34-1.82-.61-2.95-2.18-2.95-4.09,0-1.55,.58-2.8,1.87-3.68,.73-.49,1.56-.69,2.42-.76,.23-.02,.47,0,.7,0Z"/><path class="cls-8" d="M333.5,60.41c-.63,0-1.26,0-1.89,0-.08,0-.16,0-.23-.02-.07-.02-.11-.07-.1-.14,0-.07,.07-.09,.13-.1,.17-.01,.34-.02,.5-.04,.26-.03,.37-.12,.43-.37,.11-.43,.11-.87,.12-1.31,.01-.77,0-1.54,0-2.32,0-1.34,.02-2.67,.02-4.01,0-.46,.01-.92-.06-1.38-.07-.4-.24-.56-.65-.59-.12,0-.23,0-.35-.02-.09,0-.18-.03-.17-.14,0-.1,.1-.11,.18-.11,.37,0,.74-.01,1.11,.01,.85,.06,1.7-.03,2.55-.02,.06,0,.12,0,.18,0,.07,0,.13,.03,.14,.11,0,.09-.06,.13-.14,.14-.14,.01-.27,.02-.41,.04-.42,.07-.56,.23-.61,.65-.04,.32-.04,.65-.04,.97,0,2.09,0,4.18,0,6.27,0,.51-.02,1.03,.07,1.53,.07,.36,.23,.5,.59,.53,.21,.02,.41,.03,.62,.04,.1,0,.24-.02,.24,.12,0,.15-.15,.14-.25,.14-.31,0-.61,0-.92-.01-.36,0-.71,0-1.07,0h0Z"/><path class="cls-8" d="M402.98,60.43c-.77-.03-1.55-.02-2.32,.02-.07,0-.14,0-.21-.02-.06,0-.12-.04-.12-.11,0-.06,.06-.1,.13-.1,.06,0,.13,0,.19,0,.39-.03,.5-.13,.56-.51,.06-.36,.06-.72,.07-1.08,.01-1.1,.01-2.21,0-3.31,0-.87-.02-1.75-.04-2.62,0-.45-.17-.61-.62-.65-.12-.01-.25-.02-.37-.03-.06,0-.12-.02-.13-.09,0-.07,.06-.1,.12-.1,.13,0,.26-.01,.39,0,1.38,.05,2.77,.04,4.15,.01,.21,0,.43-.03,.63-.09,.14-.04,.2,0,.17,.15-.08,.45-.11,.9-.13,1.35,0,.08-.02,.19-.13,.18-.11,0-.09-.11-.1-.18-.04-.56-.19-.71-.75-.77-.53-.06-1.06-.03-1.59-.07-.11,0-.16,.04-.16,.16,0,.93,0,1.87,0,2.8,0,.08,0,.15,.12,.15,.64-.01,1.27,.02,1.91-.03,.19-.01,.36-.06,.48-.22,.04-.05,.09-.08,.15-.06,.08,.03,.05,.1,.04,.15-.08,.53-.11,1.07-.14,1.61,0,.06-.01,.13-.08,.14-.09,.01-.1-.06-.11-.13-.01-.08-.02-.15-.03-.23-.05-.34-.19-.51-.53-.55-.56-.08-1.13-.04-1.69-.05-.09,0-.11,.05-.11,.13,.02,.97-.05,1.95,.03,2.92,.03,.37,.19,.54,.55,.6,.53,.1,1.08,.1,1.61,0,.45-.08,.65-.32,.73-.81,.02-.1-.02-.28,.16-.25,.15,.02,.09,.18,.09,.28-.02,.37-.06,.74-.13,1.1-.06,.31-.13,.39-.45,.39-.69,0-1.38-.03-2.07-.04-.1,0-.19,0-.29,0Z"/><path class="cls-3" d="M451.48,60.62c-.5,.02-1.01-.03-1.49-.24-.24-.11-.28-.17-.2-.42,.18-.55,.37-1.1,.55-1.66,.01-.04,.04-.08,.07-.12,.04-.07,.1-.12,.17-.09,.09,.03,.07,.12,.05,.18-.05,.2-.09,.4-.08,.61,.03,.6,.34,.99,.93,1.11,.74,.15,1.42,0,1.98-.55,.45-.44,.72-1.28,.15-1.99-.3-.38-.68-.68-1.01-1.03-.36-.39-.69-.8-.81-1.33-.16-.71,.02-1.37,.44-1.95,.58-.79,1.39-1.2,2.34-1.36,.77-.13,1.53,0,2.28,.13,.12,.02,.15,.1,.11,.2-.2,.51-.35,1.03-.52,1.54-.01,.04-.03,.07-.06,.1-.04,.05-.09,.08-.15,.06-.08-.02-.06-.09-.06-.15,0-.08,.02-.15,.03-.23,.06-.63-.23-1.02-.86-1.12-.69-.11-1.31,.04-1.79,.57-.48,.54-.47,1.14,0,1.68,.3,.35,.68,.62,1.01,.94,.38,.36,.74,.76,.88,1.28,.23,.82,0,1.56-.47,2.22-.63,.92-1.55,1.39-2.64,1.56-.28,.04-.56,.05-.85,.05Z"/><path class="cls-3" d="M458.07,60.62c-.52,.01-1.02-.03-1.5-.24-.25-.11-.29-.18-.21-.44,.17-.54,.35-1.07,.53-1.6,.01-.03,.02-.06,.04-.09,.05-.08,.1-.2,.21-.16,.13,.04,.06,.17,.04,.25-.05,.2-.08,.41-.06,.62,.04,.48,.27,.81,.73,.98,.73,.27,1.7,.03,2.22-.55,.53-.58,.56-1.35,.08-1.97-.17-.22-.38-.41-.58-.6-.26-.25-.5-.5-.73-.78-.95-1.17-.51-2.46,.21-3.21,.66-.69,1.49-1.01,2.42-1.1,.65-.06,1.29,.06,1.93,.17,.13,.02,.17,.09,.12,.2-.19,.5-.35,1.01-.51,1.53,0,.03-.03,.06-.04,.09-.04,.07-.1,.11-.18,.09-.09-.03-.06-.11-.05-.17,.04-.21,.05-.41,0-.62-.07-.29-.22-.51-.5-.63-.69-.3-1.71-.05-2.18,.54-.4,.5-.4,1.06,0,1.57,.23,.29,.51,.51,.79,.75,.19,.17,.38,.35,.56,.54,.79,.84,.89,1.72,.38,2.78-.53,1.11-1.48,1.71-2.67,1.96-.35,.07-.71,.09-1.05,.08Z"/><path class="cls-8" d="M347.84,59.15c0-.27,0-.53,0-.8,0-.04,0-.09,.02-.13,.02-.07,.03-.15,.12-.15,.09,0,.1,.09,.1,.16,0,.22,.05,.43,.11,.63,.21,.73,.84,1.16,1.66,1.13,.63-.02,1.15-.26,1.39-.88,.19-.47,.08-.93-.18-1.35-.2-.32-.47-.57-.76-.8-.48-.39-.99-.74-1.41-1.19-.49-.52-.83-1.1-.87-1.84-.05-.89,.39-1.63,1.21-2.01,.67-.31,1.37-.33,2.08-.25,.28,.03,.56,.1,.84,.15,.13,.02,.18,.09,.17,.23-.04,.45-.05,.91-.05,1.36,0,.04,0,.08-.01,.12-.02,.07-.03,.15-.13,.14-.1,0-.11-.09-.11-.16-.01-.32-.13-.6-.34-.85-.49-.58-1.56-.68-2.14-.2-.43,.35-.52,1-.21,1.5,.23,.37,.55,.63,.89,.89,.5,.39,1.01,.75,1.45,1.2,.75,.77,1.07,1.68,.78,2.74-.25,.91-.93,1.42-1.81,1.64-.87,.21-1.74,.15-2.58-.16-.2-.07-.28-.2-.27-.41,.01-.24,0-.48,0-.72,.02,0,.03,0,.05,0Z"/><path class="cls-3" d="M433.33,64.18c.42,.2,.56,.49,.47,.94-.07,.35-.36,.58-.77,.59-.45,.01-.9,0-1.34,0-.11,0-.12-.04-.12-.14,0-.88,0-1.76,0-2.64,0-.07-.02-.14,.1-.14,.47,.02,.94-.03,1.4,.02,.35,.04,.53,.2,.61,.48,.09,.37,.01,.61-.27,.82-.02,.02-.04,.03-.07,.05Zm-.73,.98h0c.1,.01,.2,0,.29,.01,.2,0,.36-.14,.38-.35,.02-.17-.11-.33-.31-.35-.19-.02-.39,0-.58-.02-.21-.02-.27,.06-.25,.25,.02,.15-.07,.36,.04,.44,.09,.07,.28,.02,.43,.02Zm-.08-1.2c.08,0,.17,0,.25,0,.23,0,.35-.13,.35-.35,0-.19-.11-.31-.33-.32-.18,0-.36,0-.55,0-.1,0-.13,.04-.12,.13,0,.05,0,.1,0,.16q0,.4,.39,.4Z"/><path class="cls-3" d="M447.74,62.79c.34,.4,.68,.79,1.02,1.19,.11,.12,.22,.24,.31,.37,.07,.1,.11,.08,.18,0,.41-.49,.83-.98,1.25-1.46,.02-.03,.05-.06,.08-.08,.07,.03,.04,.09,.04,.13,0,.86,0,1.72,0,2.59,0,.14-.05,.17-.18,.17-.39,0-.39,0-.39-.38v-1.06c-.2,.24-.37,.44-.54,.64-.12,.14-.21,.39-.37,.38-.12,0-.24-.25-.35-.39-.17-.2-.33-.4-.5-.6-.06,.03-.03,.09-.03,.14,0,.38,0,.75,0,1.13,0,.1-.02,.13-.13,.14-.45,.02-.45,.02-.45-.42v-2.46s.03,0,.05-.01Z"/><path class="cls-3" d="M430.39,64.23c-.33,.39-.61,.73-.91,1.08-.29-.35-.58-.69-.91-1.08,0,.46,0,.87,0,1.27,0,.15-.04,.18-.18,.18-.38,0-.38,0-.38-.39,0-.83,0-1.66,0-2.49,.08-.02,.09,.04,.12,.08,.42,.49,.84,.97,1.25,1.46,.08,.09,.11,.09,.18,0,.4-.48,.81-.95,1.21-1.42,.04-.05,.08-.09,.13-.14,.05,.06,.03,.12,.03,.17,0,.84,0,1.69,0,2.53,0,.14-.02,.2-.18,.19-.37-.01-.37,0-.37-.38,0-.34,0-.68,0-1.08Z"/><path class="cls-3" d="M424.75,62.76c0,.97,0,1.88,0,2.8,0,.1-.03,.13-.13,.13-.42,0-.42,.01-.42-.42v-1.03c-.29,.34-.55,.65-.8,.96-.08,.1-.13,.12-.22,0-.25-.31-.5-.61-.76-.91-.07,.05-.04,.11-.04,.16,0,.36,0,.73,0,1.09,0,.12-.03,.15-.15,.15-.42,0-.42,0-.42-.41v-2.47c.07-.03,.09,.02,.11,.05,.41,.47,.81,.94,1.21,1.42,.11,.13,.17,.16,.29,0,.37-.45,.75-.89,1.13-1.33,.05-.06,.1-.11,.18-.2Z"/><path class="cls-3" d="M439.51,65.71c-.23,0-.41,0-.6,0-.08,0-.12-.04-.16-.09-.16-.22-.34-.44-.49-.68-.08-.13-.17-.17-.31-.16-.34,0-.34,0-.34,.33,0,.16,0,.31,0,.47,0,.08-.02,.11-.11,.11-.46,.03-.46,.03-.46-.43,0-.77,0-1.53,0-2.3,0-.16,.04-.2,.2-.19,.36,.01,.73,0,1.09,0,.53,0,.87,.26,1.01,.74,.14,.49-.04,.91-.49,1.18-.02,0-.03,.02-.06,.04,.23,.32,.46,.63,.72,.98Zm-1.89-1.96c0,.16,0,.29,0,.42,0,.05,0,.11,.08,.11,.25,0,.51,.03,.76-.02,.24-.05,.39-.29,.36-.54-.03-.26-.19-.4-.46-.4-.09,0-.18,0-.27,0-.15,0-.35-.05-.43,.03-.1,.09-.02,.29-.03,.42Z"/><path class="cls-3" d="M445.72,62.73c.85,.02,1.51,.71,1.49,1.55-.02,.84-.71,1.49-1.56,1.47-.82-.02-1.47-.72-1.44-1.56,.02-.81,.71-1.47,1.52-1.45Zm.95,1.49c0-.53-.44-.97-.96-.97-.51,0-.98,.47-.98,.96,0,.51,.45,.97,.97,.97,.51,0,.97-.46,.97-.97Z"/><path class="cls-3" d="M418.89,64.25c.12,.11,.22,.21,.34,.32,.07-.1,.15-.2,.2-.32,.05-.12,.11-.12,.21-.06,.02,.01,.03,.02,.05,.03q.33,.16,.13,.48t.05,.53s.06,.07,.1,.1c.07,.07,.07,.11-.01,.18-.3,.25-.3,.26-.59-.03-.07-.07-.12-.08-.21-.02-.25,.18-.53,.3-.85,.27-.34-.03-.61-.23-.72-.54-.11-.32-.02-.63,.24-.86,.01-.01,.03-.03,.05-.04,.18-.09,.24-.18,.1-.39-.18-.28-.11-.7,.08-.91,.21-.22,.58-.31,.86-.2,.55,.22,.66,.92,.2,1.29-.07,.05-.13,.1-.22,.17Zm-.41,.96c.09,0,.19-.02,.28-.08,.2-.12,.2-.13,.03-.29-.1-.09-.19-.19-.29-.28-.03-.03-.06-.08-.13-.05-.17,.07-.28,.25-.25,.43,.03,.18,.15,.27,.37,.27Zm.19-2.01c-.18,0-.27,.1-.26,.29,0,.14,.02,.3,.17,.35,.1,.04,.32-.27,.32-.42,0-.16-.1-.21-.22-.23Z"/><path class="cls-3" d="M458.57,64.52c0-.55,0-1.06,0-1.57,0-.15,.05-.18,.18-.18,.39,0,.39,0,.39,.38,0,.78,0,1.57,0,2.35,0,.05,.03,.12-.02,.14-.07,.04-.1-.04-.14-.07-.55-.49-1.09-.98-1.64-1.47-.05-.04-.09-.08-.17-.15,0,.53,0,1.03,0,1.52,0,.16-.05,.19-.19,.19-.36,0-.36,0-.36-.36,0-.79,0-1.58,0-2.37,0-.05-.03-.12,.02-.14,.07-.04,.1,.04,.14,.07,.55,.5,1.09,1,1.63,1.5,.05,.04,.09,.08,.16,.15Z"/><path class="cls-3" d="M425.37,64.25c0-.44,0-.88,0-1.32,0-.11,.02-.15,.14-.14,.63,0,1.26,0,1.89,0,.1,0,.13,.02,.13,.13,0,.37,.01,.37-.35,.37-.36,0-.73,0-1.09,0-.11,0-.15,.03-.14,.14,.01,.19-.06,.42,.04,.54,.09,.11,.34,.03,.52,.03,.23,0,.47,0,.7,0,.1,0,.15,.01,.15,.13,0,.38,0,.38-.38,.38-.29,0-.58,0-.88,0-.11,0-.14,.02-.15,.14-.01,.54-.02,.54,.52,.54,.3,0,.6,0,.9,0,.11,0,.16,.02,.16,.15,0,.37,0,.37-.36,.37-.54,0-1.08,0-1.62,0-.16,0-.19-.05-.19-.2,0-.42,0-.84,0-1.26Z"/><path class="cls-3" d="M461.11,64.23c0-.42,0-.84,0-1.26,0-.14,.02-.19,.18-.18,.6,.01,1.21,0,1.81,0,.14,0,.17,.03,.17,.17,0,.33,0,.33-.32,.33-.36,0-.73,0-1.09,0-.11,0-.17,0-.16,.14,.02,.19-.06,.43,.03,.54,.1,.12,.35,.03,.54,.03,.23,0,.47,0,.7,0,.1,0,.13,.03,.13,.13,0,.38,.01,.38-.37,.38-.3,0-.6,0-.9,0-.11,0-.15,.03-.14,.14,.01,.17-.07,.4,.03,.51,.1,.1,.32,.03,.49,.03,.31,0,.61,0,.92,0,.1,0,.13,.02,.13,.13,.01,.39,.02,.39-.38,.39-.53,0-1.05,0-1.58,0-.16,0-.21-.03-.21-.2,.01-.43,0-.86,0-1.28Z"/><path class="cls-3" d="M434.32,64.24c0-.43,0-.86,0-1.28,0-.13,.02-.18,.16-.18,.61,0,1.22,0,1.83,0,.14,0,.17,.04,.17,.17,0,.32,0,.32-.31,.32-.36,0-.73,0-1.09,0-.14,0-.21,.02-.19,.18,.02,.18-.08,.42,.04,.52,.1,.09,.33,.03,.51,.03,.25,0,.49,0,.74,0,.09,0,.12,.03,.12,.12,.01,.4,.02,.4-.37,.4-.3,0-.6,0-.9,0-.11,0-.14,.03-.14,.14-.01,.54-.02,.54,.53,.54,.31,0,.61,0,.92,0,.12,0,.15,.04,.15,.16,0,.37,0,.37-.36,.37-.55,0-1.09,0-1.64,0-.13,0-.17-.04-.16-.16,0-.43,0-.87,0-1.3Z"/><path class="cls-3" d="M452.04,62.8c.24,0,.49-.03,.72,0,.54,.09,.9,.59,.85,1.15-.04,.51-.45,.86-1.04,.88-.18,0-.35,.02-.53,0-.18-.02-.22,.05-.21,.22,.01,.17,0,.35,0,.53,0,.1-.03,.13-.13,.13-.43,.01-.43,.02-.43-.41,0-.79,0-1.57,0-2.36,0-.13,.03-.17,.16-.16,.2,.01,.4,0,.6,0,0,0,0,.01,0,.02Zm-.18,.95s0,0-.01,0c0,.12,.01,.23,0,.35-.02,.15,.05,.19,.18,.18,.15-.01,.31-.01,.47,0,.39,.03,.62-.24,.52-.63-.08-.29-.25-.4-.66-.4-.17,0-.39-.07-.48,.03-.08,.09-.02,.31-.02,.47Z"/><path class="cls-3" d="M464.92,62.77c.35-.01,.66,.1,.95,.3,.07,.05,.08,.08,.03,.15-.09,.1-.15,.26-.26,.31-.11,.05-.22-.1-.33-.14-.23-.09-.46-.16-.7-.08-.14,.05-.28,.1-.29,.28,0,.17,.15,.22,.27,.26,.18,.06,.36,.09,.55,.13,.15,.03,.31,.05,.45,.12,.36,.17,.53,.49,.47,.87-.05,.37-.31,.64-.7,.71-.56,.11-1.07-.01-1.55-.29-.08-.05-.09-.08-.04-.16,.22-.34,.22-.34,.58-.15,.26,.13,.54,.23,.84,.15,.1-.03,.18-.06,.25-.14,.14-.16,.11-.34-.08-.43-.17-.08-.35-.1-.53-.13-.18-.03-.35-.07-.52-.14-.4-.16-.58-.47-.52-.89,.04-.36,.32-.62,.72-.68,.13-.02,.27-.02,.41-.03Z"/><path class="cls-3" d="M441.12,64.21c.02-1.06,1.08-1.77,2.06-1.38,.28,.11,.51,.31,.68,.56,.05,.07,.06,.13-.04,.15-.03,0-.06,.02-.09,.04-.2,.12-.35,.13-.54-.08-.33-.35-.86-.32-1.21,0-.37,.35-.42,.91-.1,1.32,.36,.47,.97,.5,1.4,.05,.12-.12,.19-.11,.32-.06,.36,.16,.37,.17,.09,.46-.42,.43-1.09,.57-1.63,.35-.58-.24-.95-.8-.94-1.42Z"/><path class="cls-3" d="M456.23,65.68c-.17,0-.34,0-.51,0-.06,0-.09-.03-.12-.08-.04-.09-.09-.17-.13-.26-.04-.1-.1-.12-.2-.12-.36,0-.71,0-1.07,0-.07,0-.15,0-.17,.09-.11,.45-.44,.4-.79,.35,.16-.32,.32-.62,.48-.93,.31-.61,.62-1.22,.94-1.83,.02-.04,.03-.1,.08-.1,.06,0,.07,.05,.09,.09,.47,.91,.93,1.82,1.4,2.73,0,.02,0,.04,0,.07Zm-1.87-.93c.26,0,.47,0,.69,0,.06,0,.11,0,.07-.08-.12-.25-.23-.5-.36-.77-.14,.29-.27,.56-.41,.85Z"/><path class="cls-3" d="M459.86,64.21c0-.43,0-.86,0-1.28,0-.12,.03-.15,.15-.15,.42,0,.42,0,.42,.41,0,.76,0,1.53,0,2.29,0,.14-.02,.2-.19,.2-.38-.01-.38,0-.38-.38s0-.73,0-1.09Z"/><path class="cls-3" d="M470.57,60.19c-1.74,0-3.14-1.41-3.14-3.14,0-1.73,1.41-3.13,3.15-3.13,1.74,0,3.14,1.41,3.13,3.15,0,1.72-1.41,3.12-3.14,3.12Zm1.83-2.83c-.17-.39-.34-.75-.5-1.11-.03-.06-.04-.12-.13-.12-.13,0-.26,0-.39,0,.18,.04,.2,.15,.2,.3,0,.3,0,.61,0,.91,0,.17,.02,.35-.2,.42h.52c-.08-.05-.19-.08-.19-.19,0-.34,0-.69,0-1.03,.01,0,.02,0,.03,0,.19,.41,.38,.83,.58,1.28,.21-.48,.41-.93,.61-1.37,.03,.34,.02,.67,.03,1,0,.15,0,.29-.19,.33h.64c-.21-.04-.19-.19-.19-.34,0-.32,0-.64,0-.95,0-.15,0-.29,.2-.32-.1-.02-.19,0-.28-.02-.16-.03-.24,.05-.3,.19-.14,.34-.29,.67-.45,1.03Zm-2.76-.42c0,.51,.32,.86,.79,.87,.47,0,.81-.35,.81-.85,0-.51-.32-.86-.79-.87-.48,0-.81,.34-.81,.85Zm-.21,.54c-.07,.05-.13,.1-.2,.14-.36,.23-.78,.08-.91-.33-.08-.26-.07-.53,.04-.78,.09-.21,.25-.35,.49-.35,.23,0,.39,.12,.48,.33,.02,.05,.01,.12,.11,.12,0-.18,0-.35-.04-.55-.12,.16-.25,.06-.36,.04-.37-.08-.73,.06-.92,.36-.2,.32-.18,.76,.04,1.04,.21,.27,.6,.38,.95,.25,.14-.05,.27-.11,.32-.28Zm-1.69,.29c.09,0,.14-.06,.14-.14,0-.08-.05-.13-.13-.13-.09,0-.14,.06-.14,.15,0,.08,.06,.12,.14,.12Z"/><path class="cls-1" d="M472.4,57.36c.16-.36,.31-.69,.45-1.03,.06-.14,.13-.22,.3-.19,.09,.01,.17,0,.28,.02-.2,.03-.21,.17-.2,.32,0,.32,0,.64,0,.95,0,.15-.02,.31,.19,.34h-.64c.19-.04,.19-.17,.19-.33,0-.33,0-.66-.03-1-.2,.44-.39,.89-.61,1.37-.21-.45-.39-.86-.58-1.28-.01,0-.02,0-.03,0,0,.34,0,.69,0,1.03,0,.12,.11,.14,.19,.19h-.52c.22-.06,.2-.24,.2-.42,0-.3,0-.61,0-.91,0-.14-.02-.26-.2-.3,.13,0,.26,0,.39,0,.09,0,.1,.06,.13,.12,.16,.36,.33,.72,.5,1.11Z"/><path class="cls-1" d="M469.65,56.94c0-.51,.33-.85,.81-.85,.47,0,.79,.36,.79,.87,0,.5-.34,.85-.81,.85-.47,0-.79-.36-.79-.87Zm1.31,0c0-.15,0-.3-.06-.44-.08-.19-.22-.32-.44-.34-.18-.01-.38,.11-.45,.31-.12,.31-.12,.63,0,.95,.08,.19,.27,.32,.45,.3,.22-.02,.35-.15,.43-.34,.06-.14,.06-.29,.06-.44Z"/><path class="cls-1" d="M469.44,57.48c-.04,.17-.18,.23-.32,.28-.35,.13-.74,.02-.95-.25-.22-.28-.24-.73-.04-1.04,.19-.3,.54-.44,.92-.36,.12,.03,.24,.12,.36-.04,.05,.2,.04,.38,.04,.55-.1,0-.09-.08-.11-.12-.09-.21-.25-.33-.48-.33-.24,0-.4,.13-.49,.35-.11,.25-.12,.52-.04,.78,.13,.4,.55,.55,.91,.33,.07-.04,.13-.1,.2-.14Z"/><path class="cls-1" d="M467.75,57.77c-.08,0-.13-.04-.14-.12,0-.09,.04-.15,.14-.15,.09,0,.13,.06,.13,.13,0,.08-.04,.13-.14,.14Z"/><path class="cls-3" d="M470.96,56.95c0,.15,0,.3-.06,.44-.08,.19-.22,.32-.43,.34-.18,.02-.38-.11-.45-.3-.13-.31-.13-.63,0-.95,.08-.19,.27-.32,.45-.31,.22,.02,.36,.14,.44,.34,.06,.14,.07,.29,.06,.44Z"/></g><g><path class="cls-2" d="M178.99,214.36c1.09,1.18,.96,2.76,0,3.53-.58,.47-1.44,.59-2.27,.39v-.13l-46.75-.09-14.62-.03-97.65-.17v.14h-1.45c-.1,.01-2.01,.47-3.09-.5-1.09-.99-1.01-3.21,.86-4.71-2.33-2.01-2.23-5.4-.04-7.19,2.23-1.86,6.07-1.53,7.99,.94,.09-2.17,1.47-4.04,3.44-4.71,2.59-.86,5.89,.49,7.09,3.34,.09-.29,.43-1.22,1.48-1.89,.22-.13,1.25-.69,2.32-.62,1.93,.14,3.54,1.8,3.38,3.77,.32-3.28,2.56-5.55,4.82-5.64,1.35-.04,2.45,.69,3.02,1.17,1.04-2.78,4.27-4.06,6.71-3.14,1.91,.72,3.17,2.76,2.88,4.96,.46-1.71,2-2.98,3.84-3.18,2.06-.23,4.12,.92,4.85,2.79,.49-.45,2.24-1.91,4.69-1.89,3.05,.03,6,2.39,6.85,5.86,.23-1.76,1.6-3.22,3.44-3.71,1.91-.52,3.97,.09,5.21,1.51,.17-1.22,.94-2.29,2.07-2.72,1.63-.63,3.81,.13,4.81,1.93,.19-2.56,2.1-4.49,4.09-4.69,2.49-.27,5.53,2.17,5.28,5.66,.88-1.42,3.38-1.65,4.56-.43,1.6-2.24,4.53-3.21,6.96-2.42,.45,.14,.85,.35,1.19,.58,1.8,1.14,2.36,3.04,2.4,3.22,1.17-1.51,3.18-2.29,5.17-2,1.19,.17,2.26,.73,3.02,1.54,.23,.47,.42,.99,.55,1.54,.03-.23,.09-.45,.14-.66,.46-1.45,1.7-2.62,3.31-3.07,1.9-.5,3.97,.1,5.21,1.53,.17-1.22,.94-2.29,2.07-2.72,1.63-.63,3.81,.13,4.81,1.93,.19-2.56,2.1-4.49,4.09-4.69,2.49-.27,5.53,2.17,5.27,5.66,.89-1.42,3.4-1.65,4.58-.43,1.6-2.24,4.53-3.21,6.96-2.42,2.75,.89,3.54,3.58,3.6,3.8,1.17-1.51,3.18-2.29,5.17-2,2.13,.32,3.84,1.84,4.27,3.81,2.45-.72,4.86,.55,5.38,2.35,.39,1.4-.37,3.02-1.94,3.91Z"/><polygon class="cls-4" points="176.72 218.15 176.72 228.05 17.69 228.05 17.69 217.86 115.34 218.03 129.96 218.06 176.72 218.15"/></g><g><path class="cls-2" d="M788.64,214.36c1.09,1.18,.96,2.76,0,3.53-.58,.47-1.44,.59-2.27,.39v-.13l-46.75-.09-14.62-.03-97.65-.17v.14h-1.45c-.1,.01-2.01,.47-3.09-.5-1.09-.99-1.01-3.21,.86-4.71-2.33-2.01-2.23-5.4-.04-7.19,2.23-1.86,6.07-1.53,7.99,.94,.09-2.17,1.47-4.04,3.44-4.71,2.59-.86,5.89,.49,7.09,3.34,.09-.29,.43-1.22,1.48-1.89,.22-.13,1.25-.69,2.32-.62,1.93,.14,3.54,1.8,3.38,3.77,.32-3.28,2.56-5.55,4.82-5.64,1.35-.04,2.45,.69,3.02,1.17,1.04-2.78,4.27-4.06,6.71-3.14,1.91,.72,3.17,2.76,2.88,4.96,.46-1.71,2-2.98,3.84-3.18,2.06-.23,4.12,.92,4.85,2.79,.49-.45,2.24-1.91,4.69-1.89,3.05,.03,6,2.39,6.85,5.86,.23-1.76,1.6-3.22,3.44-3.71,1.91-.52,3.97,.09,5.21,1.51,.17-1.22,.94-2.29,2.07-2.72,1.63-.63,3.81,.13,4.81,1.93,.19-2.56,2.1-4.49,4.09-4.69,2.49-.27,5.53,2.17,5.28,5.66,.88-1.42,3.38-1.65,4.56-.43,1.6-2.24,4.53-3.21,6.96-2.42,.45,.14,.85,.35,1.19,.58,1.8,1.14,2.36,3.04,2.4,3.22,1.17-1.51,3.18-2.29,5.17-2,1.19,.17,2.26,.73,3.02,1.54,.23,.47,.42,.99,.55,1.54,.03-.23,.09-.45,.14-.66,.46-1.45,1.7-2.62,3.31-3.07,1.9-.5,3.97,.1,5.21,1.53,.17-1.22,.94-2.29,2.07-2.72,1.63-.63,3.81,.13,4.81,1.93,.19-2.56,2.1-4.49,4.09-4.69,2.49-.27,5.53,2.17,5.27,5.66,.89-1.42,3.4-1.65,4.58-.43,1.6-2.24,4.53-3.21,6.96-2.42,2.75,.89,3.54,3.58,3.6,3.8,1.17-1.51,3.18-2.29,5.17-2,2.13,.32,3.84,1.84,4.27,3.81,2.45-.72,4.86,.55,5.38,2.35,.39,1.4-.37,3.02-1.94,3.91Z"/><polygon class="cls-4" points="786.37 218.15 786.37 228.05 627.35 228.05 627.35 217.86 725 218.03 739.62 218.06 786.37 218.15"/></g><g><path class="cls-2" d="M333.89,198.65c-.04-4.12-3.21-7-6.12-6.81-2.01,.14-3.87,1.73-4.77,3.95,.36-2.74-1.2-5.27-3.58-6.17-3.02-1.14-7.04,.45-8.33,3.9-.72-.59-2.07-1.5-3.75-1.45-2.81,.11-5.6,2.93-5.99,7.01,.2-2.45-1.81-4.51-4.2-4.68-1.32-.09-2.61,.61-2.88,.77-1.31,.82-1.73,1.98-1.84,2.34-1.5-3.54-5.6-5.22-8.82-4.15-2.45,.82-4.17,3.15-4.27,5.85-2.38-3.06-7.15-3.47-9.92-1.16-2.72,2.24-2.84,6.44,.05,8.94-2.32,1.86-2.43,4.61-1.07,5.85,1.34,1.22,3.72,.64,3.84,.63h1.81v-.18c21.45,.12,42.91,.24,64.36,.36,1.82,.95,3.87,.23,4.51-1.15,.45-.98,.18-2.26-.64-3.22,.22-.38,1.9-3.44,.55-6.54-1.33-3.05-5.04-4.88-8.92-4.08Z"/><path class="cls-4" d="M338.39,213.64v12.3h-64.36v-12.66c21.45,.12,42.91,.24,64.36,.36Z"/></g><g><path class="cls-2" d="M476.25,198.65c.04-4.12,3.21-7,6.12-6.81,2.01,.14,3.87,1.73,4.77,3.95-.36-2.74,1.2-5.27,3.58-6.17,3.02-1.14,7.04,.45,8.33,3.9,.72-.59,2.07-1.5,3.75-1.45,2.81,.11,5.6,2.93,5.99,7.01-.2-2.45,1.81-4.51,4.2-4.68,1.32-.09,2.61,.61,2.88,.77,1.31,.82,1.73,1.98,1.84,2.34,1.5-3.54,5.6-5.22,8.82-4.15,2.45,.82,4.17,3.15,4.27,5.85,2.38-3.06,7.15-3.47,9.92-1.16,2.72,2.24,2.84,6.44-.05,8.94,2.32,1.86,2.43,4.61,1.07,5.85-1.34,1.22-3.72,.64-3.84,.63h-1.81v-.18c-21.45,.12-42.91,.24-64.36,.36-1.82,.95-3.87,.23-4.51-1.15-.45-.98-.18-2.26,.64-3.22-.22-.38-1.9-3.44-.55-6.54,1.33-3.05,5.04-4.88,8.92-4.08Z"/><path class="cls-4" d="M471.74,213.64v12.3s64.36,0,64.36,0v-12.66c-21.45,.12-42.91,.24-64.36,.36Z"/></g></svg>