<?xml version="1.0" encoding="UTF-8"?><svg id="_Слой_1" xmlns="http://www.w3.org/2000/svg" viewBox="0 0 380.76 261.03"><defs><style>.cls-1{fill:#f6f6f6;}.cls-1,.cls-2,.cls-3,.cls-4,.cls-5,.cls-6,.cls-7{stroke:#1d1d1b;stroke-linecap:round;stroke-linejoin:round;stroke-width:2px;}.cls-8,.cls-2{fill:#dedfdf;}.cls-3{fill:#fff;}.cls-4{fill:none;}.cls-5,.cls-9{fill:#ececec;}.cls-6{fill:#b2b2b2;}.cls-7{fill:#dadada;}</style></defs><g><polygon class="cls-3" points="375.22 131.68 375.22 139.42 373.29 140.9 373.29 133.66 374.25 133.66 375.22 131.68"/><polygon class="cls-3" points="368.2 158.75 363.16 164.52 360.44 164.52 366.21 158.75 368.2 158.75"/><polygon class="cls-3" points="369.1 113.21 366.21 113.21 360.44 107.44 363.34 106.66 369.1 113.21"/><path class="cls-2" d="M375.22,131.68l-.97,1.98h-2.46c.12,1.13,.18,2.27,.18,3.43,0,7.05-2.28,13.6-6.13,18.97l2.36,2.69h-1.99l-1.37-1.37c-5.2,6.54-12.83,11.08-21.48,12.19v1.17l-1.83,1.92-.53-2.87c-.6,.03-1.19,.05-1.79,.05V104.34c.78,0,1.55,.03,2.32,.09v-4.33l1.83-1.18v5.69c8.1,1.04,15.32,5.09,20.47,10.98l2.38-2.38h2.89l-3.96,3.97c3.22,4.17,5.47,9.12,6.37,14.5h3.71Z"/><polygon class="cls-3" points="343.36 98.92 341.53 100.1 341.53 101.05 333.37 100.1 335.26 98.92 343.36 98.92"/><path class="cls-3" d="M314.9,107.44c.56-.09,1.12-.18,1.68-.27,1.12,1.05,2.24,2.09,3.36,3.14l-1.24,2.9-3.8-5.77Z"/><path class="cls-1" d="M373.29,132.74v8.16h-4.35c-.69,5.46-2.78,10.48-5.88,14.7l3.15,3.15-5.77,5.77-3.01-3.01c-4.46,3.61-9.92,6.04-15.9,6.8v4.35h-8.16v-4.35c-5.88-.75-11.25-3.1-15.66-6.6l-2.81,2.81-5.77-5.77,2.9-2.9c-3.21-4.27-5.36-9.38-6.07-14.95h-5.23v-8.16h5.22c.77-5.98,3.2-11.44,6.81-15.9l-3.63-3.63,5.77-5.77,3.76,3.76c4.22-3.11,9.25-5.19,14.71-5.89v-5.21h8.16v5.21c5.57,.71,10.68,2.87,14.96,6.08l3.95-3.95,5.77,5.77-3.87,3.87c3.5,4.42,5.86,9.79,6.61,15.66h4.34Z"/><circle class="cls-5" cx="337.01" cy="136.38" r="25.06"/><circle class="cls-3" cx="337.01" cy="136.38" r="12.06"/></g><g><rect class="cls-5" x="34" y="133.24" width="113.16" height="115.2"/><path class="cls-6" d="M152.96,244.36c-1.93,1.36-3.87,2.72-5.8,4.08v-115.28c1.93-1.58,3.87-3.15,5.8-4.73v115.92Z"/><rect class="cls-1" x="54.39" y="223" width="72.38" height="11.52"/><path class="cls-8" d="M118.72,137.44v74.35c9.06,.06,18.12,.11,27.18,.17v-74.7l-27.18,.18Z"/><path class="cls-3" d="M82.17,198.84l-3.82,9.6c-10.69-4.33-18.22-14.8-18.22-27.04,0-2.41,.29-4.76,.85-7l10.04,2.51c-.35,1.44-.54,2.94-.54,4.49,0,7.87,4.83,14.62,11.69,17.44Z"/><path class="cls-3" d="M116.15,192.9h0c-4.47,10.4-14.79,17.68-26.83,17.68-.36,0-.72-.01-1.08-.03l-.21-10.36c.43,.04,.86,.05,1.29,.05,7.65,0,14.24-4.57,17.18-11.13l9.65,3.79Z"/><path class="cls-3" d="M118.5,181.4c0,.41,0,.82-.03,1.22l-10.38,.25c.04-.49,.06-.98,.06-1.47,0-4.34-1.47-8.35-3.94-11.53l8.26-6.24c3.79,4.92,6.03,11.08,6.03,17.77Z"/><path class="cls-3" d="M104.48,156.45l-5.2,8.96c-2.89-1.81-6.3-2.85-9.96-2.85-6.6,0-12.4,3.39-15.75,8.52l-8.3-6.22c5.26-7.64,14.07-12.65,24.05-12.65,5.55,0,10.74,1.55,15.16,4.24Z"/></g><g><rect class="cls-1" x="1" y="6.04" width="156.2" height="130.33"/><path class="cls-6" d="M163,136.37h-5.8V5.73c1.93-1.58,3.87-3.15,5.8-4.73V136.37Z"/><path class="cls-9" d="M119.09,135.16l-.19-95.82c3.48-2.34,6.96-4.68,10.44-7.02,8.82-.05,17.64-.1,26.46-.14,.08,34.33,.16,68.66,.24,102.99h-36.95Z"/><path class="cls-6" d="M163,1H6.28c-1.76,1.68-3.52,3.36-5.28,5.04H157.2c1.93-1.68,3.87-3.36,5.8-5.04Z"/><rect class="cls-5" x="16.36" y="45.64" width="17.64" height="64.08"/><rect class="cls-5" x="42.13" y="60.04" width="17.64" height="49.68"/><rect class="cls-5" x="67.9" y="45.64" width="17.64" height="64.08"/><rect class="cls-5" x="93.67" y="30.88" width="17.64" height="78.84"/><rect class="cls-5" x="119.44" y="70.3" width="17.64" height="39.42"/></g><g><rect class="cls-1" x="231.4" y="151.12" width="142.56" height="107.64"/><path class="cls-6" d="M379.76,254.68c-1.93,1.36-3.87,2.72-5.8,4.08v-107.64l5.8-5.04v108.6Z"/><path class="cls-6" d="M379.76,146.08H236.24c-1.61,1.68-3.22,3.36-4.84,5.04h142.56l5.8-5.04Z"/><line class="cls-3" x1="327.4" y1="200.2" x2="327.4" y2="241.72"/><line class="cls-3" x1="299.62" y1="222.4" x2="299.62" y2="241.72"/><line class="cls-3" x1="268.91" y1="220.06" x2="268.91" y2="241.72"/><circle class="cls-3" cx="268.91" cy="219.11" r="1.4"/><circle class="cls-3" cx="299.62" cy="220.96" r="1.4"/><circle class="cls-3" cx="327.4" cy="199.22" r="1.4"/><path class="cls-9" d="M299.8,152.2c.06,17.88,.12,35.76,.18,53.64l-9.9,6.59-57.42,.54c-.03-20.25-.07-40.51-.1-60.76,22.41,0,44.83,0,67.24,0Z"/><polyline class="cls-4" points="248.17 168.52 248.17 241.72 355.96 241.72"/><path class="cls-4" d="M248.17,229.24c4.22-3.55,11.24-8.44,20.73-10.12,14.12-2.51,18.77,4.74,30.71,1.84,10.78-2.61,18.63-11.34,27.78-21.52,5.1-5.67,9.67-11.41,18.74-16.13,4.01-2.09,7.58-3.26,10-3.93"/><path class="cls-4" d="M248.17,213.22c5.77-3.08,9.62-2.95,12.21-1.98,3.06,1.14,3.74,3.22,8.53,7.88,4.55,4.43,7.21,7.02,10.55,8.15,8.73,2.94,18.8-5.2,20.16-6.3,9.68-7.83,8.06-15.81,17.28-19.62,4.13-1.71,8.9-1.94,10.61-2.02,6-.29,8.24,1.03,12.97,.94,3.44-.07,8.36-.89,14.32-4.46"/></g><g><path class="cls-7" d="M206.56,124.55l7.2-4.39c.04-11.8,.08-23.6,.12-35.4-2.68,.8-5.36,1.6-8.04,2.4-4.8,2.22-10.3,1.38-13.56-1.92-4.23-4.27-4.23-12.19,.96-17.28-2.33,.23-5.58,.96-8.16,3.36-6.45,6-3.59,17.71-2.4,22.56,4.11,16.79,17.76,26.77,23.88,30.67Z"/><path class="cls-7" d="M296.44,120.16h-34.56s5.71-17.36-13.71-15.82v15.82h-34.42l-7.2,4.39h83.23l6.65-4.39Z"/><path class="cls-3" d="M188.61,87.62c3.4,3.97,10.77,4.15,13.79,2.27,3.03-1.89,4.16-.95,4.16-.95v35.61h-30.68s-.94,1.13,.38,3.02c1.32,1.89,3.21,8.88,0,13.42-3.21,4.53-11.9,4.91-15.87,1.51-3.96-3.4-4.15-10.77-2.26-13.79,1.89-3.03,.94-4.16,.94-4.16h-35.74V41.32h83.23v30.81s-1.13,.94-3.02-.38c-1.89-1.32-8.88-3.21-13.42,0-4.53,3.21-4.91,11.9-1.51,15.87Z"/><path class="cls-3" d="M224.51,170.1c-3.4,3.97-10.77,4.16-13.79,2.27-3.03-1.89-4.16-.95-4.16-.95v36.36H123.33V124.55h35.74s.95,1.13-.94,4.16c-1.89,3.02-1.7,10.39,2.26,13.79,3.97,3.4,12.66,3.02,15.87-1.51,3.21-4.54,1.32-11.53,0-13.42-1.32-1.89-.38-3.02-.38-3.02h30.68v30.06s1.13,.95,3.02-.38c1.89-1.32,8.88-3.21,13.42,0,4.53,3.21,4.91,11.9,1.51,15.87Z"/><path class="cls-3" d="M289.79,124.55v83.23h-83.23v-36.36s1.13-.94,4.16,.95c3.02,1.89,10.39,1.7,13.79-2.27,3.4-3.97,3.02-12.66-1.51-15.87-4.54-3.21-11.53-1.32-13.42,0-1.89,1.33-3.02,.38-3.02,.38v-30.06h33.19s.94-1.13-.95-4.16c-1.88-3.02-1.7-10.39,2.27-13.79,3.97-3.4,12.66-3.02,15.87,1.51,3.21,4.54,1.32,11.53,0,13.42-1.32,1.89-.38,3.02-.38,3.02h33.23Z"/><path class="cls-7" d="M296.44,120.16v83.11c-2.22,1.5-4.43,3.01-6.65,4.51V124.55l6.65-4.39Z"/><path class="cls-7" d="M213.76,36.86c-27.6-.07-55.2-.15-82.8-.22l-7.9,4.95c27.83-.05,55.66-.09,83.5-.14l7.2-4.59Z"/><g><path class="cls-3" d="M328.84,22.92l-13.67,82.1-32.78-5.46s-.74-1.27,.87-2.92c1.61-1.65,4.62-8.23,2.2-13.24-2.42-5-10.93-6.8-15.41-4.1-4.47,2.7-5.86,9.94-4.5,13.23,1.37,3.3,.25,4.26,.25,4.26l-32.74-5.45,5.85-35.13s-.96-1.11-4.26,.25c-3.29,1.36-10.53-.03-13.23-4.5-2.7-4.47-.9-12.98,4.1-15.41,5.01-2.42,11.59,.59,13.24,2.2,1.65,1.61,2.92,.87,2.92,.87l5.06-30.39,82.1,13.67Z"/><path class="cls-7" d="M315.17,105.02l13.67-82.1c2.43-1.12,4.87-2.24,7.3-3.36-4.56,27.41-9.13,54.81-13.69,82.22l-7.28,3.24Z"/><path class="cls-7" d="M254.58,6.04c27.09,4.59,54.17,9.17,81.26,13.76-2.33,1.04-4.66,2.08-6.99,3.13-27.37-4.51-54.75-9.02-82.12-13.54l7.86-3.35Z"/></g><polygon class="cls-7" points="206.56 72.13 213.76 67.96 213.76 36.86 206.56 41.46 206.56 72.13"/></g><g><polygon class="cls-3" points="209.97 235.67 209.97 240.27 208.82 241.15 208.82 236.84 209.39 236.84 209.97 235.67"/><polygon class="cls-3" points="205.79 251.76 202.8 255.19 201.18 255.19 204.61 251.76 205.79 251.76"/><polygon class="cls-3" points="206.33 224.69 204.61 224.69 201.18 221.26 202.9 220.79 206.33 224.69"/><path class="cls-2" d="M209.97,235.67l-.58,1.18h-1.46c.07,.67,.11,1.35,.11,2.04,0,4.19-1.36,8.08-3.64,11.28l1.4,1.6h-1.18l-.81-.81c-3.09,3.89-7.63,6.59-12.77,7.25v.7l-1.09,1.14-.32-1.71c-.36,.02-.71,.03-1.06,.03v-38.93c.46,0,.92,.02,1.38,.05v-2.57l1.09-.7v3.38c4.81,.62,9.11,3.03,12.17,6.53l1.41-1.41h1.72l-2.35,2.36c1.91,2.48,3.25,5.42,3.79,8.62h2.21Z"/><polygon class="cls-3" points="191.03 216.19 189.94 216.89 189.94 217.46 185.09 216.89 186.21 216.19 191.03 216.19"/><path class="cls-3" d="M174.11,221.26c.33-.05,.67-.11,1-.16,.67,.62,1.33,1.24,2,1.87l-.73,1.72-2.26-3.43Z"/><path class="cls-1" d="M208.82,236.3v4.85h-2.59c-.41,3.25-1.65,6.23-3.5,8.74l1.87,1.87-3.43,3.43-1.79-1.79c-2.65,2.15-5.9,3.59-9.45,4.04v2.59h-4.85v-2.59c-3.5-.45-6.69-1.84-9.31-3.92l-1.67,1.67-3.43-3.43,1.72-1.72c-1.91-2.54-3.19-5.58-3.61-8.89h-3.11v-4.85h3.1c.46-3.55,1.9-6.8,4.05-9.45l-2.16-2.16,3.43-3.43,2.24,2.24c2.51-1.85,5.5-3.09,8.74-3.5v-3.1h4.85v3.1c3.31,.42,6.35,1.71,8.89,3.61l2.35-2.35,3.43,3.43-2.3,2.3c2.08,2.63,3.48,5.82,3.93,9.31h2.58Z"/><circle class="cls-5" cx="187.25" cy="238.46" r="14.89"/><circle class="cls-3" cx="187.25" cy="238.46" r="7.17"/></g></svg>