<?xml version="1.0" encoding="UTF-8"?><svg id="Layer_1" xmlns="http://www.w3.org/2000/svg" viewBox="0 0 1029 348"><defs><style>.cls-1{fill:#0b0a0c;}.cls-2{fill:#b6ce42;}.cls-3{fill:#1b191a;}.cls-4{fill:#1c1a1b;}.cls-5{fill:#b7ce45;}</style></defs><path class="cls-2" d="M612.3,.75c1.38,10.01,2.68,20.03,4.21,30.01,.48,3.13,.15,5.62-1.89,8.29-12.42,16.28-24.65,32.71-36.93,49.09-.89,1.19-1.73,2.41-2.61,3.63,1.2,.96,2.02,.05,2.84-.3,20.21-8.6,40.44-17.15,60.58-25.91,3.03-1.32,5.27-1.23,7.84,.82,6.48,5.18,11.72,11.17,14.16,19.31,1.66,5.54,1.03,10.47-2.27,15.41-25.51,38.18-48.42,77.81-65.95,120.37-8.15,19.79-14.92,40.02-17.82,61.32-2.23,16.37-2.46,32.65,4.85,48.11,2.37,5.01,5.5,9.5,9.48,13.38,.89,.87,1.91,1.64,2.22,2.95-.15,.26-.29,.51-.43,.77h-2.25c-1.02-1.01-2.33-1.37-3.67-1.68-16.28-8.02-28.53-19.99-35.74-36.8-6.14-14.31-7.8-29.35-6.65-44.76,2.41-32.14,14.14-61.35,28.31-89.78,5.52-11.07,11.57-21.85,17.97-32.44,.76-1.26,1.38-2.61,2.07-3.91-1.51-1.33-2.33-.06-3.28,.58-18.59,12.4-37.18,24.8-55.78,37.2-4.07,2.71-5.21,2.7-8.73-.76-9.17-9.02-15.66-20.03-22.53-30.75-1.29-2.02,.16-3.3,1.09-4.69,14.54-21.53,29.4-42.83,44.7-63.83,14.71-20.18,29.5-40.31,45.98-59.11,5.27-6.01,10.85-11.69,17.24-16.53,1,0,2,0,3,0Z"/><path class="cls-5" d="M1027.59,139.52c-5.76,20.82-11.53,41.63-17.28,62.45-1.53,5.53-3.12,11.06-4.53,16.62-.52,2.06-1.51,2.81-3.66,2.75-5.59-.14-11.19-.05-17.28-.05,3.56-13.19,6.99-25.9,10.47-38.79-3.39-.82-6.5-.4-9.57-.43-7.62-.07-15.24,.12-22.85-.1-2.97-.09-4.07,1-4.79,3.76-2.83,10.87-6,21.65-8.85,32.52-.63,2.41-1.66,3.17-4.09,3.09-5.45-.18-10.91-.06-16.93-.06,1.48-5.39,2.79-10.17,4.1-14.96,6.33-23.12,12.69-46.23,18.96-69.36,.65-2.41,1.62-3.5,4.33-3.38,5.34,.24,10.7,.07,16.77,.07-3.62,13.39-7.12,26.3-10.72,39.61,11.71,0,22.93-.04,34.15,.03,2.35,.01,2.48-1.67,2.9-3.19,3.06-11.07,6.19-22.12,9.06-33.25,.68-2.63,1.82-3.33,4.37-3.26,5.36,.15,10.73-.03,16.1-.07,.25-.02,.5-.03,.76-.05v2.25c-1.11,1.02-1.31,2.38-1.41,3.77Z"/><path class="cls-3" d="M61.47,221.36c3.31,3.81,6.1,7.03,9.41,10.84-4.61,0-8.43-.02-12.25,0-1.81,.01-2.7-1.38-3.43-2.57-4.28-7.01-10.28-9.33-18.47-8.53-8.04,.78-16.21,.18-24.33,.17-7.88-.01-10.91-2.99-10.91-10.7,0-22.12,0-44.23,0-66.35,0-7.1,3.26-10.41,10.51-10.47,7.24-.07,14.48-.02,21.72-.02,10.86,0,21.73-.03,32.59,0,8.24,.03,11.02,2.81,11.03,11.05,.03,21.12,.01,42.23,0,63.35,0,9.44-2.86,12.47-12.31,13.05-.87,.05-1.74,.08-3.58,.16ZM20.81,142.5c0,22.91,0,45.37-.02,67.84,0,1.43,.18,2.37,1.98,2.34,5.56-.08,11.13-.03,17.49-.03-3.46-4.09-6.42-7.59-9.78-11.57,4.01,0,7.14,.16,10.24-.05,2.36-.16,3.96,.59,5.41,2.45,2.06,2.66,4.44,5.07,6.58,7.67,.98,1.2,2.11,1.8,3.57,1.45,1.85-.43,1.02-2.02,1.08-3.12,.12-2.12,.03-4.24,.03-6.37,0-19.11,.01-38.22-.02-57.33,0-1.42,.81-3.35-2.05-3.33-11.34,.09-22.68,.04-34.51,.04Z"/><path class="cls-3" d="M284.12,177.72c0,10.87,.02,21.74,0,32.61-.02,6.92-3.99,10.92-10.92,10.93-18.23,.04-36.45,.04-54.68,0-6.91-.01-10.99-4.08-10.99-10.9-.02-21.86-.02-43.73,0-65.59,0-6.81,4.08-10.98,10.96-11,18.23-.08,36.45-.08,54.68,0,7.14,.03,10.94,4.09,10.95,11.34,.02,10.87,0,21.74,0,32.61Zm-56.42-.35c0,8.99-.02,17.98,0,26.97,.02,6.03,2.05,8.19,8.03,8.29,6.61,.11,13.23,.1,19.84,0,6.52-.09,8.46-2.08,8.47-8.62,.03-17.86,.03-35.71,0-53.57-.01-5.87-1.99-7.95-7.82-8.06-6.74-.12-13.48-.11-20.21-.02-6.24,.08-8.28,2.2-8.31,8.4-.03,8.87,0,17.73,0,26.6Z"/><path class="cls-4" d="M180.71,174.28c0,12,.02,23.99,0,35.99-.01,7.4-3.6,10.99-11.05,11-18.11,.03-36.21,.02-54.32,0-7.29,0-11.18-3.82-11.19-10.99-.02-24.37,.04-48.73-.08-73.1-.01-2.85,.75-3.66,3.54-3.5,4.36,.24,8.75,.24,13.1,0,2.79-.15,3.58,.66,3.56,3.51-.13,19.74-.07,39.49-.07,59.23,0,4.62,.06,9.25-.03,13.87-.03,1.73,.46,2.41,2.3,2.4,10.61-.07,21.23-.11,31.84,.01,2.94,.03,2.38-1.81,2.38-3.47,.01-16.74,0-33.49,0-50.23,0-7.37,.09-14.75-.05-22.12-.05-2.39,.51-3.32,3.09-3.21,4.61,.21,9.24,.18,13.86,.01,2.4-.09,3.2,.55,3.17,3.11-.14,12.49-.06,24.99-.07,37.49Z"/><path class="cls-3" d="M478.98,142.55h-50.78c0,9.86,.05,19.46-.04,29.06-.02,2.24,1.12,2.32,2.8,2.31,6.48-.05,12.95-.02,19.62-.02v8.57c-6.1,0-12.29,.16-18.46-.07-3.05-.12-4.1,.67-4,3.88,.24,7.61,.2,15.24,.01,22.86-.07,2.77,.67,3.61,3.52,3.58,14.35-.15,28.71-.08,43.06-.05,1.34,0,2.74-.33,4.02,.35q.82,8.25-7.35,8.25c-19.85,0-39.69-.07-59.54,.08-3.04,.02-3.64-.89-3.63-3.74,.11-26.73,.11-53.46,0-80.19-.01-2.91,.69-3.76,3.68-3.74,20.97,.13,41.94,.16,62.91-.02,3.47-.03,4.72,.91,4.21,4.31-.2,1.33-.03,2.72-.03,4.59Z"/><path class="cls-4" d="M389.76,133.73v8.75h-33.91c0,1.65,0,2.98,0,4.32,0,23.61-.05,47.21,.07,70.82,.01,2.91-.65,3.93-3.68,3.73-4.22-.28-8.49-.25-12.72,0-2.79,.16-3.57-.63-3.56-3.48,.13-20.48,.07-40.97,.07-61.45,0-4.49,0-8.98,0-13.8h-33.11c-.31-.54-.53-.75-.54-.97q-.45-7.91,7.55-7.91c25.21,0,50.42,0,75.63,0,1.34,0,2.68,0,4.2,0Z"/><path class="cls-5" d="M788.22,182.16c-11.31,0-22.52,.04-33.73-.03-2.21-.01-2.28,1.59-2.65,2.94-3.03,10.81-6.16,21.6-8.92,32.49-.78,3.09-2.1,3.95-5.1,3.81-5.2-.24-10.43-.07-16.12-.07,2.77-10.12,5.4-19.72,8.04-29.32,4.34-15.76,8.7-31.51,13.04-47.27,1.86-6.74,6.52-10.83,13.47-10.89,18.22-.17,36.45-.18,54.67,0,7.45,.07,10.27,4.13,8.28,11.41-6.68,24.43-13.48,48.83-20.14,73.27-.56,2.07-1.42,2.89-3.57,2.83-4.62-.13-9.24-.16-13.85,0-2.9,.11-3.38-.89-2.62-3.53,2.99-10.44,5.82-20.92,8.69-31.38,.33-1.19,.93-2.33,.52-4.27Zm-32.96-9.62c1.49,1.09,2.78,.73,3.99,.74,7.36,.03,14.72,.01,22.08,.01,9.91,0,9.94,0,12.59-9.54,1.91-6.91,3.73-13.84,5.7-21.17-9.54,0-18.51,0-27.47,0-8.74,0-8.78,0-11.14,8.54-1.98,7.18-3.86,14.38-5.75,21.42Z"/><path class="cls-5" d="M825.3,220.69c-.02-2.35,1.09-4.5,1.75-6.74,.59-2.02,2.37-1.47,3.78-1.47,14.49-.03,28.97,0,43.46-.02,7.98-.01,9.74-1.33,11.95-9,1.45-5.04,2.89-10.09,4.19-15.16,1.11-4.31-.27-6.15-4.76-6.19-11.36-.09-22.73-.04-34.09-.05-1.5,0-3.01,.05-4.49-.09-7.55-.72-10.15-4.37-8.2-11.64,2.33-8.68,4.71-17.35,7.18-25.99,1.91-6.68,6.92-10.61,13.69-10.63,20.98-.06,41.96-.03,62.94-.01,.84,0,1.76-.25,2.74,.79-.38,1.45-1.02,3.08-1.21,4.77-.3,2.72-1.69,3.34-4.28,3.32-14.49-.12-28.97-.07-43.46-.05-8.1,.01-10.31,1.68-12.51,9.45-1.29,4.56-2.55,9.14-3.74,13.73-1.42,5.46,.08,7.53,5.72,7.57,10.74,.08,21.48,0,32.22,.04,2.86,0,5.74-.27,8.56,.56,4.71,1.38,6.64,4.31,5.4,9.03-2.54,9.66-5.16,19.3-7.98,28.87-1.71,5.78-6.95,9.51-12.98,9.52-20.98,.04-41.96,.02-62.94,0-.96,0-2.01,.27-2.95-.59Z"/><path class="cls-5" d="M682.73,133.67c-7.27,26.45-14.36,52.27-21.6,78.65h44.46c.15,2.97-.99,5.2-1.63,7.54-.33,1.19-1.21,1.44-2.3,1.44-20.83,0-41.65,0-63.08,0,1.88-7.01,3.62-13.59,5.42-20.14,5.84-21.3,11.77-42.58,17.5-63.91,.77-2.85,2.02-3.76,4.9-3.63,5.22,.23,10.45,.06,16.35,.06Z"/><path class="cls-1" d="M741.01,265.95c-2.13,10.5-4.3,20.97-6.34,31.48-.35,1.8-1.42,1.79-2.69,1.7-1.83-.13-3.89,.77-4.88-2.03-2.04-5.76-4.4-11.41-6.63-17.1-.31-.79-.67-1.56-1.43-3.33-1.38,6.55-2.54,12.14-3.73,17.73q-1.12,5.25-7.18,4.33c1.38-6.95,2.74-13.89,4.13-20.83,.63-3.18,1.33-6.35,1.95-9.54,.29-1.49,.33-3.16,2.56-2.8,1.87,.3,4.15-1.04,5.23,2.08,2.04,5.89,4.5,11.64,6.8,17.44,.25,.63,.63,1.21,1.4,2.67,1.29-6.35,2.43-11.78,3.5-17.21,1.09-5.52,1.06-5.52,7.32-4.58Z"/><path class="cls-1" d="M872.75,298.9c2.16-10.78,4.31-21.29,6.36-31.81,.37-1.88,1.66-1.55,2.85-1.52,1.87,.05,3.8-.63,4.79,2.18,2.31,6.57,5.04,12.99,7.99,20.47,1.7-8.16,3.18-15.3,4.69-22.54h5.94c.17,3.03-.87,5.85-1.43,8.72-1.43,7.35-2.98,14.68-4.41,22.03-.3,1.57-.43,3.04-2.61,2.72-1.9-.28-4.11,.89-5.17-2.18-2.12-6.13-4.66-12.11-7.04-18.15-.18-.45-.46-.85-1.05-1.92-1.3,6.18-2.47,11.74-3.64,17.3q-1.09,5.16-7.27,4.7Z"/><path class="cls-1" d="M835.34,299.14c-1.78,0-3.15-.15-4.48,.03-2.17,.3-3.03-.69-3.69-2.64-.95-2.82-2.26-5.52-3.49-8.25-.88-1.94-2.31-3.1-4.56-3.3-2.56-.23-4.26,.25-4.41,3.31-.09,1.85-.64,3.68-1.02,5.51q-1.23,5.86-7.87,4.95c2.14-10.59,4.29-21.17,6.41-31.74,.2-1.01,.64-1.48,1.72-1.47,5.48,.05,10.98-.23,16.44,.15,4.54,.32,6.94,2.91,7.56,6.93,.72,4.66-1.15,8.79-5.01,10.75-1.3,.66-2.75,1.03-4.44,1.64,2.7,4.3,5.06,8.74,6.85,14.14Zm-18.81-19.19c3.73,.37,7.19,.56,10.55-.38,3.43-.96,5.27-4.96,3.52-7.24-.99-1.3-10.87-2.24-12.1-1.1-.33,.31-.53,.85-.62,1.32-.47,2.4-.89,4.81-1.36,7.41Z"/><path class="cls-1" d="M939.47,299.13c1.48-7.5,2.88-14.66,4.32-21.81,.59-2.93,1.43-5.83,1.78-8.79,.28-2.33,1.11-3.1,3.51-3.05,7.2,.17,14.4,.06,21.5,.06,.61,4.48-1.27,5.81-5.27,5.41-3.21-.33-6.49,.12-9.71-.12-2.74-.21-4.2,.58-4.39,3.45-.1,1.47-.52,2.92-.86,4.71h16.85q-.02,5.47-4.92,5.47c-1.75,0-3.49,0-5.24,0q-8.53,0-9.6,9.21h18.74c.43,4.5-1.33,5.75-5.33,5.56-6.94-.34-13.91-.09-21.36-.09Z"/><path class="cls-1" d="M786.17,265.55c-1.55,7.23-2.96,13.93-4.42,20.62-.63,2.87-1.51,5.71,2.39,7.09,3.87,1.37,8.4,.04,10.14-3.24,1.23-2.34,1.72-4.94,2.25-7.5,.88-4.27,1.97-8.53,2.48-12.84,.41-3.46,1.84-4.81,5.23-4.14,.59,.12,1.23,.02,2.54,.02-2.37,9.41-2.42,19.19-6.99,27.76-3.69,6.91-16.3,8.55-22.17,3.32-2.42-2.16-3.53-5-2.98-8.08,1.27-7.12,2.86-14.17,4.29-21.26,.27-1.34,.95-1.86,2.32-1.76,1.47,.1,2.96,.02,4.92,.02Z"/><path class="cls-1" d="M754.94,299.56c-4.56-.28-9.21-.81-11.6-5.66-.69-1.4-2.42-3.72,.35-4.66,1.86-.63,4.55-1.98,5.63,1.74,.75,2.58,3.32,2.67,5.58,2.76,2.41,.09,4.91-.01,6.3-2.34,1.27-2.13,.31-3.85-1.79-4.9-2.56-1.28-5.21-2.38-7.74-3.7-4.05-2.11-5.64-4.93-5.21-9.03,.45-4.23,3.03-6.76,6.85-8.03,6.92-2.31,14.47,.46,16.62,6.04,.47,1.21,1.82,3.01-.44,3.7-1.84,.56-4.3,1.59-5.49-1.03-1.65-3.61-4.57-3.89-7.79-3.37-1.48,.24-2.85,1.02-3.14,2.78-.28,1.76,.71,2.88,2.11,3.6,2.1,1.08,4.27,2.01,6.41,3.02,5.82,2.75,7.54,5.32,6.8,10.16-.68,4.47-4.63,7.95-9.94,8.7-1.1,.16-2.23,.14-3.51,.22Z"/><path class="cls-1" d="M868.38,298.99h-6.11c-.14-.27-.3-.57-.45-.88-.93-1.98,.43-5.57-1.71-6.01-3.94-.79-8.16-.28-12.26-.1-.52,.02-1.18,1.27-1.42,2.06-1.44,4.67-4.57,6.05-9.16,4.81-.32-1.18,.65-1.98,1.16-2.9,5.05-9.16,10.39-18.18,15.11-27.5,2-3.94,5-2.8,7.86-2.88,3.21-.09,1.93,2.75,2.19,4.2,1.71,9.56,3.17,19.16,4.78,29.2Zm-8.32-12.66c-.7-4.58-1.34-8.75-2.13-13.93-2.76,5.24-4.99,9.47-7.35,13.93h9.47Z"/><path class="cls-1" d="M938.2,275.67c-3,.24-5.82,1.63-7.85-2.71-1.62-3.46-7.86-2.74-11.06,.91-3.48,3.97-4.69,8.77-3.87,13.95,.46,2.89,2.11,5.12,5.15,5.77,2.96,.63,5.96-.37,7.17-2.86,2.18-4.49,5.12-4.03,8.67-2.45-2.52,7.89-9.16,12.21-17.32,11.15-3.2-.42-6.13-1.65-7.89-4.44-4.39-6.95-3.48-14.12,.04-21,3.27-6.38,8.92-9.21,16-8.87,6.42,.3,10.6,4.42,10.95,10.56Z"/><path class="cls-1" d="M708.09,265.83c-2.25,11.17-4.47,22.13-6.68,33.1-2.29,.28-4.36,.39-6.78-.09,1.86-9.34,3.67-18.58,5.55-27.8,1.19-5.83,1.24-5.82,7.92-5.2Z"/></svg>