<svg id="LEFT" xmlns="http://www.w3.org/2000/svg" xmlns:xlink="http://www.w3.org/1999/xlink" viewBox="0 0 1242 1083"><defs><style>.cls-1,.cls-4{fill:#fcfcfc;}.cls-1,.cls-12,.cls-2,.cls-5,.cls-6{stroke:#ededed;}.cls-1,.cls-13,.cls-16,.cls-19,.cls-2,.cls-21,.cls-22,.cls-23,.cls-6,.cls-9{stroke-miterlimit:10;}.cls-1,.cls-10,.cls-11,.cls-12,.cls-13,.cls-14,.cls-15,.cls-16,.cls-17,.cls-18,.cls-19,.cls-2,.cls-20,.cls-21,.cls-22,.cls-23,.cls-24,.cls-5,.cls-6,.cls-8,.cls-9{stroke-width:2px;}.cls-15,.cls-2,.cls-5,.cls-7{fill:#f6f6f6;}.cls-11,.cls-3{fill:#ededed;}.cls-10,.cls-11,.cls-12,.cls-14,.cls-15,.cls-17,.cls-18,.cls-19,.cls-20,.cls-24,.cls-5,.cls-8,.cls-9{stroke-linecap:round;}.cls-10,.cls-11,.cls-12,.cls-14,.cls-15,.cls-17,.cls-18,.cls-20,.cls-24,.cls-5,.cls-8{stroke-linejoin:round;}.cls-12,.cls-13,.cls-14,.cls-16,.cls-19,.cls-20,.cls-21,.cls-22,.cls-6{fill:none;}.cls-8{fill:#f9f9f9;}.cls-10,.cls-11,.cls-8,.cls-9{stroke:#dadada;}.cls-10,.cls-18,.cls-23,.cls-9{fill:#fff;}.cls-13,.cls-23{stroke:#f6f6f6;}.cls-14,.cls-15,.cls-16,.cls-17,.cls-18,.cls-19,.cls-24{stroke:#1d1d1b;}.cls-17{fill:#dedfdf;}.cls-20{stroke:url(#Безымянный_градиент_20);}.cls-21{stroke:url(#Безымянный_градиент_20-2);}.cls-22{stroke:url(#Безымянный_градиент_20-3);}.cls-24{fill:#c6c6c6;}</style><linearGradient id="Безымянный_градиент_20" x1="361.12" y1="813.87" x2="1014.17" y2="813.87" gradientUnits="userSpaceOnUse"><stop offset="0"/><stop offset="0.89" stop-color="#f6f6f6"/></linearGradient><linearGradient id="Безымянный_градиент_20-2" x1="715.2" y1="813.87" x2="1065.81" y2="813.87" xlink:href="#Безымянный_градиент_20"/><linearGradient id="Безымянный_градиент_20-3" x1="778.42" y1="814.81" x2="1078.81" y2="814.81" xlink:href="#Безымянный_градиент_20"/></defs><g id="left-street"><path class="cls-1" d="M777,642.48,777.11,407H809L860,443v156Z"/><path class="cls-2" d="M809,407V625.16H781.31q.36-109.06.74-218.13Z"/><line class="cls-1" x1="824.67" y1="419.01" x2="824.67" y2="363.2"/><circle class="cls-3" cx="824.67" cy="357.66" r="5.8"/><g id="h-back1"><path class="cls-1" d="M625.24,151.8l.1-49.75L569.12,59.56q-.21,45.45-.44,90.89Z"/><path class="cls-2" d="M569.12,139.8V59.56l-118.27,0V277.66l122.82,28.78Q571.39,223.11,569.12,139.8Z"/><rect class="cls-4" x="464.68" y="88.96" width="37.93" height="37.93"/><rect class="cls-4" x="516.74" y="88.96" width="37.93" height="37.93"/><rect class="cls-4" x="464.68" y="155.17" width="37.93" height="37.93"/><rect class="cls-4" x="516.74" y="155.17" width="37.93" height="37.93"/><rect class="cls-4" x="464.68" y="221.39" width="37.93" height="37.93"/><rect class="cls-4" x="516.74" y="221.39" width="37.93" height="37.93"/></g><g id="house-back2"><path class="cls-5" d="M691.82,690.35l-53.48,29.46H530.18v-579h162.4Z"/><path class="cls-1" d="M692.58,140.8l90.1,82.43q-.72,208.92-1.43,417.86l-89.43,49.26Z"/><path class="cls-6" d="M692.54,140.8V687.09l-53-.67"/><path class="cls-7" d="M707.81,256.32l-.24-47.93L733,227.88q0,22.23-.05,44.44Z"/><path class="cls-7" d="M746.33,280.86q-.11-21.44-.2-42.88l25.27,19.4-.07,39.41Z"/><polygon class="cls-7" points="707.57 306.79 707.57 360.57 732.97 369.58 732.97 319.51 707.57 306.79"/><polygon class="cls-7" points="746.13 326.1 746.13 374.25 771.4 383.22 771.4 338.76 746.13 326.1"/><polygon class="cls-7" points="707.57 408.15 732.97 413.87 732.97 462.79 707.57 460.69 707.57 408.15"/><polygon class="cls-7" points="746.13 416.84 746.13 463.88 771.4 465.96 771.4 422.54 746.13 416.84"/><polygon class="cls-7" points="707.57 510.24 707.57 559.88 732.97 555.13 732.97 508.91 707.57 510.24"/><polygon class="cls-7" points="746.13 508.23 746.13 552.66 771.4 547.94 771.4 506.91 746.13 508.23"/><rect class="cls-4" x="554.58" y="190.22" width="115.52" height="51.46"/><path class="cls-4" d="M555,306.44l-.38-8.8H670.1V349.1H639.69"/><path class="cls-4" d="M639.47,405.06H670.1v51.46H639.69"/><path class="cls-4" d="M639.09,512.47h31v51.47H639.69"/><g id="HALLOW_spider_web" data-name="HALLOW spider web"><path class="cls-6" d="M571.41,140.87l.49,100.81"/><path class="cls-6" d="M530.48,181.79l90.6-.87"/><path class="cls-6" d="M610.64,140.8l-80.46,84.76"/><path class="cls-6" d="M530.18,140.8,634.76,241.68"/><polygon class="cls-6" points="561.27 171.87 571.25 167.26 581.24 171.87 585.2 181.85 580.66 191.25 571.25 196.32 562.32 190.79 557.62 181.79 561.27 171.87"/><path class="cls-6" d="M553.8,163s10.59-.11,17.75-7c0,0,9.14,7.1,17.76,7,0,0,1.74,12.29,6.9,17.7,0,0-6.4,9.52-5.78,18.94,0,0-13.72,2.07-18.88,7.89,0,0-8.85-7.79-17.75-9,0,0-1.17-12.34-7.19-17.82A70.38,70.38,0,0,0,553.8,163Z"/><path class="cls-6" d="M546.86,155.63s14.76-.16,24.75-9.74c0,0,12.74,9.89,24.75,9.74,0,0,2.42,17.13,9.61,24.67,0,0-8.91,13.27-8.05,26.39,0,0-19.12,2.89-26.31,11,0,0-12.34-10.86-24.75-12.56,0,0-1.62-17.19-10-24.83A96.5,96.5,0,0,0,542,169.87,97.73,97.73,0,0,0,546.86,155.63Z"/><path class="cls-6" d="M607.65,143.15a100.88,100.88,0,0,0,13.43,37.77,43.71,43.71,0,0,0-6.27,8.91,46.59,46.59,0,0,0-5,25.67s-26,4.09-35.77,15.58c0,0-16.78-15.39-33.65-17.79,0,0-1.76-19.38-10.23-31.24"/></g></g><g id="house2"><path class="cls-8" d="M639.67,336.49Q639,528.84,638.34,721.2l-164.7,88.43.21-532Z"/><path class="cls-9" d="M501,336.71l111.14,32.87.18,60.53L501,410.17Z"/><polygon class="cls-10" points="500.53 455.36 612.34 469.43 612.34 528.93 500.53 528.93 500.53 455.36"/><polygon class="cls-10" points="500.53 567.76 612.34 559.88 612.34 619.76 500.53 641.9 500.53 567.76"/><polyline class="cls-9" points="501.02 341.2 607.21 374.39 607.21 429.19"/><polyline class="cls-10" points="501.02 459.51 607.21 474.32 607.21 528.93"/><polyline class="cls-10" points="606.64 620.89 607.21 566.93 544.81 570.61"/><line class="cls-9" x1="555.83" y1="357.8" x2="555.83" y2="419.68"/><line class="cls-10" x1="555.83" y1="467.27" x2="555.83" y2="529.79"/><path class="cls-11" d="M435.92,296.79h37.93l165.82,57.87V336.49L473.85,277.66H435.92Z"/><g id="HALLOW_spider_web-2" data-name="HALLOW spider web"><path class="cls-12" d="M504.57,305.17c-1.91,27.41,2.36,45.35-3.47,73.84"/><path class="cls-12" d="M476,332.53c22.87.71,42.61,6.12,65,8.29"/><path class="cls-12" d="M532.64,318.56l-58.38,44.12"/><path class="cls-12" d="M475.07,299c24.08,33,53.21,70.88,79.67,101.68"/><path class="cls-12" d="M495.93,325.37c2.08-1.68,4.83-1.87,7.45-2.15,2.84,1.83,5.61,3.75,8.37,5.71,1.35,2.9,2.69,5.8,4,8.74-.82,2.24-1.6,4.5-2.42,6.75a58.53,58.53,0,0,1-6.32,2.24c-2.43-1.94-5-3.78-7.49-5.58-1.56-2.57-3.18-5.1-4.74-7.67C495.17,330.74,495.48,328.05,495.93,325.37Z"/><path class="cls-12" d="M490.87,318.91A30.62,30.62,0,0,0,504,316a46.74,46.74,0,0,0,13.85,8.45,33.85,33.85,0,0,0,5.68,14.17c-2.58,4.39-3.5,9.49-4,14.49-5-.76-9.49-.65-13.95,1.83A26.44,26.44,0,0,0,493,346,26.27,26.27,0,0,0,487,332.19a56.41,56.41,0,0,0,2-5.7C489.61,324,490.24,321.45,490.87,318.91Z"/><path class="cls-12" d="M486.22,313a30.64,30.64,0,0,0,18.23-4,66.7,66.7,0,0,0,19.13,12.22,32.77,32.77,0,0,0,7,17.95c-4,6.53-5.34,14.47-6,22-7.13-1.51-13.6-2.22-20.25,1.27a34.28,34.28,0,0,0-16.63-12.31,32.76,32.76,0,0,0-7.28-18.44,40,40,0,0,0,3-7.83C484.37,320.23,485.23,316.57,486.22,313Z"/><path class="cls-12" d="M533.24,321a33,33,0,0,0,.42,3.79,35.61,35.61,0,0,0,7.4,16.07,24.07,24.07,0,0,0-4.18,7,65.44,65.44,0,0,0-3.79,24.28c-10.27-1.92-19.24-5.21-29.05,0-6-7.69-12.26-13.53-21.55-16.9l-6.7-22.48"/></g></g><g id="house1"><line class="cls-10" x1="473.85" y1="809.63" x2="436.4" y2="809.63"/><g id="house_decoration" data-name="house decoration"><line class="cls-13" x1="247.18" y1="46.74" x2="435.4" y2="90.42"/><line class="cls-13" x1="245.16" y1="63.96" x2="435.4" y2="108.11"/><line class="cls-13" x1="244.84" y1="116.89" x2="432.01" y2="156.68"/><line class="cls-13" x1="245.62" y1="134.45" x2="432.01" y2="172.03"/><line class="cls-13" x1="264.88" y1="154.46" x2="432.01" y2="186.15"/><line class="cls-13" x1="246.78" y1="169.53" x2="432.01" y2="203.62"/><line class="cls-13" x1="246.71" y1="185.81" x2="432.01" y2="221.18"/><line class="cls-13" x1="246.78" y1="203.62" x2="432.01" y2="246.77"/><line class="cls-13" x1="336.47" y1="242.84" x2="432.01" y2="265.61"/><line class="cls-13" x1="245.62" y1="221.18" x2="318.91" y2="238.66"/><line class="cls-13" x1="299.48" y1="251.64" x2="432.01" y2="283.84"/><line class="cls-13" x1="246.39" y1="238.74" x2="277.55" y2="246.31"/><line class="cls-13" x1="401.01" y1="294.31" x2="432.01" y2="301.84"/><line class="cls-13" x1="246" y1="256.66" x2="382.15" y2="289.72"/><line class="cls-13" x1="384.24" y1="113.32" x2="435.4" y2="125.09"/><line class="cls-13" x1="245.95" y1="81.52" x2="361.57" y2="108.11"/><line class="cls-13" x1="244.84" y1="99.33" x2="435.4" y2="140.8"/><line class="cls-13" x1="331.76" y1="341.81" x2="435.4" y2="364.24"/><line class="cls-13" x1="246.81" y1="323.43" x2="319.3" y2="339.11"/><line class="cls-13" x1="398.89" y1="375.11" x2="435.4" y2="383.22"/><line class="cls-13" x1="245.06" y1="340.99" x2="378.79" y2="370.66"/><line class="cls-13" x1="303.57" y1="370.66" x2="435.4" y2="398.32"/><line class="cls-13" x1="245.85" y1="358.55" x2="285.27" y2="366.82"/><line class="cls-13" x1="247.18" y1="378.43" x2="435.4" y2="411.82"/><line class="cls-13" x1="245.52" y1="411.48" x2="435.4" y2="445.28"/><line class="cls-13" x1="246.31" y1="427.72" x2="435.4" y2="462.84"/><line class="cls-13" x1="245.7" y1="445.28" x2="435.4" y2="478.68"/><path class="cls-13" d="M246.64,462.84l152.25,20.44"/><path class="cls-13" d="M245.7,480.65l189.7,14.51"/><line class="cls-13" x1="246.31" y1="515.77" x2="435.4" y2="516.13"/><line class="cls-13" x1="413.9" y1="529.47" x2="435.4" y2="528.93"/><line class="cls-13" x1="292.8" y1="532.51" x2="392.41" y2="530.01"/><line class="cls-13" x1="245.92" y1="533.69" x2="269.75" y2="533.09"/><line class="cls-13" x1="309.13" y1="548.34" x2="435.4" y2="542.47"/><line class="cls-13" x1="246.71" y1="551.25" x2="292.81" y2="549.1"/><line class="cls-13" x1="244.97" y1="567.63" x2="435.4" y2="556"/><line class="cls-13" x1="246.08" y1="602.75" x2="435.4" y2="585.19"/><line class="cls-13" x1="247.18" y1="620.26" x2="435.4" y2="603.09"/><line class="cls-13" x1="245.76" y1="655.68" x2="435.4" y2="638.12"/><line class="cls-13" x1="247.18" y1="674.63" x2="435.4" y2="656.02"/><line class="cls-13" x1="245.52" y1="692.3" x2="435.4" y2="674.63"/><line class="cls-13" x1="246.87" y1="707.04" x2="435.4" y2="687.09"/><line class="cls-13" x1="246.64" y1="722.88" x2="435.4" y2="699.84"/><path class="cls-13" d="M269.75,789.87l135-33"/><path class="cls-13" d="M247.18,812.38l188.22-51.9"/><path class="cls-13" d="M247.18,863,435.4,791.44"/><line class="cls-13" x1="348.91" y1="410.02" x2="348.91" y2="506.91"/><line class="cls-13" x1="277.44" y1="37.4" x2="277.44" y2="53.76"/><line class="cls-13" x1="309.13" y1="44.52" x2="309.13" y2="61.12"/><line class="cls-13" x1="340.12" y1="51.48" x2="340.28" y2="68.35"/><line class="cls-13" x1="372.49" y1="59.91" x2="372.49" y2="75.82"/><line class="cls-13" x1="405.13" y1="68.58" x2="405.13" y2="81.86"/><line class="cls-13" x1="421.54" y1="87.21" x2="421.55" y2="104.89"/><line class="cls-13" x1="388.7" y1="79.58" x2="388.7" y2="97.36"/><line class="cls-13" x1="355.79" y1="71.94" x2="355.79" y2="88.96"/><line class="cls-13" x1="292.85" y1="57.34" x2="292.85" y2="73.08"/><line class="cls-13" x1="260.75" y1="49.88" x2="260.75" y2="67.57"/><line class="cls-13" x1="277.44" y1="73.08" x2="277.44" y2="87.21"/><line class="cls-13" x1="260.75" y1="86.03" x2="260.75" y2="102.79"/><line class="cls-13" x1="277.44" y1="106.42" x2="277.44" y2="123.82"/><line class="cls-13" x1="260.75" y1="120.27" x2="260.75" y2="137.5"/><line class="cls-13" x1="277.44" y1="140.87" x2="277.44" y2="156.68"/><line class="cls-13" x1="260.75" y1="153.07" x2="260.75" y2="172.1"/><line class="cls-13" x1="277.44" y1="175.17" x2="277.44" y2="191.67"/><line class="cls-13" x1="260.75" y1="188.49" x2="260.75" y2="206.88"/><line class="cls-13" x1="277.44" y1="210.76" x2="277.44" y2="228.77"/><line class="cls-13" x1="260.75" y1="224.79" x2="260.75" y2="242.23"/><line class="cls-13" x1="309.13" y1="78.8" x2="309.13" y2="94.41"/><line class="cls-13" x1="339.39" y1="85.82" x2="339.39" y2="102.79"/><line class="cls-13" x1="372.49" y1="93.51" x2="372.49" y2="110.62"/><line class="cls-13" x1="421.55" y1="121.91" x2="421.55" y2="136.79"/><line class="cls-13" x1="388.7" y1="114.35" x2="388.7" y2="123.82"/><line class="cls-13" x1="355.79" y1="106.78" x2="355.79" y2="116.89"/><line class="cls-13" x1="323.4" y1="99.33" x2="323.4" y2="110.1"/><line class="cls-13" x1="292.85" y1="92.3" x2="292.85" y2="103.3"/><line class="cls-13" x1="421.54" y1="154.46" x2="421.54" y2="168.59"/><line class="cls-13" x1="421.54" y1="184.17" x2="421.54" y2="201.7"/><line class="cls-13" x1="421.55" y1="218.98" x2="421.54" y2="242.23"/><line class="cls-13" x1="309.13" y1="218.15" x2="309.13" y2="236.32"/><line class="cls-13" x1="292.85" y1="234.17" x2="292.85" y2="250.03"/><line class="cls-13" x1="260.75" y1="261.29" x2="260.75" y2="269.63"/><line class="cls-13" x1="292.85" y1="269.63" x2="292.85" y2="277.66"/><line class="cls-13" x1="309.13" y1="254.45" x2="309.13" y2="271.99"/><line class="cls-13" x1="339.2" y1="227.24" x2="339.2" y2="242.1"/><line class="cls-13" x1="369.48" y1="232.21" x2="369.48" y2="250.71"/><line class="cls-13" x1="297.05" y1="215.33" x2="297.05" y2="210.76"/><line class="cls-13" x1="354.71" y1="228.77" x2="354.71" y2="224.79"/><line class="cls-13" x1="394.27" y1="237.98" x2="394.27" y2="232.21"/><line class="cls-13" x1="405.13" y1="240.51" x2="405.13" y2="259.32"/><line class="cls-13" x1="326.7" y1="240.51" x2="326.7" y2="256.66"/><line class="cls-13" x1="355.79" y1="248.58" x2="355.79" y2="264.29"/><line class="cls-13" x1="338.42" y1="261.1" x2="338.42" y2="277.66"/><line class="cls-13" x1="326.7" y1="277.66" x2="326.7" y2="286"/><line class="cls-13" x1="355.79" y1="283.32" x2="355.79" y2="292.84"/><line class="cls-13" x1="369.48" y1="269.38" x2="369.48" y2="286"/><line class="cls-13" x1="388.69" y1="255.29" x2="388.69" y2="273.31"/><line class="cls-13" x1="421.54" y1="264.3" x2="421.54" y2="279.25"/><line class="cls-13" x1="388.69" y1="291.31" x2="388.69" y2="298.96"/><line class="cls-13" x1="260.75" y1="311.2" x2="260.75" y2="326.44"/><line class="cls-13" x1="277.44" y1="330.05" x2="277.44" y2="348.17"/><line class="cls-13" x1="260.75" y1="344.47" x2="260.75" y2="361.67"/><line class="cls-13" x1="277.44" y1="366.47" x2="277.44" y2="383.22"/><line class="cls-13" x1="259.76" y1="380.66" x2="259.76" y2="396.58"/><line class="cls-13" x1="277.44" y1="399.72" x2="277.44" y2="415.6"/><line class="cls-13" x1="259.76" y1="415" x2="259.76" y2="429.4"/><line class="cls-13" x1="277.44" y1="434.56" x2="277.44" y2="449.44"/><line class="cls-13" x1="259.76" y1="447.76" x2="259.76" y2="461.98"/><line class="cls-13" x1="277.44" y1="468.16" x2="277.44" y2="480.65"/><line class="cls-13" x1="259.76" y1="481.73" x2="259.76" y2="498.21"/><line class="cls-13" x1="277.44" y1="499.94" x2="277.44" y2="515.77"/><line class="cls-13" x1="259.76" y1="516.13" x2="259.76" y2="533.69"/><line class="cls-13" x1="277.44" y1="533.69" x2="277.44" y2="549.82"/><line class="cls-13" x1="259.76" y1="551.73" x2="259.76" y2="566.72"/><line class="cls-13" x1="277.44" y1="565.64" x2="277.44" y2="581.44"/><line class="cls-13" x1="259.76" y1="584.02" x2="259.76" y2="600.16"/><line class="cls-13" x1="277.44" y1="599.84" x2="277.44" y2="615.76"/><line class="cls-13" x1="295.21" y1="318.82" x2="295.21" y2="333.9"/><line class="cls-13" x1="326.7" y1="326.36" x2="326.7" y2="339.11"/><line class="cls-13" x1="355.79" y1="347.01" x2="355.79" y2="332.55"/><line class="cls-13" x1="388.69" y1="340.99" x2="388.69" y2="353.07"/><line class="cls-13" x1="421.54" y1="347.01" x2="421.54" y2="361.24"/><line class="cls-13" x1="405.13" y1="358.55" x2="405.13" y2="376.5"/><line class="cls-13" x1="421.54" y1="380.66" x2="421.54" y2="393.92"/><line class="cls-13" x1="405.13" y1="393.92" x2="405.13" y2="406.45"/><line class="cls-13" x1="421.54" y1="409.36" x2="421.54" y2="425.26"/><line class="cls-13" x1="421.54" y1="442.81" x2="421.54" y2="458.46"/><line class="cls-13" x1="421.54" y1="515.77" x2="421.54" y2="528.93"/><line class="cls-13" x1="421.54" y1="476.24" x2="421.54" y2="494.1"/><line class="cls-13" x1="388.69" y1="374.39" x2="388.69" y2="387.29"/><line class="cls-13" x1="355.79" y1="365.55" x2="355.79" y2="380.84"/><line class="cls-13" x1="326.7" y1="361.24" x2="326.7" y2="375.51"/><line class="cls-13" x1="295.21" y1="352.11" x2="295.21" y2="368.37"/><line class="cls-13" x1="309.13" y1="336.91" x2="309.13" y2="354.66"/><line class="cls-13" x1="309.13" y1="371.82" x2="309.13" y2="390.38"/><line class="cls-13" x1="340.28" y1="344.47" x2="340.28" y2="361.24"/><line class="cls-13" x1="372.86" y1="385.19" x2="372.86" y2="400.73"/><line class="cls-13" x1="369.48" y1="352.11" x2="369.48" y2="367.52"/><line class="cls-13" x1="340.28" y1="378.43" x2="340.28" y2="393.92"/><line class="cls-13" x1="312.49" y1="515.77" x2="312.49" y2="507.86"/><line class="cls-13" x1="392.41" y1="515.95" x2="392.41" y2="509.84"/><line class="cls-13" x1="405.13" y1="531.31" x2="405.13" y2="542.65"/><line class="cls-13" x1="405.13" y1="559.51" x2="405.13" y2="572.34"/><line class="cls-13" x1="421.54" y1="572.34" x2="421.54" y2="585.53"/><line class="cls-13" x1="405.13" y1="588" x2="405.13" y2="592.09"/><line class="cls-13" x1="421.54" y1="604.35" x2="421.54" y2="618.59"/><line class="cls-13" x1="421.54" y1="641.9" x2="421.54" y2="656.02"/><line class="cls-13" x1="421.54" y1="675.92" x2="421.54" y2="688.56"/><line class="cls-13" x1="372.86" y1="516.13" x2="372.86" y2="528.93"/><line class="cls-13" x1="341.29" y1="515.77" x2="341.29" y2="531.3"/><line class="cls-13" x1="301.69" y1="516.13" x2="301.69" y2="531.3"/><line class="cls-13" x1="312.49" y1="531.3" x2="312.49" y2="546.86"/><line class="cls-13" x1="355.79" y1="531.48" x2="355.79" y2="546.17"/><line class="cls-13" x1="392.41" y1="543.65" x2="392.41" y2="558.62"/><line class="cls-13" x1="340.58" y1="546.17" x2="340.58" y2="558.62"/><line class="cls-13" x1="301.69" y1="548.69" x2="301.69" y2="561.81"/><line class="cls-13" x1="314.07" y1="563.94" x2="314.07" y2="578.93"/><line class="cls-13" x1="301.69" y1="581.44" x2="301.69" y2="596.95"/><line class="cls-13" x1="340.19" y1="578.93" x2="340.19" y2="592.09"/><line class="cls-13" x1="361.12" y1="560.53" x2="361.12" y2="576.41"/><line class="cls-13" x1="382.15" y1="573.54" x2="382.15" y2="588"/><line class="cls-13" x1="360.98" y1="592.09" x2="360.98" y2="596.95"/><line class="cls-13" x1="314.07" y1="596.95" x2="314.07" y2="602.75"/><line class="cls-13" x1="259.76" y1="619.11" x2="259.76" y2="635.88"/><line class="cls-13" x1="277.44" y1="635.88" x2="277.44" y2="652.75"/><line class="cls-13" x1="259.76" y1="673.39" x2="259.76" y2="656.02"/><line class="cls-13" x1="277.44" y1="671.64" x2="277.44" y2="687.09"/><line class="cls-13" x1="259.76" y1="690.97" x2="259.76" y2="703.07"/><line class="cls-13" x1="277.44" y1="703.81" x2="277.44" y2="717.63"/><line class="cls-13" x1="259.76" y1="722.88" x2="259.76" y2="740.12"/><line class="cls-13" x1="277.44" y1="737.23" x2="277.44" y2="752.04"/><line class="cls-13" x1="259.76" y1="759.97" x2="259.76" y2="772.69"/><line class="cls-13" x1="277.44" y1="772.69" x2="277.44" y2="786.85"/><line class="cls-13" x1="259.76" y1="792.31" x2="259.76" y2="808.91"/><line class="cls-13" x1="276.62" y1="804.26" x2="276.62" y2="819.72"/><line class="cls-13" x1="259.76" y1="827.22" x2="259.76" y2="842.91"/><line class="cls-13" x1="276.62" y1="838.38" x2="276.62" y2="849.95"/><line class="cls-13" x1="259.8" y1="858.2" x2="259.8" y2="876.59"/><line class="cls-13" x1="276.62" y1="873.75" x2="276.62" y2="885.53"/><line class="cls-13" x1="259.8" y1="896.14" x2="259.8" y2="904.05"/><line class="cls-13" x1="421.54" y1="727.41" x2="421.54" y2="743.49"/><line class="cls-13" x1="421.54" y1="766.33" x2="421.54" y2="779.77"/><line class="cls-13" x1="421.54" y1="800.61" x2="421.54" y2="815.01"/><line class="cls-13" x1="153.24" y1="812.04" x2="232.37" y2="812.04"/><line class="cls-13" x1="29.55" y1="812.04" x2="145.97" y2="812.04"/><polyline class="cls-13" points="67.73 829.6 245.69 829.6 435.4 776.53"/><line class="cls-13" x1="29.55" y1="829.6" x2="60.53" y2="829.6"/><path class="cls-13" d="M221.81,847.16h24.66l164-52.51"/><line class="cls-13" x1="153.24" y1="847.16" x2="214.61" y2="847.16"/><line class="cls-13" x1="30.34" y1="847.16" x2="130.63" y2="847.16"/><line class="cls-13" x1="45.04" y1="864.97" x2="232.04" y2="864.97"/><path class="cls-13" d="M29.23,882.53H245.36l164-67.52"/><path class="cls-13" d="M30,900.09H246.15L435.4,809.63"/><polyline class="cls-13" points="30.02 916.28 246.15 916.28 435.4 823.56"/><line class="cls-13" x1="90.29" y1="795.8" x2="90.29" y2="812.04"/><line class="cls-13" x1="72.53" y1="812.04" x2="72.53" y2="829.6"/><line class="cls-13" x1="54.29" y1="829.6" x2="54.29" y2="847.16"/><line class="cls-13" x1="90.29" y1="829.6" x2="90.29" y2="847.16"/><line class="cls-13" x1="72.53" y1="847.16" x2="72.53" y2="864.97"/><line class="cls-13" x1="54.29" y1="864.97" x2="54.29" y2="882.53"/><line class="cls-13" x1="72.53" y1="882.53" x2="72.53" y2="900.09"/><line class="cls-13" x1="124.85" y1="796.14" x2="124.85" y2="812.38"/><line class="cls-13" x1="160.85" y1="796.14" x2="160.85" y2="812.38"/><line class="cls-13" x1="143.09" y1="812.38" x2="143.09" y2="829.94"/><line class="cls-13" x1="124.85" y1="829.94" x2="124.85" y2="847.5"/><line class="cls-13" x1="160.85" y1="829.94" x2="160.85" y2="847.5"/><line class="cls-13" x1="193.01" y1="796.14" x2="193.01" y2="812.38"/><line class="cls-13" x1="211.25" y1="812.38" x2="211.25" y2="829.94"/><line class="cls-13" x1="193.01" y1="829.94" x2="193.01" y2="847.5"/><line class="cls-13" x1="106.61" y1="812.04" x2="106.61" y2="829.6"/><line class="cls-13" x1="177.64" y1="812.04" x2="177.64" y2="829.6"/><line class="cls-13" x1="106.61" y1="847.5" x2="106.61" y2="858.2"/><line class="cls-13" x1="143.09" y1="847.5" x2="143.09" y2="858.2"/><line class="cls-13" x1="177.64" y1="847.5" x2="177.64" y2="856.07"/><line class="cls-13" x1="211.25" y1="847.16" x2="211.25" y2="863"/><line class="cls-13" x1="193.01" y1="864.97" x2="193.01" y2="882.53"/><line class="cls-13" x1="211.25" y1="882.53" x2="211.25" y2="900.09"/><line class="cls-13" x1="125.24" y1="882.53" x2="125.24" y2="900.09"/><line class="cls-13" x1="161.64" y1="882.53" x2="161.64" y2="900.09"/><line class="cls-13" x1="90.68" y1="864.97" x2="90.68" y2="882.53"/><line class="cls-13" x1="90.68" y1="900.09" x2="90.68" y2="916.28"/><line class="cls-13" x1="53.89" y1="900.09" x2="53.89" y2="916.28"/><line class="cls-13" x1="72.92" y1="916.28" x2="72.92" y2="934"/><line class="cls-13" x1="111.61" y1="916.28" x2="111.61" y2="937.11"/><line class="cls-13" x1="211.64" y1="916.28" x2="211.64" y2="934"/><line class="cls-13" x1="192.41" y1="900.09" x2="192.41" y2="916.28"/><line class="cls-13" x1="145.57" y1="900.09" x2="145.57" y2="916.28"/><line class="cls-13" x1="142.69" y1="865.66" x2="142.69" y2="881.85"/><line class="cls-13" x1="30.73" y1="707.04" x2="246.87" y2="707.04"/><line class="cls-13" x1="202.21" y1="724.85" x2="232.44" y2="724.85"/><line class="cls-13" x1="107" y1="724.85" x2="188.29" y2="724.85"/><line class="cls-13" x1="29.62" y1="724.85" x2="98.53" y2="724.85"/><polyline class="cls-13" points="72.92 742.41 245.76 742.41 435.4 711.36"/><line class="cls-13" x1="29.62" y1="742.41" x2="67.33" y2="742.41"/><polyline class="cls-13" points="152.84 759.97 246.54 759.97 435.4 724.84"/><line class="cls-13" x1="30.41" y1="759.97" x2="134.65" y2="759.97"/><line class="cls-13" x1="54.68" y1="655.68" x2="54.68" y2="671.92"/><line class="cls-13" x1="90.68" y1="655.68" x2="90.68" y2="671.92"/><path class="cls-13" d="M72.92,689.48V671.92H232.76"/><line class="cls-13" x1="54.68" y1="689.48" x2="54.68" y2="707.04"/><line class="cls-13" x1="90.68" y1="689.48" x2="90.68" y2="707.04"/><line class="cls-13" x1="72.92" y1="707.04" x2="72.92" y2="724.85"/><line class="cls-13" x1="54.68" y1="724.85" x2="54.68" y2="742.41"/><line class="cls-13" x1="72.92" y1="742.41" x2="72.92" y2="759.97"/><line class="cls-13" x1="125.24" y1="656.02" x2="125.24" y2="672.26"/><line class="cls-13" x1="161.24" y1="656.02" x2="161.24" y2="672.26"/><line class="cls-13" x1="143.48" y1="672.26" x2="143.48" y2="689.82"/><line class="cls-13" x1="161.24" y1="689.82" x2="161.24" y2="707.38"/><line class="cls-13" x1="193.4" y1="656.02" x2="193.4" y2="672.26"/><path class="cls-13" d="M211.64,672.26v17.23H30"/><line class="cls-13" x1="193.4" y1="689.82" x2="193.4" y2="707.38"/><line class="cls-13" x1="107" y1="671.92" x2="107" y2="689.48"/><line class="cls-13" x1="178.03" y1="671.92" x2="178.03" y2="689.48"/><line class="cls-13" x1="107" y1="707.38" x2="107" y2="724.85"/><line class="cls-13" x1="143.48" y1="707.38" x2="143.48" y2="724.85"/><line class="cls-13" x1="178.03" y1="707.38" x2="178.03" y2="724.85"/><line class="cls-13" x1="211.64" y1="707.04" x2="211.64" y2="722.88"/><line class="cls-13" x1="193.4" y1="724.85" x2="193.4" y2="742.41"/><line class="cls-13" x1="211.64" y1="742.41" x2="211.64" y2="759.97"/><line class="cls-13" x1="89.89" y1="724.85" x2="89.89" y2="742.41"/><line class="cls-13" x1="125.24" y1="724.85" x2="125.24" y2="740.21"/><line class="cls-13" x1="161.24" y1="724.85" x2="161.24" y2="742.41"/><line class="cls-13" x1="178.03" y1="742.41" x2="178.03" y2="759.97"/><line class="cls-13" x1="107" y1="742.41" x2="107" y2="759.97"/><polyline class="cls-13" points="30.02 777.89 246.15 777.89 435.4 741.18"/><line class="cls-13" x1="30.8" y1="795.45" x2="246.94" y2="795.45"/><line class="cls-13" x1="73.32" y1="777.89" x2="73.32" y2="795.45"/><line class="cls-13" x1="193.8" y1="760.33" x2="193.8" y2="777.89"/><line class="cls-13" x1="212.04" y1="777.89" x2="212.04" y2="795.45"/><line class="cls-13" x1="90.29" y1="760.33" x2="90.29" y2="777.89"/><line class="cls-13" x1="125.64" y1="760.33" x2="125.64" y2="775.68"/><line class="cls-13" x1="161.64" y1="760.33" x2="161.64" y2="777.89"/><line class="cls-13" x1="178.43" y1="777.89" x2="178.43" y2="795.45"/><line class="cls-13" x1="143.88" y1="777.89" x2="143.88" y2="795.8"/><line class="cls-13" x1="107.4" y1="777.89" x2="107.4" y2="795.45"/><line class="cls-13" x1="152.84" y1="567.63" x2="231.97" y2="567.63"/><line class="cls-13" x1="29.16" y1="567.63" x2="145.57" y2="567.63"/><polyline class="cls-13" points="67.33 585.19 245.29 585.19 435.4 569.91"/><line class="cls-13" x1="29.16" y1="585.19" x2="60.13" y2="585.19"/><line class="cls-13" x1="221.41" y1="602.75" x2="246.08" y2="602.75"/><line class="cls-13" x1="152.84" y1="602.75" x2="214.21" y2="602.75"/><line class="cls-13" x1="29.94" y1="602.75" x2="130.24" y2="602.75"/><line class="cls-13" x1="44.64" y1="620.56" x2="231.65" y2="620.56"/><polyline class="cls-13" points="28.83 638.12 244.97 638.12 435.4 620.89"/><line class="cls-13" x1="29.62" y1="655.68" x2="245.76" y2="655.68"/><line class="cls-13" x1="89.89" y1="551.39" x2="89.89" y2="567.63"/><line class="cls-13" x1="72.13" y1="567.63" x2="72.13" y2="585.19"/><line class="cls-13" x1="53.89" y1="585.19" x2="53.89" y2="602.75"/><line class="cls-13" x1="89.89" y1="585.19" x2="89.89" y2="602.75"/><line class="cls-13" x1="72.13" y1="602.75" x2="72.13" y2="620.56"/><line class="cls-13" x1="53.89" y1="620.56" x2="53.89" y2="638.12"/><line class="cls-13" x1="72.13" y1="638.12" x2="72.13" y2="655.68"/><line class="cls-13" x1="124.45" y1="551.73" x2="124.45" y2="567.97"/><line class="cls-13" x1="160.45" y1="551.73" x2="160.45" y2="567.97"/><line class="cls-13" x1="142.69" y1="567.97" x2="142.69" y2="585.53"/><line class="cls-13" x1="124.45" y1="585.53" x2="124.45" y2="603.09"/><line class="cls-13" x1="160.45" y1="585.53" x2="160.45" y2="603.09"/><line class="cls-13" x1="192.61" y1="551.73" x2="192.61" y2="567.97"/><line class="cls-13" x1="210.85" y1="567.97" x2="210.85" y2="585.53"/><line class="cls-13" x1="192.61" y1="585.53" x2="192.61" y2="603.09"/><line class="cls-13" x1="106.21" y1="567.63" x2="106.21" y2="585.19"/><line class="cls-13" x1="177.24" y1="567.63" x2="177.24" y2="585.19"/><line class="cls-13" x1="106.21" y1="603.09" x2="106.21" y2="613.79"/><line class="cls-13" x1="142.69" y1="603.09" x2="142.69" y2="613.79"/><line class="cls-13" x1="177.24" y1="603.09" x2="177.24" y2="611.65"/><line class="cls-13" x1="210.85" y1="602.75" x2="210.85" y2="618.59"/><line class="cls-13" x1="192.61" y1="620.56" x2="192.61" y2="638.12"/><line class="cls-13" x1="210.85" y1="638.12" x2="210.85" y2="655.68"/><line class="cls-13" x1="30.5" y1="462.84" x2="246.64" y2="462.84"/><line class="cls-13" x1="201.98" y1="480.65" x2="232.2" y2="480.65"/><line class="cls-13" x1="106.77" y1="480.65" x2="188.06" y2="480.65"/><line class="cls-13" x1="29.39" y1="480.65" x2="98.3" y2="480.65"/><polyline class="cls-13" points="72.69 498.21 245.52 498.21 435.4 508.5"/><line class="cls-13" x1="29.39" y1="498.21" x2="67.1" y2="498.21"/><line class="cls-13" x1="152.61" y1="515.77" x2="246.31" y2="515.77"/><line class="cls-13" x1="30.18" y1="515.77" x2="134.42" y2="515.77"/><line class="cls-13" x1="54.45" y1="411.48" x2="54.45" y2="427.72"/><line class="cls-13" x1="90.45" y1="411.48" x2="90.45" y2="427.72"/><path class="cls-13" d="M72.69,445.28V427.72H232.53"/><line class="cls-13" x1="54.45" y1="445.28" x2="54.45" y2="462.84"/><line class="cls-13" x1="90.45" y1="445.28" x2="90.45" y2="462.84"/><line class="cls-13" x1="72.69" y1="462.84" x2="72.69" y2="480.65"/><line class="cls-13" x1="54.45" y1="480.65" x2="54.45" y2="498.21"/><line class="cls-13" x1="72.69" y1="498.21" x2="72.69" y2="515.77"/><line class="cls-13" x1="125.01" y1="411.82" x2="125.01" y2="428.06"/><line class="cls-13" x1="161.01" y1="411.82" x2="161.01" y2="428.06"/><line class="cls-13" x1="143.25" y1="428.06" x2="143.25" y2="445.62"/><line class="cls-13" x1="161.01" y1="445.62" x2="161.01" y2="463.18"/><line class="cls-13" x1="193.17" y1="411.82" x2="193.17" y2="428.06"/><path class="cls-13" d="M211.41,428.06v17.23H29.71"/><line class="cls-13" x1="193.17" y1="445.62" x2="193.17" y2="463.18"/><line class="cls-13" x1="106.77" y1="427.72" x2="106.77" y2="445.28"/><line class="cls-13" x1="177.8" y1="427.72" x2="177.8" y2="445.28"/><line class="cls-13" x1="106.77" y1="463.18" x2="106.77" y2="480.65"/><line class="cls-13" x1="143.25" y1="463.18" x2="143.25" y2="480.65"/><line class="cls-13" x1="177.8" y1="463.18" x2="177.8" y2="480.65"/><line class="cls-13" x1="211.41" y1="462.84" x2="211.41" y2="478.68"/><line class="cls-13" x1="193.17" y1="480.65" x2="193.17" y2="498.21"/><line class="cls-13" x1="211.41" y1="498.21" x2="211.41" y2="515.77"/><line class="cls-13" x1="89.66" y1="480.65" x2="89.66" y2="498.21"/><line class="cls-13" x1="125.01" y1="480.65" x2="125.01" y2="496.01"/><line class="cls-13" x1="161.01" y1="480.65" x2="161.01" y2="498.21"/><line class="cls-13" x1="177.8" y1="498.21" x2="177.8" y2="515.77"/><line class="cls-13" x1="106.77" y1="498.21" x2="106.77" y2="515.77"/><line class="cls-13" x1="29.78" y1="533.69" x2="245.92" y2="533.69"/><line class="cls-13" x1="30.57" y1="551.25" x2="246.71" y2="551.25"/><line class="cls-13" x1="73.08" y1="533.69" x2="73.08" y2="551.25"/><line class="cls-13" x1="193.56" y1="516.13" x2="193.56" y2="533.69"/><line class="cls-13" x1="211.8" y1="533.69" x2="211.8" y2="551.25"/><line class="cls-13" x1="90.05" y1="516.13" x2="90.05" y2="533.69"/><line class="cls-13" x1="125.4" y1="516.13" x2="125.4" y2="531.48"/><line class="cls-13" x1="161.4" y1="516.13" x2="161.4" y2="533.69"/><line class="cls-13" x1="178.19" y1="533.69" x2="178.19" y2="551.25"/><line class="cls-13" x1="143.64" y1="533.69" x2="143.64" y2="551.6"/><line class="cls-13" x1="107.16" y1="533.69" x2="107.16" y2="551.25"/><line class="cls-13" x1="152.61" y1="323.43" x2="231.74" y2="323.43"/><line class="cls-13" x1="28.92" y1="323.43" x2="145.34" y2="323.43"/><line class="cls-13" x1="67.1" y1="340.99" x2="245.06" y2="340.99"/><line class="cls-13" x1="28.92" y1="340.99" x2="59.9" y2="340.99"/><line class="cls-13" x1="221.18" y1="358.55" x2="245.85" y2="358.55"/><line class="cls-13" x1="152.61" y1="358.55" x2="213.98" y2="358.55"/><line class="cls-13" x1="29.71" y1="358.55" x2="130.01" y2="358.55"/><line class="cls-13" x1="44.41" y1="376.36" x2="231.42" y2="376.36"/><polyline class="cls-13" points="28.6 393.92 244.73 393.92 435.4 427.72"/><line class="cls-13" x1="29.39" y1="411.48" x2="245.52" y2="411.48"/><line class="cls-13" x1="89.66" y1="307.19" x2="89.66" y2="323.43"/><line class="cls-13" x1="71.9" y1="323.43" x2="71.9" y2="340.99"/><line class="cls-13" x1="53.66" y1="340.99" x2="53.66" y2="358.55"/><line class="cls-13" x1="89.66" y1="340.99" x2="89.66" y2="358.55"/><line class="cls-13" x1="71.9" y1="358.55" x2="71.9" y2="376.36"/><line class="cls-13" x1="53.66" y1="376.36" x2="53.66" y2="393.92"/><line class="cls-13" x1="71.9" y1="393.92" x2="71.9" y2="411.48"/><line class="cls-13" x1="124.22" y1="307.53" x2="124.22" y2="323.77"/><line class="cls-13" x1="160.22" y1="307.53" x2="160.22" y2="323.77"/><line class="cls-13" x1="142.46" y1="323.77" x2="142.46" y2="341.33"/><line class="cls-13" x1="124.22" y1="341.33" x2="124.22" y2="358.89"/><line class="cls-13" x1="160.22" y1="341.33" x2="160.22" y2="358.89"/><line class="cls-13" x1="192.38" y1="307.53" x2="192.38" y2="323.77"/><line class="cls-13" x1="210.62" y1="323.77" x2="210.62" y2="341.33"/><line class="cls-13" x1="192.38" y1="341.33" x2="192.38" y2="358.89"/><line class="cls-13" x1="105.98" y1="323.43" x2="105.98" y2="340.99"/><line class="cls-13" x1="177.01" y1="323.43" x2="177.01" y2="340.99"/><line class="cls-13" x1="105.98" y1="358.89" x2="105.98" y2="369.59"/><line class="cls-13" x1="142.46" y1="358.89" x2="142.46" y2="369.59"/><line class="cls-13" x1="177.01" y1="358.89" x2="177.01" y2="367.45"/><line class="cls-13" x1="210.62" y1="358.55" x2="210.62" y2="374.39"/><line class="cls-13" x1="192.38" y1="376.36" x2="192.38" y2="393.92"/><line class="cls-13" x1="210.62" y1="393.92" x2="210.62" y2="411.48"/><line class="cls-13" x1="30.61" y1="185.81" x2="246.74" y2="185.81"/><line class="cls-13" x1="202.09" y1="203.62" x2="232.31" y2="203.62"/><line class="cls-13" x1="106.88" y1="203.62" x2="188.17" y2="203.62"/><line class="cls-13" x1="29.49" y1="203.62" x2="98.41" y2="203.62"/><line class="cls-13" x1="72.8" y1="221.18" x2="245.63" y2="221.18"/><line class="cls-13" x1="29.49" y1="221.18" x2="67.21" y2="221.18"/><line class="cls-13" x1="152.72" y1="238.74" x2="246.42" y2="238.74"/><line class="cls-13" x1="30.28" y1="238.74" x2="134.53" y2="238.74"/><line class="cls-13" x1="54.56" y1="134.45" x2="54.56" y2="150.69"/><line class="cls-13" x1="90.56" y1="134.45" x2="90.56" y2="150.69"/><path class="cls-13" d="M72.8,168.25V150.69H232.64"/><line class="cls-13" x1="54.56" y1="168.25" x2="54.56" y2="185.81"/><line class="cls-13" x1="90.56" y1="168.25" x2="90.56" y2="185.81"/><line class="cls-13" x1="72.8" y1="185.81" x2="72.8" y2="203.62"/><line class="cls-13" x1="54.56" y1="203.62" x2="54.56" y2="221.18"/><line class="cls-13" x1="72.8" y1="221.18" x2="72.8" y2="238.74"/><line class="cls-13" x1="125.12" y1="134.79" x2="125.12" y2="151.03"/><line class="cls-13" x1="161.12" y1="134.79" x2="161.12" y2="151.03"/><line class="cls-13" x1="143.36" y1="151.03" x2="143.36" y2="168.59"/><line class="cls-13" x1="161.12" y1="168.59" x2="161.12" y2="186.15"/><line class="cls-13" x1="193.28" y1="134.79" x2="193.28" y2="151.03"/><path class="cls-13" d="M211.52,151v17.22H29.82"/><line class="cls-13" x1="193.28" y1="168.59" x2="193.28" y2="186.15"/><line class="cls-13" x1="106.88" y1="150.69" x2="106.88" y2="168.25"/><line class="cls-13" x1="177.91" y1="150.69" x2="177.91" y2="168.25"/><line class="cls-13" x1="106.88" y1="186.15" x2="106.88" y2="203.62"/><line class="cls-13" x1="143.36" y1="186.15" x2="143.36" y2="203.62"/><line class="cls-13" x1="177.91" y1="186.15" x2="177.91" y2="203.62"/><line class="cls-13" x1="211.52" y1="185.81" x2="211.52" y2="201.65"/><line class="cls-13" x1="193.28" y1="203.62" x2="193.28" y2="221.18"/><line class="cls-13" x1="211.52" y1="221.18" x2="211.52" y2="238.74"/><line class="cls-13" x1="89.77" y1="203.62" x2="89.77" y2="221.18"/><line class="cls-13" x1="125.12" y1="203.62" x2="125.12" y2="218.98"/><line class="cls-13" x1="161.12" y1="203.62" x2="161.12" y2="221.18"/><line class="cls-13" x1="177.91" y1="221.18" x2="177.91" y2="238.74"/><line class="cls-13" x1="106.88" y1="221.18" x2="106.88" y2="238.74"/><line class="cls-13" x1="29.89" y1="256.66" x2="246.02" y2="256.66"/><line class="cls-13" x1="30.68" y1="274.22" x2="246.81" y2="274.22"/><line class="cls-13" x1="73.19" y1="256.66" x2="73.19" y2="274.22"/><line class="cls-13" x1="193.67" y1="239.1" x2="193.67" y2="256.66"/><line class="cls-13" x1="211.91" y1="256.66" x2="211.91" y2="274.22"/><line class="cls-13" x1="90.16" y1="239.1" x2="90.16" y2="256.66"/><line class="cls-13" x1="125.51" y1="239.1" x2="125.51" y2="254.45"/><line class="cls-13" x1="161.51" y1="239.1" x2="161.51" y2="256.66"/><line class="cls-13" x1="178.3" y1="256.66" x2="178.3" y2="274.22"/><line class="cls-13" x1="143.75" y1="256.66" x2="143.75" y2="274.57"/><line class="cls-13" x1="107.27" y1="256.66" x2="107.27" y2="274.22"/><line class="cls-13" x1="152.72" y1="46.4" x2="231.85" y2="46.4"/><line class="cls-13" x1="29.03" y1="46.4" x2="145.45" y2="46.4"/><line class="cls-13" x1="67.21" y1="63.96" x2="245.16" y2="63.96"/><line class="cls-13" x1="29.03" y1="63.96" x2="60.01" y2="63.96"/><line class="cls-13" x1="221.29" y1="81.52" x2="245.95" y2="81.52"/><line class="cls-13" x1="152.72" y1="81.52" x2="214.09" y2="81.52"/><line class="cls-13" x1="29.82" y1="81.52" x2="130.11" y2="81.52"/><line class="cls-13" x1="44.52" y1="99.33" x2="231.52" y2="99.33"/><line class="cls-13" x1="28.71" y1="116.89" x2="244.84" y2="116.89"/><line class="cls-13" x1="29.49" y1="134.45" x2="245.63" y2="134.45"/><line class="cls-13" x1="89.77" y1="30.16" x2="89.77" y2="46.4"/><line class="cls-13" x1="72.01" y1="46.4" x2="72.01" y2="63.96"/><line class="cls-13" x1="53.77" y1="63.96" x2="53.77" y2="81.52"/><line class="cls-13" x1="89.77" y1="63.96" x2="89.77" y2="81.52"/><line class="cls-13" x1="72.01" y1="81.52" x2="72.01" y2="99.33"/><line class="cls-13" x1="53.77" y1="99.33" x2="53.77" y2="116.89"/><line class="cls-13" x1="72.01" y1="116.89" x2="72.01" y2="134.45"/><line class="cls-13" x1="124.33" y1="30.5" x2="124.33" y2="46.74"/><line class="cls-13" x1="160.33" y1="30.5" x2="160.33" y2="46.74"/><line class="cls-13" x1="142.57" y1="46.74" x2="142.57" y2="64.3"/><line class="cls-13" x1="124.33" y1="64.3" x2="124.33" y2="81.86"/><line class="cls-13" x1="160.33" y1="64.3" x2="160.33" y2="81.86"/><line class="cls-13" x1="192.49" y1="30.5" x2="192.49" y2="46.74"/><line class="cls-13" x1="210.73" y1="46.74" x2="210.73" y2="64.3"/><line class="cls-13" x1="192.49" y1="64.3" x2="192.49" y2="81.86"/><line class="cls-13" x1="106.09" y1="46.4" x2="106.09" y2="63.96"/><line class="cls-13" x1="177.12" y1="46.4" x2="177.12" y2="63.96"/><line class="cls-13" x1="106.09" y1="81.86" x2="106.09" y2="92.56"/><line class="cls-13" x1="142.57" y1="81.86" x2="142.57" y2="92.56"/><line class="cls-13" x1="177.12" y1="81.86" x2="177.12" y2="90.42"/><line class="cls-13" x1="210.73" y1="81.52" x2="210.73" y2="97.36"/><line class="cls-13" x1="192.49" y1="99.33" x2="192.49" y2="116.89"/><line class="cls-13" x1="210.73" y1="116.89" x2="210.73" y2="134.45"/></g><path class="cls-14" d="M330.37,288.91,435.92,312.7V164.61"/><polyline class="cls-14" points="246.16 30.16 30.03 30.16 30.03 937.11 248.18 937.11"/><path class="cls-14" d="M436.4,146.09V72.88L246.16,30.16q1,453.47,2,907L436.4,833.22"/><path class="cls-15" d="M380.45,599.83l-94.56,11q0,152.73,0,305.45l128.77-71.07q.13-125.54.26-251.05l-16.13,2.25"/><path class="cls-16" d="M353.22,879.88q.13-136.39.26-272.78"/><path class="cls-14" d="M332.76,323.8,436.4,346.34V833.22"/><path class="cls-15" d="M285.89,390.38q-.51,57.74-1,115.47L415,508.5V412.57Z"/><path class="cls-17" d="M436.4,346.34v-33.2L246.7,269.63q0,18.4.08,36.81Z"/><path class="cls-17" d="M407.46,508.27V421L285.81,399.76c0-3.13.05-6.25.08-9.38L415,412.57V508.5Z"/><path class="cls-17" d="M398.81,596.41l1-.14,15.14-2.11q-.13,125.52-.26,251.05L406.09,850,404.23,606,285.94,619.11l.19-10.91,94.77-9.72"/><path class="cls-15" d="M285.55,104.89v101l131.3,28.28q.16-51.3.32-102.61Z"/><path class="cls-17" d="M416.85,234.17l-7.93-1.71q.42-47,.85-94.07L285.55,113v-8.08l131.62,26.67Q417,182.86,416.85,234.17Z"/><path class="cls-17" d="M386.12,598l7.29-1.08"/><line class="cls-18" x1="436.4" y1="160.3" x2="436.4" y2="153.07"/><line class="cls-16" x1="349.91" y1="125.09" x2="349.91" y2="218.98"/><line class="cls-19" x1="343.6" y1="740.12" x2="343.6" y2="756.88"/><line class="cls-19" x1="353.45" y1="735.9" x2="353.45" y2="752.65"/><line class="cls-19" x1="362.12" y1="736.26" x2="362.12" y2="753.01"/><polygon class="cls-17" points="246.46 269.17 29.79 269.17 29.79 307.52 246.54 305.98 246.46 269.17"/><rect class="cls-15" x="92.94" y="94.4" width="85.18" height="85.18"/><rect class="cls-15" x="92.94" y="620.26" width="85.18" height="114.03"/><polyline class="cls-15" points="92.94 414.15 92.94 389.04 178.12 389.04 178.12 509.84 92.94 509.84 92.94 439.6"/><line class="cls-12" x1="229.49" y1="64.3" x2="229.49" y2="81.86"/><line class="cls-15" x1="92.94" y1="431.8" x2="92.94" y2="422.2"/></g><path class="cls-20" d="M1013.17,575.46l-651,476.82"/><path class="cls-21" d="M716,1052.28l349-476.82"/><path class="cls-22" d="M779.27,1054.16Q928.61,814.81,1078,575.46"/><line class="cls-23" x1="1079.97" y1="575.46" x2="860.03" y2="575.46"/></g><g id="static_pumps-L" data-name="static pumps-L"><path class="cls-18" d="M130.36,954.64a58.74,58.74,0,0,0-5.88-9.63c-3.21-4-5.89-4.82-5.89-4.82s-3.74,4.95-4.28,7.22c0,0,6.69,2.62,9.9,5.92"/><path class="cls-18" d="M118.59,955.57c-2,1.38-4.48,4.57-9.43,10.87-8.29,10.56-9,12.46-9.16,14.67-.41,6,3.45,10.64,4.84,12.33s5.47,6.13,16,8.8c5.55,1.41,26.23,6.64,40.39-5.75,1.37-1.19,11.57-10.35,9.36-19.66-.37-1.56-1.24-3.85-8.57-10.2-11.62-10.06-17.43-15.09-26.12-15.67A28.37,28.37,0,0,0,118.59,955.57Z"/><path class="cls-24" d="M133.64,973.64c.21-4.21-1.94-7.7-4.89-8.57a6.63,6.63,0,0,0-4.83.65,8.17,8.17,0,0,0-4,6,20.62,20.62,0,0,1,13.71,1.89Z"/><path class="cls-24" d="M142.64,972.56c-1.38-4,.05-7.69,2-8.56a6.13,6.13,0,0,1,4.27-.15.84.84,0,0,1,.18.07,7,7,0,0,1,4,4.86,16.57,16.57,0,0,0-10.44,3.78Z"/><path class="cls-24" d="M162.08,973.46c-3.36,6.6-5.66,8.13-7.25,7.92l-4.28-2.56s-4,4.57-5.08,5-5.35-2.54-5.35-2.54-5,3.07-6.55,4.28c0,0-5.75-1.74-6.42-4.15L123,984.32l-10.24-5.64a17,17,0,0,0,3.42,7.56c6.33,7.74,18.3,6.7,25,6.12,7.14-.63,13.17-1.15,17.28-6.12C162.3,981.61,162.25,975.83,162.08,973.46Z"/></g></svg>